<?xml version="1.0" encoding="utf-8" standalone="no"?>
<!DOCTYPE svg PUBLIC "-//W3C//DTD SVG 1.1//EN"
  "http://www.w3.org/Graphics/SVG/1.1/DTD/svg11.dtd">
<!-- Created with matplotlib (https://matplotlib.org/) -->
<svg height="396pt" version="1.1" viewBox="0 0 576 396" width="576pt" xmlns="http://www.w3.org/2000/svg" xmlns:xlink="http://www.w3.org/1999/xlink">
 <defs>
  <style type="text/css">
*{stroke-linecap:butt;stroke-linejoin:round;}
  </style>
 </defs>
 <g id="figure_1">
  <g id="patch_1">
   <path d="M 0 396 
L 576 396 
L 576 0 
L 0 0 
z
" style="fill:none;"/>
  </g>
  <g id="axes_1">
   <g id="patch_2">
    <path d="M 48.98 354.04 
L 565.2 354.04 
L 565.2 25.44 
L 48.98 25.44 
z
" style="fill:#eaeaf2;"/>
   </g>
   <g id="matplotlib.axis_1">
    <g id="xtick_1">
     <g id="line2d_1">
      <path clip-path="url(#p1b9f2a8b18)" d="M 113.816283 354.04 
L 113.816283 25.44 
" style="fill:none;stroke:#ffffff;stroke-linecap:round;"/>
     </g>
     <g id="line2d_2"/>
     <g id="text_1">
      <!-- −10 -->
      <defs>
       <path d="M 4.9375 29.6875 
L 4.9375 36.8125 
L 53.515625 36.8125 
L 53.515625 29.6875 
z
" id="LiberationSans-8722"/>
       <path d="M 7.625 0 
L 7.625 7.46875 
L 25.140625 7.46875 
L 25.140625 60.40625 
L 9.625 49.3125 
L 9.625 57.625 
L 25.875 68.796875 
L 33.984375 68.796875 
L 33.984375 7.46875 
L 50.734375 7.46875 
L 50.734375 0 
z
" id="LiberationSans-49"/>
       <path d="M 51.703125 34.421875 
Q 51.703125 17.1875 45.625 8.09375 
Q 39.546875 -0.984375 27.6875 -0.984375 
Q 15.828125 -0.984375 9.859375 8.046875 
Q 3.90625 17.09375 3.90625 34.421875 
Q 3.90625 52.15625 9.6875 60.984375 
Q 15.484375 69.828125 27.984375 69.828125 
Q 40.140625 69.828125 45.921875 60.890625 
Q 51.703125 51.953125 51.703125 34.421875 
z
M 42.78125 34.421875 
Q 42.78125 49.3125 39.328125 56 
Q 35.890625 62.703125 27.984375 62.703125 
Q 19.875 62.703125 16.328125 56.109375 
Q 12.796875 49.515625 12.796875 34.421875 
Q 12.796875 19.78125 16.375 12.984375 
Q 19.96875 6.203125 27.78125 6.203125 
Q 35.546875 6.203125 39.15625 13.125 
Q 42.78125 20.0625 42.78125 34.421875 
z
" id="LiberationSans-48"/>
      </defs>
      <g style="fill:#262626;" transform="translate(105.335033 368.286875)scale(0.1 -0.1)">
       <use xlink:href="#LiberationSans-8722"/>
       <use x="58.398438" xlink:href="#LiberationSans-49"/>
       <use x="114.013672" xlink:href="#LiberationSans-48"/>
      </g>
     </g>
    </g>
    <g id="xtick_2">
     <g id="line2d_3">
      <path clip-path="url(#p1b9f2a8b18)" d="M 194.544485 354.04 
L 194.544485 25.44 
" style="fill:none;stroke:#ffffff;stroke-linecap:round;"/>
     </g>
     <g id="line2d_4"/>
     <g id="text_2">
      <!-- −5 -->
      <defs>
       <path d="M 51.421875 22.40625 
Q 51.421875 11.53125 44.953125 5.265625 
Q 38.484375 -0.984375 27 -0.984375 
Q 17.390625 -0.984375 11.46875 3.21875 
Q 5.5625 7.421875 4 15.375 
L 12.890625 16.40625 
Q 15.671875 6.203125 27.203125 6.203125 
Q 34.28125 6.203125 38.28125 10.46875 
Q 42.28125 14.75 42.28125 22.21875 
Q 42.28125 28.71875 38.25 32.71875 
Q 34.234375 36.71875 27.390625 36.71875 
Q 23.828125 36.71875 20.75 35.59375 
Q 17.671875 34.46875 14.59375 31.78125 
L 6 31.78125 
L 8.296875 68.796875 
L 47.40625 68.796875 
L 47.40625 61.328125 
L 16.3125 61.328125 
L 14.984375 39.5 
Q 20.703125 43.890625 29.203125 43.890625 
Q 39.359375 43.890625 45.390625 37.9375 
Q 51.421875 31.984375 51.421875 22.40625 
z
" id="LiberationSans-53"/>
      </defs>
      <g style="fill:#262626;" transform="translate(188.843703 368.286875)scale(0.1 -0.1)">
       <use xlink:href="#LiberationSans-8722"/>
       <use x="58.398438" xlink:href="#LiberationSans-53"/>
      </g>
     </g>
    </g>
    <g id="xtick_3">
     <g id="line2d_5">
      <path clip-path="url(#p1b9f2a8b18)" d="M 275.272687 354.04 
L 275.272687 25.44 
" style="fill:none;stroke:#ffffff;stroke-linecap:round;"/>
     </g>
     <g id="line2d_6"/>
     <g id="text_3">
      <!-- 0 -->
      <g style="fill:#262626;" transform="translate(272.492218 368.286875)scale(0.1 -0.1)">
       <use xlink:href="#LiberationSans-48"/>
      </g>
     </g>
    </g>
    <g id="xtick_4">
     <g id="line2d_7">
      <path clip-path="url(#p1b9f2a8b18)" d="M 356.000889 354.04 
L 356.000889 25.44 
" style="fill:none;stroke:#ffffff;stroke-linecap:round;"/>
     </g>
     <g id="line2d_8"/>
     <g id="text_4">
      <!-- 5 -->
      <g style="fill:#262626;" transform="translate(353.22042 368.286875)scale(0.1 -0.1)">
       <use xlink:href="#LiberationSans-53"/>
      </g>
     </g>
    </g>
    <g id="xtick_5">
     <g id="line2d_9">
      <path clip-path="url(#p1b9f2a8b18)" d="M 436.729091 354.04 
L 436.729091 25.44 
" style="fill:none;stroke:#ffffff;stroke-linecap:round;"/>
     </g>
     <g id="line2d_10"/>
     <g id="text_5">
      <!-- 10 -->
      <g style="fill:#262626;" transform="translate(431.168153 368.286875)scale(0.1 -0.1)">
       <use xlink:href="#LiberationSans-49"/>
       <use x="55.615234" xlink:href="#LiberationSans-48"/>
      </g>
     </g>
    </g>
    <g id="xtick_6">
     <g id="line2d_11">
      <path clip-path="url(#p1b9f2a8b18)" d="M 517.457293 354.04 
L 517.457293 25.44 
" style="fill:none;stroke:#ffffff;stroke-linecap:round;"/>
     </g>
     <g id="line2d_12"/>
     <g id="text_6">
      <!-- 15 -->
      <g style="fill:#262626;" transform="translate(511.896356 368.286875)scale(0.1 -0.1)">
       <use xlink:href="#LiberationSans-49"/>
       <use x="55.615234" xlink:href="#LiberationSans-53"/>
      </g>
     </g>
    </g>
    <g id="text_7">
     <!-- Contact Patch Y Displacement [mm] -->
     <defs>
      <path d="M 38.671875 62.203125 
Q 27.25 62.203125 20.890625 54.859375 
Q 14.546875 47.515625 14.546875 34.71875 
Q 14.546875 22.078125 21.15625 14.375 
Q 27.78125 6.6875 39.0625 6.6875 
Q 53.515625 6.6875 60.796875 21 
L 68.40625 17.1875 
Q 64.15625 8.296875 56.46875 3.65625 
Q 48.78125 -0.984375 38.625 -0.984375 
Q 28.21875 -0.984375 20.625 3.34375 
Q 13.03125 7.671875 9.046875 15.703125 
Q 5.078125 23.734375 5.078125 34.71875 
Q 5.078125 51.171875 13.96875 60.5 
Q 22.859375 69.828125 38.578125 69.828125 
Q 49.5625 69.828125 56.9375 65.53125 
Q 64.3125 61.234375 67.78125 52.78125 
L 58.9375 49.859375 
Q 56.546875 55.859375 51.25 59.03125 
Q 45.953125 62.203125 38.671875 62.203125 
z
" id="LiberationSans-67"/>
      <path d="M 51.421875 26.46875 
Q 51.421875 12.59375 45.3125 5.796875 
Q 39.203125 -0.984375 27.59375 -0.984375 
Q 16.015625 -0.984375 10.109375 6.078125 
Q 4.203125 13.140625 4.203125 26.46875 
Q 4.203125 53.8125 27.875 53.8125 
Q 39.984375 53.8125 45.703125 47.140625 
Q 51.421875 40.484375 51.421875 26.46875 
z
M 42.1875 26.46875 
Q 42.1875 37.40625 38.9375 42.359375 
Q 35.6875 47.3125 28.03125 47.3125 
Q 20.3125 47.3125 16.859375 42.25 
Q 13.421875 37.203125 13.421875 26.46875 
Q 13.421875 16.015625 16.8125 10.765625 
Q 20.21875 5.515625 27.484375 5.515625 
Q 35.40625 5.515625 38.796875 10.59375 
Q 42.1875 15.671875 42.1875 26.46875 
z
" id="LiberationSans-111"/>
      <path d="M 40.28125 0 
L 40.28125 33.5 
Q 40.28125 38.71875 39.25 41.59375 
Q 38.234375 44.484375 35.984375 45.75 
Q 33.734375 47.015625 29.390625 47.015625 
Q 23.046875 47.015625 19.375 42.671875 
Q 15.71875 38.328125 15.71875 30.609375 
L 15.71875 0 
L 6.9375 0 
L 6.9375 41.546875 
Q 6.9375 50.78125 6.640625 52.828125 
L 14.9375 52.828125 
Q 14.984375 52.59375 15.03125 51.515625 
Q 15.09375 50.4375 15.15625 49.046875 
Q 15.234375 47.65625 15.328125 43.796875 
L 15.484375 43.796875 
Q 18.5 49.265625 22.484375 51.53125 
Q 26.46875 53.8125 32.375 53.8125 
Q 41.0625 53.8125 45.09375 49.484375 
Q 49.125 45.171875 49.125 35.203125 
L 49.125 0 
z
" id="LiberationSans-110"/>
      <path d="M 27.046875 0.390625 
Q 22.703125 -0.78125 18.171875 -0.78125 
Q 7.625 -0.78125 7.625 11.1875 
L 7.625 46.4375 
L 1.515625 46.4375 
L 1.515625 52.828125 
L 7.953125 52.828125 
L 10.546875 64.65625 
L 16.40625 64.65625 
L 16.40625 52.828125 
L 26.171875 52.828125 
L 26.171875 46.4375 
L 16.40625 46.4375 
L 16.40625 13.09375 
Q 16.40625 9.28125 17.640625 7.734375 
Q 18.890625 6.203125 21.96875 6.203125 
Q 23.734375 6.203125 27.046875 6.890625 
z
" id="LiberationSans-116"/>
      <path d="M 20.21875 -0.984375 
Q 12.25 -0.984375 8.25 3.21875 
Q 4.25 7.421875 4.25 14.75 
Q 4.25 22.953125 9.640625 27.34375 
Q 15.046875 31.734375 27.046875 32.03125 
L 38.921875 32.234375 
L 38.921875 35.109375 
Q 38.921875 41.546875 36.1875 44.328125 
Q 33.453125 47.125 27.59375 47.125 
Q 21.6875 47.125 19 45.109375 
Q 16.3125 43.109375 15.765625 38.71875 
L 6.59375 39.546875 
Q 8.84375 53.8125 27.78125 53.8125 
Q 37.75 53.8125 42.765625 49.234375 
Q 47.796875 44.671875 47.796875 36.03125 
L 47.796875 13.28125 
Q 47.796875 9.375 48.828125 7.390625 
Q 49.859375 5.421875 52.734375 5.421875 
Q 54 5.421875 55.609375 5.765625 
L 55.609375 0.296875 
Q 52.296875 -0.484375 48.828125 -0.484375 
Q 43.953125 -0.484375 41.71875 2.078125 
Q 39.5 4.640625 39.203125 10.109375 
L 38.921875 10.109375 
Q 35.546875 4.046875 31.078125 1.53125 
Q 26.609375 -0.984375 20.21875 -0.984375 
z
M 22.21875 5.609375 
Q 27.046875 5.609375 30.8125 7.8125 
Q 34.578125 10.015625 36.75 13.84375 
Q 38.921875 17.671875 38.921875 21.734375 
L 38.921875 26.078125 
L 29.296875 25.875 
Q 23.09375 25.78125 19.890625 24.609375 
Q 16.703125 23.4375 14.984375 21 
Q 13.28125 18.5625 13.28125 14.59375 
Q 13.28125 10.296875 15.59375 7.953125 
Q 17.921875 5.609375 22.21875 5.609375 
z
" id="LiberationSans-97"/>
      <path d="M 13.421875 26.65625 
Q 13.421875 16.109375 16.734375 11.03125 
Q 20.0625 5.953125 26.765625 5.953125 
Q 31.453125 5.953125 34.59375 8.484375 
Q 37.75 11.03125 38.484375 16.3125 
L 47.359375 15.71875 
Q 46.34375 8.109375 40.875 3.5625 
Q 35.40625 -0.984375 27 -0.984375 
Q 15.921875 -0.984375 10.078125 6.015625 
Q 4.25 13.03125 4.25 26.46875 
Q 4.25 39.796875 10.109375 46.796875 
Q 15.96875 53.8125 26.90625 53.8125 
Q 35.015625 53.8125 40.359375 49.609375 
Q 45.703125 45.40625 47.078125 38.03125 
L 38.03125 37.359375 
Q 37.359375 41.75 34.5625 44.328125 
Q 31.78125 46.921875 26.65625 46.921875 
Q 19.671875 46.921875 16.546875 42.28125 
Q 13.421875 37.640625 13.421875 26.65625 
z
" id="LiberationSans-99"/>
      <path id="LiberationSans-32"/>
      <path d="M 61.421875 48.09375 
Q 61.421875 38.328125 55.046875 32.5625 
Q 48.6875 26.8125 37.75 26.8125 
L 17.53125 26.8125 
L 17.53125 0 
L 8.203125 0 
L 8.203125 68.796875 
L 37.15625 68.796875 
Q 48.734375 68.796875 55.078125 63.375 
Q 61.421875 57.953125 61.421875 48.09375 
z
M 52.046875 48 
Q 52.046875 61.328125 36.03125 61.328125 
L 17.53125 61.328125 
L 17.53125 34.1875 
L 36.421875 34.1875 
Q 52.046875 34.1875 52.046875 48 
z
" id="LiberationSans-80"/>
      <path d="M 15.484375 43.796875 
Q 18.3125 48.96875 22.28125 51.390625 
Q 26.265625 53.8125 32.375 53.8125 
Q 40.96875 53.8125 45.046875 49.53125 
Q 49.125 45.265625 49.125 35.203125 
L 49.125 0 
L 40.28125 0 
L 40.28125 33.5 
Q 40.28125 39.0625 39.25 41.765625 
Q 38.234375 44.484375 35.890625 45.75 
Q 33.546875 47.015625 29.390625 47.015625 
Q 23.1875 47.015625 19.453125 42.71875 
Q 15.71875 38.421875 15.71875 31.15625 
L 15.71875 0 
L 6.9375 0 
L 6.9375 72.46875 
L 15.71875 72.46875 
L 15.71875 53.609375 
Q 15.71875 50.640625 15.546875 47.453125 
Q 15.375 44.28125 15.328125 43.796875 
z
" id="LiberationSans-104"/>
      <path d="M 37.9375 28.515625 
L 37.9375 0 
L 28.65625 0 
L 28.65625 28.515625 
L 2.203125 68.796875 
L 12.453125 68.796875 
L 33.40625 36.03125 
L 54.25 68.796875 
L 64.5 68.796875 
z
" id="LiberationSans-89"/>
      <path d="M 67.4375 35.109375 
Q 67.4375 24.46875 63.28125 16.484375 
Q 59.125 8.5 51.5 4.25 
Q 43.890625 0 33.9375 0 
L 8.203125 0 
L 8.203125 68.796875 
L 30.953125 68.796875 
Q 48.4375 68.796875 57.9375 60.03125 
Q 67.4375 51.265625 67.4375 35.109375 
z
M 58.0625 35.109375 
Q 58.0625 47.90625 51.046875 54.609375 
Q 44.046875 61.328125 30.765625 61.328125 
L 17.53125 61.328125 
L 17.53125 7.46875 
L 32.859375 7.46875 
Q 40.4375 7.46875 46.171875 10.78125 
Q 51.90625 14.109375 54.984375 20.359375 
Q 58.0625 26.609375 58.0625 35.109375 
z
" id="LiberationSans-68"/>
      <path d="M 6.6875 64.0625 
L 6.6875 72.46875 
L 15.484375 72.46875 
L 15.484375 64.0625 
z
M 6.6875 0 
L 6.6875 52.828125 
L 15.484375 52.828125 
L 15.484375 0 
z
" id="LiberationSans-105"/>
      <path d="M 46.390625 14.59375 
Q 46.390625 7.125 40.75 3.0625 
Q 35.109375 -0.984375 24.953125 -0.984375 
Q 15.09375 -0.984375 9.734375 2.265625 
Q 4.390625 5.515625 2.78125 12.40625 
L 10.546875 13.921875 
Q 11.671875 9.671875 15.1875 7.6875 
Q 18.703125 5.71875 24.953125 5.71875 
Q 31.640625 5.71875 34.734375 7.765625 
Q 37.84375 9.8125 37.84375 13.921875 
Q 37.84375 17.046875 35.6875 19 
Q 33.546875 20.953125 28.765625 22.21875 
L 22.46875 23.875 
Q 14.890625 25.828125 11.6875 27.703125 
Q 8.5 29.59375 6.6875 32.28125 
Q 4.890625 34.96875 4.890625 38.875 
Q 4.890625 46.09375 10.03125 49.875 
Q 15.1875 53.65625 25.046875 53.65625 
Q 33.796875 53.65625 38.9375 50.578125 
Q 44.09375 47.515625 45.453125 40.71875 
L 37.546875 39.75 
Q 36.8125 43.265625 33.609375 45.140625 
Q 30.421875 47.015625 25.046875 47.015625 
Q 19.09375 47.015625 16.25 45.203125 
Q 13.421875 43.40625 13.421875 39.75 
Q 13.421875 37.5 14.59375 36.03125 
Q 15.765625 34.578125 18.0625 33.546875 
Q 20.359375 32.515625 27.734375 30.71875 
Q 34.71875 28.953125 37.796875 27.46875 
Q 40.875 25.984375 42.65625 24.171875 
Q 44.4375 22.359375 45.40625 19.984375 
Q 46.390625 17.625 46.390625 14.59375 
z
" id="LiberationSans-115"/>
      <path d="M 51.421875 26.65625 
Q 51.421875 -0.984375 31.984375 -0.984375 
Q 19.78125 -0.984375 15.578125 8.203125 
L 15.328125 8.203125 
Q 15.53125 7.8125 15.53125 -0.09375 
L 15.53125 -20.75 
L 6.734375 -20.75 
L 6.734375 42.046875 
Q 6.734375 50.203125 6.453125 52.828125 
L 14.9375 52.828125 
Q 14.984375 52.640625 15.078125 51.4375 
Q 15.1875 50.25 15.3125 47.75 
Q 15.4375 45.265625 15.4375 44.34375 
L 15.625 44.34375 
Q 17.96875 49.21875 21.828125 51.484375 
Q 25.6875 53.765625 31.984375 53.765625 
Q 41.75 53.765625 46.578125 47.21875 
Q 51.421875 40.671875 51.421875 26.65625 
z
M 42.1875 26.46875 
Q 42.1875 37.5 39.203125 42.234375 
Q 36.234375 46.96875 29.734375 46.96875 
Q 24.515625 46.96875 21.5625 44.765625 
Q 18.609375 42.578125 17.0625 37.90625 
Q 15.53125 33.25 15.53125 25.78125 
Q 15.53125 15.375 18.84375 10.4375 
Q 22.171875 5.515625 29.640625 5.515625 
Q 36.1875 5.515625 39.1875 10.328125 
Q 42.1875 15.140625 42.1875 26.46875 
z
" id="LiberationSans-112"/>
      <path d="M 6.734375 0 
L 6.734375 72.46875 
L 15.53125 72.46875 
L 15.53125 0 
z
" id="LiberationSans-108"/>
      <path d="M 13.484375 24.5625 
Q 13.484375 15.484375 17.234375 10.546875 
Q 21 5.609375 28.21875 5.609375 
Q 33.9375 5.609375 37.375 7.90625 
Q 40.828125 10.203125 42.046875 13.71875 
L 49.75 11.53125 
Q 45.015625 -0.984375 28.21875 -0.984375 
Q 16.5 -0.984375 10.375 6 
Q 4.25 12.984375 4.25 26.765625 
Q 4.25 39.84375 10.375 46.828125 
Q 16.5 53.8125 27.875 53.8125 
Q 51.171875 53.8125 51.171875 25.734375 
L 51.171875 24.5625 
z
M 42.09375 31.296875 
Q 41.359375 39.65625 37.84375 43.484375 
Q 34.328125 47.3125 27.734375 47.3125 
Q 21.34375 47.3125 17.609375 43.03125 
Q 13.875 38.765625 13.578125 31.296875 
z
" id="LiberationSans-101"/>
      <path d="M 37.5 0 
L 37.5 33.5 
Q 37.5 41.15625 35.390625 44.078125 
Q 33.296875 47.015625 27.828125 47.015625 
Q 22.21875 47.015625 18.9375 42.71875 
Q 15.671875 38.421875 15.671875 30.609375 
L 15.671875 0 
L 6.9375 0 
L 6.9375 41.546875 
Q 6.9375 50.78125 6.640625 52.828125 
L 14.9375 52.828125 
Q 14.984375 52.59375 15.03125 51.515625 
Q 15.09375 50.4375 15.15625 49.046875 
Q 15.234375 47.65625 15.328125 43.796875 
L 15.484375 43.796875 
Q 18.3125 49.421875 21.96875 51.609375 
Q 25.640625 53.8125 30.90625 53.8125 
Q 36.921875 53.8125 40.40625 51.421875 
Q 43.890625 49.03125 45.265625 43.796875 
L 45.40625 43.796875 
Q 48.140625 49.125 52.015625 51.46875 
Q 55.90625 53.8125 61.421875 53.8125 
Q 69.4375 53.8125 73.0625 49.46875 
Q 76.703125 45.125 76.703125 35.203125 
L 76.703125 0 
L 68.015625 0 
L 68.015625 33.5 
Q 68.015625 41.15625 65.90625 44.078125 
Q 63.8125 47.015625 58.34375 47.015625 
Q 52.59375 47.015625 49.390625 42.75 
Q 46.1875 38.484375 46.1875 30.609375 
L 46.1875 0 
z
" id="LiberationSans-109"/>
      <path d="M 7.125 -20.75 
L 7.125 72.46875 
L 27 72.46875 
L 27 66.15625 
L 15.625 66.15625 
L 15.625 -14.453125 
L 27 -14.453125 
L 27 -20.75 
z
" id="LiberationSans-91"/>
      <path d="M 0.78125 -20.75 
L 0.78125 -14.453125 
L 12.15625 -14.453125 
L 12.15625 66.15625 
L 0.78125 66.15625 
L 0.78125 72.46875 
L 20.65625 72.46875 
L 20.65625 -20.75 
z
" id="LiberationSans-93"/>
     </defs>
     <g style="fill:#262626;" transform="translate(218.948203 382.333437)scale(0.11 -0.11)">
      <use xlink:href="#LiberationSans-67"/>
      <use x="72.216797" xlink:href="#LiberationSans-111"/>
      <use x="127.832031" xlink:href="#LiberationSans-110"/>
      <use x="183.447266" xlink:href="#LiberationSans-116"/>
      <use x="211.230469" xlink:href="#LiberationSans-97"/>
      <use x="266.845703" xlink:href="#LiberationSans-99"/>
      <use x="316.845703" xlink:href="#LiberationSans-116"/>
      <use x="344.628906" xlink:href="#LiberationSans-32"/>
      <use x="372.412109" xlink:href="#LiberationSans-80"/>
      <use x="439.111328" xlink:href="#LiberationSans-97"/>
      <use x="494.726562" xlink:href="#LiberationSans-116"/>
      <use x="522.509766" xlink:href="#LiberationSans-99"/>
      <use x="572.509766" xlink:href="#LiberationSans-104"/>
      <use x="628.125" xlink:href="#LiberationSans-32"/>
      <use x="654.158203" xlink:href="#LiberationSans-89"/>
      <use x="719.107422" xlink:href="#LiberationSans-32"/>
      <use x="746.890625" xlink:href="#LiberationSans-68"/>
      <use x="819.107422" xlink:href="#LiberationSans-105"/>
      <use x="841.324219" xlink:href="#LiberationSans-115"/>
      <use x="891.324219" xlink:href="#LiberationSans-112"/>
      <use x="946.939453" xlink:href="#LiberationSans-108"/>
      <use x="969.15625" xlink:href="#LiberationSans-97"/>
      <use x="1024.771484" xlink:href="#LiberationSans-99"/>
      <use x="1074.771484" xlink:href="#LiberationSans-101"/>
      <use x="1130.386719" xlink:href="#LiberationSans-109"/>
      <use x="1213.6875" xlink:href="#LiberationSans-101"/>
      <use x="1269.302734" xlink:href="#LiberationSans-110"/>
      <use x="1324.917969" xlink:href="#LiberationSans-116"/>
      <use x="1352.701172" xlink:href="#LiberationSans-32"/>
      <use x="1380.484375" xlink:href="#LiberationSans-91"/>
      <use x="1408.267578" xlink:href="#LiberationSans-109"/>
      <use x="1491.568359" xlink:href="#LiberationSans-109"/>
      <use x="1574.869141" xlink:href="#LiberationSans-93"/>
     </g>
    </g>
   </g>
   <g id="matplotlib.axis_2">
    <g id="ytick_1">
     <g id="line2d_13">
      <path clip-path="url(#p1b9f2a8b18)" d="M 48.98 319.830909 
L 565.2 319.830909 
" style="fill:none;stroke:#ffffff;stroke-linecap:round;"/>
     </g>
     <g id="line2d_14"/>
     <g id="text_8">
      <!-- −40 -->
      <defs>
       <path d="M 43.015625 15.578125 
L 43.015625 0 
L 34.71875 0 
L 34.71875 15.578125 
L 2.296875 15.578125 
L 2.296875 22.40625 
L 33.796875 68.796875 
L 43.015625 68.796875 
L 43.015625 22.515625 
L 52.6875 22.515625 
L 52.6875 15.578125 
z
M 34.71875 58.890625 
Q 34.625 58.59375 33.34375 56.296875 
Q 32.078125 54 31.453125 53.078125 
L 13.8125 27.09375 
L 11.1875 23.484375 
L 10.40625 22.515625 
L 34.71875 22.515625 
z
" id="LiberationSans-52"/>
      </defs>
      <g style="fill:#262626;" transform="translate(25.0175 323.454347)scale(0.1 -0.1)">
       <use xlink:href="#LiberationSans-8722"/>
       <use x="58.398438" xlink:href="#LiberationSans-52"/>
       <use x="114.013672" xlink:href="#LiberationSans-48"/>
      </g>
     </g>
    </g>
    <g id="ytick_2">
     <g id="line2d_15">
      <path clip-path="url(#p1b9f2a8b18)" d="M 48.98 281.285455 
L 565.2 281.285455 
" style="fill:none;stroke:#ffffff;stroke-linecap:round;"/>
     </g>
     <g id="line2d_16"/>
     <g id="text_9">
      <!-- −20 -->
      <defs>
       <path d="M 5.03125 0 
L 5.03125 6.203125 
Q 7.515625 11.921875 11.109375 16.28125 
Q 14.703125 20.65625 18.65625 24.1875 
Q 22.609375 27.734375 26.484375 30.765625 
Q 30.375 33.796875 33.5 36.8125 
Q 36.625 39.84375 38.546875 43.15625 
Q 40.484375 46.484375 40.484375 50.6875 
Q 40.484375 56.34375 37.15625 59.46875 
Q 33.84375 62.59375 27.9375 62.59375 
Q 22.3125 62.59375 18.671875 59.546875 
Q 15.046875 56.5 14.40625 50.984375 
L 5.421875 51.8125 
Q 6.390625 60.0625 12.421875 64.9375 
Q 18.453125 69.828125 27.9375 69.828125 
Q 38.328125 69.828125 43.921875 64.921875 
Q 49.515625 60.015625 49.515625 50.984375 
Q 49.515625 46.96875 47.671875 43.015625 
Q 45.84375 39.0625 42.234375 35.109375 
Q 38.625 31.15625 28.421875 22.859375 
Q 22.796875 18.265625 19.46875 14.578125 
Q 16.15625 10.890625 14.703125 7.46875 
L 50.59375 7.46875 
L 50.59375 0 
z
" id="LiberationSans-50"/>
      </defs>
      <g style="fill:#262626;" transform="translate(25.0175 284.908892)scale(0.1 -0.1)">
       <use xlink:href="#LiberationSans-8722"/>
       <use x="58.398438" xlink:href="#LiberationSans-50"/>
       <use x="114.013672" xlink:href="#LiberationSans-48"/>
      </g>
     </g>
    </g>
    <g id="ytick_3">
     <g id="line2d_17">
      <path clip-path="url(#p1b9f2a8b18)" d="M 48.98 242.74 
L 565.2 242.74 
" style="fill:none;stroke:#ffffff;stroke-linecap:round;"/>
     </g>
     <g id="line2d_18"/>
     <g id="text_10">
      <!-- 0 -->
      <g style="fill:#262626;" transform="translate(36.419063 246.363437)scale(0.1 -0.1)">
       <use xlink:href="#LiberationSans-48"/>
      </g>
     </g>
    </g>
    <g id="ytick_4">
     <g id="line2d_19">
      <path clip-path="url(#p1b9f2a8b18)" d="M 48.98 204.194545 
L 565.2 204.194545 
" style="fill:none;stroke:#ffffff;stroke-linecap:round;"/>
     </g>
     <g id="line2d_20"/>
     <g id="text_11">
      <!-- 20 -->
      <g style="fill:#262626;" transform="translate(30.858125 207.817983)scale(0.1 -0.1)">
       <use xlink:href="#LiberationSans-50"/>
       <use x="55.615234" xlink:href="#LiberationSans-48"/>
      </g>
     </g>
    </g>
    <g id="ytick_5">
     <g id="line2d_21">
      <path clip-path="url(#p1b9f2a8b18)" d="M 48.98 165.649091 
L 565.2 165.649091 
" style="fill:none;stroke:#ffffff;stroke-linecap:round;"/>
     </g>
     <g id="line2d_22"/>
     <g id="text_12">
      <!-- 40 -->
      <g style="fill:#262626;" transform="translate(30.858125 169.272528)scale(0.1 -0.1)">
       <use xlink:href="#LiberationSans-52"/>
       <use x="55.615234" xlink:href="#LiberationSans-48"/>
      </g>
     </g>
    </g>
    <g id="ytick_6">
     <g id="line2d_23">
      <path clip-path="url(#p1b9f2a8b18)" d="M 48.98 127.103636 
L 565.2 127.103636 
" style="fill:none;stroke:#ffffff;stroke-linecap:round;"/>
     </g>
     <g id="line2d_24"/>
     <g id="text_13">
      <!-- 60 -->
      <defs>
       <path d="M 51.21875 22.515625 
Q 51.21875 11.625 45.3125 5.3125 
Q 39.40625 -0.984375 29 -0.984375 
Q 17.390625 -0.984375 11.234375 7.65625 
Q 5.078125 16.3125 5.078125 32.8125 
Q 5.078125 50.6875 11.46875 60.25 
Q 17.875 69.828125 29.6875 69.828125 
Q 45.265625 69.828125 49.3125 55.8125 
L 40.921875 54.296875 
Q 38.328125 62.703125 29.59375 62.703125 
Q 22.078125 62.703125 17.9375 55.6875 
Q 13.8125 48.6875 13.8125 35.40625 
Q 16.21875 39.84375 20.5625 42.15625 
Q 24.90625 44.484375 30.515625 44.484375 
Q 40.046875 44.484375 45.625 38.515625 
Q 51.21875 32.5625 51.21875 22.515625 
z
M 42.28125 22.125 
Q 42.28125 29.59375 38.625 33.640625 
Q 34.96875 37.703125 28.421875 37.703125 
Q 22.265625 37.703125 18.484375 34.109375 
Q 14.703125 30.515625 14.703125 24.21875 
Q 14.703125 16.265625 18.625 11.1875 
Q 22.5625 6.109375 28.71875 6.109375 
Q 35.0625 6.109375 38.671875 10.375 
Q 42.28125 14.65625 42.28125 22.125 
z
" id="LiberationSans-54"/>
      </defs>
      <g style="fill:#262626;" transform="translate(30.858125 130.727074)scale(0.1 -0.1)">
       <use xlink:href="#LiberationSans-54"/>
       <use x="55.615234" xlink:href="#LiberationSans-48"/>
      </g>
     </g>
    </g>
    <g id="ytick_7">
     <g id="line2d_25">
      <path clip-path="url(#p1b9f2a8b18)" d="M 48.98 88.558182 
L 565.2 88.558182 
" style="fill:none;stroke:#ffffff;stroke-linecap:round;"/>
     </g>
     <g id="line2d_26"/>
     <g id="text_14">
      <!-- 80 -->
      <defs>
       <path d="M 51.265625 19.1875 
Q 51.265625 9.671875 45.203125 4.34375 
Q 39.15625 -0.984375 27.828125 -0.984375 
Q 16.796875 -0.984375 10.5625 4.234375 
Q 4.34375 9.46875 4.34375 19.09375 
Q 4.34375 25.828125 8.203125 30.421875 
Q 12.0625 35.015625 18.0625 35.984375 
L 18.0625 36.1875 
Q 12.453125 37.5 9.203125 41.890625 
Q 5.953125 46.296875 5.953125 52.203125 
Q 5.953125 60.0625 11.828125 64.9375 
Q 17.71875 69.828125 27.640625 69.828125 
Q 37.796875 69.828125 43.671875 65.03125 
Q 49.5625 60.25 49.5625 52.09375 
Q 49.5625 46.1875 46.28125 41.796875 
Q 43.015625 37.40625 37.359375 36.28125 
L 37.359375 36.078125 
Q 43.953125 35.015625 47.609375 30.5 
Q 51.265625 25.984375 51.265625 19.1875 
z
M 40.4375 51.609375 
Q 40.4375 63.28125 27.640625 63.28125 
Q 21.4375 63.28125 18.1875 60.34375 
Q 14.9375 57.421875 14.9375 51.609375 
Q 14.9375 45.703125 18.28125 42.59375 
Q 21.625 39.5 27.734375 39.5 
Q 33.9375 39.5 37.1875 42.359375 
Q 40.4375 45.21875 40.4375 51.609375 
z
M 42.140625 20.015625 
Q 42.140625 26.421875 38.328125 29.65625 
Q 34.515625 32.90625 27.640625 32.90625 
Q 20.953125 32.90625 17.1875 29.40625 
Q 13.421875 25.921875 13.421875 19.828125 
Q 13.421875 5.609375 27.9375 5.609375 
Q 35.109375 5.609375 38.625 9.046875 
Q 42.140625 12.5 42.140625 20.015625 
z
" id="LiberationSans-56"/>
      </defs>
      <g style="fill:#262626;" transform="translate(30.858125 92.181619)scale(0.1 -0.1)">
       <use xlink:href="#LiberationSans-56"/>
       <use x="55.615234" xlink:href="#LiberationSans-48"/>
      </g>
     </g>
    </g>
    <g id="ytick_8">
     <g id="line2d_27">
      <path clip-path="url(#p1b9f2a8b18)" d="M 48.98 50.012727 
L 565.2 50.012727 
" style="fill:none;stroke:#ffffff;stroke-linecap:round;"/>
     </g>
     <g id="line2d_28"/>
     <g id="text_15">
      <!-- 100 -->
      <g style="fill:#262626;" transform="translate(25.297188 53.636165)scale(0.1 -0.1)">
       <use xlink:href="#LiberationSans-49"/>
       <use x="55.615234" xlink:href="#LiberationSans-48"/>
       <use x="111.230469" xlink:href="#LiberationSans-48"/>
      </g>
     </g>
    </g>
    <g id="text_16">
     <!-- Contact Patch Z Displacement [mm] -->
     <defs>
      <path d="M 57.953125 0 
L 3.171875 0 
L 3.171875 6.984375 
L 45.0625 61.1875 
L 6.734375 61.1875 
L 6.734375 68.796875 
L 55.671875 68.796875 
L 55.671875 62.015625 
L 13.765625 7.625 
L 57.953125 7.625 
z
" id="LiberationSans-90"/>
     </defs>
     <g style="fill:#262626;" transform="translate(18.735 277.764922)rotate(-90)scale(0.11 -0.11)">
      <use xlink:href="#LiberationSans-67"/>
      <use x="72.216797" xlink:href="#LiberationSans-111"/>
      <use x="127.832031" xlink:href="#LiberationSans-110"/>
      <use x="183.447266" xlink:href="#LiberationSans-116"/>
      <use x="211.230469" xlink:href="#LiberationSans-97"/>
      <use x="266.845703" xlink:href="#LiberationSans-99"/>
      <use x="316.845703" xlink:href="#LiberationSans-116"/>
      <use x="344.628906" xlink:href="#LiberationSans-32"/>
      <use x="372.412109" xlink:href="#LiberationSans-80"/>
      <use x="439.111328" xlink:href="#LiberationSans-97"/>
      <use x="494.726562" xlink:href="#LiberationSans-116"/>
      <use x="522.509766" xlink:href="#LiberationSans-99"/>
      <use x="572.509766" xlink:href="#LiberationSans-104"/>
      <use x="628.125" xlink:href="#LiberationSans-32"/>
      <use x="655.908203" xlink:href="#LiberationSans-90"/>
      <use x="716.992188" xlink:href="#LiberationSans-32"/>
      <use x="744.775391" xlink:href="#LiberationSans-68"/>
      <use x="816.992188" xlink:href="#LiberationSans-105"/>
      <use x="839.208984" xlink:href="#LiberationSans-115"/>
      <use x="889.208984" xlink:href="#LiberationSans-112"/>
      <use x="944.824219" xlink:href="#LiberationSans-108"/>
      <use x="967.041016" xlink:href="#LiberationSans-97"/>
      <use x="1022.65625" xlink:href="#LiberationSans-99"/>
      <use x="1072.65625" xlink:href="#LiberationSans-101"/>
      <use x="1128.271484" xlink:href="#LiberationSans-109"/>
      <use x="1211.572266" xlink:href="#LiberationSans-101"/>
      <use x="1267.1875" xlink:href="#LiberationSans-110"/>
      <use x="1322.802734" xlink:href="#LiberationSans-116"/>
      <use x="1350.585938" xlink:href="#LiberationSans-32"/>
      <use x="1378.369141" xlink:href="#LiberationSans-91"/>
      <use x="1406.152344" xlink:href="#LiberationSans-109"/>
      <use x="1489.453125" xlink:href="#LiberationSans-109"/>
      <use x="1572.753906" xlink:href="#LiberationSans-93"/>
     </g>
    </g>
   </g>
   <g id="line2d_29">
    <path clip-path="url(#p1b9f2a8b18)" d="M 72.444545 339.103636 
L 95.692436 329.467273 
L 118.251246 319.830909 
L 140.129932 310.194545 
L 161.33911 300.558182 
L 181.890732 290.921818 
L 201.797859 281.285455 
L 221.074481 271.649091 
L 239.735389 262.012727 
L 257.796079 252.376364 
L 275.272687 242.74 
L 292.181931 233.103636 
L 308.541089 223.467273 
L 324.367968 213.830909 
L 339.680901 204.194545 
L 354.498738 194.558182 
L 368.84085 184.921818 
L 382.727135 175.285455 
L 396.178022 165.649091 
L 409.214489 156.012727 
L 421.858065 146.376364 
L 434.130845 136.74 
L 446.055497 127.103636 
L 457.655267 117.467273 
L 468.953985 107.830909 
L 479.976057 98.194545 
L 490.746464 88.558182 
L 501.290744 78.921818 
L 511.634974 69.285455 
L 521.805735 59.649091 
L 531.830074 50.012727 
L 541.735455 40.376364 
" style="fill:none;stroke:#4c72b0;stroke-linecap:round;stroke-width:1.75;"/>
   </g>
   <g id="patch_3">
    <path d="M 48.98 354.04 
L 48.98 25.44 
" style="fill:none;"/>
   </g>
   <g id="patch_4">
    <path d="M 565.2 354.04 
L 565.2 25.44 
" style="fill:none;"/>
   </g>
   <g id="patch_5">
    <path d="M 48.98 354.04 
L 565.2 354.04 
" style="fill:none;"/>
   </g>
   <g id="patch_6">
    <path d="M 48.98 25.44 
L 565.2 25.44 
" style="fill:none;"/>
   </g>
   <g id="text_17">
    <!-- 2002 Acura RSX - Rear Left - Half Track Variation -->
    <defs>
     <path d="M 56.984375 0 
L 49.125 20.125 
L 17.78125 20.125 
L 9.859375 0 
L 0.203125 0 
L 28.265625 68.796875 
L 38.875 68.796875 
L 66.5 0 
z
M 33.453125 61.765625 
L 33.015625 60.40625 
Q 31.78125 56.34375 29.390625 50 
L 20.609375 27.390625 
L 46.34375 27.390625 
L 37.5 50.09375 
Q 36.140625 53.46875 34.765625 57.71875 
z
" id="LiberationSans-65"/>
     <path d="M 15.328125 52.828125 
L 15.328125 19.34375 
Q 15.328125 14.109375 16.359375 11.21875 
Q 17.390625 8.34375 19.625 7.078125 
Q 21.875 5.8125 26.21875 5.8125 
Q 32.5625 5.8125 36.21875 10.15625 
Q 39.890625 14.5 39.890625 22.21875 
L 39.890625 52.828125 
L 48.6875 52.828125 
L 48.6875 11.28125 
Q 48.6875 2.046875 48.96875 0 
L 40.671875 0 
Q 40.625 0.25 40.578125 1.3125 
Q 40.53125 2.390625 40.453125 3.78125 
Q 40.375 5.171875 40.28125 9.03125 
L 40.140625 9.03125 
Q 37.109375 3.5625 33.125 1.28125 
Q 29.15625 -0.984375 23.25 -0.984375 
Q 14.546875 -0.984375 10.515625 3.34375 
Q 6.5 7.671875 6.5 17.625 
L 6.5 52.828125 
z
" id="LiberationSans-117"/>
     <path d="M 6.9375 0 
L 6.9375 40.53125 
Q 6.9375 46.09375 6.640625 52.828125 
L 14.9375 52.828125 
Q 15.328125 43.84375 15.328125 42.046875 
L 15.53125 42.046875 
Q 17.625 48.828125 20.359375 51.3125 
Q 23.09375 53.8125 28.078125 53.8125 
Q 29.828125 53.8125 31.640625 53.328125 
L 31.640625 45.265625 
Q 29.890625 45.75 26.953125 45.75 
Q 21.484375 45.75 18.59375 41.03125 
Q 15.71875 36.328125 15.71875 27.546875 
L 15.71875 0 
z
" id="LiberationSans-114"/>
     <path d="M 56.84375 0 
L 38.96875 28.5625 
L 17.53125 28.5625 
L 17.53125 0 
L 8.203125 0 
L 8.203125 68.796875 
L 40.578125 68.796875 
Q 52.203125 68.796875 58.515625 63.59375 
Q 64.84375 58.40625 64.84375 49.125 
Q 64.84375 41.453125 60.375 36.21875 
Q 55.90625 31 48.046875 29.640625 
L 67.578125 0 
z
M 55.46875 49.03125 
Q 55.46875 55.03125 51.390625 58.171875 
Q 47.3125 61.328125 39.65625 61.328125 
L 17.53125 61.328125 
L 17.53125 35.9375 
L 40.046875 35.9375 
Q 47.40625 35.9375 51.4375 39.375 
Q 55.46875 42.828125 55.46875 49.03125 
z
" id="LiberationSans-82"/>
     <path d="M 62.109375 19 
Q 62.109375 9.46875 54.65625 4.234375 
Q 47.21875 -0.984375 33.6875 -0.984375 
Q 8.546875 -0.984375 4.546875 16.5 
L 13.578125 18.3125 
Q 15.140625 12.109375 20.21875 9.203125 
Q 25.296875 6.296875 34.03125 6.296875 
Q 43.0625 6.296875 47.96875 9.390625 
Q 52.875 12.5 52.875 18.5 
Q 52.875 21.875 51.34375 23.96875 
Q 49.8125 26.078125 47.015625 27.4375 
Q 44.234375 28.8125 40.375 29.734375 
Q 36.53125 30.671875 31.84375 31.734375 
Q 23.6875 33.546875 19.453125 35.34375 
Q 15.234375 37.15625 12.796875 39.375 
Q 10.359375 41.609375 9.0625 44.578125 
Q 7.765625 47.5625 7.765625 51.421875 
Q 7.765625 60.25 14.53125 65.03125 
Q 21.296875 69.828125 33.890625 69.828125 
Q 45.609375 69.828125 51.8125 66.234375 
Q 58.015625 62.640625 60.5 54 
L 51.3125 52.390625 
Q 49.8125 57.859375 45.5625 60.328125 
Q 41.3125 62.796875 33.796875 62.796875 
Q 25.53125 62.796875 21.1875 60.0625 
Q 16.84375 57.328125 16.84375 51.90625 
Q 16.84375 48.734375 18.53125 46.65625 
Q 20.21875 44.578125 23.390625 43.140625 
Q 26.5625 41.703125 36.03125 39.59375 
Q 39.203125 38.875 42.359375 38.109375 
Q 45.515625 37.359375 48.390625 36.296875 
Q 51.265625 35.25 53.78125 33.828125 
Q 56.296875 32.421875 58.15625 30.375 
Q 60.015625 28.328125 61.0625 25.53125 
Q 62.109375 22.75 62.109375 19 
z
" id="LiberationSans-83"/>
     <path d="M 54.296875 0 
L 33.640625 30.078125 
L 12.546875 0 
L 2.25 0 
L 28.421875 35.75 
L 4.25 68.796875 
L 14.546875 68.796875 
L 33.6875 41.796875 
L 52.296875 68.796875 
L 62.59375 68.796875 
L 39.0625 36.078125 
L 64.59375 0 
z
" id="LiberationSans-88"/>
     <path d="M 4.4375 22.65625 
L 4.4375 30.46875 
L 28.859375 30.46875 
L 28.859375 22.65625 
z
" id="LiberationSans-45"/>
     <path d="M 8.203125 0 
L 8.203125 68.796875 
L 17.53125 68.796875 
L 17.53125 7.625 
L 52.296875 7.625 
L 52.296875 0 
z
" id="LiberationSans-76"/>
     <path d="M 17.625 46.4375 
L 17.625 0 
L 8.84375 0 
L 8.84375 46.4375 
L 1.421875 46.4375 
L 1.421875 52.828125 
L 8.84375 52.828125 
L 8.84375 58.796875 
Q 8.84375 66.015625 12.015625 69.1875 
Q 15.1875 72.359375 21.734375 72.359375 
Q 25.390625 72.359375 27.9375 71.78125 
L 27.9375 65.09375 
Q 25.734375 65.484375 24.03125 65.484375 
Q 20.65625 65.484375 19.140625 63.765625 
Q 17.625 62.0625 17.625 57.5625 
L 17.625 52.828125 
L 27.9375 52.828125 
L 27.9375 46.4375 
z
" id="LiberationSans-102"/>
     <path d="M 54.734375 0 
L 54.734375 31.890625 
L 17.53125 31.890625 
L 17.53125 0 
L 8.203125 0 
L 8.203125 68.796875 
L 17.53125 68.796875 
L 17.53125 39.703125 
L 54.734375 39.703125 
L 54.734375 68.796875 
L 64.0625 68.796875 
L 64.0625 0 
z
" id="LiberationSans-72"/>
     <path d="M 35.15625 61.1875 
L 35.15625 0 
L 25.875 0 
L 25.875 61.1875 
L 2.25 61.1875 
L 2.25 68.796875 
L 58.796875 68.796875 
L 58.796875 61.1875 
z
" id="LiberationSans-84"/>
     <path d="M 39.84375 0 
L 21.96875 24.125 
L 15.53125 18.796875 
L 15.53125 0 
L 6.734375 0 
L 6.734375 72.46875 
L 15.53125 72.46875 
L 15.53125 27.203125 
L 38.71875 52.828125 
L 49.03125 52.828125 
L 27.59375 30.125 
L 50.140625 0 
z
" id="LiberationSans-107"/>
     <path d="M 38.1875 0 
L 28.515625 0 
L 0.4375 68.796875 
L 10.25 68.796875 
L 29.296875 20.359375 
L 33.40625 8.203125 
L 37.5 20.359375 
L 56.453125 68.796875 
L 66.265625 68.796875 
z
" id="LiberationSans-86"/>
    </defs>
    <g style="fill:#262626;" transform="translate(175.479062 19.44)scale(0.12 -0.12)">
     <use xlink:href="#LiberationSans-50"/>
     <use x="55.615234" xlink:href="#LiberationSans-48"/>
     <use x="111.230469" xlink:href="#LiberationSans-48"/>
     <use x="166.845703" xlink:href="#LiberationSans-50"/>
     <use x="222.460938" xlink:href="#LiberationSans-32"/>
     <use x="244.744141" xlink:href="#LiberationSans-65"/>
     <use x="311.443359" xlink:href="#LiberationSans-99"/>
     <use x="361.443359" xlink:href="#LiberationSans-117"/>
     <use x="417.058594" xlink:href="#LiberationSans-114"/>
     <use x="450.359375" xlink:href="#LiberationSans-97"/>
     <use x="505.974609" xlink:href="#LiberationSans-32"/>
     <use x="533.757812" xlink:href="#LiberationSans-82"/>
     <use x="605.974609" xlink:href="#LiberationSans-83"/>
     <use x="672.673828" xlink:href="#LiberationSans-88"/>
     <use x="739.373047" xlink:href="#LiberationSans-32"/>
     <use x="767.15625" xlink:href="#LiberationSans-45"/>
     <use x="800.457031" xlink:href="#LiberationSans-32"/>
     <use x="828.240234" xlink:href="#LiberationSans-82"/>
     <use x="900.457031" xlink:href="#LiberationSans-101"/>
     <use x="956.072266" xlink:href="#LiberationSans-97"/>
     <use x="1011.6875" xlink:href="#LiberationSans-114"/>
     <use x="1044.988281" xlink:href="#LiberationSans-32"/>
     <use x="1072.771484" xlink:href="#LiberationSans-76"/>
     <use x="1128.386719" xlink:href="#LiberationSans-101"/>
     <use x="1184.001953" xlink:href="#LiberationSans-102"/>
     <use x="1211.785156" xlink:href="#LiberationSans-116"/>
     <use x="1239.568359" xlink:href="#LiberationSans-32"/>
     <use x="1267.351562" xlink:href="#LiberationSans-45"/>
     <use x="1300.652344" xlink:href="#LiberationSans-32"/>
     <use x="1328.435547" xlink:href="#LiberationSans-72"/>
     <use x="1400.652344" xlink:href="#LiberationSans-97"/>
     <use x="1456.267578" xlink:href="#LiberationSans-108"/>
     <use x="1478.484375" xlink:href="#LiberationSans-102"/>
     <use x="1506.267578" xlink:href="#LiberationSans-32"/>
     <use x="1532.300781" xlink:href="#LiberationSans-84"/>
     <use x="1589.634766" xlink:href="#LiberationSans-114"/>
     <use x="1622.935547" xlink:href="#LiberationSans-97"/>
     <use x="1678.550781" xlink:href="#LiberationSans-99"/>
     <use x="1728.550781" xlink:href="#LiberationSans-107"/>
     <use x="1778.550781" xlink:href="#LiberationSans-32"/>
     <use x="1806.333984" xlink:href="#LiberationSans-86"/>
     <use x="1865.658203" xlink:href="#LiberationSans-97"/>
     <use x="1921.273438" xlink:href="#LiberationSans-114"/>
     <use x="1954.574219" xlink:href="#LiberationSans-105"/>
     <use x="1976.791016" xlink:href="#LiberationSans-97"/>
     <use x="2032.40625" xlink:href="#LiberationSans-116"/>
     <use x="2060.189453" xlink:href="#LiberationSans-105"/>
     <use x="2082.40625" xlink:href="#LiberationSans-111"/>
     <use x="2138.021484" xlink:href="#LiberationSans-110"/>
    </g>
   </g>
   <g id="legend_1">
    <g id="line2d_30">
     <path d="M 57.98 38.186875 
L 77.98 38.186875 
" style="fill:none;stroke:#4c72b0;stroke-linecap:round;stroke-width:1.75;"/>
    </g>
    <g id="line2d_31"/>
    <g id="text_18">
     <!-- Half Track Variation - Left -->
     <g style="fill:#262626;" transform="translate(85.98 41.686875)scale(0.1 -0.1)">
      <use xlink:href="#LiberationSans-72"/>
      <use x="72.216797" xlink:href="#LiberationSans-97"/>
      <use x="127.832031" xlink:href="#LiberationSans-108"/>
      <use x="150.048828" xlink:href="#LiberationSans-102"/>
      <use x="177.832031" xlink:href="#LiberationSans-32"/>
      <use x="203.865234" xlink:href="#LiberationSans-84"/>
      <use x="261.199219" xlink:href="#LiberationSans-114"/>
      <use x="294.5" xlink:href="#LiberationSans-97"/>
      <use x="350.115234" xlink:href="#LiberationSans-99"/>
      <use x="400.115234" xlink:href="#LiberationSans-107"/>
      <use x="450.115234" xlink:href="#LiberationSans-32"/>
      <use x="477.898438" xlink:href="#LiberationSans-86"/>
      <use x="537.222656" xlink:href="#LiberationSans-97"/>
      <use x="592.837891" xlink:href="#LiberationSans-114"/>
      <use x="626.138672" xlink:href="#LiberationSans-105"/>
      <use x="648.355469" xlink:href="#LiberationSans-97"/>
      <use x="703.970703" xlink:href="#LiberationSans-116"/>
      <use x="731.753906" xlink:href="#LiberationSans-105"/>
      <use x="753.970703" xlink:href="#LiberationSans-111"/>
      <use x="809.585938" xlink:href="#LiberationSans-110"/>
      <use x="865.201172" xlink:href="#LiberationSans-32"/>
      <use x="892.984375" xlink:href="#LiberationSans-45"/>
      <use x="926.285156" xlink:href="#LiberationSans-32"/>
      <use x="954.068359" xlink:href="#LiberationSans-76"/>
      <use x="1009.683594" xlink:href="#LiberationSans-101"/>
      <use x="1065.298828" xlink:href="#LiberationSans-102"/>
      <use x="1093.082031" xlink:href="#LiberationSans-116"/>
     </g>
    </g>
   </g>
  </g>
 </g>
 <defs>
  <clipPath id="p1b9f2a8b18">
   <rect height="328.6" width="516.22" x="48.98" y="25.44"/>
  </clipPath>
 </defs>
</svg>
