<?xml version="1.0" encoding="utf-8" standalone="no"?>
<!DOCTYPE svg PUBLIC "-//W3C//DTD SVG 1.1//EN"
  "http://www.w3.org/Graphics/SVG/1.1/DTD/svg11.dtd">
<svg xmlns:xlink="http://www.w3.org/1999/xlink" width="576pt" height="396pt" viewBox="0 0 576 396" xmlns="http://www.w3.org/2000/svg" version="1.1">
 <metadata>
  <rdf:RDF xmlns:dc="http://purl.org/dc/elements/1.1/" xmlns:cc="http://creativecommons.org/ns#" xmlns:rdf="http://www.w3.org/1999/02/22-rdf-syntax-ns#">
   <cc:Work>
    <dc:type rdf:resource="http://purl.org/dc/dcmitype/StillImage"/>
    <dc:date>2022-08-23T21:01:22.240399</dc:date>
    <dc:format>image/svg+xml</dc:format>
    <dc:creator>
     <cc:Agent>
      <dc:title>Matplotlib v3.5.2, https://matplotlib.org/</dc:title>
     </cc:Agent>
    </dc:creator>
   </cc:Work>
  </rdf:RDF>
 </metadata>
 <defs>
  <style type="text/css">*{stroke-linejoin: round; stroke-linecap: butt}</style>
 </defs>
 <g id="figure_1">
  <g id="patch_1">
   <path d="M 0 396 
L 576 396 
L 576 0 
L 0 0 
L 0 396 
z
" style="fill: none"/>
  </g>
  <g id="axes_1">
   <g id="patch_2">
    <path d="M 48.98 354.04 
L 565.2 354.04 
L 565.2 25.44 
L 48.98 25.44 
z
" style="fill: #eaeaf2"/>
   </g>
   <g id="matplotlib.axis_1">
    <g id="xtick_1">
     <g id="line2d_1">
      <path d="M 103.123338 354.04 
L 103.123338 25.44 
" clip-path="url(#p3d8e1a159c)" style="fill: none; stroke: #ffffff; stroke-linecap: round"/>
     </g>
     <g id="line2d_2"/>
     <g id="text_1">
      <!-- 0.16 -->
      <g style="fill: #262626" transform="translate(93.392869 368.286875)scale(0.1 -0.1)">
       <defs>
        <path id="LiberationSans-30" d="M 3309 2203 
Q 3309 1100 2920 518 
Q 2531 -63 1772 -63 
Q 1013 -63 631 515 
Q 250 1094 250 2203 
Q 250 3338 620 3903 
Q 991 4469 1791 4469 
Q 2569 4469 2939 3897 
Q 3309 3325 3309 2203 
z
M 2738 2203 
Q 2738 3156 2517 3584 
Q 2297 4013 1791 4013 
Q 1272 4013 1045 3591 
Q 819 3169 819 2203 
Q 819 1266 1048 831 
Q 1278 397 1778 397 
Q 2275 397 2506 840 
Q 2738 1284 2738 2203 
z
" transform="scale(0.015625)"/>
        <path id="LiberationSans-2e" d="M 584 0 
L 584 684 
L 1194 684 
L 1194 0 
L 584 0 
z
" transform="scale(0.015625)"/>
        <path id="LiberationSans-31" d="M 488 0 
L 488 478 
L 1609 478 
L 1609 3866 
L 616 3156 
L 616 3688 
L 1656 4403 
L 2175 4403 
L 2175 478 
L 3247 478 
L 3247 0 
L 488 0 
z
" transform="scale(0.015625)"/>
        <path id="LiberationSans-36" d="M 3278 1441 
Q 3278 744 2900 340 
Q 2522 -63 1856 -63 
Q 1113 -63 719 490 
Q 325 1044 325 2100 
Q 325 3244 734 3856 
Q 1144 4469 1900 4469 
Q 2897 4469 3156 3572 
L 2619 3475 
Q 2453 4013 1894 4013 
Q 1413 4013 1148 3564 
Q 884 3116 884 2266 
Q 1038 2550 1316 2698 
Q 1594 2847 1953 2847 
Q 2563 2847 2920 2465 
Q 3278 2084 3278 1441 
z
M 2706 1416 
Q 2706 1894 2472 2153 
Q 2238 2413 1819 2413 
Q 1425 2413 1183 2183 
Q 941 1953 941 1550 
Q 941 1041 1192 716 
Q 1444 391 1838 391 
Q 2244 391 2475 664 
Q 2706 938 2706 1416 
z
" transform="scale(0.015625)"/>
       </defs>
       <use xlink:href="#LiberationSans-30"/>
       <use xlink:href="#LiberationSans-2e" x="55.615234"/>
       <use xlink:href="#LiberationSans-31" x="83.398438"/>
       <use xlink:href="#LiberationSans-36" x="139.013672"/>
      </g>
     </g>
    </g>
    <g id="xtick_2">
     <g id="line2d_3">
      <path d="M 177.04784 354.04 
L 177.04784 25.44 
" clip-path="url(#p3d8e1a159c)" style="fill: none; stroke: #ffffff; stroke-linecap: round"/>
     </g>
     <g id="line2d_4"/>
     <g id="text_2">
      <!-- 0.17 -->
      <g style="fill: #262626" transform="translate(167.317371 368.286875)scale(0.1 -0.1)">
       <defs>
        <path id="LiberationSans-37" d="M 3238 3947 
Q 2563 2916 2284 2331 
Q 2006 1747 1867 1178 
Q 1728 609 1728 0 
L 1141 0 
Q 1141 844 1498 1776 
Q 1856 2709 2694 3925 
L 328 3925 
L 328 4403 
L 3238 4403 
L 3238 3947 
z
" transform="scale(0.015625)"/>
       </defs>
       <use xlink:href="#LiberationSans-30"/>
       <use xlink:href="#LiberationSans-2e" x="55.615234"/>
       <use xlink:href="#LiberationSans-31" x="83.398438"/>
       <use xlink:href="#LiberationSans-37" x="139.013672"/>
      </g>
     </g>
    </g>
    <g id="xtick_3">
     <g id="line2d_5">
      <path d="M 250.972342 354.04 
L 250.972342 25.44 
" clip-path="url(#p3d8e1a159c)" style="fill: none; stroke: #ffffff; stroke-linecap: round"/>
     </g>
     <g id="line2d_6"/>
     <g id="text_3">
      <!-- 0.18 -->
      <g style="fill: #262626" transform="translate(241.241873 368.286875)scale(0.1 -0.1)">
       <defs>
        <path id="LiberationSans-38" d="M 3281 1228 
Q 3281 619 2893 278 
Q 2506 -63 1781 -63 
Q 1075 -63 676 271 
Q 278 606 278 1222 
Q 278 1653 525 1947 
Q 772 2241 1156 2303 
L 1156 2316 
Q 797 2400 589 2681 
Q 381 2963 381 3341 
Q 381 3844 757 4156 
Q 1134 4469 1769 4469 
Q 2419 4469 2795 4162 
Q 3172 3856 3172 3334 
Q 3172 2956 2962 2675 
Q 2753 2394 2391 2322 
L 2391 2309 
Q 2813 2241 3047 1952 
Q 3281 1663 3281 1228 
z
M 2588 3303 
Q 2588 4050 1769 4050 
Q 1372 4050 1164 3862 
Q 956 3675 956 3303 
Q 956 2925 1170 2726 
Q 1384 2528 1775 2528 
Q 2172 2528 2380 2711 
Q 2588 2894 2588 3303 
z
M 2697 1281 
Q 2697 1691 2453 1898 
Q 2209 2106 1769 2106 
Q 1341 2106 1100 1882 
Q 859 1659 859 1269 
Q 859 359 1788 359 
Q 2247 359 2472 579 
Q 2697 800 2697 1281 
z
" transform="scale(0.015625)"/>
       </defs>
       <use xlink:href="#LiberationSans-30"/>
       <use xlink:href="#LiberationSans-2e" x="55.615234"/>
       <use xlink:href="#LiberationSans-31" x="83.398438"/>
       <use xlink:href="#LiberationSans-38" x="139.013672"/>
      </g>
     </g>
    </g>
    <g id="xtick_4">
     <g id="line2d_7">
      <path d="M 324.896844 354.04 
L 324.896844 25.44 
" clip-path="url(#p3d8e1a159c)" style="fill: none; stroke: #ffffff; stroke-linecap: round"/>
     </g>
     <g id="line2d_8"/>
     <g id="text_4">
      <!-- 0.19 -->
      <g style="fill: #262626" transform="translate(315.166375 368.286875)scale(0.1 -0.1)">
       <defs>
        <path id="LiberationSans-39" d="M 3256 2291 
Q 3256 1156 2842 546 
Q 2428 -63 1663 -63 
Q 1147 -63 836 154 
Q 525 372 391 856 
L 928 941 
Q 1097 391 1672 391 
Q 2156 391 2422 841 
Q 2688 1291 2700 2125 
Q 2575 1844 2272 1673 
Q 1969 1503 1606 1503 
Q 1013 1503 656 1909 
Q 300 2316 300 2988 
Q 300 3678 687 4073 
Q 1075 4469 1766 4469 
Q 2500 4469 2878 3925 
Q 3256 3381 3256 2291 
z
M 2644 2834 
Q 2644 3366 2400 3689 
Q 2156 4013 1747 4013 
Q 1341 4013 1106 3736 
Q 872 3459 872 2988 
Q 872 2506 1106 2226 
Q 1341 1947 1741 1947 
Q 1984 1947 2193 2058 
Q 2403 2169 2523 2372 
Q 2644 2575 2644 2834 
z
" transform="scale(0.015625)"/>
       </defs>
       <use xlink:href="#LiberationSans-30"/>
       <use xlink:href="#LiberationSans-2e" x="55.615234"/>
       <use xlink:href="#LiberationSans-31" x="83.398438"/>
       <use xlink:href="#LiberationSans-39" x="139.013672"/>
      </g>
     </g>
    </g>
    <g id="xtick_5">
     <g id="line2d_9">
      <path d="M 398.821346 354.04 
L 398.821346 25.44 
" clip-path="url(#p3d8e1a159c)" style="fill: none; stroke: #ffffff; stroke-linecap: round"/>
     </g>
     <g id="line2d_10"/>
     <g id="text_5">
      <!-- 0.20 -->
      <g style="fill: #262626" transform="translate(389.090877 368.286875)scale(0.1 -0.1)">
       <defs>
        <path id="LiberationSans-32" d="M 322 0 
L 322 397 
Q 481 763 711 1042 
Q 941 1322 1194 1548 
Q 1447 1775 1695 1969 
Q 1944 2163 2144 2356 
Q 2344 2550 2467 2762 
Q 2591 2975 2591 3244 
Q 2591 3606 2378 3806 
Q 2166 4006 1788 4006 
Q 1428 4006 1195 3811 
Q 963 3616 922 3263 
L 347 3316 
Q 409 3844 795 4156 
Q 1181 4469 1788 4469 
Q 2453 4469 2811 4155 
Q 3169 3841 3169 3263 
Q 3169 3006 3051 2753 
Q 2934 2500 2703 2247 
Q 2472 1994 1819 1463 
Q 1459 1169 1246 933 
Q 1034 697 941 478 
L 3238 478 
L 3238 0 
L 322 0 
z
" transform="scale(0.015625)"/>
       </defs>
       <use xlink:href="#LiberationSans-30"/>
       <use xlink:href="#LiberationSans-2e" x="55.615234"/>
       <use xlink:href="#LiberationSans-32" x="83.398438"/>
       <use xlink:href="#LiberationSans-30" x="139.013672"/>
      </g>
     </g>
    </g>
    <g id="xtick_6">
     <g id="line2d_11">
      <path d="M 472.745847 354.04 
L 472.745847 25.44 
" clip-path="url(#p3d8e1a159c)" style="fill: none; stroke: #ffffff; stroke-linecap: round"/>
     </g>
     <g id="line2d_12"/>
     <g id="text_6">
      <!-- 0.21 -->
      <g style="fill: #262626" transform="translate(463.015379 368.286875)scale(0.1 -0.1)">
       <use xlink:href="#LiberationSans-30"/>
       <use xlink:href="#LiberationSans-2e" x="55.615234"/>
       <use xlink:href="#LiberationSans-32" x="83.398438"/>
       <use xlink:href="#LiberationSans-31" x="139.013672"/>
      </g>
     </g>
    </g>
    <g id="xtick_7">
     <g id="line2d_13">
      <path d="M 546.670349 354.04 
L 546.670349 25.44 
" clip-path="url(#p3d8e1a159c)" style="fill: none; stroke: #ffffff; stroke-linecap: round"/>
     </g>
     <g id="line2d_14"/>
     <g id="text_7">
      <!-- 0.22 -->
      <g style="fill: #262626" transform="translate(536.939881 368.286875)scale(0.1 -0.1)">
       <use xlink:href="#LiberationSans-30"/>
       <use xlink:href="#LiberationSans-2e" x="55.615234"/>
       <use xlink:href="#LiberationSans-32" x="83.398438"/>
       <use xlink:href="#LiberationSans-32" x="139.013672"/>
      </g>
     </g>
    </g>
    <g id="text_8">
     <!-- ARB Motion Ratio [deg/mm] -->
     <g style="fill: #262626" transform="translate(238.928672 382.333437)scale(0.11 -0.11)">
      <defs>
       <path id="LiberationSans-41" d="M 3647 0 
L 3144 1288 
L 1138 1288 
L 631 0 
L 13 0 
L 1809 4403 
L 2488 4403 
L 4256 0 
L 3647 0 
z
M 2141 3953 
L 2113 3866 
Q 2034 3606 1881 3200 
L 1319 1753 
L 2966 1753 
L 2400 3206 
Q 2313 3422 2225 3694 
L 2141 3953 
z
" transform="scale(0.015625)"/>
       <path id="LiberationSans-52" d="M 3638 0 
L 2494 1828 
L 1122 1828 
L 1122 0 
L 525 0 
L 525 4403 
L 2597 4403 
Q 3341 4403 3745 4070 
Q 4150 3738 4150 3144 
Q 4150 2653 3864 2318 
Q 3578 1984 3075 1897 
L 4325 0 
L 3638 0 
z
M 3550 3138 
Q 3550 3522 3289 3723 
Q 3028 3925 2538 3925 
L 1122 3925 
L 1122 2300 
L 2563 2300 
Q 3034 2300 3292 2520 
Q 3550 2741 3550 3138 
z
" transform="scale(0.015625)"/>
       <path id="LiberationSans-42" d="M 3931 1241 
Q 3931 653 3503 326 
Q 3075 0 2313 0 
L 525 0 
L 525 4403 
L 2125 4403 
Q 3675 4403 3675 3334 
Q 3675 2944 3456 2678 
Q 3238 2413 2838 2322 
Q 3363 2259 3647 1970 
Q 3931 1681 3931 1241 
z
M 3075 3263 
Q 3075 3619 2831 3772 
Q 2588 3925 2125 3925 
L 1122 3925 
L 1122 2531 
L 2125 2531 
Q 2603 2531 2839 2711 
Q 3075 2891 3075 3263 
z
M 3328 1288 
Q 3328 2066 2234 2066 
L 1122 2066 
L 1122 478 
L 2281 478 
Q 2828 478 3078 681 
Q 3328 884 3328 1288 
z
" transform="scale(0.015625)"/>
       <path id="LiberationSans-20" transform="scale(0.015625)"/>
       <path id="LiberationSans-4d" d="M 4269 0 
L 4269 2938 
Q 4269 3425 4297 3875 
Q 4144 3316 4022 3000 
L 2884 0 
L 2466 0 
L 1313 3000 
L 1138 3531 
L 1034 3875 
L 1044 3528 
L 1056 2938 
L 1056 0 
L 525 0 
L 525 4403 
L 1309 4403 
L 2481 1350 
Q 2544 1166 2601 955 
Q 2659 744 2678 650 
Q 2703 775 2783 1029 
Q 2863 1284 2891 1350 
L 4041 4403 
L 4806 4403 
L 4806 0 
L 4269 0 
z
" transform="scale(0.015625)"/>
       <path id="LiberationSans-6f" d="M 3291 1694 
Q 3291 806 2900 371 
Q 2509 -63 1766 -63 
Q 1025 -63 647 389 
Q 269 841 269 1694 
Q 269 3444 1784 3444 
Q 2559 3444 2925 3017 
Q 3291 2591 3291 1694 
z
M 2700 1694 
Q 2700 2394 2492 2711 
Q 2284 3028 1794 3028 
Q 1300 3028 1079 2704 
Q 859 2381 859 1694 
Q 859 1025 1076 689 
Q 1294 353 1759 353 
Q 2266 353 2483 678 
Q 2700 1003 2700 1694 
z
" transform="scale(0.015625)"/>
       <path id="LiberationSans-74" d="M 1731 25 
Q 1453 -50 1163 -50 
Q 488 -50 488 716 
L 488 2972 
L 97 2972 
L 97 3381 
L 509 3381 
L 675 4138 
L 1050 4138 
L 1050 3381 
L 1675 3381 
L 1675 2972 
L 1050 2972 
L 1050 838 
Q 1050 594 1129 495 
Q 1209 397 1406 397 
Q 1519 397 1731 441 
L 1731 25 
z
" transform="scale(0.015625)"/>
       <path id="LiberationSans-69" d="M 428 4100 
L 428 4638 
L 991 4638 
L 991 4100 
L 428 4100 
z
M 428 0 
L 428 3381 
L 991 3381 
L 991 0 
L 428 0 
z
" transform="scale(0.015625)"/>
       <path id="LiberationSans-6e" d="M 2578 0 
L 2578 2144 
Q 2578 2478 2512 2662 
Q 2447 2847 2303 2928 
Q 2159 3009 1881 3009 
Q 1475 3009 1240 2731 
Q 1006 2453 1006 1959 
L 1006 0 
L 444 0 
L 444 2659 
Q 444 3250 425 3381 
L 956 3381 
Q 959 3366 962 3297 
Q 966 3228 970 3139 
Q 975 3050 981 2803 
L 991 2803 
Q 1184 3153 1439 3298 
Q 1694 3444 2072 3444 
Q 2628 3444 2886 3167 
Q 3144 2891 3144 2253 
L 3144 0 
L 2578 0 
z
" transform="scale(0.015625)"/>
       <path id="LiberationSans-61" d="M 1294 -63 
Q 784 -63 528 206 
Q 272 475 272 944 
Q 272 1469 617 1750 
Q 963 2031 1731 2050 
L 2491 2063 
L 2491 2247 
Q 2491 2659 2316 2837 
Q 2141 3016 1766 3016 
Q 1388 3016 1216 2887 
Q 1044 2759 1009 2478 
L 422 2531 
Q 566 3444 1778 3444 
Q 2416 3444 2737 3151 
Q 3059 2859 3059 2306 
L 3059 850 
Q 3059 600 3125 473 
Q 3191 347 3375 347 
Q 3456 347 3559 369 
L 3559 19 
Q 3347 -31 3125 -31 
Q 2813 -31 2670 133 
Q 2528 297 2509 647 
L 2491 647 
Q 2275 259 1989 98 
Q 1703 -63 1294 -63 
z
M 1422 359 
Q 1731 359 1972 500 
Q 2213 641 2352 886 
Q 2491 1131 2491 1391 
L 2491 1669 
L 1875 1656 
Q 1478 1650 1273 1575 
Q 1069 1500 959 1344 
Q 850 1188 850 934 
Q 850 659 998 509 
Q 1147 359 1422 359 
z
" transform="scale(0.015625)"/>
       <path id="LiberationSans-5b" d="M 456 -1328 
L 456 4638 
L 1728 4638 
L 1728 4234 
L 1000 4234 
L 1000 -925 
L 1728 -925 
L 1728 -1328 
L 456 -1328 
z
" transform="scale(0.015625)"/>
       <path id="LiberationSans-64" d="M 2566 544 
Q 2409 219 2151 78 
Q 1894 -63 1513 -63 
Q 872 -63 570 368 
Q 269 800 269 1675 
Q 269 3444 1513 3444 
Q 1897 3444 2153 3303 
Q 2409 3163 2566 2856 
L 2572 2856 
L 2566 3234 
L 2566 4638 
L 3128 4638 
L 3128 697 
Q 3128 169 3147 0 
L 2609 0 
Q 2600 50 2589 231 
Q 2578 413 2578 544 
L 2566 544 
z
M 859 1694 
Q 859 984 1046 678 
Q 1234 372 1656 372 
Q 2134 372 2350 703 
Q 2566 1034 2566 1731 
Q 2566 2403 2350 2715 
Q 2134 3028 1663 3028 
Q 1238 3028 1048 2714 
Q 859 2400 859 1694 
z
" transform="scale(0.015625)"/>
       <path id="LiberationSans-65" d="M 863 1572 
Q 863 991 1103 675 
Q 1344 359 1806 359 
Q 2172 359 2392 506 
Q 2613 653 2691 878 
L 3184 738 
Q 2881 -63 1806 -63 
Q 1056 -63 664 384 
Q 272 831 272 1713 
Q 272 2550 664 2997 
Q 1056 3444 1784 3444 
Q 3275 3444 3275 1647 
L 3275 1572 
L 863 1572 
z
M 2694 2003 
Q 2647 2538 2422 2783 
Q 2197 3028 1775 3028 
Q 1366 3028 1127 2754 
Q 888 2481 869 2003 
L 2694 2003 
z
" transform="scale(0.015625)"/>
       <path id="LiberationSans-67" d="M 1713 -1328 
Q 1159 -1328 831 -1111 
Q 503 -894 409 -494 
L 975 -413 
Q 1031 -647 1223 -773 
Q 1416 -900 1728 -900 
Q 2569 -900 2569 84 
L 2569 628 
L 2563 628 
Q 2403 303 2125 139 
Q 1847 -25 1475 -25 
Q 853 -25 561 387 
Q 269 800 269 1684 
Q 269 2581 583 3007 
Q 897 3434 1538 3434 
Q 1897 3434 2161 3270 
Q 2425 3106 2569 2803 
L 2575 2803 
Q 2575 2897 2587 3128 
Q 2600 3359 2613 3381 
L 3147 3381 
Q 3128 3213 3128 2681 
L 3128 97 
Q 3128 -1328 1713 -1328 
z
M 2569 1691 
Q 2569 2103 2456 2401 
Q 2344 2700 2139 2858 
Q 1934 3016 1675 3016 
Q 1244 3016 1047 2703 
Q 850 2391 850 1691 
Q 850 997 1034 694 
Q 1219 391 1666 391 
Q 1931 391 2137 547 
Q 2344 703 2456 995 
Q 2569 1288 2569 1691 
z
" transform="scale(0.015625)"/>
       <path id="LiberationSans-2f" d="M 0 -63 
L 1284 4638 
L 1778 4638 
L 506 -63 
L 0 -63 
z
" transform="scale(0.015625)"/>
       <path id="LiberationSans-6d" d="M 2400 0 
L 2400 2144 
Q 2400 2634 2265 2821 
Q 2131 3009 1781 3009 
Q 1422 3009 1212 2734 
Q 1003 2459 1003 1959 
L 1003 0 
L 444 0 
L 444 2659 
Q 444 3250 425 3381 
L 956 3381 
Q 959 3366 962 3297 
Q 966 3228 970 3139 
Q 975 3050 981 2803 
L 991 2803 
Q 1172 3163 1406 3303 
Q 1641 3444 1978 3444 
Q 2363 3444 2586 3291 
Q 2809 3138 2897 2803 
L 2906 2803 
Q 3081 3144 3329 3294 
Q 3578 3444 3931 3444 
Q 4444 3444 4676 3166 
Q 4909 2888 4909 2253 
L 4909 0 
L 4353 0 
L 4353 2144 
Q 4353 2634 4218 2821 
Q 4084 3009 3734 3009 
Q 3366 3009 3161 2736 
Q 2956 2463 2956 1959 
L 2956 0 
L 2400 0 
z
" transform="scale(0.015625)"/>
       <path id="LiberationSans-5d" d="M 50 -1328 
L 50 -925 
L 778 -925 
L 778 4234 
L 50 4234 
L 50 4638 
L 1322 4638 
L 1322 -1328 
L 50 -1328 
z
" transform="scale(0.015625)"/>
      </defs>
      <use xlink:href="#LiberationSans-41"/>
      <use xlink:href="#LiberationSans-52" x="66.699219"/>
      <use xlink:href="#LiberationSans-42" x="138.916016"/>
      <use xlink:href="#LiberationSans-20" x="205.615234"/>
      <use xlink:href="#LiberationSans-4d" x="233.398438"/>
      <use xlink:href="#LiberationSans-6f" x="316.699219"/>
      <use xlink:href="#LiberationSans-74" x="372.314453"/>
      <use xlink:href="#LiberationSans-69" x="400.097656"/>
      <use xlink:href="#LiberationSans-6f" x="422.314453"/>
      <use xlink:href="#LiberationSans-6e" x="477.929688"/>
      <use xlink:href="#LiberationSans-20" x="533.544922"/>
      <use xlink:href="#LiberationSans-52" x="561.328125"/>
      <use xlink:href="#LiberationSans-61" x="633.544922"/>
      <use xlink:href="#LiberationSans-74" x="689.160156"/>
      <use xlink:href="#LiberationSans-69" x="716.943359"/>
      <use xlink:href="#LiberationSans-6f" x="739.160156"/>
      <use xlink:href="#LiberationSans-20" x="794.775391"/>
      <use xlink:href="#LiberationSans-5b" x="822.558594"/>
      <use xlink:href="#LiberationSans-64" x="850.341797"/>
      <use xlink:href="#LiberationSans-65" x="905.957031"/>
      <use xlink:href="#LiberationSans-67" x="961.572266"/>
      <use xlink:href="#LiberationSans-2f" x="1017.1875"/>
      <use xlink:href="#LiberationSans-6d" x="1044.970703"/>
      <use xlink:href="#LiberationSans-6d" x="1128.271484"/>
      <use xlink:href="#LiberationSans-5d" x="1211.572266"/>
     </g>
    </g>
   </g>
   <g id="matplotlib.axis_2">
    <g id="ytick_1">
     <g id="line2d_15">
      <path d="M 48.98 328.802696 
L 565.2 328.802696 
" clip-path="url(#p3d8e1a159c)" style="fill: none; stroke: #ffffff; stroke-linecap: round"/>
     </g>
     <g id="line2d_16"/>
     <g id="text_9">
      <!-- −40 -->
      <g style="fill: #262626" transform="translate(25.0175 332.426133)scale(0.1 -0.1)">
       <defs>
        <path id="LiberationSans-2212" d="M 316 1900 
L 316 2356 
L 3425 2356 
L 3425 1900 
L 316 1900 
z
" transform="scale(0.015625)"/>
        <path id="LiberationSans-34" d="M 2753 997 
L 2753 0 
L 2222 0 
L 2222 997 
L 147 997 
L 147 1434 
L 2163 4403 
L 2753 4403 
L 2753 1441 
L 3372 1441 
L 3372 997 
L 2753 997 
z
M 2222 3769 
Q 2216 3750 2134 3603 
Q 2053 3456 2013 3397 
L 884 1734 
L 716 1503 
L 666 1441 
L 2222 1441 
L 2222 3769 
z
" transform="scale(0.015625)"/>
       </defs>
       <use xlink:href="#LiberationSans-2212"/>
       <use xlink:href="#LiberationSans-34" x="58.398438"/>
       <use xlink:href="#LiberationSans-30" x="114.013672"/>
      </g>
     </g>
    </g>
    <g id="ytick_2">
     <g id="line2d_17">
      <path d="M 48.98 287.598934 
L 565.2 287.598934 
" clip-path="url(#p3d8e1a159c)" style="fill: none; stroke: #ffffff; stroke-linecap: round"/>
     </g>
     <g id="line2d_18"/>
     <g id="text_10">
      <!-- −20 -->
      <g style="fill: #262626" transform="translate(25.0175 291.222372)scale(0.1 -0.1)">
       <use xlink:href="#LiberationSans-2212"/>
       <use xlink:href="#LiberationSans-32" x="58.398438"/>
       <use xlink:href="#LiberationSans-30" x="114.013672"/>
      </g>
     </g>
    </g>
    <g id="ytick_3">
     <g id="line2d_19">
      <path d="M 48.98 246.395172 
L 565.2 246.395172 
" clip-path="url(#p3d8e1a159c)" style="fill: none; stroke: #ffffff; stroke-linecap: round"/>
     </g>
     <g id="line2d_20"/>
     <g id="text_11">
      <!-- 0 -->
      <g style="fill: #262626" transform="translate(36.419063 250.01861)scale(0.1 -0.1)">
       <use xlink:href="#LiberationSans-30"/>
      </g>
     </g>
    </g>
    <g id="ytick_4">
     <g id="line2d_21">
      <path d="M 48.98 205.191411 
L 565.2 205.191411 
" clip-path="url(#p3d8e1a159c)" style="fill: none; stroke: #ffffff; stroke-linecap: round"/>
     </g>
     <g id="line2d_22"/>
     <g id="text_12">
      <!-- 20 -->
      <g style="fill: #262626" transform="translate(30.858125 208.814848)scale(0.1 -0.1)">
       <use xlink:href="#LiberationSans-32"/>
       <use xlink:href="#LiberationSans-30" x="55.615234"/>
      </g>
     </g>
    </g>
    <g id="ytick_5">
     <g id="line2d_23">
      <path d="M 48.98 163.987649 
L 565.2 163.987649 
" clip-path="url(#p3d8e1a159c)" style="fill: none; stroke: #ffffff; stroke-linecap: round"/>
     </g>
     <g id="line2d_24"/>
     <g id="text_13">
      <!-- 40 -->
      <g style="fill: #262626" transform="translate(30.858125 167.611086)scale(0.1 -0.1)">
       <use xlink:href="#LiberationSans-34"/>
       <use xlink:href="#LiberationSans-30" x="55.615234"/>
      </g>
     </g>
    </g>
    <g id="ytick_6">
     <g id="line2d_25">
      <path d="M 48.98 122.783887 
L 565.2 122.783887 
" clip-path="url(#p3d8e1a159c)" style="fill: none; stroke: #ffffff; stroke-linecap: round"/>
     </g>
     <g id="line2d_26"/>
     <g id="text_14">
      <!-- 60 -->
      <g style="fill: #262626" transform="translate(30.858125 126.407325)scale(0.1 -0.1)">
       <use xlink:href="#LiberationSans-36"/>
       <use xlink:href="#LiberationSans-30" x="55.615234"/>
      </g>
     </g>
    </g>
    <g id="ytick_7">
     <g id="line2d_27">
      <path d="M 48.98 81.580125 
L 565.2 81.580125 
" clip-path="url(#p3d8e1a159c)" style="fill: none; stroke: #ffffff; stroke-linecap: round"/>
     </g>
     <g id="line2d_28"/>
     <g id="text_15">
      <!-- 80 -->
      <g style="fill: #262626" transform="translate(30.858125 85.203563)scale(0.1 -0.1)">
       <use xlink:href="#LiberationSans-38"/>
       <use xlink:href="#LiberationSans-30" x="55.615234"/>
      </g>
     </g>
    </g>
    <g id="ytick_8">
     <g id="line2d_29">
      <path d="M 48.98 40.376364 
L 565.2 40.376364 
" clip-path="url(#p3d8e1a159c)" style="fill: none; stroke: #ffffff; stroke-linecap: round"/>
     </g>
     <g id="line2d_30"/>
     <g id="text_16">
      <!-- 100 -->
      <g style="fill: #262626" transform="translate(25.297188 43.999801)scale(0.1 -0.1)">
       <use xlink:href="#LiberationSans-31"/>
       <use xlink:href="#LiberationSans-30" x="55.615234"/>
       <use xlink:href="#LiberationSans-30" x="111.230469"/>
      </g>
     </g>
    </g>
    <g id="text_17">
     <!-- Contact Patch Z Displacement [mm] -->
     <g style="fill: #262626" transform="translate(18.735 277.764922)rotate(-90)scale(0.11 -0.11)">
      <defs>
       <path id="LiberationSans-43" d="M 2475 3981 
Q 1744 3981 1337 3511 
Q 931 3041 931 2222 
Q 931 1413 1354 920 
Q 1778 428 2500 428 
Q 3425 428 3891 1344 
L 4378 1100 
Q 4106 531 3614 234 
Q 3122 -63 2472 -63 
Q 1806 -63 1320 214 
Q 834 491 579 1005 
Q 325 1519 325 2222 
Q 325 3275 894 3872 
Q 1463 4469 2469 4469 
Q 3172 4469 3644 4194 
Q 4116 3919 4338 3378 
L 3772 3191 
Q 3619 3575 3280 3778 
Q 2941 3981 2475 3981 
z
" transform="scale(0.015625)"/>
       <path id="LiberationSans-63" d="M 859 1706 
Q 859 1031 1071 706 
Q 1284 381 1713 381 
Q 2013 381 2214 543 
Q 2416 706 2463 1044 
L 3031 1006 
Q 2966 519 2616 228 
Q 2266 -63 1728 -63 
Q 1019 -63 645 385 
Q 272 834 272 1694 
Q 272 2547 647 2995 
Q 1022 3444 1722 3444 
Q 2241 3444 2583 3175 
Q 2925 2906 3013 2434 
L 2434 2391 
Q 2391 2672 2212 2837 
Q 2034 3003 1706 3003 
Q 1259 3003 1059 2706 
Q 859 2409 859 1706 
z
" transform="scale(0.015625)"/>
       <path id="LiberationSans-50" d="M 3931 3078 
Q 3931 2453 3523 2084 
Q 3116 1716 2416 1716 
L 1122 1716 
L 1122 0 
L 525 0 
L 525 4403 
L 2378 4403 
Q 3119 4403 3525 4056 
Q 3931 3709 3931 3078 
z
M 3331 3072 
Q 3331 3925 2306 3925 
L 1122 3925 
L 1122 2188 
L 2331 2188 
Q 3331 2188 3331 3072 
z
" transform="scale(0.015625)"/>
       <path id="LiberationSans-68" d="M 991 2803 
Q 1172 3134 1426 3289 
Q 1681 3444 2072 3444 
Q 2622 3444 2883 3170 
Q 3144 2897 3144 2253 
L 3144 0 
L 2578 0 
L 2578 2144 
Q 2578 2500 2512 2673 
Q 2447 2847 2297 2928 
Q 2147 3009 1881 3009 
Q 1484 3009 1245 2734 
Q 1006 2459 1006 1994 
L 1006 0 
L 444 0 
L 444 4638 
L 1006 4638 
L 1006 3431 
Q 1006 3241 995 3037 
Q 984 2834 981 2803 
L 991 2803 
z
" transform="scale(0.015625)"/>
       <path id="LiberationSans-5a" d="M 3709 0 
L 203 0 
L 203 447 
L 2884 3916 
L 431 3916 
L 431 4403 
L 3563 4403 
L 3563 3969 
L 881 488 
L 3709 488 
L 3709 0 
z
" transform="scale(0.015625)"/>
       <path id="LiberationSans-44" d="M 4316 2247 
Q 4316 1566 4050 1055 
Q 3784 544 3296 272 
Q 2809 0 2172 0 
L 525 0 
L 525 4403 
L 1981 4403 
Q 3100 4403 3708 3842 
Q 4316 3281 4316 2247 
z
M 3716 2247 
Q 3716 3066 3267 3495 
Q 2819 3925 1969 3925 
L 1122 3925 
L 1122 478 
L 2103 478 
Q 2588 478 2955 690 
Q 3322 903 3519 1303 
Q 3716 1703 3716 2247 
z
" transform="scale(0.015625)"/>
       <path id="LiberationSans-73" d="M 2969 934 
Q 2969 456 2608 196 
Q 2247 -63 1597 -63 
Q 966 -63 623 145 
Q 281 353 178 794 
L 675 891 
Q 747 619 972 492 
Q 1197 366 1597 366 
Q 2025 366 2223 497 
Q 2422 628 2422 891 
Q 2422 1091 2284 1216 
Q 2147 1341 1841 1422 
L 1438 1528 
Q 953 1653 748 1773 
Q 544 1894 428 2066 
Q 313 2238 313 2488 
Q 313 2950 642 3192 
Q 972 3434 1603 3434 
Q 2163 3434 2492 3237 
Q 2822 3041 2909 2606 
L 2403 2544 
Q 2356 2769 2151 2889 
Q 1947 3009 1603 3009 
Q 1222 3009 1040 2893 
Q 859 2778 859 2544 
Q 859 2400 934 2306 
Q 1009 2213 1156 2147 
Q 1303 2081 1775 1966 
Q 2222 1853 2419 1758 
Q 2616 1663 2730 1547 
Q 2844 1431 2906 1279 
Q 2969 1128 2969 934 
z
" transform="scale(0.015625)"/>
       <path id="LiberationSans-70" d="M 3291 1706 
Q 3291 -63 2047 -63 
Q 1266 -63 997 525 
L 981 525 
Q 994 500 994 -6 
L 994 -1328 
L 431 -1328 
L 431 2691 
Q 431 3213 413 3381 
L 956 3381 
Q 959 3369 965 3292 
Q 972 3216 980 3056 
Q 988 2897 988 2838 
L 1000 2838 
Q 1150 3150 1397 3295 
Q 1644 3441 2047 3441 
Q 2672 3441 2981 3022 
Q 3291 2603 3291 1706 
z
M 2700 1694 
Q 2700 2400 2509 2703 
Q 2319 3006 1903 3006 
Q 1569 3006 1380 2865 
Q 1191 2725 1092 2426 
Q 994 2128 994 1650 
Q 994 984 1206 668 
Q 1419 353 1897 353 
Q 2316 353 2508 661 
Q 2700 969 2700 1694 
z
" transform="scale(0.015625)"/>
       <path id="LiberationSans-6c" d="M 431 0 
L 431 4638 
L 994 4638 
L 994 0 
L 431 0 
z
" transform="scale(0.015625)"/>
      </defs>
      <use xlink:href="#LiberationSans-43"/>
      <use xlink:href="#LiberationSans-6f" x="72.216797"/>
      <use xlink:href="#LiberationSans-6e" x="127.832031"/>
      <use xlink:href="#LiberationSans-74" x="183.447266"/>
      <use xlink:href="#LiberationSans-61" x="211.230469"/>
      <use xlink:href="#LiberationSans-63" x="266.845703"/>
      <use xlink:href="#LiberationSans-74" x="316.845703"/>
      <use xlink:href="#LiberationSans-20" x="344.628906"/>
      <use xlink:href="#LiberationSans-50" x="372.412109"/>
      <use xlink:href="#LiberationSans-61" x="439.111328"/>
      <use xlink:href="#LiberationSans-74" x="494.726562"/>
      <use xlink:href="#LiberationSans-63" x="522.509766"/>
      <use xlink:href="#LiberationSans-68" x="572.509766"/>
      <use xlink:href="#LiberationSans-20" x="628.125"/>
      <use xlink:href="#LiberationSans-5a" x="655.908203"/>
      <use xlink:href="#LiberationSans-20" x="716.992188"/>
      <use xlink:href="#LiberationSans-44" x="744.775391"/>
      <use xlink:href="#LiberationSans-69" x="816.992188"/>
      <use xlink:href="#LiberationSans-73" x="839.208984"/>
      <use xlink:href="#LiberationSans-70" x="889.208984"/>
      <use xlink:href="#LiberationSans-6c" x="944.824219"/>
      <use xlink:href="#LiberationSans-61" x="967.041016"/>
      <use xlink:href="#LiberationSans-63" x="1022.65625"/>
      <use xlink:href="#LiberationSans-65" x="1072.65625"/>
      <use xlink:href="#LiberationSans-6d" x="1128.271484"/>
      <use xlink:href="#LiberationSans-65" x="1211.572266"/>
      <use xlink:href="#LiberationSans-6e" x="1267.1875"/>
      <use xlink:href="#LiberationSans-74" x="1322.802734"/>
      <use xlink:href="#LiberationSans-20" x="1350.585938"/>
      <use xlink:href="#LiberationSans-5b" x="1378.369141"/>
      <use xlink:href="#LiberationSans-6d" x="1406.152344"/>
      <use xlink:href="#LiberationSans-6d" x="1489.453125"/>
      <use xlink:href="#LiberationSans-5d" x="1572.753906"/>
     </g>
    </g>
   </g>
   <g id="line2d_31">
    <path d="M 541.735455 339.103636 
L 515.472268 328.802696 
L 493.2722 318.501755 
L 474.455044 308.200815 
L 458.447652 297.899875 
L 444.756646 287.598934 
L 432.948859 277.297994 
L 422.637187 266.997053 
L 413.470297 256.696113 
L 405.125239 246.395172 
L 397.302204 236.094232 
L 389.720935 225.793292 
L 382.118398 215.492351 
L 374.247445 205.191411 
L 365.87621 194.89047 
L 356.788038 184.58953 
L 346.78178 174.288589 
L 335.672338 163.987649 
L 323.291226 153.686708 
L 309.487183 143.385768 
L 294.126662 133.084828 
L 277.094064 122.783887 
L 258.291787 112.482947 
L 237.639955 102.182006 
L 215.075928 91.881066 
L 190.553271 81.580125 
L 164.04067 71.279185 
L 135.520525 60.978245 
L 104.987103 50.677304 
L 72.444545 40.376364 
" clip-path="url(#p3d8e1a159c)" style="fill: none; stroke: #4c72b0; stroke-width: 1.75; stroke-linecap: round"/>
   </g>
   <g id="patch_3">
    <path d="M 48.98 354.04 
L 48.98 25.44 
" style="fill: none"/>
   </g>
   <g id="patch_4">
    <path d="M 565.2 354.04 
L 565.2 25.44 
" style="fill: none"/>
   </g>
   <g id="patch_5">
    <path d="M 48.98 354.04 
L 565.2 354.04 
" style="fill: none"/>
   </g>
   <g id="patch_6">
    <path d="M 48.98 25.44 
L 565.2 25.44 
" style="fill: none"/>
   </g>
   <g id="text_18">
    <!-- 2002 Acura RSX - Rear Left - ARB Motion Ratio -->
    <g style="fill: #262626" transform="translate(180.033437 19.44)scale(0.12 -0.12)">
     <defs>
      <path id="LiberationSans-75" d="M 981 3381 
L 981 1238 
Q 981 903 1047 718 
Q 1113 534 1256 453 
Q 1400 372 1678 372 
Q 2084 372 2318 650 
Q 2553 928 2553 1422 
L 2553 3381 
L 3116 3381 
L 3116 722 
Q 3116 131 3134 0 
L 2603 0 
Q 2600 16 2597 84 
Q 2594 153 2589 242 
Q 2584 331 2578 578 
L 2569 578 
Q 2375 228 2120 82 
Q 1866 -63 1488 -63 
Q 931 -63 673 214 
Q 416 491 416 1128 
L 416 3381 
L 981 3381 
z
" transform="scale(0.015625)"/>
      <path id="LiberationSans-72" d="M 444 0 
L 444 2594 
Q 444 2950 425 3381 
L 956 3381 
Q 981 2806 981 2691 
L 994 2691 
Q 1128 3125 1303 3284 
Q 1478 3444 1797 3444 
Q 1909 3444 2025 3413 
L 2025 2897 
Q 1913 2928 1725 2928 
Q 1375 2928 1190 2626 
Q 1006 2325 1006 1763 
L 1006 0 
L 444 0 
z
" transform="scale(0.015625)"/>
      <path id="LiberationSans-53" d="M 3975 1216 
Q 3975 606 3498 271 
Q 3022 -63 2156 -63 
Q 547 -63 291 1056 
L 869 1172 
Q 969 775 1294 589 
Q 1619 403 2178 403 
Q 2756 403 3070 601 
Q 3384 800 3384 1184 
Q 3384 1400 3286 1534 
Q 3188 1669 3009 1756 
Q 2831 1844 2584 1903 
Q 2338 1963 2038 2031 
Q 1516 2147 1245 2262 
Q 975 2378 819 2520 
Q 663 2663 580 2853 
Q 497 3044 497 3291 
Q 497 3856 930 4162 
Q 1363 4469 2169 4469 
Q 2919 4469 3316 4239 
Q 3713 4009 3872 3456 
L 3284 3353 
Q 3188 3703 2916 3861 
Q 2644 4019 2163 4019 
Q 1634 4019 1356 3844 
Q 1078 3669 1078 3322 
Q 1078 3119 1186 2986 
Q 1294 2853 1497 2761 
Q 1700 2669 2306 2534 
Q 2509 2488 2711 2439 
Q 2913 2391 3097 2323 
Q 3281 2256 3442 2165 
Q 3603 2075 3722 1944 
Q 3841 1813 3908 1634 
Q 3975 1456 3975 1216 
z
" transform="scale(0.015625)"/>
      <path id="LiberationSans-58" d="M 3475 0 
L 2153 1925 
L 803 0 
L 144 0 
L 1819 2288 
L 272 4403 
L 931 4403 
L 2156 2675 
L 3347 4403 
L 4006 4403 
L 2500 2309 
L 4134 0 
L 3475 0 
z
" transform="scale(0.015625)"/>
      <path id="LiberationSans-2d" d="M 284 1450 
L 284 1950 
L 1847 1950 
L 1847 1450 
L 284 1450 
z
" transform="scale(0.015625)"/>
      <path id="LiberationSans-4c" d="M 525 0 
L 525 4403 
L 1122 4403 
L 1122 488 
L 3347 488 
L 3347 0 
L 525 0 
z
" transform="scale(0.015625)"/>
      <path id="LiberationSans-66" d="M 1128 2972 
L 1128 0 
L 566 0 
L 566 2972 
L 91 2972 
L 91 3381 
L 566 3381 
L 566 3763 
Q 566 4225 769 4428 
Q 972 4631 1391 4631 
Q 1625 4631 1788 4594 
L 1788 4166 
Q 1647 4191 1538 4191 
Q 1322 4191 1225 4081 
Q 1128 3972 1128 3684 
L 1128 3381 
L 1788 3381 
L 1788 2972 
L 1128 2972 
z
" transform="scale(0.015625)"/>
     </defs>
     <use xlink:href="#LiberationSans-32"/>
     <use xlink:href="#LiberationSans-30" x="55.615234"/>
     <use xlink:href="#LiberationSans-30" x="111.230469"/>
     <use xlink:href="#LiberationSans-32" x="166.845703"/>
     <use xlink:href="#LiberationSans-20" x="222.460938"/>
     <use xlink:href="#LiberationSans-41" x="244.744141"/>
     <use xlink:href="#LiberationSans-63" x="311.443359"/>
     <use xlink:href="#LiberationSans-75" x="361.443359"/>
     <use xlink:href="#LiberationSans-72" x="417.058594"/>
     <use xlink:href="#LiberationSans-61" x="450.359375"/>
     <use xlink:href="#LiberationSans-20" x="505.974609"/>
     <use xlink:href="#LiberationSans-52" x="533.757812"/>
     <use xlink:href="#LiberationSans-53" x="605.974609"/>
     <use xlink:href="#LiberationSans-58" x="672.673828"/>
     <use xlink:href="#LiberationSans-20" x="739.373047"/>
     <use xlink:href="#LiberationSans-2d" x="767.15625"/>
     <use xlink:href="#LiberationSans-20" x="800.457031"/>
     <use xlink:href="#LiberationSans-52" x="828.240234"/>
     <use xlink:href="#LiberationSans-65" x="900.457031"/>
     <use xlink:href="#LiberationSans-61" x="956.072266"/>
     <use xlink:href="#LiberationSans-72" x="1011.6875"/>
     <use xlink:href="#LiberationSans-20" x="1044.988281"/>
     <use xlink:href="#LiberationSans-4c" x="1072.771484"/>
     <use xlink:href="#LiberationSans-65" x="1128.386719"/>
     <use xlink:href="#LiberationSans-66" x="1184.001953"/>
     <use xlink:href="#LiberationSans-74" x="1211.785156"/>
     <use xlink:href="#LiberationSans-20" x="1239.568359"/>
     <use xlink:href="#LiberationSans-2d" x="1267.351562"/>
     <use xlink:href="#LiberationSans-20" x="1300.652344"/>
     <use xlink:href="#LiberationSans-41" x="1322.935547"/>
     <use xlink:href="#LiberationSans-52" x="1389.634766"/>
     <use xlink:href="#LiberationSans-42" x="1461.851562"/>
     <use xlink:href="#LiberationSans-20" x="1528.550781"/>
     <use xlink:href="#LiberationSans-4d" x="1556.333984"/>
     <use xlink:href="#LiberationSans-6f" x="1639.634766"/>
     <use xlink:href="#LiberationSans-74" x="1695.25"/>
     <use xlink:href="#LiberationSans-69" x="1723.033203"/>
     <use xlink:href="#LiberationSans-6f" x="1745.25"/>
     <use xlink:href="#LiberationSans-6e" x="1800.865234"/>
     <use xlink:href="#LiberationSans-20" x="1856.480469"/>
     <use xlink:href="#LiberationSans-52" x="1884.263672"/>
     <use xlink:href="#LiberationSans-61" x="1956.480469"/>
     <use xlink:href="#LiberationSans-74" x="2012.095703"/>
     <use xlink:href="#LiberationSans-69" x="2039.878906"/>
     <use xlink:href="#LiberationSans-6f" x="2062.095703"/>
    </g>
   </g>
   <g id="legend_1">
    <g id="line2d_32">
     <path d="M 423.160937 38.186875 
L 433.160937 38.186875 
L 443.160937 38.186875 
" style="fill: none; stroke: #4c72b0; stroke-width: 1.75; stroke-linecap: round"/>
    </g>
    <g id="text_19">
     <!-- ARB Motion Ratio - Left -->
     <g style="fill: #262626" transform="translate(451.160937 41.686875)scale(0.1 -0.1)">
      <use xlink:href="#LiberationSans-41"/>
      <use xlink:href="#LiberationSans-52" x="66.699219"/>
      <use xlink:href="#LiberationSans-42" x="138.916016"/>
      <use xlink:href="#LiberationSans-20" x="205.615234"/>
      <use xlink:href="#LiberationSans-4d" x="233.398438"/>
      <use xlink:href="#LiberationSans-6f" x="316.699219"/>
      <use xlink:href="#LiberationSans-74" x="372.314453"/>
      <use xlink:href="#LiberationSans-69" x="400.097656"/>
      <use xlink:href="#LiberationSans-6f" x="422.314453"/>
      <use xlink:href="#LiberationSans-6e" x="477.929688"/>
      <use xlink:href="#LiberationSans-20" x="533.544922"/>
      <use xlink:href="#LiberationSans-52" x="561.328125"/>
      <use xlink:href="#LiberationSans-61" x="633.544922"/>
      <use xlink:href="#LiberationSans-74" x="689.160156"/>
      <use xlink:href="#LiberationSans-69" x="716.943359"/>
      <use xlink:href="#LiberationSans-6f" x="739.160156"/>
      <use xlink:href="#LiberationSans-20" x="794.775391"/>
      <use xlink:href="#LiberationSans-2d" x="822.558594"/>
      <use xlink:href="#LiberationSans-20" x="855.859375"/>
      <use xlink:href="#LiberationSans-4c" x="883.642578"/>
      <use xlink:href="#LiberationSans-65" x="939.257812"/>
      <use xlink:href="#LiberationSans-66" x="994.873047"/>
      <use xlink:href="#LiberationSans-74" x="1022.65625"/>
     </g>
    </g>
   </g>
  </g>
 </g>
 <defs>
  <clipPath id="p3d8e1a159c">
   <rect x="48.98" y="25.44" width="516.22" height="328.6"/>
  </clipPath>
 </defs>
</svg>
