<?xml version="1.0" encoding="utf-8" standalone="no"?>
<!DOCTYPE svg PUBLIC "-//W3C//DTD SVG 1.1//EN"
  "http://www.w3.org/Graphics/SVG/1.1/DTD/svg11.dtd">
<!-- Created with matplotlib (http://matplotlib.org/) -->
<svg height="360pt" version="1.1" viewBox="0 0 576 360" width="576pt" xmlns="http://www.w3.org/2000/svg" xmlns:xlink="http://www.w3.org/1999/xlink">
 <defs>
  <style type="text/css">
*{stroke-linecap:butt;stroke-linejoin:round;}
  </style>
 </defs>
 <g id="figure_1">
  <g id="patch_1">
   <path d="M 0 360 
L 576 360 
L 576 0 
L 0 0 
z
" style="fill:#ffffff;"/>
  </g>
  <g id="axes_1">
   <g id="patch_2">
    <path d="M 50.96 305.035464 
L 562.68 305.035464 
L 562.68 25.44 
L 50.96 25.44 
z
" style="fill:#ffffff;"/>
   </g>
   <g id="patch_3">
    <path clip-path="url(#pe9f45580b8)" d="M 223.970095 305.035464 
L 223.970095 25.44 
L 443.278667 25.44 
L 443.278667 305.035464 
z
" style="fill:#808080;opacity:0.2;stroke:#808080;stroke-linejoin:miter;"/>
   </g>
   <g id="patch_4">
    <path clip-path="url(#pe9f45580b8)" d="M 276.360476 305.035464 
L 276.360476 25.44 
L 333.624381 25.44 
L 333.624381 305.035464 
z
" style="fill:#ff0000;opacity:0.2;stroke:#ff0000;stroke-linejoin:miter;"/>
   </g>
   <g id="matplotlib.axis_1">
    <g id="xtick_1">
     <g id="line2d_1">
      <path clip-path="url(#pe9f45580b8)" d="M 124.062857 305.035464 
L 124.062857 25.44 
" style="fill:none;stroke:#b0b0b0;stroke-linecap:square;stroke-width:0.8;"/>
     </g>
     <g id="line2d_2">
      <defs>
       <path d="M 0 0 
L 0 3.5 
" id="m5265e778b7" style="stroke:#000000;stroke-width:0.8;"/>
      </defs>
      <g>
       <use style="stroke:#000000;stroke-width:0.8;" x="124.062857" xlink:href="#m5265e778b7" y="305.035464"/>
      </g>
     </g>
     <g id="text_1">
      <!-- 16:00 -->
      <defs>
       <path d="M 12.40625 8.296875 
L 28.515625 8.296875 
L 28.515625 63.921875 
L 10.984375 60.40625 
L 10.984375 69.390625 
L 28.421875 72.90625 
L 38.28125 72.90625 
L 38.28125 8.296875 
L 54.390625 8.296875 
L 54.390625 0 
L 12.40625 0 
z
" id="DejaVuSans-31"/>
       <path d="M 33.015625 40.375 
Q 26.375 40.375 22.484375 35.828125 
Q 18.609375 31.296875 18.609375 23.390625 
Q 18.609375 15.53125 22.484375 10.953125 
Q 26.375 6.390625 33.015625 6.390625 
Q 39.65625 6.390625 43.53125 10.953125 
Q 47.40625 15.53125 47.40625 23.390625 
Q 47.40625 31.296875 43.53125 35.828125 
Q 39.65625 40.375 33.015625 40.375 
z
M 52.59375 71.296875 
L 52.59375 62.3125 
Q 48.875 64.0625 45.09375 64.984375 
Q 41.3125 65.921875 37.59375 65.921875 
Q 27.828125 65.921875 22.671875 59.328125 
Q 17.53125 52.734375 16.796875 39.40625 
Q 19.671875 43.65625 24.015625 45.921875 
Q 28.375 48.1875 33.59375 48.1875 
Q 44.578125 48.1875 50.953125 41.515625 
Q 57.328125 34.859375 57.328125 23.390625 
Q 57.328125 12.15625 50.6875 5.359375 
Q 44.046875 -1.421875 33.015625 -1.421875 
Q 20.359375 -1.421875 13.671875 8.265625 
Q 6.984375 17.96875 6.984375 36.375 
Q 6.984375 53.65625 15.1875 63.9375 
Q 23.390625 74.21875 37.203125 74.21875 
Q 40.921875 74.21875 44.703125 73.484375 
Q 48.484375 72.75 52.59375 71.296875 
z
" id="DejaVuSans-36"/>
       <path d="M 11.71875 12.40625 
L 22.015625 12.40625 
L 22.015625 0 
L 11.71875 0 
z
M 11.71875 51.703125 
L 22.015625 51.703125 
L 22.015625 39.3125 
L 11.71875 39.3125 
z
" id="DejaVuSans-3a"/>
       <path d="M 31.78125 66.40625 
Q 24.171875 66.40625 20.328125 58.90625 
Q 16.5 51.421875 16.5 36.375 
Q 16.5 21.390625 20.328125 13.890625 
Q 24.171875 6.390625 31.78125 6.390625 
Q 39.453125 6.390625 43.28125 13.890625 
Q 47.125 21.390625 47.125 36.375 
Q 47.125 51.421875 43.28125 58.90625 
Q 39.453125 66.40625 31.78125 66.40625 
z
M 31.78125 74.21875 
Q 44.046875 74.21875 50.515625 64.515625 
Q 56.984375 54.828125 56.984375 36.375 
Q 56.984375 17.96875 50.515625 8.265625 
Q 44.046875 -1.421875 31.78125 -1.421875 
Q 19.53125 -1.421875 13.0625 8.265625 
Q 6.59375 17.96875 6.59375 36.375 
Q 6.59375 54.828125 13.0625 64.515625 
Q 19.53125 74.21875 31.78125 74.21875 
z
" id="DejaVuSans-30"/>
      </defs>
      <g transform="translate(98.065244 333.025279)rotate(-30)scale(0.1 -0.1)">
       <use xlink:href="#DejaVuSans-31"/>
       <use x="63.623047" xlink:href="#DejaVuSans-36"/>
       <use x="127.246094" xlink:href="#DejaVuSans-3a"/>
       <use x="160.9375" xlink:href="#DejaVuSans-30"/>
       <use x="224.560547" xlink:href="#DejaVuSans-30"/>
      </g>
     </g>
    </g>
    <g id="xtick_2">
     <g id="line2d_3">
      <path clip-path="url(#pe9f45580b8)" d="M 270.268572 305.035464 
L 270.268572 25.44 
" style="fill:none;stroke:#b0b0b0;stroke-linecap:square;stroke-width:0.8;"/>
     </g>
     <g id="line2d_4">
      <g>
       <use style="stroke:#000000;stroke-width:0.8;" x="270.268572" xlink:href="#m5265e778b7" y="305.035464"/>
      </g>
     </g>
     <g id="text_2">
      <!-- 17:00 -->
      <defs>
       <path d="M 8.203125 72.90625 
L 55.078125 72.90625 
L 55.078125 68.703125 
L 28.609375 0 
L 18.3125 0 
L 43.21875 64.59375 
L 8.203125 64.59375 
z
" id="DejaVuSans-37"/>
      </defs>
      <g transform="translate(244.270958 333.025279)rotate(-30)scale(0.1 -0.1)">
       <use xlink:href="#DejaVuSans-31"/>
       <use x="63.623047" xlink:href="#DejaVuSans-37"/>
       <use x="127.246094" xlink:href="#DejaVuSans-3a"/>
       <use x="160.9375" xlink:href="#DejaVuSans-30"/>
       <use x="224.560547" xlink:href="#DejaVuSans-30"/>
      </g>
     </g>
    </g>
    <g id="xtick_3">
     <g id="line2d_5">
      <path clip-path="url(#pe9f45580b8)" d="M 416.474286 305.035464 
L 416.474286 25.44 
" style="fill:none;stroke:#b0b0b0;stroke-linecap:square;stroke-width:0.8;"/>
     </g>
     <g id="line2d_6">
      <g>
       <use style="stroke:#000000;stroke-width:0.8;" x="416.474286" xlink:href="#m5265e778b7" y="305.035464"/>
      </g>
     </g>
     <g id="text_3">
      <!-- 18:00 -->
      <defs>
       <path d="M 31.78125 34.625 
Q 24.75 34.625 20.71875 30.859375 
Q 16.703125 27.09375 16.703125 20.515625 
Q 16.703125 13.921875 20.71875 10.15625 
Q 24.75 6.390625 31.78125 6.390625 
Q 38.8125 6.390625 42.859375 10.171875 
Q 46.921875 13.96875 46.921875 20.515625 
Q 46.921875 27.09375 42.890625 30.859375 
Q 38.875 34.625 31.78125 34.625 
z
M 21.921875 38.8125 
Q 15.578125 40.375 12.03125 44.71875 
Q 8.5 49.078125 8.5 55.328125 
Q 8.5 64.0625 14.71875 69.140625 
Q 20.953125 74.21875 31.78125 74.21875 
Q 42.671875 74.21875 48.875 69.140625 
Q 55.078125 64.0625 55.078125 55.328125 
Q 55.078125 49.078125 51.53125 44.71875 
Q 48 40.375 41.703125 38.8125 
Q 48.828125 37.15625 52.796875 32.3125 
Q 56.78125 27.484375 56.78125 20.515625 
Q 56.78125 9.90625 50.3125 4.234375 
Q 43.84375 -1.421875 31.78125 -1.421875 
Q 19.734375 -1.421875 13.25 4.234375 
Q 6.78125 9.90625 6.78125 20.515625 
Q 6.78125 27.484375 10.78125 32.3125 
Q 14.796875 37.15625 21.921875 38.8125 
z
M 18.3125 54.390625 
Q 18.3125 48.734375 21.84375 45.5625 
Q 25.390625 42.390625 31.78125 42.390625 
Q 38.140625 42.390625 41.71875 45.5625 
Q 45.3125 48.734375 45.3125 54.390625 
Q 45.3125 60.0625 41.71875 63.234375 
Q 38.140625 66.40625 31.78125 66.40625 
Q 25.390625 66.40625 21.84375 63.234375 
Q 18.3125 60.0625 18.3125 54.390625 
z
" id="DejaVuSans-38"/>
      </defs>
      <g transform="translate(390.476673 333.025279)rotate(-30)scale(0.1 -0.1)">
       <use xlink:href="#DejaVuSans-31"/>
       <use x="63.623047" xlink:href="#DejaVuSans-38"/>
       <use x="127.246094" xlink:href="#DejaVuSans-3a"/>
       <use x="160.9375" xlink:href="#DejaVuSans-30"/>
       <use x="224.560547" xlink:href="#DejaVuSans-30"/>
      </g>
     </g>
    </g>
    <g id="xtick_4">
     <g id="line2d_7">
      <path clip-path="url(#pe9f45580b8)" d="M 562.68 305.035464 
L 562.68 25.44 
" style="fill:none;stroke:#b0b0b0;stroke-linecap:square;stroke-width:0.8;"/>
     </g>
     <g id="line2d_8">
      <g>
       <use style="stroke:#000000;stroke-width:0.8;" x="562.68" xlink:href="#m5265e778b7" y="305.035464"/>
      </g>
     </g>
     <g id="text_4">
      <!-- 19:00 -->
      <defs>
       <path d="M 10.984375 1.515625 
L 10.984375 10.5 
Q 14.703125 8.734375 18.5 7.8125 
Q 22.3125 6.890625 25.984375 6.890625 
Q 35.75 6.890625 40.890625 13.453125 
Q 46.046875 20.015625 46.78125 33.40625 
Q 43.953125 29.203125 39.59375 26.953125 
Q 35.25 24.703125 29.984375 24.703125 
Q 19.046875 24.703125 12.671875 31.3125 
Q 6.296875 37.9375 6.296875 49.421875 
Q 6.296875 60.640625 12.9375 67.421875 
Q 19.578125 74.21875 30.609375 74.21875 
Q 43.265625 74.21875 49.921875 64.515625 
Q 56.59375 54.828125 56.59375 36.375 
Q 56.59375 19.140625 48.40625 8.859375 
Q 40.234375 -1.421875 26.421875 -1.421875 
Q 22.703125 -1.421875 18.890625 -0.6875 
Q 15.09375 0.046875 10.984375 1.515625 
z
M 30.609375 32.421875 
Q 37.25 32.421875 41.125 36.953125 
Q 45.015625 41.5 45.015625 49.421875 
Q 45.015625 57.28125 41.125 61.84375 
Q 37.25 66.40625 30.609375 66.40625 
Q 23.96875 66.40625 20.09375 61.84375 
Q 16.21875 57.28125 16.21875 49.421875 
Q 16.21875 41.5 20.09375 36.953125 
Q 23.96875 32.421875 30.609375 32.421875 
z
" id="DejaVuSans-39"/>
      </defs>
      <g transform="translate(536.682387 333.025279)rotate(-30)scale(0.1 -0.1)">
       <use xlink:href="#DejaVuSans-31"/>
       <use x="63.623047" xlink:href="#DejaVuSans-39"/>
       <use x="127.246094" xlink:href="#DejaVuSans-3a"/>
       <use x="160.9375" xlink:href="#DejaVuSans-30"/>
       <use x="224.560547" xlink:href="#DejaVuSans-30"/>
      </g>
     </g>
    </g>
    <g id="text_5">
     <!-- Time -->
     <defs>
      <path d="M -0.296875 72.90625 
L 61.375 72.90625 
L 61.375 64.59375 
L 35.5 64.59375 
L 35.5 0 
L 25.59375 0 
L 25.59375 64.59375 
L -0.296875 64.59375 
z
" id="DejaVuSans-54"/>
      <path d="M 9.421875 54.6875 
L 18.40625 54.6875 
L 18.40625 0 
L 9.421875 0 
z
M 9.421875 75.984375 
L 18.40625 75.984375 
L 18.40625 64.59375 
L 9.421875 64.59375 
z
" id="DejaVuSans-69"/>
      <path d="M 52 44.1875 
Q 55.375 50.25 60.0625 53.125 
Q 64.75 56 71.09375 56 
Q 79.640625 56 84.28125 50.015625 
Q 88.921875 44.046875 88.921875 33.015625 
L 88.921875 0 
L 79.890625 0 
L 79.890625 32.71875 
Q 79.890625 40.578125 77.09375 44.375 
Q 74.3125 48.1875 68.609375 48.1875 
Q 61.625 48.1875 57.5625 43.546875 
Q 53.515625 38.921875 53.515625 30.90625 
L 53.515625 0 
L 44.484375 0 
L 44.484375 32.71875 
Q 44.484375 40.625 41.703125 44.40625 
Q 38.921875 48.1875 33.109375 48.1875 
Q 26.21875 48.1875 22.15625 43.53125 
Q 18.109375 38.875 18.109375 30.90625 
L 18.109375 0 
L 9.078125 0 
L 9.078125 54.6875 
L 18.109375 54.6875 
L 18.109375 46.1875 
Q 21.1875 51.21875 25.484375 53.609375 
Q 29.78125 56 35.6875 56 
Q 41.65625 56 45.828125 52.96875 
Q 50 49.953125 52 44.1875 
z
" id="DejaVuSans-6d"/>
      <path d="M 56.203125 29.59375 
L 56.203125 25.203125 
L 14.890625 25.203125 
Q 15.484375 15.921875 20.484375 11.0625 
Q 25.484375 6.203125 34.421875 6.203125 
Q 39.59375 6.203125 44.453125 7.46875 
Q 49.3125 8.734375 54.109375 11.28125 
L 54.109375 2.78125 
Q 49.265625 0.734375 44.1875 -0.34375 
Q 39.109375 -1.421875 33.890625 -1.421875 
Q 20.796875 -1.421875 13.15625 6.1875 
Q 5.515625 13.8125 5.515625 26.8125 
Q 5.515625 40.234375 12.765625 48.109375 
Q 20.015625 56 32.328125 56 
Q 43.359375 56 49.78125 48.890625 
Q 56.203125 41.796875 56.203125 29.59375 
z
M 47.21875 32.234375 
Q 47.125 39.59375 43.09375 43.984375 
Q 39.0625 48.390625 32.421875 48.390625 
Q 24.90625 48.390625 20.390625 44.140625 
Q 15.875 39.890625 15.1875 32.171875 
z
" id="DejaVuSans-65"/>
     </defs>
     <g transform="translate(294.4325 346.424779)scale(0.1 -0.1)">
      <use xlink:href="#DejaVuSans-54"/>
      <use x="61.037109" xlink:href="#DejaVuSans-69"/>
      <use x="88.820312" xlink:href="#DejaVuSans-6d"/>
      <use x="186.232422" xlink:href="#DejaVuSans-65"/>
     </g>
    </g>
   </g>
   <g id="matplotlib.axis_2">
    <g id="ytick_1">
     <g id="line2d_9">
      <path clip-path="url(#pe9f45580b8)" d="M 50.96 271.63972 
L 562.68 271.63972 
" style="fill:none;stroke:#b0b0b0;stroke-linecap:square;stroke-width:0.8;"/>
     </g>
     <g id="line2d_10">
      <defs>
       <path d="M 0 0 
L -3.5 0 
" id="mf4caf85354" style="stroke:#000000;stroke-width:0.8;"/>
      </defs>
      <g>
       <use style="stroke:#000000;stroke-width:0.8;" x="50.96" xlink:href="#mf4caf85354" y="271.63972"/>
      </g>
     </g>
     <g id="text_6">
      <!-- 60 -->
      <g transform="translate(31.235 275.438939)scale(0.1 -0.1)">
       <use xlink:href="#DejaVuSans-36"/>
       <use x="63.623047" xlink:href="#DejaVuSans-30"/>
      </g>
     </g>
    </g>
    <g id="ytick_2">
     <g id="line2d_11">
      <path clip-path="url(#pe9f45580b8)" d="M 50.96 231.004817 
L 562.68 231.004817 
" style="fill:none;stroke:#b0b0b0;stroke-linecap:square;stroke-width:0.8;"/>
     </g>
     <g id="line2d_12">
      <g>
       <use style="stroke:#000000;stroke-width:0.8;" x="50.96" xlink:href="#mf4caf85354" y="231.004817"/>
      </g>
     </g>
     <g id="text_7">
      <!-- 70 -->
      <g transform="translate(31.235 234.804036)scale(0.1 -0.1)">
       <use xlink:href="#DejaVuSans-37"/>
       <use x="63.623047" xlink:href="#DejaVuSans-30"/>
      </g>
     </g>
    </g>
    <g id="ytick_3">
     <g id="line2d_13">
      <path clip-path="url(#pe9f45580b8)" d="M 50.96 190.369915 
L 562.68 190.369915 
" style="fill:none;stroke:#b0b0b0;stroke-linecap:square;stroke-width:0.8;"/>
     </g>
     <g id="line2d_14">
      <g>
       <use style="stroke:#000000;stroke-width:0.8;" x="50.96" xlink:href="#mf4caf85354" y="190.369915"/>
      </g>
     </g>
     <g id="text_8">
      <!-- 80 -->
      <g transform="translate(31.235 194.169134)scale(0.1 -0.1)">
       <use xlink:href="#DejaVuSans-38"/>
       <use x="63.623047" xlink:href="#DejaVuSans-30"/>
      </g>
     </g>
    </g>
    <g id="ytick_4">
     <g id="line2d_15">
      <path clip-path="url(#pe9f45580b8)" d="M 50.96 149.735012 
L 562.68 149.735012 
" style="fill:none;stroke:#b0b0b0;stroke-linecap:square;stroke-width:0.8;"/>
     </g>
     <g id="line2d_16">
      <g>
       <use style="stroke:#000000;stroke-width:0.8;" x="50.96" xlink:href="#mf4caf85354" y="149.735012"/>
      </g>
     </g>
     <g id="text_9">
      <!-- 90 -->
      <g transform="translate(31.235 153.534231)scale(0.1 -0.1)">
       <use xlink:href="#DejaVuSans-39"/>
       <use x="63.623047" xlink:href="#DejaVuSans-30"/>
      </g>
     </g>
    </g>
    <g id="ytick_5">
     <g id="line2d_17">
      <path clip-path="url(#pe9f45580b8)" d="M 50.96 109.10011 
L 562.68 109.10011 
" style="fill:none;stroke:#b0b0b0;stroke-linecap:square;stroke-width:0.8;"/>
     </g>
     <g id="line2d_18">
      <g>
       <use style="stroke:#000000;stroke-width:0.8;" x="50.96" xlink:href="#mf4caf85354" y="109.10011"/>
      </g>
     </g>
     <g id="text_10">
      <!-- 100 -->
      <g transform="translate(24.8725 112.899329)scale(0.1 -0.1)">
       <use xlink:href="#DejaVuSans-31"/>
       <use x="63.623047" xlink:href="#DejaVuSans-30"/>
       <use x="127.246094" xlink:href="#DejaVuSans-30"/>
      </g>
     </g>
    </g>
    <g id="ytick_6">
     <g id="line2d_19">
      <path clip-path="url(#pe9f45580b8)" d="M 50.96 68.465207 
L 562.68 68.465207 
" style="fill:none;stroke:#b0b0b0;stroke-linecap:square;stroke-width:0.8;"/>
     </g>
     <g id="line2d_20">
      <g>
       <use style="stroke:#000000;stroke-width:0.8;" x="50.96" xlink:href="#mf4caf85354" y="68.465207"/>
      </g>
     </g>
     <g id="text_11">
      <!-- 110 -->
      <g transform="translate(24.8725 72.264426)scale(0.1 -0.1)">
       <use xlink:href="#DejaVuSans-31"/>
       <use x="63.623047" xlink:href="#DejaVuSans-31"/>
       <use x="127.246094" xlink:href="#DejaVuSans-30"/>
      </g>
     </g>
    </g>
    <g id="ytick_7">
     <g id="line2d_21">
      <path clip-path="url(#pe9f45580b8)" d="M 50.96 27.830305 
L 562.68 27.830305 
" style="fill:none;stroke:#b0b0b0;stroke-linecap:square;stroke-width:0.8;"/>
     </g>
     <g id="line2d_22">
      <g>
       <use style="stroke:#000000;stroke-width:0.8;" x="50.96" xlink:href="#mf4caf85354" y="27.830305"/>
      </g>
     </g>
     <g id="text_12">
      <!-- 120 -->
      <defs>
       <path d="M 19.1875 8.296875 
L 53.609375 8.296875 
L 53.609375 0 
L 7.328125 0 
L 7.328125 8.296875 
Q 12.9375 14.109375 22.625 23.890625 
Q 32.328125 33.6875 34.8125 36.53125 
Q 39.546875 41.84375 41.421875 45.53125 
Q 43.3125 49.21875 43.3125 52.78125 
Q 43.3125 58.59375 39.234375 62.25 
Q 35.15625 65.921875 28.609375 65.921875 
Q 23.96875 65.921875 18.8125 64.3125 
Q 13.671875 62.703125 7.8125 59.421875 
L 7.8125 69.390625 
Q 13.765625 71.78125 18.9375 73 
Q 24.125 74.21875 28.421875 74.21875 
Q 39.75 74.21875 46.484375 68.546875 
Q 53.21875 62.890625 53.21875 53.421875 
Q 53.21875 48.921875 51.53125 44.890625 
Q 49.859375 40.875 45.40625 35.40625 
Q 44.1875 33.984375 37.640625 27.21875 
Q 31.109375 20.453125 19.1875 8.296875 
z
" id="DejaVuSans-32"/>
      </defs>
      <g transform="translate(24.8725 31.629524)scale(0.1 -0.1)">
       <use xlink:href="#DejaVuSans-31"/>
       <use x="63.623047" xlink:href="#DejaVuSans-32"/>
       <use x="127.246094" xlink:href="#DejaVuSans-30"/>
      </g>
     </g>
    </g>
    <g id="text_13">
     <!-- Heart Rate [BPM] -->
     <defs>
      <path d="M 9.8125 72.90625 
L 19.671875 72.90625 
L 19.671875 43.015625 
L 55.515625 43.015625 
L 55.515625 72.90625 
L 65.375 72.90625 
L 65.375 0 
L 55.515625 0 
L 55.515625 34.71875 
L 19.671875 34.71875 
L 19.671875 0 
L 9.8125 0 
z
" id="DejaVuSans-48"/>
      <path d="M 34.28125 27.484375 
Q 23.390625 27.484375 19.1875 25 
Q 14.984375 22.515625 14.984375 16.5 
Q 14.984375 11.71875 18.140625 8.90625 
Q 21.296875 6.109375 26.703125 6.109375 
Q 34.1875 6.109375 38.703125 11.40625 
Q 43.21875 16.703125 43.21875 25.484375 
L 43.21875 27.484375 
z
M 52.203125 31.203125 
L 52.203125 0 
L 43.21875 0 
L 43.21875 8.296875 
Q 40.140625 3.328125 35.546875 0.953125 
Q 30.953125 -1.421875 24.3125 -1.421875 
Q 15.921875 -1.421875 10.953125 3.296875 
Q 6 8.015625 6 15.921875 
Q 6 25.140625 12.171875 29.828125 
Q 18.359375 34.515625 30.609375 34.515625 
L 43.21875 34.515625 
L 43.21875 35.40625 
Q 43.21875 41.609375 39.140625 45 
Q 35.0625 48.390625 27.6875 48.390625 
Q 23 48.390625 18.546875 47.265625 
Q 14.109375 46.140625 10.015625 43.890625 
L 10.015625 52.203125 
Q 14.9375 54.109375 19.578125 55.046875 
Q 24.21875 56 28.609375 56 
Q 40.484375 56 46.34375 49.84375 
Q 52.203125 43.703125 52.203125 31.203125 
z
" id="DejaVuSans-61"/>
      <path d="M 41.109375 46.296875 
Q 39.59375 47.171875 37.8125 47.578125 
Q 36.03125 48 33.890625 48 
Q 26.265625 48 22.1875 43.046875 
Q 18.109375 38.09375 18.109375 28.8125 
L 18.109375 0 
L 9.078125 0 
L 9.078125 54.6875 
L 18.109375 54.6875 
L 18.109375 46.1875 
Q 20.953125 51.171875 25.484375 53.578125 
Q 30.03125 56 36.53125 56 
Q 37.453125 56 38.578125 55.875 
Q 39.703125 55.765625 41.0625 55.515625 
z
" id="DejaVuSans-72"/>
      <path d="M 18.3125 70.21875 
L 18.3125 54.6875 
L 36.8125 54.6875 
L 36.8125 47.703125 
L 18.3125 47.703125 
L 18.3125 18.015625 
Q 18.3125 11.328125 20.140625 9.421875 
Q 21.96875 7.515625 27.59375 7.515625 
L 36.8125 7.515625 
L 36.8125 0 
L 27.59375 0 
Q 17.1875 0 13.234375 3.875 
Q 9.28125 7.765625 9.28125 18.015625 
L 9.28125 47.703125 
L 2.6875 47.703125 
L 2.6875 54.6875 
L 9.28125 54.6875 
L 9.28125 70.21875 
z
" id="DejaVuSans-74"/>
      <path id="DejaVuSans-20"/>
      <path d="M 44.390625 34.1875 
Q 47.5625 33.109375 50.5625 29.59375 
Q 53.5625 26.078125 56.59375 19.921875 
L 66.609375 0 
L 56 0 
L 46.6875 18.703125 
Q 43.0625 26.03125 39.671875 28.421875 
Q 36.28125 30.8125 30.421875 30.8125 
L 19.671875 30.8125 
L 19.671875 0 
L 9.8125 0 
L 9.8125 72.90625 
L 32.078125 72.90625 
Q 44.578125 72.90625 50.734375 67.671875 
Q 56.890625 62.453125 56.890625 51.90625 
Q 56.890625 45.015625 53.6875 40.46875 
Q 50.484375 35.9375 44.390625 34.1875 
z
M 19.671875 64.796875 
L 19.671875 38.921875 
L 32.078125 38.921875 
Q 39.203125 38.921875 42.84375 42.21875 
Q 46.484375 45.515625 46.484375 51.90625 
Q 46.484375 58.296875 42.84375 61.546875 
Q 39.203125 64.796875 32.078125 64.796875 
z
" id="DejaVuSans-52"/>
      <path d="M 8.59375 75.984375 
L 29.296875 75.984375 
L 29.296875 69 
L 17.578125 69 
L 17.578125 -6.203125 
L 29.296875 -6.203125 
L 29.296875 -13.1875 
L 8.59375 -13.1875 
z
" id="DejaVuSans-5b"/>
      <path d="M 19.671875 34.8125 
L 19.671875 8.109375 
L 35.5 8.109375 
Q 43.453125 8.109375 47.28125 11.40625 
Q 51.125 14.703125 51.125 21.484375 
Q 51.125 28.328125 47.28125 31.5625 
Q 43.453125 34.8125 35.5 34.8125 
z
M 19.671875 64.796875 
L 19.671875 42.828125 
L 34.28125 42.828125 
Q 41.5 42.828125 45.03125 45.53125 
Q 48.578125 48.25 48.578125 53.8125 
Q 48.578125 59.328125 45.03125 62.0625 
Q 41.5 64.796875 34.28125 64.796875 
z
M 9.8125 72.90625 
L 35.015625 72.90625 
Q 46.296875 72.90625 52.390625 68.21875 
Q 58.5 63.53125 58.5 54.890625 
Q 58.5 48.1875 55.375 44.234375 
Q 52.25 40.28125 46.1875 39.3125 
Q 53.46875 37.75 57.5 32.78125 
Q 61.53125 27.828125 61.53125 20.40625 
Q 61.53125 10.640625 54.890625 5.3125 
Q 48.25 0 35.984375 0 
L 9.8125 0 
z
" id="DejaVuSans-42"/>
      <path d="M 19.671875 64.796875 
L 19.671875 37.40625 
L 32.078125 37.40625 
Q 38.96875 37.40625 42.71875 40.96875 
Q 46.484375 44.53125 46.484375 51.125 
Q 46.484375 57.671875 42.71875 61.234375 
Q 38.96875 64.796875 32.078125 64.796875 
z
M 9.8125 72.90625 
L 32.078125 72.90625 
Q 44.34375 72.90625 50.609375 67.359375 
Q 56.890625 61.8125 56.890625 51.125 
Q 56.890625 40.328125 50.609375 34.8125 
Q 44.34375 29.296875 32.078125 29.296875 
L 19.671875 29.296875 
L 19.671875 0 
L 9.8125 0 
z
" id="DejaVuSans-50"/>
      <path d="M 9.8125 72.90625 
L 24.515625 72.90625 
L 43.109375 23.296875 
L 61.8125 72.90625 
L 76.515625 72.90625 
L 76.515625 0 
L 66.890625 0 
L 66.890625 64.015625 
L 48.09375 14.015625 
L 38.1875 14.015625 
L 19.390625 64.015625 
L 19.390625 0 
L 9.8125 0 
z
" id="DejaVuSans-4d"/>
      <path d="M 30.421875 75.984375 
L 30.421875 -13.1875 
L 9.71875 -13.1875 
L 9.71875 -6.203125 
L 21.390625 -6.203125 
L 21.390625 69 
L 9.71875 69 
L 9.71875 75.984375 
z
" id="DejaVuSans-5d"/>
     </defs>
     <g transform="translate(18.792813 208.566638)rotate(-90)scale(0.1 -0.1)">
      <use xlink:href="#DejaVuSans-48"/>
      <use x="75.195312" xlink:href="#DejaVuSans-65"/>
      <use x="136.71875" xlink:href="#DejaVuSans-61"/>
      <use x="197.998047" xlink:href="#DejaVuSans-72"/>
      <use x="239.111328" xlink:href="#DejaVuSans-74"/>
      <use x="278.320312" xlink:href="#DejaVuSans-20"/>
      <use x="310.107422" xlink:href="#DejaVuSans-52"/>
      <use x="379.558594" xlink:href="#DejaVuSans-61"/>
      <use x="440.837891" xlink:href="#DejaVuSans-74"/>
      <use x="480.046875" xlink:href="#DejaVuSans-65"/>
      <use x="541.570312" xlink:href="#DejaVuSans-20"/>
      <use x="573.357422" xlink:href="#DejaVuSans-5b"/>
      <use x="612.371094" xlink:href="#DejaVuSans-42"/>
      <use x="680.974609" xlink:href="#DejaVuSans-50"/>
      <use x="741.277344" xlink:href="#DejaVuSans-4d"/>
      <use x="827.556641" xlink:href="#DejaVuSans-5d"/>
     </g>
    </g>
   </g>
   <g id="line2d_23">
    <path clip-path="url(#pe9f45580b8)" d="M 48.117111 235.275727 
L 60.300921 235.918405 
L 84.66854 241.194709 
L 109.036159 246.268878 
L 121.219968 240.338626 
L 133.403778 227.947017 
L 145.587587 214.234435 
L 157.771397 195.35755 
L 169.955206 200.621513 
L 182.788819 180.627207 
L 188.718273 187.668979 
L 188.799499 192.182625 
L 189.408689 201.690537 
L 190.017879 205.480868 
L 191.683 208.94372 
L 192.373416 209.678312 
L 192.698318 209.986634 
L 193.307508 212.683991 
L 194.322825 215.266687 
L 194.810178 218.946813 
L 195.013241 222.310977 
L 195.378756 231.288413 
L 195.947333 238.280043 
L 196.312848 236.390257 
L 196.35346 234.138187 
L 196.962651 228.716995 
L 197.571841 225.691186 
L 198.181032 224.505932 
L 199.115124 223.820022 
L 199.399413 223.662991 
L 200.008604 215.973351 
L 200.536569 204.312338 
L 200.820858 201.311352 
L 202.161076 227.477189 
L 203.054555 239.822905 
L 203.298232 239.707721 
L 203.58252 238.257237 
L 203.663746 238.402997 
L 203.86681 240.556209 
L 204.272936 241.926968 
L 204.882127 238.589644 
L 205.491318 235.394185 
L 205.775606 238.726114 
L 206.059896 240.148224 
L 206.100508 244.719559 
L 206.344184 248.529004 
L 206.912762 254.348989 
L 207.237664 257.908026 
L 207.318889 262.905635 
L 207.521953 263.006819 
L 207.765629 259.704897 
L 208.374819 224.267403 
L 208.780946 184.449533 
L 209.390136 136.827388 
L 210.364841 106.490495 
L 212.192413 84.049285 
L 212.436089 80.097442 
L 213.288956 71.772958 
L 213.613857 68.279012 
L 213.938759 67.632796 
L 214.019984 67.094283 
L 214.26366 67.32277 
L 214.629175 65.301479 
L 215.847556 64.83563 
L 216.253683 65.944668 
L 216.700422 73.600191 
L 217.065937 76.807851 
L 217.593902 94.350411 
L 217.675127 101.549433 
L 217.918804 108.225866 
L 219.462086 131.127231 
L 219.502699 130.842286 
L 220.111889 130.406953 
L 220.721079 146.639149 
L 221.045981 150.541368 
L 221.289657 158.533956 
L 221.33027 163.839949 
L 221.614559 166.907113 
L 222.142524 191.954743 
L 222.467425 199.140337 
L 222.548651 205.128332 
L 223.157841 214.276658 
L 223.767032 216.904796 
L 224.051321 217.223054 
L 224.294997 216.133773 
L 224.376222 214.54879 
L 224.619899 213.227971 
L 224.985413 212.127289 
L 226.44747 186.774574 
L 227.056661 180.764296 
L 227.34095 181.010736 
L 227.422175 180.538854 
L 228.031365 179.544843 
L 228.640556 179.127638 
L 230.062 181.199628 
L 230.305676 180.696264 
L 230.711803 179.599546 
L 231.077317 181.64887 
L 231.483445 182.425129 
L 231.686508 183.74926 
L 231.930184 183.498206 
L 232.255086 183.966242 
L 232.295698 181.647279 
L 232.904889 177.42717 
L 233.51408 167.679437 
L 234.326333 166.967251 
L 235.341651 152.125938 
L 235.747778 149.695706 
L 235.950841 146.316015 
L 236.275743 142.822357 
L 236.560032 137.879231 
L 237.412899 111.609936 
L 238.631279 93.83553 
L 238.956181 92.993384 
L 239.24047 91.614348 
L 239.565372 91.1424 
L 239.605984 90.74911 
L 240.215175 90.14825 
L 240.458851 91.275148 
L 240.661915 91.536981 
L 240.824365 92.432424 
L 241.108654 92.501378 
L 241.433556 90.236356 
L 241.839683 89.316824 
L 242.042746 89.227797 
L 242.24581 89.830855 
L 242.489486 88.978908 
L 242.895613 90.837813 
L 243.870317 99.082218 
L 244.80441 102.165091 
L 245.048086 102.643679 
L 245.088698 103.042502 
L 245.372987 103.374855 
L 245.616663 102.974568 
L 245.941566 106.200758 
L 246.225854 108.03848 
L 246.510143 112.200608 
L 246.794432 114.392852 
L 247.159946 118.419361 
L 247.525461 120.5383 
L 248.134651 119.1433 
L 248.337714 120.178428 
L 248.581391 122.395532 
L 248.987517 134.587003 
L 249.353032 138.989812 
L 249.840384 133.468839 
L 249.962222 128.052887 
L 250.205898 124.894091 
L 250.571413 117.020535 
L 250.896314 115.700464 
L 251.383667 109.958823 
L 251.789793 109.138456 
L 252.155308 109.132065 
L 252.642661 107.880679 
L 252.926949 107.406669 
L 253.008174 107.688909 
L 253.211238 105.892364 
L 253.617365 103.824891 
L 254.226556 106.114012 
L 254.754521 103.865938 
L 254.835746 102.029307 
L 255.038809 100.49878 
L 255.648 98.160476 
L 255.932289 97.952003 
L 256.297803 99.552374 
L 256.541479 99.789166 
L 256.663318 102.018239 
L 257.191283 104.182144 
L 257.272508 105.679053 
L 257.597409 104.894732 
L 257.881699 104.938087 
L 258.125374 103.600012 
L 258.490889 103.162198 
L 258.734565 103.474602 
L 259.10008 102.710263 
L 259.424981 103.097989 
L 259.70927 102.743846 
L 260.31846 93.908494 
L 260.887038 90.536271 
L 260.927651 88.212257 
L 261.455616 86.467676 
L 261.536841 85.49901 
L 261.861743 86.046284 
L 262.146032 87.179595 
L 263.364413 69.25908 
L 263.811152 60.325154 
L 264.420343 54.121038 
L 264.582794 51.093746 
L 264.82647 49.925499 
L 265.191984 49.3823 
L 266.004238 42.484769 
L 266.654042 38.587205 
L 266.857105 38.148885 
L 267.263232 38.720851 
L 267.466295 38.937505 
L 268.481613 44.797006 
L 268.88774 47.062468 
L 270.106121 88.021698 
L 270.715312 98.613888 
L 271.568178 104.739158 
L 271.933692 109.119289 
L 272.380432 110.35505 
L 272.542883 116.241129 
L 272.989623 127.24143 
L 273.355137 140.886953 
L 273.761264 151.040259 
L 274.370454 157.338097 
L 275.426384 137.392224 
L 275.588835 130.645127 
L 276.198025 116.432491 
L 276.685378 104.14619 
L 277.01028 92.002046 
L 277.335181 87.401991 
L 277.416407 83.568612 
L 277.61947 80.374129 
L 278.391111 96.671456 
L 278.797238 104.193966 
L 279.447042 111.396707 
L 279.690718 113.045686 
L 279.771943 114.419835 
L 280.584197 117.314455 
L 280.787261 117.977142 
L 281.355838 117.74796 
L 281.558902 116.9839 
L 281.599514 116.347183 
L 282.208705 115.374422 
L 282.533607 116.360448 
L 283.305248 120.149428 
L 283.427086 121.694117 
L 283.711375 122.981358 
L 283.914438 122.699561 
L 284.23934 117.189677 
L 284.523629 115.164167 
L 284.645467 112.121746 
L 284.84853 110.940891 
L 285.051594 111.311343 
L 285.254657 112.297301 
L 285.823235 113.803625 
L 285.863848 115.7287 
L 286.148137 115.301183 
L 286.676102 109.246015 
L 286.919778 107.8672 
L 287.082229 105.363692 
L 287.691419 100.974513 
L 287.894483 100.297034 
L 288.30061 99.732468 
L 288.787962 101.353181 
L 289.518991 110.236555 
L 290.087568 118.016289 
L 290.128181 120.593749 
L 290.41247 123.418881 
L 290.656146 124.418661 
L 290.737371 122.542818 
L 291.184111 121.656863 
L 291.590238 114.659585 
L 291.955753 112.378509 
L 292.158816 109.800364 
L 292.361879 109.006407 
L 292.889844 110.953909 
L 293.174134 112.676687 
L 293.417809 112.757839 
L 293.620873 114.179963 
L 293.783324 116.719563 
L 294.067613 116.804151 
L 294.311289 115.520144 
L 294.392514 114.450138 
L 294.595578 114.235715 
L 294.798641 112.702533 
L 295.204769 111.601792 
L 295.448444 111.862094 
L 295.610895 112.75626 
L 295.854571 114.855895 
L 296.13886 115.928343 
L 296.504375 118.921301 
L 296.748051 119.993429 
L 296.829276 121.564118 
L 297.03234 120.164032 
L 297.235404 120.35179 
L 297.682143 122.557513 
L 298.047657 124.653639 
L 298.413171 125.447626 
L 298.616235 126.78653 
L 298.656848 128.579532 
L 299.225425 134.479333 
L 299.266038 137.021946 
L 299.834616 139.664872 
L 299.875229 140.66598 
L 300.159518 140.145741 
L 300.362581 138.357711 
L 300.484419 136.190437 
L 300.687483 135.738873 
L 301.09361 132.565739 
L 301.580962 124.041189 
L 301.905864 112.590501 
L 302.311991 101.703891 
L 302.880569 97.078488 
L 302.921181 95.69585 
L 303.124245 93.189155 
L 303.489759 91.100242 
L 303.530372 90.03673 
L 303.733435 88.473221 
L 304.098949 87.847546 
L 304.423851 88.810523 
L 304.626915 90.837624 
L 304.748752 93.204123 
L 304.951816 94.498958 
L 305.276718 95.577986 
L 305.357943 97.154425 
L 305.845295 98.9985 
L 305.967134 101.35935 
L 306.495099 104.966204 
L 306.576324 106.332437 
L 307.104289 104.694871 
L 307.469803 107.395413 
L 307.794705 108.356777 
L 308.241445 109.157914 
L 308.403895 110.502777 
L 308.76941 110.946248 
L 309.216149 112.865394 
L 309.622276 116.00413 
L 309.82534 116.207957 
L 310.231467 115.277737 
L 310.43453 113.570884 
L 310.840657 113.446436 
L 311.449848 114.601636 
L 311.734137 116.393708 
L 312.627616 124.848701 
L 312.668229 127.641923 
L 312.911905 127.937863 
L 313.277419 127.148371 
L 313.805384 124.681242 
L 313.88661 122.761635 
L 314.089674 121.839211 
L 314.4958 121.671574 
L 314.739476 119.57633 
L 315.10499 118.294133 
L 315.38928 118.793541 
L 315.917245 122.039769 
L 316.323371 126.777339 
L 316.648273 128.571872 
L 317.419915 130.640091 
L 317.541752 129.759088 
L 317.826041 129.702167 
L 318.110331 130.331981 
L 318.150943 129.502329 
L 318.394619 127.456456 
L 318.760134 125.008065 
L 319.00381 125.742981 
L 319.897289 129.843405 
L 319.978515 131.126928 
L 320.262803 132.19653 
L 320.465867 133.765114 
L 320.831381 138.75768 
L 321.440571 141.106082 
L 321.806086 141.866989 
L 321.806086 141.823829 
L 322.334051 137.355777 
L 322.415277 133.323747 
L 322.61834 130.640971 
L 323.024467 129.025529 
L 323.308756 127.736371 
L 323.877333 127.008446 
L 324.080397 128.087214 
L 324.7302 135.232043 
L 324.852038 137.649205 
L 325.17694 138.309009 
L 325.461229 138.181598 
L 325.461229 137.398174 
L 325.664292 137.422568 
L 325.948581 136.765649 
L 326.070419 135.540967 
L 326.273483 135.197648 
L 327.248188 128.182296 
L 327.2888 126.356428 
L 327.532476 125.51212 
L 327.897991 123.657832 
L 328.141667 124.617787 
L 328.507181 124.842762 
L 328.710245 125.605229 
L 328.913308 126.917866 
L 329.725562 136.267271 
L 330.334753 140.229247 
L 330.862718 145.052657 
L 330.943943 148.542043 
L 331.309457 152.804361 
L 331.553133 153.6473 
L 332.162324 157.812116 
L 332.730902 160.3106 
L 332.771514 161.934244 
L 333.380705 167.988164 
L 333.705606 167.654965 
L 333.949283 166.700052 
L 334.233572 169.078896 
L 334.51786 171.272903 
L 334.599086 173.101241 
L 334.80215 173.947608 
L 335.208276 174.652914 
L 335.451952 173.886173 
L 335.695629 173.924469 
L 335.817467 173.279135 
L 336.02053 171.38686 
L 336.223594 171.16446 
L 336.426657 171.656376 
L 336.954622 174.891158 
L 337.238911 171.380923 
L 337.645038 164.766895 
L 338.091778 160.851068 
L 338.741581 156.638226 
L 338.863419 156.164939 
L 339.066483 157.802278 
L 339.310159 157.134982 
L 339.47261 157.256151 
L 339.959962 159.360139 
L 340.0818 161.142193 
L 340.569152 163.864776 
L 340.690991 165.573306 
L 341.218956 168.183559 
L 341.300181 170.526788 
L 341.868759 174.78397 
L 341.909372 177.381628 
L 342.153048 180.223591 
L 342.965302 186.210133 
L 343.412042 190.077296 
L 344.346133 193.966206 
L 344.711648 196.753066 
L 344.955324 199.752698 
L 345.564514 202.6475 
L 345.808191 206.019223 
L 346.133092 208.828992 
L 346.173705 212.524963 
L 346.782896 223.734324 
L 347.392086 228.439107 
L 347.7576 229.543974 
L 348.20434 229.787448 
L 348.407403 231.34484 
L 348.610467 234.674411 
L 348.854143 242.189793 
L 349.503946 251.63988 
L 349.747622 252.941442 
L 349.828848 254.026076 
L 350.031911 258.993429 
L 350.3162 261.778392 
L 350.438038 264.099195 
L 350.681715 265.355949 
L 350.925391 263.017003 
L 351.047229 257.00439 
L 351.859483 241.931591 
L 352.103159 240.787711 
L 353.362153 211.068871 
L 354.093181 189.839023 
L 354.296245 183.83227 
L 354.702372 178.493026 
L 354.98666 178.440763 
L 355.311562 179.751706 
L 355.798914 183.560532 
L 355.920753 184.018181 
L 356.123816 183.722307 
L 356.367492 182.798496 
L 356.529943 183.383151 
L 356.854845 181.838618 
L 357.057908 179.197011 
L 357.139133 176.318423 
L 357.707711 171.92058 
L 357.748324 170.254731 
L 358.276289 168.951305 
L 358.357514 169.81208 
L 358.601191 191.524092 
L 370.906838 199.458709 
L 383.090648 209.457133 
L 395.274457 206.27593 
L 407.458267 215.815398 
L 419.642076 216.315223 
L 431.825886 223.504227 
L 444.009696 234.235803 
L 456.193505 241.147037 
L 468.377315 219.139216 
L 480.561124 227.212052 
L 492.744934 239.357402 
L 504.928743 248.801278 
L 517.112553 255.993927 
L 529.296362 240.315853 
L 553.663981 224.541798 
L 577 230.761983 
L 577 230.761983 
" style="fill:none;stroke:#000000;stroke-linecap:square;stroke-width:1.5;"/>
   </g>
   <g id="patch_5">
    <path d="M 50.96 305.035464 
L 50.96 25.44 
" style="fill:none;stroke:#000000;stroke-linecap:square;stroke-linejoin:miter;stroke-width:0.8;"/>
   </g>
   <g id="patch_6">
    <path d="M 562.68 305.035464 
L 562.68 25.44 
" style="fill:none;stroke:#000000;stroke-linecap:square;stroke-linejoin:miter;stroke-width:0.8;"/>
   </g>
   <g id="patch_7">
    <path d="M 50.96 305.035464 
L 562.68 305.035464 
" style="fill:none;stroke:#000000;stroke-linecap:square;stroke-linejoin:miter;stroke-width:0.8;"/>
   </g>
   <g id="patch_8">
    <path d="M 50.96 25.44 
L 562.68 25.44 
" style="fill:none;stroke:#000000;stroke-linecap:square;stroke-linejoin:miter;stroke-width:0.8;"/>
   </g>
   <g id="text_14">
    <!-- Driver Heart Rate - Lupus Grand Prix 2018 -->
    <defs>
     <path d="M 19.671875 64.796875 
L 19.671875 8.109375 
L 31.59375 8.109375 
Q 46.6875 8.109375 53.6875 14.9375 
Q 60.6875 21.78125 60.6875 36.53125 
Q 60.6875 51.171875 53.6875 57.984375 
Q 46.6875 64.796875 31.59375 64.796875 
z
M 9.8125 72.90625 
L 30.078125 72.90625 
Q 51.265625 72.90625 61.171875 64.09375 
Q 71.09375 55.28125 71.09375 36.53125 
Q 71.09375 17.671875 61.125 8.828125 
Q 51.171875 0 30.078125 0 
L 9.8125 0 
z
" id="DejaVuSans-44"/>
     <path d="M 2.984375 54.6875 
L 12.5 54.6875 
L 29.59375 8.796875 
L 46.6875 54.6875 
L 56.203125 54.6875 
L 35.6875 0 
L 23.484375 0 
z
" id="DejaVuSans-76"/>
     <path d="M 4.890625 31.390625 
L 31.203125 31.390625 
L 31.203125 23.390625 
L 4.890625 23.390625 
z
" id="DejaVuSans-2d"/>
     <path d="M 9.8125 72.90625 
L 19.671875 72.90625 
L 19.671875 8.296875 
L 55.171875 8.296875 
L 55.171875 0 
L 9.8125 0 
z
" id="DejaVuSans-4c"/>
     <path d="M 8.5 21.578125 
L 8.5 54.6875 
L 17.484375 54.6875 
L 17.484375 21.921875 
Q 17.484375 14.15625 20.5 10.265625 
Q 23.53125 6.390625 29.59375 6.390625 
Q 36.859375 6.390625 41.078125 11.03125 
Q 45.3125 15.671875 45.3125 23.6875 
L 45.3125 54.6875 
L 54.296875 54.6875 
L 54.296875 0 
L 45.3125 0 
L 45.3125 8.40625 
Q 42.046875 3.421875 37.71875 1 
Q 33.40625 -1.421875 27.6875 -1.421875 
Q 18.265625 -1.421875 13.375 4.4375 
Q 8.5 10.296875 8.5 21.578125 
z
M 31.109375 56 
z
" id="DejaVuSans-75"/>
     <path d="M 18.109375 8.203125 
L 18.109375 -20.796875 
L 9.078125 -20.796875 
L 9.078125 54.6875 
L 18.109375 54.6875 
L 18.109375 46.390625 
Q 20.953125 51.265625 25.265625 53.625 
Q 29.59375 56 35.59375 56 
Q 45.5625 56 51.78125 48.09375 
Q 58.015625 40.1875 58.015625 27.296875 
Q 58.015625 14.40625 51.78125 6.484375 
Q 45.5625 -1.421875 35.59375 -1.421875 
Q 29.59375 -1.421875 25.265625 0.953125 
Q 20.953125 3.328125 18.109375 8.203125 
z
M 48.6875 27.296875 
Q 48.6875 37.203125 44.609375 42.84375 
Q 40.53125 48.484375 33.40625 48.484375 
Q 26.265625 48.484375 22.1875 42.84375 
Q 18.109375 37.203125 18.109375 27.296875 
Q 18.109375 17.390625 22.1875 11.75 
Q 26.265625 6.109375 33.40625 6.109375 
Q 40.53125 6.109375 44.609375 11.75 
Q 48.6875 17.390625 48.6875 27.296875 
z
" id="DejaVuSans-70"/>
     <path d="M 44.28125 53.078125 
L 44.28125 44.578125 
Q 40.484375 46.53125 36.375 47.5 
Q 32.28125 48.484375 27.875 48.484375 
Q 21.1875 48.484375 17.84375 46.4375 
Q 14.5 44.390625 14.5 40.28125 
Q 14.5 37.15625 16.890625 35.375 
Q 19.28125 33.59375 26.515625 31.984375 
L 29.59375 31.296875 
Q 39.15625 29.25 43.1875 25.515625 
Q 47.21875 21.78125 47.21875 15.09375 
Q 47.21875 7.46875 41.1875 3.015625 
Q 35.15625 -1.421875 24.609375 -1.421875 
Q 20.21875 -1.421875 15.453125 -0.5625 
Q 10.6875 0.296875 5.421875 2 
L 5.421875 11.28125 
Q 10.40625 8.6875 15.234375 7.390625 
Q 20.0625 6.109375 24.8125 6.109375 
Q 31.15625 6.109375 34.5625 8.28125 
Q 37.984375 10.453125 37.984375 14.40625 
Q 37.984375 18.0625 35.515625 20.015625 
Q 33.0625 21.96875 24.703125 23.78125 
L 21.578125 24.515625 
Q 13.234375 26.265625 9.515625 29.90625 
Q 5.8125 33.546875 5.8125 39.890625 
Q 5.8125 47.609375 11.28125 51.796875 
Q 16.75 56 26.8125 56 
Q 31.78125 56 36.171875 55.265625 
Q 40.578125 54.546875 44.28125 53.078125 
z
" id="DejaVuSans-73"/>
     <path d="M 59.515625 10.40625 
L 59.515625 29.984375 
L 43.40625 29.984375 
L 43.40625 38.09375 
L 69.28125 38.09375 
L 69.28125 6.78125 
Q 63.578125 2.734375 56.6875 0.65625 
Q 49.8125 -1.421875 42 -1.421875 
Q 24.90625 -1.421875 15.25 8.5625 
Q 5.609375 18.5625 5.609375 36.375 
Q 5.609375 54.25 15.25 64.234375 
Q 24.90625 74.21875 42 74.21875 
Q 49.125 74.21875 55.546875 72.453125 
Q 61.96875 70.703125 67.390625 67.28125 
L 67.390625 56.78125 
Q 61.921875 61.421875 55.765625 63.765625 
Q 49.609375 66.109375 42.828125 66.109375 
Q 29.4375 66.109375 22.71875 58.640625 
Q 16.015625 51.171875 16.015625 36.375 
Q 16.015625 21.625 22.71875 14.15625 
Q 29.4375 6.6875 42.828125 6.6875 
Q 48.046875 6.6875 52.140625 7.59375 
Q 56.25 8.5 59.515625 10.40625 
z
" id="DejaVuSans-47"/>
     <path d="M 54.890625 33.015625 
L 54.890625 0 
L 45.90625 0 
L 45.90625 32.71875 
Q 45.90625 40.484375 42.875 44.328125 
Q 39.84375 48.1875 33.796875 48.1875 
Q 26.515625 48.1875 22.3125 43.546875 
Q 18.109375 38.921875 18.109375 30.90625 
L 18.109375 0 
L 9.078125 0 
L 9.078125 54.6875 
L 18.109375 54.6875 
L 18.109375 46.1875 
Q 21.34375 51.125 25.703125 53.5625 
Q 30.078125 56 35.796875 56 
Q 45.21875 56 50.046875 50.171875 
Q 54.890625 44.34375 54.890625 33.015625 
z
" id="DejaVuSans-6e"/>
     <path d="M 45.40625 46.390625 
L 45.40625 75.984375 
L 54.390625 75.984375 
L 54.390625 0 
L 45.40625 0 
L 45.40625 8.203125 
Q 42.578125 3.328125 38.25 0.953125 
Q 33.9375 -1.421875 27.875 -1.421875 
Q 17.96875 -1.421875 11.734375 6.484375 
Q 5.515625 14.40625 5.515625 27.296875 
Q 5.515625 40.1875 11.734375 48.09375 
Q 17.96875 56 27.875 56 
Q 33.9375 56 38.25 53.625 
Q 42.578125 51.265625 45.40625 46.390625 
z
M 14.796875 27.296875 
Q 14.796875 17.390625 18.875 11.75 
Q 22.953125 6.109375 30.078125 6.109375 
Q 37.203125 6.109375 41.296875 11.75 
Q 45.40625 17.390625 45.40625 27.296875 
Q 45.40625 37.203125 41.296875 42.84375 
Q 37.203125 48.484375 30.078125 48.484375 
Q 22.953125 48.484375 18.875 42.84375 
Q 14.796875 37.203125 14.796875 27.296875 
z
" id="DejaVuSans-64"/>
     <path d="M 54.890625 54.6875 
L 35.109375 28.078125 
L 55.90625 0 
L 45.3125 0 
L 29.390625 21.484375 
L 13.484375 0 
L 2.875 0 
L 24.125 28.609375 
L 4.6875 54.6875 
L 15.28125 54.6875 
L 29.78125 35.203125 
L 44.28125 54.6875 
z
" id="DejaVuSans-78"/>
    </defs>
    <g transform="translate(179.39875 19.44)scale(0.12 -0.12)">
     <use xlink:href="#DejaVuSans-44"/>
     <use x="77.001953" xlink:href="#DejaVuSans-72"/>
     <use x="118.115234" xlink:href="#DejaVuSans-69"/>
     <use x="145.898438" xlink:href="#DejaVuSans-76"/>
     <use x="205.078125" xlink:href="#DejaVuSans-65"/>
     <use x="266.601562" xlink:href="#DejaVuSans-72"/>
     <use x="307.714844" xlink:href="#DejaVuSans-20"/>
     <use x="339.501953" xlink:href="#DejaVuSans-48"/>
     <use x="414.697266" xlink:href="#DejaVuSans-65"/>
     <use x="476.220703" xlink:href="#DejaVuSans-61"/>
     <use x="537.5" xlink:href="#DejaVuSans-72"/>
     <use x="578.613281" xlink:href="#DejaVuSans-74"/>
     <use x="617.822266" xlink:href="#DejaVuSans-20"/>
     <use x="649.609375" xlink:href="#DejaVuSans-52"/>
     <use x="719.060547" xlink:href="#DejaVuSans-61"/>
     <use x="780.339844" xlink:href="#DejaVuSans-74"/>
     <use x="819.548828" xlink:href="#DejaVuSans-65"/>
     <use x="881.072266" xlink:href="#DejaVuSans-20"/>
     <use x="912.859375" xlink:href="#DejaVuSans-2d"/>
     <use x="948.943359" xlink:href="#DejaVuSans-20"/>
     <use x="980.730469" xlink:href="#DejaVuSans-4c"/>
     <use x="1036.427734" xlink:href="#DejaVuSans-75"/>
     <use x="1099.806641" xlink:href="#DejaVuSans-70"/>
     <use x="1163.283203" xlink:href="#DejaVuSans-75"/>
     <use x="1226.662109" xlink:href="#DejaVuSans-73"/>
     <use x="1278.761719" xlink:href="#DejaVuSans-20"/>
     <use x="1310.548828" xlink:href="#DejaVuSans-47"/>
     <use x="1388.039062" xlink:href="#DejaVuSans-72"/>
     <use x="1429.152344" xlink:href="#DejaVuSans-61"/>
     <use x="1490.431641" xlink:href="#DejaVuSans-6e"/>
     <use x="1553.810547" xlink:href="#DejaVuSans-64"/>
     <use x="1617.287109" xlink:href="#DejaVuSans-20"/>
     <use x="1649.074219" xlink:href="#DejaVuSans-50"/>
     <use x="1709.361328" xlink:href="#DejaVuSans-72"/>
     <use x="1750.474609" xlink:href="#DejaVuSans-69"/>
     <use x="1778.257812" xlink:href="#DejaVuSans-78"/>
     <use x="1837.4375" xlink:href="#DejaVuSans-20"/>
     <use x="1869.224609" xlink:href="#DejaVuSans-32"/>
     <use x="1932.847656" xlink:href="#DejaVuSans-30"/>
     <use x="1996.470703" xlink:href="#DejaVuSans-31"/>
     <use x="2060.09375" xlink:href="#DejaVuSans-38"/>
    </g>
   </g>
   <g id="legend_1">
    <g id="patch_9">
     <path d="M 469.522187 77.474375 
L 555.68 77.474375 
Q 557.68 77.474375 557.68 75.474375 
L 557.68 32.44 
Q 557.68 30.44 555.68 30.44 
L 469.522187 30.44 
Q 467.522187 30.44 467.522187 32.44 
L 467.522187 75.474375 
Q 467.522187 77.474375 469.522187 77.474375 
z
" style="fill:#ffffff;opacity:0.8;stroke:#cccccc;stroke-linejoin:miter;"/>
    </g>
    <g id="line2d_24">
     <path d="M 471.522187 38.538438 
L 491.522187 38.538438 
" style="fill:none;stroke:#000000;stroke-linecap:square;stroke-width:1.5;"/>
    </g>
    <g id="line2d_25"/>
    <g id="text_15">
     <!-- Heart Rate -->
     <g transform="translate(499.522187 42.038438)scale(0.1 -0.1)">
      <use xlink:href="#DejaVuSans-48"/>
      <use x="75.195312" xlink:href="#DejaVuSans-65"/>
      <use x="136.71875" xlink:href="#DejaVuSans-61"/>
      <use x="197.998047" xlink:href="#DejaVuSans-72"/>
      <use x="239.111328" xlink:href="#DejaVuSans-74"/>
      <use x="278.320312" xlink:href="#DejaVuSans-20"/>
      <use x="310.107422" xlink:href="#DejaVuSans-52"/>
      <use x="379.558594" xlink:href="#DejaVuSans-61"/>
      <use x="440.837891" xlink:href="#DejaVuSans-74"/>
      <use x="480.046875" xlink:href="#DejaVuSans-65"/>
     </g>
    </g>
    <g id="patch_10">
     <path d="M 471.522187 56.716563 
L 491.522187 56.716563 
L 491.522187 49.716563 
L 471.522187 49.716563 
z
" style="fill:#808080;opacity:0.2;stroke:#808080;stroke-linejoin:miter;"/>
    </g>
    <g id="text_16">
     <!-- Race -->
     <defs>
      <path d="M 48.78125 52.59375 
L 48.78125 44.1875 
Q 44.96875 46.296875 41.140625 47.34375 
Q 37.3125 48.390625 33.40625 48.390625 
Q 24.65625 48.390625 19.8125 42.84375 
Q 14.984375 37.3125 14.984375 27.296875 
Q 14.984375 17.28125 19.8125 11.734375 
Q 24.65625 6.203125 33.40625 6.203125 
Q 37.3125 6.203125 41.140625 7.25 
Q 44.96875 8.296875 48.78125 10.40625 
L 48.78125 2.09375 
Q 45.015625 0.34375 40.984375 -0.53125 
Q 36.96875 -1.421875 32.421875 -1.421875 
Q 20.0625 -1.421875 12.78125 6.34375 
Q 5.515625 14.109375 5.515625 27.296875 
Q 5.515625 40.671875 12.859375 48.328125 
Q 20.21875 56 33.015625 56 
Q 37.15625 56 41.109375 55.140625 
Q 45.0625 54.296875 48.78125 52.59375 
z
" id="DejaVuSans-63"/>
     </defs>
     <g transform="translate(499.522187 56.716563)scale(0.1 -0.1)">
      <use xlink:href="#DejaVuSans-52"/>
      <use x="69.451172" xlink:href="#DejaVuSans-61"/>
      <use x="130.730469" xlink:href="#DejaVuSans-63"/>
      <use x="185.710938" xlink:href="#DejaVuSans-65"/>
     </g>
    </g>
    <g id="patch_11">
     <path d="M 471.522187 71.394688 
L 491.522187 71.394688 
L 491.522187 64.394688 
L 471.522187 64.394688 
z
" style="fill:#ff0000;opacity:0.2;stroke:#ff0000;stroke-linejoin:miter;"/>
    </g>
    <g id="text_17">
     <!-- Stint -->
     <defs>
      <path d="M 53.515625 70.515625 
L 53.515625 60.890625 
Q 47.90625 63.578125 42.921875 64.890625 
Q 37.9375 66.21875 33.296875 66.21875 
Q 25.25 66.21875 20.875 63.09375 
Q 16.5 59.96875 16.5 54.203125 
Q 16.5 49.359375 19.40625 46.890625 
Q 22.3125 44.4375 30.421875 42.921875 
L 36.375 41.703125 
Q 47.40625 39.59375 52.65625 34.296875 
Q 57.90625 29 57.90625 20.125 
Q 57.90625 9.515625 50.796875 4.046875 
Q 43.703125 -1.421875 29.984375 -1.421875 
Q 24.8125 -1.421875 18.96875 -0.25 
Q 13.140625 0.921875 6.890625 3.21875 
L 6.890625 13.375 
Q 12.890625 10.015625 18.65625 8.296875 
Q 24.421875 6.59375 29.984375 6.59375 
Q 38.421875 6.59375 43.015625 9.90625 
Q 47.609375 13.234375 47.609375 19.390625 
Q 47.609375 24.75 44.3125 27.78125 
Q 41.015625 30.8125 33.5 32.328125 
L 27.484375 33.5 
Q 16.453125 35.6875 11.515625 40.375 
Q 6.59375 45.0625 6.59375 53.421875 
Q 6.59375 63.09375 13.40625 68.65625 
Q 20.21875 74.21875 32.171875 74.21875 
Q 37.3125 74.21875 42.625 73.28125 
Q 47.953125 72.359375 53.515625 70.515625 
z
" id="DejaVuSans-53"/>
     </defs>
     <g transform="translate(499.522187 71.394688)scale(0.1 -0.1)">
      <use xlink:href="#DejaVuSans-53"/>
      <use x="63.476562" xlink:href="#DejaVuSans-74"/>
      <use x="102.685547" xlink:href="#DejaVuSans-69"/>
      <use x="130.46875" xlink:href="#DejaVuSans-6e"/>
      <use x="193.847656" xlink:href="#DejaVuSans-74"/>
     </g>
    </g>
   </g>
  </g>
 </g>
 <defs>
  <clipPath id="pe9f45580b8">
   <rect height="279.595464" width="511.72" x="50.96" y="25.44"/>
  </clipPath>
 </defs>
</svg>
