<?xml version="1.0" encoding="utf-8" standalone="no"?>
<!DOCTYPE svg PUBLIC "-//W3C//DTD SVG 1.1//EN"
  "http://www.w3.org/Graphics/SVG/1.1/DTD/svg11.dtd">
<!-- Created with matplotlib (http://matplotlib.org/) -->
<svg height="432pt" version="1.1" viewBox="0 0 720 432" width="720pt" xmlns="http://www.w3.org/2000/svg" xmlns:xlink="http://www.w3.org/1999/xlink">
 <defs>
  <style type="text/css">
*{stroke-linecap:butt;stroke-linejoin:round;}
  </style>
 </defs>
 <g id="figure_1">
  <g id="patch_1">
   <path d="M 0 432 
L 720 432 
L 720 0 
L 0 0 
z
" style="fill:none;opacity:0;"/>
  </g>
  <g id="axes_1">
   <g id="patch_2">
    <path d="M 50.96 390.04 
L 706.68 390.04 
L 706.68 25.44 
L 50.96 25.44 
z
" style="fill:#ffffff;"/>
   </g>
   <g id="patch_3">
    <path clip-path="url(#p6280a04d1f)" d="M 80.765455 390.04 
L 88.240177 390.04 
L 88.240177 234.26964 
L 80.765455 234.26964 
z
" style="fill:#289bea;stroke:#289bea;stroke-linejoin:miter;"/>
   </g>
   <g id="patch_4">
    <path clip-path="url(#p6280a04d1f)" d="M 90.108857 390.04 
L 97.583579 390.04 
L 97.583579 233.170084 
L 90.108857 233.170084 
z
" style="fill:#289bea;stroke:#289bea;stroke-linejoin:miter;"/>
   </g>
   <g id="patch_5">
    <path clip-path="url(#p6280a04d1f)" d="M 99.45226 390.04 
L 106.926982 390.04 
L 106.926982 232.428382 
L 99.45226 232.428382 
z
" style="fill:#289bea;stroke:#289bea;stroke-linejoin:miter;"/>
   </g>
   <g id="patch_6">
    <path clip-path="url(#p6280a04d1f)" d="M 108.795663 390.04 
L 116.270385 390.04 
L 116.270385 230.923737 
L 108.795663 230.923737 
z
" style="fill:#289bea;stroke:#289bea;stroke-linejoin:miter;"/>
   </g>
   <g id="patch_7">
    <path clip-path="url(#p6280a04d1f)" d="M 118.139065 390.04 
L 125.613787 390.04 
L 125.613787 230.543076 
L 118.139065 230.543076 
z
" style="fill:#289bea;stroke:#289bea;stroke-linejoin:miter;"/>
   </g>
   <g id="patch_8">
    <path clip-path="url(#p6280a04d1f)" d="M 127.482468 390.04 
L 134.95719 390.04 
L 134.95719 230.543076 
L 127.482468 230.543076 
z
" style="fill:#289bea;stroke:#289bea;stroke-linejoin:miter;"/>
   </g>
   <g id="patch_9">
    <path clip-path="url(#p6280a04d1f)" d="M 136.825871 390.04 
L 144.300593 390.04 
L 144.300593 230.160589 
L 136.825871 230.160589 
z
" style="fill:#289bea;stroke:#289bea;stroke-linejoin:miter;"/>
   </g>
   <g id="patch_10">
    <path clip-path="url(#p6280a04d1f)" d="M 146.169273 390.04 
L 153.643995 390.04 
L 153.643995 229.002043 
L 146.169273 229.002043 
z
" style="fill:#289bea;stroke:#289bea;stroke-linejoin:miter;"/>
   </g>
   <g id="patch_11">
    <path clip-path="url(#p6280a04d1f)" d="M 155.512676 390.04 
L 162.987398 390.04 
L 162.987398 229.002043 
L 155.512676 229.002043 
z
" style="fill:#289bea;stroke:#289bea;stroke-linejoin:miter;"/>
   </g>
   <g id="patch_12">
    <path clip-path="url(#p6280a04d1f)" d="M 164.856079 390.04 
L 172.330801 390.04 
L 172.330801 228.220305 
L 164.856079 228.220305 
z
" style="fill:#289bea;stroke:#289bea;stroke-linejoin:miter;"/>
   </g>
   <g id="patch_13">
    <path clip-path="url(#p6280a04d1f)" d="M 174.199481 390.04 
L 181.674203 390.04 
L 181.674203 227.430941 
L 174.199481 227.430941 
z
" style="fill:#289bea;stroke:#289bea;stroke-linejoin:miter;"/>
   </g>
   <g id="patch_14">
    <path clip-path="url(#p6280a04d1f)" d="M 183.542884 390.04 
L 191.017606 390.04 
L 191.017606 226.232348 
L 183.542884 226.232348 
z
" style="fill:#289bea;stroke:#289bea;stroke-linejoin:miter;"/>
   </g>
   <g id="patch_15">
    <path clip-path="url(#p6280a04d1f)" d="M 192.886287 390.04 
L 200.361009 390.04 
L 200.361009 225.828881 
L 192.886287 225.828881 
z
" style="fill:#289bea;stroke:#289bea;stroke-linejoin:miter;"/>
   </g>
   <g id="patch_16">
    <path clip-path="url(#p6280a04d1f)" d="M 202.229689 390.04 
L 209.704412 390.04 
L 209.704412 225.423422 
L 202.229689 225.423422 
z
" style="fill:#289bea;stroke:#289bea;stroke-linejoin:miter;"/>
   </g>
   <g id="patch_17">
    <path clip-path="url(#p6280a04d1f)" d="M 211.573092 390.04 
L 219.047814 390.04 
L 219.047814 225.015955 
L 211.573092 225.015955 
z
" style="fill:#289bea;stroke:#289bea;stroke-linejoin:miter;"/>
   </g>
   <g id="patch_18">
    <path clip-path="url(#p6280a04d1f)" d="M 220.916495 390.04 
L 228.391217 390.04 
L 228.391217 223.781361 
L 220.916495 223.781361 
z
" style="fill:#289bea;stroke:#289bea;stroke-linejoin:miter;"/>
   </g>
   <g id="patch_19">
    <path clip-path="url(#p6280a04d1f)" d="M 230.259897 390.04 
L 237.73462 390.04 
L 237.73462 223.781361 
L 230.259897 223.781361 
z
" style="fill:#289bea;stroke:#289bea;stroke-linejoin:miter;"/>
   </g>
   <g id="patch_20">
    <path clip-path="url(#p6280a04d1f)" d="M 239.6033 390.04 
L 247.078022 390.04 
L 247.078022 222.106211 
L 239.6033 222.106211 
z
" style="fill:#289bea;stroke:#289bea;stroke-linejoin:miter;"/>
   </g>
   <g id="patch_21">
    <path clip-path="url(#p6280a04d1f)" d="M 248.946703 390.04 
L 256.421425 390.04 
L 256.421425 221.255913 
L 248.946703 221.255913 
z
" style="fill:#289bea;stroke:#289bea;stroke-linejoin:miter;"/>
   </g>
   <g id="patch_22">
    <path clip-path="url(#p6280a04d1f)" d="M 258.290105 390.04 
L 265.764828 390.04 
L 265.764828 220.396961 
L 258.290105 220.396961 
z
" style="fill:#289bea;stroke:#289bea;stroke-linejoin:miter;"/>
   </g>
   <g id="patch_23">
    <path clip-path="url(#p6280a04d1f)" d="M 267.633508 390.04 
L 275.10823 390.04 
L 275.10823 219.964198 
L 267.633508 219.964198 
z
" style="fill:#289bea;stroke:#289bea;stroke-linejoin:miter;"/>
   </g>
   <g id="patch_24">
    <path clip-path="url(#p6280a04d1f)" d="M 276.976911 390.04 
L 284.451633 390.04 
L 284.451633 219.964198 
L 276.976911 219.964198 
z
" style="fill:#289bea;stroke:#289bea;stroke-linejoin:miter;"/>
   </g>
   <g id="patch_25">
    <path clip-path="url(#p6280a04d1f)" d="M 286.320313 390.04 
L 293.795036 390.04 
L 293.795036 219.529222 
L 286.320313 219.529222 
z
" style="fill:#289bea;stroke:#289bea;stroke-linejoin:miter;"/>
   </g>
   <g id="patch_26">
    <path clip-path="url(#p6280a04d1f)" d="M 295.663716 390.04 
L 303.138438 390.04 
L 303.138438 218.210839 
L 295.663716 218.210839 
z
" style="fill:#289bea;stroke:#289bea;stroke-linejoin:miter;"/>
   </g>
   <g id="patch_27">
    <path clip-path="url(#p6280a04d1f)" d="M 305.007119 390.04 
L 312.481841 390.04 
L 312.481841 217.766836 
L 305.007119 217.766836 
z
" style="fill:#289bea;stroke:#289bea;stroke-linejoin:miter;"/>
   </g>
   <g id="patch_28">
    <path clip-path="url(#p6280a04d1f)" d="M 314.350522 390.04 
L 321.825244 390.04 
L 321.825244 216.871911 
L 314.350522 216.871911 
z
" style="fill:#289bea;stroke:#289bea;stroke-linejoin:miter;"/>
   </g>
   <g id="patch_29">
    <path clip-path="url(#p6280a04d1f)" d="M 323.693924 390.04 
L 331.168646 390.04 
L 331.168646 215.967639 
L 323.693924 215.967639 
z
" style="fill:#289bea;stroke:#289bea;stroke-linejoin:miter;"/>
   </g>
   <g id="patch_30">
    <path clip-path="url(#p6280a04d1f)" d="M 333.037327 390.04 
L 340.512049 390.04 
L 340.512049 215.053873 
L 333.037327 215.053873 
z
" style="fill:#289bea;stroke:#289bea;stroke-linejoin:miter;"/>
   </g>
   <g id="patch_31">
    <path clip-path="url(#p6280a04d1f)" d="M 342.38073 390.04 
L 349.855452 390.04 
L 349.855452 214.593383 
L 342.38073 214.593383 
z
" style="fill:#289bea;stroke:#289bea;stroke-linejoin:miter;"/>
   </g>
   <g id="patch_32">
    <path clip-path="url(#p6280a04d1f)" d="M 351.724132 390.04 
L 359.198854 390.04 
L 359.198854 214.130464 
L 351.724132 214.130464 
z
" style="fill:#289bea;stroke:#289bea;stroke-linejoin:miter;"/>
   </g>
   <g id="patch_33">
    <path clip-path="url(#p6280a04d1f)" d="M 361.067535 390.04 
L 368.542257 390.04 
L 368.542257 212.72693 
L 361.067535 212.72693 
z
" style="fill:#289bea;stroke:#289bea;stroke-linejoin:miter;"/>
   </g>
   <g id="patch_34">
    <path clip-path="url(#p6280a04d1f)" d="M 370.410938 390.04 
L 377.88566 390.04 
L 377.88566 211.778732 
L 370.410938 211.778732 
z
" style="fill:#289bea;stroke:#289bea;stroke-linejoin:miter;"/>
   </g>
   <g id="patch_35">
    <path clip-path="url(#p6280a04d1f)" d="M 379.75434 390.04 
L 387.229062 390.04 
L 387.229062 211.30082 
L 379.75434 211.30082 
z
" style="fill:#289bea;stroke:#289bea;stroke-linejoin:miter;"/>
   </g>
   <g id="patch_36">
    <path clip-path="url(#p6280a04d1f)" d="M 389.097743 390.04 
L 396.572465 390.04 
L 396.572465 210.337266 
L 389.097743 210.337266 
z
" style="fill:#289bea;stroke:#289bea;stroke-linejoin:miter;"/>
   </g>
   <g id="patch_37">
    <path clip-path="url(#p6280a04d1f)" d="M 398.441146 390.04 
L 405.915868 390.04 
L 405.915868 209.363268 
L 398.441146 209.363268 
z
" style="fill:#289bea;stroke:#289bea;stroke-linejoin:miter;"/>
   </g>
   <g id="patch_38">
    <path clip-path="url(#p6280a04d1f)" d="M 407.784548 390.04 
L 415.25927 390.04 
L 415.25927 208.872298 
L 407.784548 208.872298 
z
" style="fill:#289bea;stroke:#289bea;stroke-linejoin:miter;"/>
   </g>
   <g id="patch_39">
    <path clip-path="url(#p6280a04d1f)" d="M 417.127951 390.04 
L 424.602673 390.04 
L 424.602673 207.383249 
L 417.127951 207.383249 
z
" style="fill:#289bea;stroke:#289bea;stroke-linejoin:miter;"/>
   </g>
   <g id="patch_40">
    <path clip-path="url(#p6280a04d1f)" d="M 426.471354 390.04 
L 433.946076 390.04 
L 433.946076 201.173954 
L 426.471354 201.173954 
z
" style="fill:#289bea;stroke:#289bea;stroke-linejoin:miter;"/>
   </g>
   <g id="patch_41">
    <path clip-path="url(#p6280a04d1f)" d="M 435.814756 390.04 
L 443.289478 390.04 
L 443.289478 201.173954 
L 435.814756 201.173954 
z
" style="fill:#289bea;stroke:#289bea;stroke-linejoin:miter;"/>
   </g>
   <g id="patch_42">
    <path clip-path="url(#p6280a04d1f)" d="M 445.158159 390.04 
L 452.632881 390.04 
L 452.632881 200.637403 
L 445.158159 200.637403 
z
" style="fill:#289bea;stroke:#289bea;stroke-linejoin:miter;"/>
   </g>
   <g id="patch_43">
    <path clip-path="url(#p6280a04d1f)" d="M 454.501562 390.04 
L 461.976284 390.04 
L 461.976284 200.637403 
L 454.501562 200.637403 
z
" style="fill:#289bea;stroke:#289bea;stroke-linejoin:miter;"/>
   </g>
   <g id="patch_44">
    <path clip-path="url(#p6280a04d1f)" d="M 463.844964 390.04 
L 471.319687 390.04 
L 471.319687 199.555102 
L 463.844964 199.555102 
z
" style="fill:#289bea;stroke:#289bea;stroke-linejoin:miter;"/>
   </g>
   <g id="patch_45">
    <path clip-path="url(#p6280a04d1f)" d="M 473.188367 390.04 
L 480.663089 390.04 
L 480.663089 197.908259 
L 473.188367 197.908259 
z
" style="fill:#289bea;stroke:#289bea;stroke-linejoin:miter;"/>
   </g>
   <g id="patch_46">
    <path clip-path="url(#p6280a04d1f)" d="M 482.53177 390.04 
L 490.006492 390.04 
L 490.006492 197.352964 
L 482.53177 197.352964 
z
" style="fill:#289bea;stroke:#289bea;stroke-linejoin:miter;"/>
   </g>
   <g id="patch_47">
    <path clip-path="url(#p6280a04d1f)" d="M 491.875172 390.04 
L 499.349895 390.04 
L 499.349895 194.527641 
L 491.875172 194.527641 
z
" style="fill:#289bea;stroke:#289bea;stroke-linejoin:miter;"/>
   </g>
   <g id="patch_48">
    <path clip-path="url(#p6280a04d1f)" d="M 501.218575 390.04 
L 508.693297 390.04 
L 508.693297 193.374176 
L 501.218575 193.374176 
z
" style="fill:#289bea;stroke:#289bea;stroke-linejoin:miter;"/>
   </g>
   <g id="patch_49">
    <path clip-path="url(#p6280a04d1f)" d="M 510.561978 390.04 
L 518.0367 390.04 
L 518.0367 192.20702 
L 510.561978 192.20702 
z
" style="fill:#289bea;stroke:#289bea;stroke-linejoin:miter;"/>
   </g>
   <g id="patch_50">
    <path clip-path="url(#p6280a04d1f)" d="M 519.90538 390.04 
L 527.380103 390.04 
L 527.380103 191.025928 
L 519.90538 191.025928 
z
" style="fill:#289bea;stroke:#289bea;stroke-linejoin:miter;"/>
   </g>
   <g id="patch_51">
    <path clip-path="url(#p6280a04d1f)" d="M 529.248783 390.04 
L 536.723505 390.04 
L 536.723505 186.778676 
L 529.248783 186.778676 
z
" style="fill:#289bea;stroke:#289bea;stroke-linejoin:miter;"/>
   </g>
   <g id="patch_52">
    <path clip-path="url(#p6280a04d1f)" d="M 538.592186 390.04 
L 546.066908 390.04 
L 546.066908 177.716069 
L 538.592186 177.716069 
z
" style="fill:#289bea;stroke:#289bea;stroke-linejoin:miter;"/>
   </g>
   <g id="patch_53">
    <path clip-path="url(#p6280a04d1f)" d="M 547.935588 390.04 
L 555.410311 390.04 
L 555.410311 177.037718 
L 547.935588 177.037718 
z
" style="fill:#289bea;stroke:#289bea;stroke-linejoin:miter;"/>
   </g>
   <g id="patch_54">
    <path clip-path="url(#p6280a04d1f)" d="M 557.278991 390.04 
L 564.753713 390.04 
L 564.753713 172.165117 
L 557.278991 172.165117 
z
" style="fill:#289bea;stroke:#289bea;stroke-linejoin:miter;"/>
   </g>
   <g id="patch_55">
    <path clip-path="url(#p6280a04d1f)" d="M 566.622394 390.04 
L 574.097116 390.04 
L 574.097116 166.316127 
L 566.622394 166.316127 
z
" style="fill:#289bea;stroke:#289bea;stroke-linejoin:miter;"/>
   </g>
   <g id="patch_56">
    <path clip-path="url(#p6280a04d1f)" d="M 575.965797 390.04 
L 583.440519 390.04 
L 583.440519 160.144433 
L 575.965797 160.144433 
z
" style="fill:#289bea;stroke:#289bea;stroke-linejoin:miter;"/>
   </g>
   <g id="patch_57">
    <path clip-path="url(#p6280a04d1f)" d="M 585.309199 390.04 
L 592.783921 390.04 
L 592.783921 157.741344 
L 585.309199 157.741344 
z
" style="fill:#289bea;stroke:#289bea;stroke-linejoin:miter;"/>
   </g>
   <g id="patch_58">
    <path clip-path="url(#p6280a04d1f)" d="M 594.652602 390.04 
L 602.127324 390.04 
L 602.127324 139.401976 
L 594.652602 139.401976 
z
" style="fill:#289bea;stroke:#289bea;stroke-linejoin:miter;"/>
   </g>
   <g id="patch_59">
    <path clip-path="url(#p6280a04d1f)" d="M 603.996005 390.04 
L 611.470727 390.04 
L 611.470727 134.600482 
L 603.996005 134.600482 
z
" style="fill:#289bea;stroke:#289bea;stroke-linejoin:miter;"/>
   </g>
   <g id="patch_60">
    <path clip-path="url(#p6280a04d1f)" d="M 613.339407 390.04 
L 620.814129 390.04 
L 620.814129 127.56081 
L 613.339407 127.56081 
z
" style="fill:#289bea;stroke:#289bea;stroke-linejoin:miter;"/>
   </g>
   <g id="patch_61">
    <path clip-path="url(#p6280a04d1f)" d="M 622.68281 390.04 
L 630.157532 390.04 
L 630.157532 124.423608 
L 622.68281 124.423608 
z
" style="fill:#289bea;stroke:#289bea;stroke-linejoin:miter;"/>
   </g>
   <g id="patch_62">
    <path clip-path="url(#p6280a04d1f)" d="M 632.026213 390.04 
L 639.500935 390.04 
L 639.500935 114.545313 
L 632.026213 114.545313 
z
" style="fill:#289bea;stroke:#289bea;stroke-linejoin:miter;"/>
   </g>
   <g id="patch_63">
    <path clip-path="url(#p6280a04d1f)" d="M 641.369615 390.04 
L 648.844337 390.04 
L 648.844337 108.733189 
L 641.369615 108.733189 
z
" style="fill:#289bea;stroke:#289bea;stroke-linejoin:miter;"/>
   </g>
   <g id="patch_64">
    <path clip-path="url(#p6280a04d1f)" d="M 650.713018 390.04 
L 658.18774 390.04 
L 658.18774 106.339088 
L 650.713018 106.339088 
z
" style="fill:#289bea;stroke:#289bea;stroke-linejoin:miter;"/>
   </g>
   <g id="patch_65">
    <path clip-path="url(#p6280a04d1f)" d="M 660.056421 390.04 
L 667.531143 390.04 
L 667.531143 88.367085 
L 660.056421 88.367085 
z
" style="fill:#289bea;stroke:#289bea;stroke-linejoin:miter;"/>
   </g>
   <g id="patch_66">
    <path clip-path="url(#p6280a04d1f)" d="M 669.399823 390.04 
L 676.874545 390.04 
L 676.874545 42.801905 
L 669.399823 42.801905 
z
" style="fill:#289bea;stroke:#289bea;stroke-linejoin:miter;"/>
   </g>
   <g id="patch_67">
    <path clip-path="url(#p6280a04d1f)" d="M 80.765455 390.04 
L 88.240177 390.04 
L 88.240177 255.164787 
L 80.765455 255.164787 
z
" style="fill:#1f77b4;stroke:#1f77b4;stroke-linejoin:miter;"/>
   </g>
   <g id="patch_68">
    <path clip-path="url(#p6280a04d1f)" d="M 90.108857 390.04 
L 97.583579 390.04 
L 97.583579 250.814059 
L 90.108857 250.814059 
z
" style="fill:#1f77b4;stroke:#1f77b4;stroke-linejoin:miter;"/>
   </g>
   <g id="patch_69">
    <path clip-path="url(#p6280a04d1f)" d="M 99.45226 390.04 
L 106.926982 390.04 
L 106.926982 251.198997 
L 99.45226 251.198997 
z
" style="fill:#1f77b4;stroke:#1f77b4;stroke-linejoin:miter;"/>
   </g>
   <g id="patch_70">
    <path clip-path="url(#p6280a04d1f)" d="M 108.795663 390.04 
L 116.270385 390.04 
L 116.270385 254.917421 
L 108.795663 254.917421 
z
" style="fill:#1f77b4;stroke:#1f77b4;stroke-linejoin:miter;"/>
   </g>
   <g id="patch_71">
    <path clip-path="url(#p6280a04d1f)" d="M 118.139065 390.04 
L 125.613787 390.04 
L 125.613787 250.12752 
L 118.139065 250.12752 
z
" style="fill:#1f77b4;stroke:#1f77b4;stroke-linejoin:miter;"/>
   </g>
   <g id="patch_72">
    <path clip-path="url(#p6280a04d1f)" d="M 127.482468 390.04 
L 134.95719 390.04 
L 134.95719 249.495216 
L 127.482468 249.495216 
z
" style="fill:#1f77b4;stroke:#1f77b4;stroke-linejoin:miter;"/>
   </g>
   <g id="patch_73">
    <path clip-path="url(#p6280a04d1f)" d="M 136.825871 390.04 
L 144.300593 390.04 
L 144.300593 250.857712 
L 136.825871 250.857712 
z
" style="fill:#1f77b4;stroke:#1f77b4;stroke-linejoin:miter;"/>
   </g>
   <g id="patch_74">
    <path clip-path="url(#p6280a04d1f)" d="M 146.169273 390.04 
L 153.643995 390.04 
L 153.643995 248.295425 
L 146.169273 248.295425 
z
" style="fill:#1f77b4;stroke:#1f77b4;stroke-linejoin:miter;"/>
   </g>
   <g id="patch_75">
    <path clip-path="url(#p6280a04d1f)" d="M 155.512676 390.04 
L 162.987398 390.04 
L 162.987398 256.16351 
L 155.512676 256.16351 
z
" style="fill:#1f77b4;stroke:#1f77b4;stroke-linejoin:miter;"/>
   </g>
   <g id="patch_76">
    <path clip-path="url(#p6280a04d1f)" d="M 164.856079 390.04 
L 172.330801 390.04 
L 172.330801 259.770818 
L 164.856079 259.770818 
z
" style="fill:#1f77b4;stroke:#1f77b4;stroke-linejoin:miter;"/>
   </g>
   <g id="patch_77">
    <path clip-path="url(#p6280a04d1f)" d="M 174.199481 390.04 
L 181.674203 390.04 
L 181.674203 250.914593 
L 174.199481 250.914593 
z
" style="fill:#1f77b4;stroke:#1f77b4;stroke-linejoin:miter;"/>
   </g>
   <g id="patch_78">
    <path clip-path="url(#p6280a04d1f)" d="M 183.542884 390.04 
L 191.017606 390.04 
L 191.017606 246.483173 
L 183.542884 246.483173 
z
" style="fill:#1f77b4;stroke:#1f77b4;stroke-linejoin:miter;"/>
   </g>
   <g id="patch_79">
    <path clip-path="url(#p6280a04d1f)" d="M 192.886287 390.04 
L 200.361009 390.04 
L 200.361009 244.534671 
L 192.886287 244.534671 
z
" style="fill:#1f77b4;stroke:#1f77b4;stroke-linejoin:miter;"/>
   </g>
   <g id="patch_80">
    <path clip-path="url(#p6280a04d1f)" d="M 202.229689 390.04 
L 209.704412 390.04 
L 209.704412 244.625945 
L 202.229689 244.625945 
z
" style="fill:#1f77b4;stroke:#1f77b4;stroke-linejoin:miter;"/>
   </g>
   <g id="patch_81">
    <path clip-path="url(#p6280a04d1f)" d="M 211.573092 390.04 
L 219.047814 390.04 
L 219.047814 246.235807 
L 211.573092 246.235807 
z
" style="fill:#1f77b4;stroke:#1f77b4;stroke-linejoin:miter;"/>
   </g>
   <g id="patch_82">
    <path clip-path="url(#p6280a04d1f)" d="M 220.916495 390.04 
L 228.391217 390.04 
L 228.391217 243.808448 
L 220.916495 243.808448 
z
" style="fill:#1f77b4;stroke:#1f77b4;stroke-linejoin:miter;"/>
   </g>
   <g id="patch_83">
    <path clip-path="url(#p6280a04d1f)" d="M 230.259897 390.04 
L 237.73462 390.04 
L 237.73462 246.868111 
L 230.259897 246.868111 
z
" style="fill:#1f77b4;stroke:#1f77b4;stroke-linejoin:miter;"/>
   </g>
   <g id="patch_84">
    <path clip-path="url(#p6280a04d1f)" d="M 239.6033 390.04 
L 247.078022 390.04 
L 247.078022 247.566556 
L 239.6033 247.566556 
z
" style="fill:#1f77b4;stroke:#1f77b4;stroke-linejoin:miter;"/>
   </g>
   <g id="patch_85">
    <path clip-path="url(#p6280a04d1f)" d="M 248.946703 390.04 
L 256.421425 390.04 
L 256.421425 250.217471 
L 248.946703 250.217471 
z
" style="fill:#1f77b4;stroke:#1f77b4;stroke-linejoin:miter;"/>
   </g>
   <g id="patch_86">
    <path clip-path="url(#p6280a04d1f)" d="M 258.290105 390.04 
L 265.764828 390.04 
L 265.764828 247.704128 
L 258.290105 247.704128 
z
" style="fill:#1f77b4;stroke:#1f77b4;stroke-linejoin:miter;"/>
   </g>
   <g id="patch_87">
    <path clip-path="url(#p6280a04d1f)" d="M 267.633508 390.04 
L 275.10823 390.04 
L 275.10823 244.06375 
L 267.633508 244.06375 
z
" style="fill:#1f77b4;stroke:#1f77b4;stroke-linejoin:miter;"/>
   </g>
   <g id="patch_88">
    <path clip-path="url(#p6280a04d1f)" d="M 276.976911 390.04 
L 284.451633 390.04 
L 284.451633 244.035971 
L 276.976911 244.035971 
z
" style="fill:#1f77b4;stroke:#1f77b4;stroke-linejoin:miter;"/>
   </g>
   <g id="patch_89">
    <path clip-path="url(#p6280a04d1f)" d="M 286.320313 390.04 
L 293.795036 390.04 
L 293.795036 246.192155 
L 286.320313 246.192155 
z
" style="fill:#1f77b4;stroke:#1f77b4;stroke-linejoin:miter;"/>
   </g>
   <g id="patch_90">
    <path clip-path="url(#p6280a04d1f)" d="M 295.663716 390.04 
L 303.138438 390.04 
L 303.138438 251.635525 
L 295.663716 251.635525 
z
" style="fill:#1f77b4;stroke:#1f77b4;stroke-linejoin:miter;"/>
   </g>
   <g id="patch_91">
    <path clip-path="url(#p6280a04d1f)" d="M 305.007119 390.04 
L 312.481841 390.04 
L 312.481841 243.860037 
L 305.007119 243.860037 
z
" style="fill:#1f77b4;stroke:#1f77b4;stroke-linejoin:miter;"/>
   </g>
   <g id="patch_92">
    <path clip-path="url(#p6280a04d1f)" d="M 314.350522 390.04 
L 321.825244 390.04 
L 321.825244 245.506938 
L 314.350522 245.506938 
z
" style="fill:#1f77b4;stroke:#1f77b4;stroke-linejoin:miter;"/>
   </g>
   <g id="patch_93">
    <path clip-path="url(#p6280a04d1f)" d="M 323.693924 390.04 
L 331.168646 390.04 
L 331.168646 251.991361 
L 323.693924 251.991361 
z
" style="fill:#1f77b4;stroke:#1f77b4;stroke-linejoin:miter;"/>
   </g>
   <g id="patch_94">
    <path clip-path="url(#p6280a04d1f)" d="M 333.037327 390.04 
L 340.512049 390.04 
L 340.512049 248.95154 
L 333.037327 248.95154 
z
" style="fill:#1f77b4;stroke:#1f77b4;stroke-linejoin:miter;"/>
   </g>
   <g id="patch_95">
    <path clip-path="url(#p6280a04d1f)" d="M 342.38073 390.04 
L 349.855452 390.04 
L 349.855452 242.307056 
L 342.38073 242.307056 
z
" style="fill:#1f77b4;stroke:#1f77b4;stroke-linejoin:miter;"/>
   </g>
   <g id="patch_96">
    <path clip-path="url(#p6280a04d1f)" d="M 351.724132 390.04 
L 359.198854 390.04 
L 359.198854 244.405036 
L 351.724132 244.405036 
z
" style="fill:#1f77b4;stroke:#1f77b4;stroke-linejoin:miter;"/>
   </g>
   <g id="patch_97">
    <path clip-path="url(#p6280a04d1f)" d="M 361.067535 390.04 
L 368.542257 390.04 
L 368.542257 245.571756 
L 361.067535 245.571756 
z
" style="fill:#1f77b4;stroke:#1f77b4;stroke-linejoin:miter;"/>
   </g>
   <g id="patch_98">
    <path clip-path="url(#p6280a04d1f)" d="M 370.410938 390.04 
L 377.88566 390.04 
L 377.88566 232.087012 
L 370.410938 232.087012 
z
" style="fill:#1f77b4;stroke:#1f77b4;stroke-linejoin:miter;"/>
   </g>
   <g id="patch_99">
    <path clip-path="url(#p6280a04d1f)" d="M 379.75434 390.04 
L 387.229062 390.04 
L 387.229062 252.251955 
L 379.75434 252.251955 
z
" style="fill:#1f77b4;stroke:#1f77b4;stroke-linejoin:miter;"/>
   </g>
   <g id="patch_100">
    <path clip-path="url(#p6280a04d1f)" d="M 389.097743 390.04 
L 396.572465 390.04 
L 396.572465 245.742399 
L 389.097743 245.742399 
z
" style="fill:#1f77b4;stroke:#1f77b4;stroke-linejoin:miter;"/>
   </g>
   <g id="patch_101">
    <path clip-path="url(#p6280a04d1f)" d="M 398.441146 390.04 
L 405.915868 390.04 
L 405.915868 241.206477 
L 398.441146 241.206477 
z
" style="fill:#1f77b4;stroke:#1f77b4;stroke-linejoin:miter;"/>
   </g>
   <g id="patch_102">
    <path clip-path="url(#p6280a04d1f)" d="M 407.784548 390.04 
L 415.25927 390.04 
L 415.25927 239.697149 
L 407.784548 239.697149 
z
" style="fill:#1f77b4;stroke:#1f77b4;stroke-linejoin:miter;"/>
   </g>
   <g id="patch_103">
    <path clip-path="url(#p6280a04d1f)" d="M 417.127951 390.04 
L 424.602673 390.04 
L 424.602673 242.080856 
L 417.127951 242.080856 
z
" style="fill:#1f77b4;stroke:#1f77b4;stroke-linejoin:miter;"/>
   </g>
   <g id="patch_104">
    <path clip-path="url(#p6280a04d1f)" d="M 426.471354 390.04 
L 433.946076 390.04 
L 433.946076 253.942509 
L 426.471354 253.942509 
z
" style="fill:#1f77b4;stroke:#1f77b4;stroke-linejoin:miter;"/>
   </g>
   <g id="patch_105">
    <path clip-path="url(#p6280a04d1f)" d="M 435.814756 390.04 
L 443.289478 390.04 
L 443.289478 250.163236 
L 435.814756 250.163236 
z
" style="fill:#1f77b4;stroke:#1f77b4;stroke-linejoin:miter;"/>
   </g>
   <g id="patch_106">
    <path clip-path="url(#p6280a04d1f)" d="M 445.158159 390.04 
L 452.632881 390.04 
L 452.632881 244.252912 
L 445.158159 244.252912 
z
" style="fill:#1f77b4;stroke:#1f77b4;stroke-linejoin:miter;"/>
   </g>
   <g id="patch_107">
    <path clip-path="url(#p6280a04d1f)" d="M 454.501562 390.04 
L 461.976284 390.04 
L 461.976284 239.613812 
L 454.501562 239.613812 
z
" style="fill:#1f77b4;stroke:#1f77b4;stroke-linejoin:miter;"/>
   </g>
   <g id="patch_108">
    <path clip-path="url(#p6280a04d1f)" d="M 463.844964 390.04 
L 471.319687 390.04 
L 471.319687 244.102112 
L 463.844964 244.102112 
z
" style="fill:#1f77b4;stroke:#1f77b4;stroke-linejoin:miter;"/>
   </g>
   <g id="patch_109">
    <path clip-path="url(#p6280a04d1f)" d="M 473.188367 390.04 
L 480.663089 390.04 
L 480.663089 247.16839 
L 473.188367 247.16839 
z
" style="fill:#1f77b4;stroke:#1f77b4;stroke-linejoin:miter;"/>
   </g>
   <g id="patch_110">
    <path clip-path="url(#p6280a04d1f)" d="M 482.53177 390.04 
L 490.006492 390.04 
L 490.006492 234.571253 
L 482.53177 234.571253 
z
" style="fill:#1f77b4;stroke:#1f77b4;stroke-linejoin:miter;"/>
   </g>
   <g id="patch_111">
    <path clip-path="url(#p6280a04d1f)" d="M 491.875172 390.04 
L 499.349895 390.04 
L 499.349895 251.933158 
L 491.875172 251.933158 
z
" style="fill:#1f77b4;stroke:#1f77b4;stroke-linejoin:miter;"/>
   </g>
   <g id="patch_112">
    <path clip-path="url(#p6280a04d1f)" d="M 501.218575 390.04 
L 508.693297 390.04 
L 508.693297 244.992364 
L 501.218575 244.992364 
z
" style="fill:#1f77b4;stroke:#1f77b4;stroke-linejoin:miter;"/>
   </g>
   <g id="patch_113">
    <path clip-path="url(#p6280a04d1f)" d="M 510.561978 390.04 
L 518.0367 390.04 
L 518.0367 239.31221 
L 510.561978 239.31221 
z
" style="fill:#1f77b4;stroke:#1f77b4;stroke-linejoin:miter;"/>
   </g>
   <g id="patch_114">
    <path clip-path="url(#p6280a04d1f)" d="M 519.90538 390.04 
L 527.380103 390.04 
L 527.380103 239.765935 
L 519.90538 239.765935 
z
" style="fill:#1f77b4;stroke:#1f77b4;stroke-linejoin:miter;"/>
   </g>
   <g id="patch_115">
    <path clip-path="url(#p6280a04d1f)" d="M 529.248783 390.04 
L 536.723505 390.04 
L 536.723505 236.548857 
L 529.248783 236.548857 
z
" style="fill:#1f77b4;stroke:#1f77b4;stroke-linejoin:miter;"/>
   </g>
   <g id="patch_116">
    <path clip-path="url(#p6280a04d1f)" d="M 538.592186 390.04 
L 546.066908 390.04 
L 546.066908 249.517703 
L 538.592186 249.517703 
z
" style="fill:#1f77b4;stroke:#1f77b4;stroke-linejoin:miter;"/>
   </g>
   <g id="patch_117">
    <path clip-path="url(#p6280a04d1f)" d="M 547.935588 390.04 
L 555.410311 390.04 
L 555.410311 246.133951 
L 547.935588 246.133951 
z
" style="fill:#1f77b4;stroke:#1f77b4;stroke-linejoin:miter;"/>
   </g>
   <g id="patch_118">
    <path clip-path="url(#p6280a04d1f)" d="M 557.278991 390.04 
L 564.753713 390.04 
L 564.753713 241.542471 
L 557.278991 241.542471 
z
" style="fill:#1f77b4;stroke:#1f77b4;stroke-linejoin:miter;"/>
   </g>
   <g id="patch_119">
    <path clip-path="url(#p6280a04d1f)" d="M 566.622394 390.04 
L 574.097116 390.04 
L 574.097116 241.756767 
L 566.622394 241.756767 
z
" style="fill:#1f77b4;stroke:#1f77b4;stroke-linejoin:miter;"/>
   </g>
   <g id="patch_120">
    <path clip-path="url(#p6280a04d1f)" d="M 575.965797 390.04 
L 583.440519 390.04 
L 583.440519 247.387976 
L 575.965797 247.387976 
z
" style="fill:#1f77b4;stroke:#1f77b4;stroke-linejoin:miter;"/>
   </g>
   <g id="patch_121">
    <path clip-path="url(#p6280a04d1f)" d="M 585.309199 390.04 
L 592.783921 390.04 
L 592.783921 246.503015 
L 585.309199 246.503015 
z
" style="fill:#1f77b4;stroke:#1f77b4;stroke-linejoin:miter;"/>
   </g>
   <g id="patch_122">
    <path clip-path="url(#p6280a04d1f)" d="M 594.652602 390.04 
L 602.127324 390.04 
L 602.127324 238.833353 
L 594.652602 238.833353 
z
" style="fill:#1f77b4;stroke:#1f77b4;stroke-linejoin:miter;"/>
   </g>
   <g id="patch_123">
    <path clip-path="url(#p6280a04d1f)" d="M 603.996005 390.04 
L 611.470727 390.04 
L 611.470727 244.620654 
L 603.996005 244.620654 
z
" style="fill:#1f77b4;stroke:#1f77b4;stroke-linejoin:miter;"/>
   </g>
   <g id="patch_124">
    <path clip-path="url(#p6280a04d1f)" d="M 613.339407 390.04 
L 620.814129 390.04 
L 620.814129 247.181618 
L 613.339407 247.181618 
z
" style="fill:#1f77b4;stroke:#1f77b4;stroke-linejoin:miter;"/>
   </g>
   <g id="patch_125">
    <path clip-path="url(#p6280a04d1f)" d="M 622.68281 390.04 
L 630.157532 390.04 
L 630.157532 249.086467 
L 622.68281 249.086467 
z
" style="fill:#1f77b4;stroke:#1f77b4;stroke-linejoin:miter;"/>
   </g>
   <g id="patch_126">
    <path clip-path="url(#p6280a04d1f)" d="M 632.026213 390.04 
L 639.500935 390.04 
L 639.500935 248.016312 
L 632.026213 248.016312 
z
" style="fill:#1f77b4;stroke:#1f77b4;stroke-linejoin:miter;"/>
   </g>
   <g id="patch_127">
    <path clip-path="url(#p6280a04d1f)" d="M 641.369615 390.04 
L 648.844337 390.04 
L 648.844337 248.665813 
L 641.369615 248.665813 
z
" style="fill:#1f77b4;stroke:#1f77b4;stroke-linejoin:miter;"/>
   </g>
   <g id="patch_128">
    <path clip-path="url(#p6280a04d1f)" d="M 650.713018 390.04 
L 658.18774 390.04 
L 658.18774 244.608749 
L 650.713018 244.608749 
z
" style="fill:#1f77b4;stroke:#1f77b4;stroke-linejoin:miter;"/>
   </g>
   <g id="patch_129">
    <path clip-path="url(#p6280a04d1f)" d="M 660.056421 390.04 
L 667.531143 390.04 
L 667.531143 248.620837 
L 660.056421 248.620837 
z
" style="fill:#1f77b4;stroke:#1f77b4;stroke-linejoin:miter;"/>
   </g>
   <g id="patch_130">
    <path clip-path="url(#p6280a04d1f)" d="M 669.399823 390.04 
L 676.874545 390.04 
L 676.874545 253.015218 
L 669.399823 253.015218 
z
" style="fill:#1f77b4;stroke:#1f77b4;stroke-linejoin:miter;"/>
   </g>
   <g id="matplotlib.axis_1">
    <g id="xtick_1">
     <g id="line2d_1">
      <defs>
       <path d="M 0 0 
L 0 3.5 
" id="mdc5fc93ec8" style="stroke:#000000;stroke-width:0.8;"/>
      </defs>
      <g>
       <use style="stroke:#000000;stroke-width:0.8;" x="84.502816" xlink:href="#mdc5fc93ec8" y="390.04"/>
      </g>
     </g>
     <g id="text_1">
      <!-- 0 -->
      <defs>
       <path d="M 31.78125 66.40625 
Q 24.171875 66.40625 20.328125 58.90625 
Q 16.5 51.421875 16.5 36.375 
Q 16.5 21.390625 20.328125 13.890625 
Q 24.171875 6.390625 31.78125 6.390625 
Q 39.453125 6.390625 43.28125 13.890625 
Q 47.125 21.390625 47.125 36.375 
Q 47.125 51.421875 43.28125 58.90625 
Q 39.453125 66.40625 31.78125 66.40625 
z
M 31.78125 74.21875 
Q 44.046875 74.21875 50.515625 64.515625 
Q 56.984375 54.828125 56.984375 36.375 
Q 56.984375 17.96875 50.515625 8.265625 
Q 44.046875 -1.421875 31.78125 -1.421875 
Q 19.53125 -1.421875 13.0625 8.265625 
Q 6.59375 17.96875 6.59375 36.375 
Q 6.59375 54.828125 13.0625 64.515625 
Q 19.53125 74.21875 31.78125 74.21875 
z
" id="DejaVuSans-30"/>
      </defs>
      <g transform="translate(81.321566 404.638438)scale(0.1 -0.1)">
       <use xlink:href="#DejaVuSans-30"/>
      </g>
     </g>
    </g>
    <g id="xtick_2">
     <g id="line2d_2">
      <g>
       <use style="stroke:#000000;stroke-width:0.8;" x="177.936842" xlink:href="#mdc5fc93ec8" y="390.04"/>
      </g>
     </g>
     <g id="text_2">
      <!-- 10 -->
      <defs>
       <path d="M 12.40625 8.296875 
L 28.515625 8.296875 
L 28.515625 63.921875 
L 10.984375 60.40625 
L 10.984375 69.390625 
L 28.421875 72.90625 
L 38.28125 72.90625 
L 38.28125 8.296875 
L 54.390625 8.296875 
L 54.390625 0 
L 12.40625 0 
z
" id="DejaVuSans-31"/>
      </defs>
      <g transform="translate(171.574342 404.638438)scale(0.1 -0.1)">
       <use xlink:href="#DejaVuSans-31"/>
       <use x="63.623047" xlink:href="#DejaVuSans-30"/>
      </g>
     </g>
    </g>
    <g id="xtick_3">
     <g id="line2d_3">
      <g>
       <use style="stroke:#000000;stroke-width:0.8;" x="271.370869" xlink:href="#mdc5fc93ec8" y="390.04"/>
      </g>
     </g>
     <g id="text_3">
      <!-- 20 -->
      <defs>
       <path d="M 19.1875 8.296875 
L 53.609375 8.296875 
L 53.609375 0 
L 7.328125 0 
L 7.328125 8.296875 
Q 12.9375 14.109375 22.625 23.890625 
Q 32.328125 33.6875 34.8125 36.53125 
Q 39.546875 41.84375 41.421875 45.53125 
Q 43.3125 49.21875 43.3125 52.78125 
Q 43.3125 58.59375 39.234375 62.25 
Q 35.15625 65.921875 28.609375 65.921875 
Q 23.96875 65.921875 18.8125 64.3125 
Q 13.671875 62.703125 7.8125 59.421875 
L 7.8125 69.390625 
Q 13.765625 71.78125 18.9375 73 
Q 24.125 74.21875 28.421875 74.21875 
Q 39.75 74.21875 46.484375 68.546875 
Q 53.21875 62.890625 53.21875 53.421875 
Q 53.21875 48.921875 51.53125 44.890625 
Q 49.859375 40.875 45.40625 35.40625 
Q 44.1875 33.984375 37.640625 27.21875 
Q 31.109375 20.453125 19.1875 8.296875 
z
" id="DejaVuSans-32"/>
      </defs>
      <g transform="translate(265.008369 404.638438)scale(0.1 -0.1)">
       <use xlink:href="#DejaVuSans-32"/>
       <use x="63.623047" xlink:href="#DejaVuSans-30"/>
      </g>
     </g>
    </g>
    <g id="xtick_4">
     <g id="line2d_4">
      <g>
       <use style="stroke:#000000;stroke-width:0.8;" x="364.804896" xlink:href="#mdc5fc93ec8" y="390.04"/>
      </g>
     </g>
     <g id="text_4">
      <!-- 30 -->
      <defs>
       <path d="M 40.578125 39.3125 
Q 47.65625 37.796875 51.625 33 
Q 55.609375 28.21875 55.609375 21.1875 
Q 55.609375 10.40625 48.1875 4.484375 
Q 40.765625 -1.421875 27.09375 -1.421875 
Q 22.515625 -1.421875 17.65625 -0.515625 
Q 12.796875 0.390625 7.625 2.203125 
L 7.625 11.71875 
Q 11.71875 9.328125 16.59375 8.109375 
Q 21.484375 6.890625 26.8125 6.890625 
Q 36.078125 6.890625 40.9375 10.546875 
Q 45.796875 14.203125 45.796875 21.1875 
Q 45.796875 27.640625 41.28125 31.265625 
Q 36.765625 34.90625 28.71875 34.90625 
L 20.21875 34.90625 
L 20.21875 43.015625 
L 29.109375 43.015625 
Q 36.375 43.015625 40.234375 45.921875 
Q 44.09375 48.828125 44.09375 54.296875 
Q 44.09375 59.90625 40.109375 62.90625 
Q 36.140625 65.921875 28.71875 65.921875 
Q 24.65625 65.921875 20.015625 65.03125 
Q 15.375 64.15625 9.8125 62.3125 
L 9.8125 71.09375 
Q 15.4375 72.65625 20.34375 73.4375 
Q 25.25 74.21875 29.59375 74.21875 
Q 40.828125 74.21875 47.359375 69.109375 
Q 53.90625 64.015625 53.90625 55.328125 
Q 53.90625 49.265625 50.4375 45.09375 
Q 46.96875 40.921875 40.578125 39.3125 
z
" id="DejaVuSans-33"/>
      </defs>
      <g transform="translate(358.442396 404.638438)scale(0.1 -0.1)">
       <use xlink:href="#DejaVuSans-33"/>
       <use x="63.623047" xlink:href="#DejaVuSans-30"/>
      </g>
     </g>
    </g>
    <g id="xtick_5">
     <g id="line2d_5">
      <g>
       <use style="stroke:#000000;stroke-width:0.8;" x="458.238923" xlink:href="#mdc5fc93ec8" y="390.04"/>
      </g>
     </g>
     <g id="text_5">
      <!-- 40 -->
      <defs>
       <path d="M 37.796875 64.3125 
L 12.890625 25.390625 
L 37.796875 25.390625 
z
M 35.203125 72.90625 
L 47.609375 72.90625 
L 47.609375 25.390625 
L 58.015625 25.390625 
L 58.015625 17.1875 
L 47.609375 17.1875 
L 47.609375 0 
L 37.796875 0 
L 37.796875 17.1875 
L 4.890625 17.1875 
L 4.890625 26.703125 
z
" id="DejaVuSans-34"/>
      </defs>
      <g transform="translate(451.876423 404.638438)scale(0.1 -0.1)">
       <use xlink:href="#DejaVuSans-34"/>
       <use x="63.623047" xlink:href="#DejaVuSans-30"/>
      </g>
     </g>
    </g>
    <g id="xtick_6">
     <g id="line2d_6">
      <g>
       <use style="stroke:#000000;stroke-width:0.8;" x="551.67295" xlink:href="#mdc5fc93ec8" y="390.04"/>
      </g>
     </g>
     <g id="text_6">
      <!-- 50 -->
      <defs>
       <path d="M 10.796875 72.90625 
L 49.515625 72.90625 
L 49.515625 64.59375 
L 19.828125 64.59375 
L 19.828125 46.734375 
Q 21.96875 47.46875 24.109375 47.828125 
Q 26.265625 48.1875 28.421875 48.1875 
Q 40.625 48.1875 47.75 41.5 
Q 54.890625 34.8125 54.890625 23.390625 
Q 54.890625 11.625 47.5625 5.09375 
Q 40.234375 -1.421875 26.90625 -1.421875 
Q 22.3125 -1.421875 17.546875 -0.640625 
Q 12.796875 0.140625 7.71875 1.703125 
L 7.71875 11.625 
Q 12.109375 9.234375 16.796875 8.0625 
Q 21.484375 6.890625 26.703125 6.890625 
Q 35.15625 6.890625 40.078125 11.328125 
Q 45.015625 15.765625 45.015625 23.390625 
Q 45.015625 31 40.078125 35.4375 
Q 35.15625 39.890625 26.703125 39.890625 
Q 22.75 39.890625 18.8125 39.015625 
Q 14.890625 38.140625 10.796875 36.28125 
z
" id="DejaVuSans-35"/>
      </defs>
      <g transform="translate(545.31045 404.638438)scale(0.1 -0.1)">
       <use xlink:href="#DejaVuSans-35"/>
       <use x="63.623047" xlink:href="#DejaVuSans-30"/>
      </g>
     </g>
    </g>
    <g id="xtick_7">
     <g id="line2d_7">
      <g>
       <use style="stroke:#000000;stroke-width:0.8;" x="645.106976" xlink:href="#mdc5fc93ec8" y="390.04"/>
      </g>
     </g>
     <g id="text_7">
      <!-- 60 -->
      <defs>
       <path d="M 33.015625 40.375 
Q 26.375 40.375 22.484375 35.828125 
Q 18.609375 31.296875 18.609375 23.390625 
Q 18.609375 15.53125 22.484375 10.953125 
Q 26.375 6.390625 33.015625 6.390625 
Q 39.65625 6.390625 43.53125 10.953125 
Q 47.40625 15.53125 47.40625 23.390625 
Q 47.40625 31.296875 43.53125 35.828125 
Q 39.65625 40.375 33.015625 40.375 
z
M 52.59375 71.296875 
L 52.59375 62.3125 
Q 48.875 64.0625 45.09375 64.984375 
Q 41.3125 65.921875 37.59375 65.921875 
Q 27.828125 65.921875 22.671875 59.328125 
Q 17.53125 52.734375 16.796875 39.40625 
Q 19.671875 43.65625 24.015625 45.921875 
Q 28.375 48.1875 33.59375 48.1875 
Q 44.578125 48.1875 50.953125 41.515625 
Q 57.328125 34.859375 57.328125 23.390625 
Q 57.328125 12.15625 50.6875 5.359375 
Q 44.046875 -1.421875 33.015625 -1.421875 
Q 20.359375 -1.421875 13.671875 8.265625 
Q 6.984375 17.96875 6.984375 36.375 
Q 6.984375 53.65625 15.1875 63.9375 
Q 23.390625 74.21875 37.203125 74.21875 
Q 40.921875 74.21875 44.703125 73.484375 
Q 48.484375 72.75 52.59375 71.296875 
z
" id="DejaVuSans-36"/>
      </defs>
      <g transform="translate(638.744476 404.638438)scale(0.1 -0.1)">
       <use xlink:href="#DejaVuSans-36"/>
       <use x="63.623047" xlink:href="#DejaVuSans-30"/>
      </g>
     </g>
    </g>
    <g id="text_8">
     <!-- Finishing Position -->
     <defs>
      <path d="M 9.8125 72.90625 
L 51.703125 72.90625 
L 51.703125 64.59375 
L 19.671875 64.59375 
L 19.671875 43.109375 
L 48.578125 43.109375 
L 48.578125 34.8125 
L 19.671875 34.8125 
L 19.671875 0 
L 9.8125 0 
z
" id="DejaVuSans-46"/>
      <path d="M 9.421875 54.6875 
L 18.40625 54.6875 
L 18.40625 0 
L 9.421875 0 
z
M 9.421875 75.984375 
L 18.40625 75.984375 
L 18.40625 64.59375 
L 9.421875 64.59375 
z
" id="DejaVuSans-69"/>
      <path d="M 54.890625 33.015625 
L 54.890625 0 
L 45.90625 0 
L 45.90625 32.71875 
Q 45.90625 40.484375 42.875 44.328125 
Q 39.84375 48.1875 33.796875 48.1875 
Q 26.515625 48.1875 22.3125 43.546875 
Q 18.109375 38.921875 18.109375 30.90625 
L 18.109375 0 
L 9.078125 0 
L 9.078125 54.6875 
L 18.109375 54.6875 
L 18.109375 46.1875 
Q 21.34375 51.125 25.703125 53.5625 
Q 30.078125 56 35.796875 56 
Q 45.21875 56 50.046875 50.171875 
Q 54.890625 44.34375 54.890625 33.015625 
z
" id="DejaVuSans-6e"/>
      <path d="M 44.28125 53.078125 
L 44.28125 44.578125 
Q 40.484375 46.53125 36.375 47.5 
Q 32.28125 48.484375 27.875 48.484375 
Q 21.1875 48.484375 17.84375 46.4375 
Q 14.5 44.390625 14.5 40.28125 
Q 14.5 37.15625 16.890625 35.375 
Q 19.28125 33.59375 26.515625 31.984375 
L 29.59375 31.296875 
Q 39.15625 29.25 43.1875 25.515625 
Q 47.21875 21.78125 47.21875 15.09375 
Q 47.21875 7.46875 41.1875 3.015625 
Q 35.15625 -1.421875 24.609375 -1.421875 
Q 20.21875 -1.421875 15.453125 -0.5625 
Q 10.6875 0.296875 5.421875 2 
L 5.421875 11.28125 
Q 10.40625 8.6875 15.234375 7.390625 
Q 20.0625 6.109375 24.8125 6.109375 
Q 31.15625 6.109375 34.5625 8.28125 
Q 37.984375 10.453125 37.984375 14.40625 
Q 37.984375 18.0625 35.515625 20.015625 
Q 33.0625 21.96875 24.703125 23.78125 
L 21.578125 24.515625 
Q 13.234375 26.265625 9.515625 29.90625 
Q 5.8125 33.546875 5.8125 39.890625 
Q 5.8125 47.609375 11.28125 51.796875 
Q 16.75 56 26.8125 56 
Q 31.78125 56 36.171875 55.265625 
Q 40.578125 54.546875 44.28125 53.078125 
z
" id="DejaVuSans-73"/>
      <path d="M 54.890625 33.015625 
L 54.890625 0 
L 45.90625 0 
L 45.90625 32.71875 
Q 45.90625 40.484375 42.875 44.328125 
Q 39.84375 48.1875 33.796875 48.1875 
Q 26.515625 48.1875 22.3125 43.546875 
Q 18.109375 38.921875 18.109375 30.90625 
L 18.109375 0 
L 9.078125 0 
L 9.078125 75.984375 
L 18.109375 75.984375 
L 18.109375 46.1875 
Q 21.34375 51.125 25.703125 53.5625 
Q 30.078125 56 35.796875 56 
Q 45.21875 56 50.046875 50.171875 
Q 54.890625 44.34375 54.890625 33.015625 
z
" id="DejaVuSans-68"/>
      <path d="M 45.40625 27.984375 
Q 45.40625 37.75 41.375 43.109375 
Q 37.359375 48.484375 30.078125 48.484375 
Q 22.859375 48.484375 18.828125 43.109375 
Q 14.796875 37.75 14.796875 27.984375 
Q 14.796875 18.265625 18.828125 12.890625 
Q 22.859375 7.515625 30.078125 7.515625 
Q 37.359375 7.515625 41.375 12.890625 
Q 45.40625 18.265625 45.40625 27.984375 
z
M 54.390625 6.78125 
Q 54.390625 -7.171875 48.1875 -13.984375 
Q 42 -20.796875 29.203125 -20.796875 
Q 24.46875 -20.796875 20.265625 -20.09375 
Q 16.0625 -19.390625 12.109375 -17.921875 
L 12.109375 -9.1875 
Q 16.0625 -11.328125 19.921875 -12.34375 
Q 23.78125 -13.375 27.78125 -13.375 
Q 36.625 -13.375 41.015625 -8.765625 
Q 45.40625 -4.15625 45.40625 5.171875 
L 45.40625 9.625 
Q 42.625 4.78125 38.28125 2.390625 
Q 33.9375 0 27.875 0 
Q 17.828125 0 11.671875 7.65625 
Q 5.515625 15.328125 5.515625 27.984375 
Q 5.515625 40.671875 11.671875 48.328125 
Q 17.828125 56 27.875 56 
Q 33.9375 56 38.28125 53.609375 
Q 42.625 51.21875 45.40625 46.390625 
L 45.40625 54.6875 
L 54.390625 54.6875 
z
" id="DejaVuSans-67"/>
      <path id="DejaVuSans-20"/>
      <path d="M 19.671875 64.796875 
L 19.671875 37.40625 
L 32.078125 37.40625 
Q 38.96875 37.40625 42.71875 40.96875 
Q 46.484375 44.53125 46.484375 51.125 
Q 46.484375 57.671875 42.71875 61.234375 
Q 38.96875 64.796875 32.078125 64.796875 
z
M 9.8125 72.90625 
L 32.078125 72.90625 
Q 44.34375 72.90625 50.609375 67.359375 
Q 56.890625 61.8125 56.890625 51.125 
Q 56.890625 40.328125 50.609375 34.8125 
Q 44.34375 29.296875 32.078125 29.296875 
L 19.671875 29.296875 
L 19.671875 0 
L 9.8125 0 
z
" id="DejaVuSans-50"/>
      <path d="M 30.609375 48.390625 
Q 23.390625 48.390625 19.1875 42.75 
Q 14.984375 37.109375 14.984375 27.296875 
Q 14.984375 17.484375 19.15625 11.84375 
Q 23.34375 6.203125 30.609375 6.203125 
Q 37.796875 6.203125 41.984375 11.859375 
Q 46.1875 17.53125 46.1875 27.296875 
Q 46.1875 37.015625 41.984375 42.703125 
Q 37.796875 48.390625 30.609375 48.390625 
z
M 30.609375 56 
Q 42.328125 56 49.015625 48.375 
Q 55.71875 40.765625 55.71875 27.296875 
Q 55.71875 13.875 49.015625 6.21875 
Q 42.328125 -1.421875 30.609375 -1.421875 
Q 18.84375 -1.421875 12.171875 6.21875 
Q 5.515625 13.875 5.515625 27.296875 
Q 5.515625 40.765625 12.171875 48.375 
Q 18.84375 56 30.609375 56 
z
" id="DejaVuSans-6f"/>
      <path d="M 18.3125 70.21875 
L 18.3125 54.6875 
L 36.8125 54.6875 
L 36.8125 47.703125 
L 18.3125 47.703125 
L 18.3125 18.015625 
Q 18.3125 11.328125 20.140625 9.421875 
Q 21.96875 7.515625 27.59375 7.515625 
L 36.8125 7.515625 
L 36.8125 0 
L 27.59375 0 
Q 17.1875 0 13.234375 3.875 
Q 9.28125 7.765625 9.28125 18.015625 
L 9.28125 47.703125 
L 2.6875 47.703125 
L 2.6875 54.6875 
L 9.28125 54.6875 
L 9.28125 70.21875 
z
" id="DejaVuSans-74"/>
     </defs>
     <g transform="translate(335.265313 418.316562)scale(0.1 -0.1)">
      <use xlink:href="#DejaVuSans-46"/>
      <use x="57.410156" xlink:href="#DejaVuSans-69"/>
      <use x="85.193359" xlink:href="#DejaVuSans-6e"/>
      <use x="148.572266" xlink:href="#DejaVuSans-69"/>
      <use x="176.355469" xlink:href="#DejaVuSans-73"/>
      <use x="228.455078" xlink:href="#DejaVuSans-68"/>
      <use x="291.833984" xlink:href="#DejaVuSans-69"/>
      <use x="319.617188" xlink:href="#DejaVuSans-6e"/>
      <use x="382.996094" xlink:href="#DejaVuSans-67"/>
      <use x="446.472656" xlink:href="#DejaVuSans-20"/>
      <use x="478.259766" xlink:href="#DejaVuSans-50"/>
      <use x="538.515625" xlink:href="#DejaVuSans-6f"/>
      <use x="599.697266" xlink:href="#DejaVuSans-73"/>
      <use x="651.796875" xlink:href="#DejaVuSans-69"/>
      <use x="679.580078" xlink:href="#DejaVuSans-74"/>
      <use x="718.789062" xlink:href="#DejaVuSans-69"/>
      <use x="746.572266" xlink:href="#DejaVuSans-6f"/>
      <use x="807.753906" xlink:href="#DejaVuSans-6e"/>
     </g>
    </g>
   </g>
   <g id="matplotlib.axis_2">
    <g id="ytick_1">
     <g id="line2d_8">
      <defs>
       <path d="M 0 0 
L -3.5 0 
" id="m51071eab6d" style="stroke:#000000;stroke-width:0.8;"/>
      </defs>
      <g>
       <use style="stroke:#000000;stroke-width:0.8;" x="50.96" xlink:href="#m51071eab6d" y="390.04"/>
      </g>
     </g>
     <g id="text_9">
      <!-- 0 -->
      <g transform="translate(37.5975 393.839219)scale(0.1 -0.1)">
       <use xlink:href="#DejaVuSans-30"/>
      </g>
     </g>
    </g>
    <g id="ytick_2">
     <g id="line2d_9">
      <g>
       <use style="stroke:#000000;stroke-width:0.8;" x="50.96" xlink:href="#m51071eab6d" y="323.89941"/>
      </g>
     </g>
     <g id="text_10">
      <!-- 50 -->
      <g transform="translate(31.235 327.698629)scale(0.1 -0.1)">
       <use xlink:href="#DejaVuSans-35"/>
       <use x="63.623047" xlink:href="#DejaVuSans-30"/>
      </g>
     </g>
    </g>
    <g id="ytick_3">
     <g id="line2d_10">
      <g>
       <use style="stroke:#000000;stroke-width:0.8;" x="50.96" xlink:href="#m51071eab6d" y="257.758821"/>
      </g>
     </g>
     <g id="text_11">
      <!-- 100 -->
      <g transform="translate(24.8725 261.55804)scale(0.1 -0.1)">
       <use xlink:href="#DejaVuSans-31"/>
       <use x="63.623047" xlink:href="#DejaVuSans-30"/>
       <use x="127.246094" xlink:href="#DejaVuSans-30"/>
      </g>
     </g>
    </g>
    <g id="ytick_4">
     <g id="line2d_11">
      <g>
       <use style="stroke:#000000;stroke-width:0.8;" x="50.96" xlink:href="#m51071eab6d" y="191.618231"/>
      </g>
     </g>
     <g id="text_12">
      <!-- 150 -->
      <g transform="translate(24.8725 195.41745)scale(0.1 -0.1)">
       <use xlink:href="#DejaVuSans-31"/>
       <use x="63.623047" xlink:href="#DejaVuSans-35"/>
       <use x="127.246094" xlink:href="#DejaVuSans-30"/>
      </g>
     </g>
    </g>
    <g id="ytick_5">
     <g id="line2d_12">
      <g>
       <use style="stroke:#000000;stroke-width:0.8;" x="50.96" xlink:href="#m51071eab6d" y="125.477642"/>
      </g>
     </g>
     <g id="text_13">
      <!-- 200 -->
      <g transform="translate(24.8725 129.27686)scale(0.1 -0.1)">
       <use xlink:href="#DejaVuSans-32"/>
       <use x="63.623047" xlink:href="#DejaVuSans-30"/>
       <use x="127.246094" xlink:href="#DejaVuSans-30"/>
      </g>
     </g>
    </g>
    <g id="ytick_6">
     <g id="line2d_13">
      <g>
       <use style="stroke:#000000;stroke-width:0.8;" x="50.96" xlink:href="#m51071eab6d" y="59.337052"/>
      </g>
     </g>
     <g id="text_14">
      <!-- 250 -->
      <g transform="translate(24.8725 63.136271)scale(0.1 -0.1)">
       <use xlink:href="#DejaVuSans-32"/>
       <use x="63.623047" xlink:href="#DejaVuSans-35"/>
       <use x="127.246094" xlink:href="#DejaVuSans-30"/>
      </g>
     </g>
    </g>
    <g id="text_15">
     <!-- Lap Time [sec] -->
     <defs>
      <path d="M 9.8125 72.90625 
L 19.671875 72.90625 
L 19.671875 8.296875 
L 55.171875 8.296875 
L 55.171875 0 
L 9.8125 0 
z
" id="DejaVuSans-4c"/>
      <path d="M 34.28125 27.484375 
Q 23.390625 27.484375 19.1875 25 
Q 14.984375 22.515625 14.984375 16.5 
Q 14.984375 11.71875 18.140625 8.90625 
Q 21.296875 6.109375 26.703125 6.109375 
Q 34.1875 6.109375 38.703125 11.40625 
Q 43.21875 16.703125 43.21875 25.484375 
L 43.21875 27.484375 
z
M 52.203125 31.203125 
L 52.203125 0 
L 43.21875 0 
L 43.21875 8.296875 
Q 40.140625 3.328125 35.546875 0.953125 
Q 30.953125 -1.421875 24.3125 -1.421875 
Q 15.921875 -1.421875 10.953125 3.296875 
Q 6 8.015625 6 15.921875 
Q 6 25.140625 12.171875 29.828125 
Q 18.359375 34.515625 30.609375 34.515625 
L 43.21875 34.515625 
L 43.21875 35.40625 
Q 43.21875 41.609375 39.140625 45 
Q 35.0625 48.390625 27.6875 48.390625 
Q 23 48.390625 18.546875 47.265625 
Q 14.109375 46.140625 10.015625 43.890625 
L 10.015625 52.203125 
Q 14.9375 54.109375 19.578125 55.046875 
Q 24.21875 56 28.609375 56 
Q 40.484375 56 46.34375 49.84375 
Q 52.203125 43.703125 52.203125 31.203125 
z
" id="DejaVuSans-61"/>
      <path d="M 18.109375 8.203125 
L 18.109375 -20.796875 
L 9.078125 -20.796875 
L 9.078125 54.6875 
L 18.109375 54.6875 
L 18.109375 46.390625 
Q 20.953125 51.265625 25.265625 53.625 
Q 29.59375 56 35.59375 56 
Q 45.5625 56 51.78125 48.09375 
Q 58.015625 40.1875 58.015625 27.296875 
Q 58.015625 14.40625 51.78125 6.484375 
Q 45.5625 -1.421875 35.59375 -1.421875 
Q 29.59375 -1.421875 25.265625 0.953125 
Q 20.953125 3.328125 18.109375 8.203125 
z
M 48.6875 27.296875 
Q 48.6875 37.203125 44.609375 42.84375 
Q 40.53125 48.484375 33.40625 48.484375 
Q 26.265625 48.484375 22.1875 42.84375 
Q 18.109375 37.203125 18.109375 27.296875 
Q 18.109375 17.390625 22.1875 11.75 
Q 26.265625 6.109375 33.40625 6.109375 
Q 40.53125 6.109375 44.609375 11.75 
Q 48.6875 17.390625 48.6875 27.296875 
z
" id="DejaVuSans-70"/>
      <path d="M -0.296875 72.90625 
L 61.375 72.90625 
L 61.375 64.59375 
L 35.5 64.59375 
L 35.5 0 
L 25.59375 0 
L 25.59375 64.59375 
L -0.296875 64.59375 
z
" id="DejaVuSans-54"/>
      <path d="M 52 44.1875 
Q 55.375 50.25 60.0625 53.125 
Q 64.75 56 71.09375 56 
Q 79.640625 56 84.28125 50.015625 
Q 88.921875 44.046875 88.921875 33.015625 
L 88.921875 0 
L 79.890625 0 
L 79.890625 32.71875 
Q 79.890625 40.578125 77.09375 44.375 
Q 74.3125 48.1875 68.609375 48.1875 
Q 61.625 48.1875 57.5625 43.546875 
Q 53.515625 38.921875 53.515625 30.90625 
L 53.515625 0 
L 44.484375 0 
L 44.484375 32.71875 
Q 44.484375 40.625 41.703125 44.40625 
Q 38.921875 48.1875 33.109375 48.1875 
Q 26.21875 48.1875 22.15625 43.53125 
Q 18.109375 38.875 18.109375 30.90625 
L 18.109375 0 
L 9.078125 0 
L 9.078125 54.6875 
L 18.109375 54.6875 
L 18.109375 46.1875 
Q 21.1875 51.21875 25.484375 53.609375 
Q 29.78125 56 35.6875 56 
Q 41.65625 56 45.828125 52.96875 
Q 50 49.953125 52 44.1875 
z
" id="DejaVuSans-6d"/>
      <path d="M 56.203125 29.59375 
L 56.203125 25.203125 
L 14.890625 25.203125 
Q 15.484375 15.921875 20.484375 11.0625 
Q 25.484375 6.203125 34.421875 6.203125 
Q 39.59375 6.203125 44.453125 7.46875 
Q 49.3125 8.734375 54.109375 11.28125 
L 54.109375 2.78125 
Q 49.265625 0.734375 44.1875 -0.34375 
Q 39.109375 -1.421875 33.890625 -1.421875 
Q 20.796875 -1.421875 13.15625 6.1875 
Q 5.515625 13.8125 5.515625 26.8125 
Q 5.515625 40.234375 12.765625 48.109375 
Q 20.015625 56 32.328125 56 
Q 43.359375 56 49.78125 48.890625 
Q 56.203125 41.796875 56.203125 29.59375 
z
M 47.21875 32.234375 
Q 47.125 39.59375 43.09375 43.984375 
Q 39.0625 48.390625 32.421875 48.390625 
Q 24.90625 48.390625 20.390625 44.140625 
Q 15.875 39.890625 15.1875 32.171875 
z
" id="DejaVuSans-65"/>
      <path d="M 8.59375 75.984375 
L 29.296875 75.984375 
L 29.296875 69 
L 17.578125 69 
L 17.578125 -6.203125 
L 29.296875 -6.203125 
L 29.296875 -13.1875 
L 8.59375 -13.1875 
z
" id="DejaVuSans-5b"/>
      <path d="M 48.78125 52.59375 
L 48.78125 44.1875 
Q 44.96875 46.296875 41.140625 47.34375 
Q 37.3125 48.390625 33.40625 48.390625 
Q 24.65625 48.390625 19.8125 42.84375 
Q 14.984375 37.3125 14.984375 27.296875 
Q 14.984375 17.28125 19.8125 11.734375 
Q 24.65625 6.203125 33.40625 6.203125 
Q 37.3125 6.203125 41.140625 7.25 
Q 44.96875 8.296875 48.78125 10.40625 
L 48.78125 2.09375 
Q 45.015625 0.34375 40.984375 -0.53125 
Q 36.96875 -1.421875 32.421875 -1.421875 
Q 20.0625 -1.421875 12.78125 6.34375 
Q 5.515625 14.109375 5.515625 27.296875 
Q 5.515625 40.671875 12.859375 48.328125 
Q 20.21875 56 33.015625 56 
Q 37.15625 56 41.109375 55.140625 
Q 45.0625 54.296875 48.78125 52.59375 
z
" id="DejaVuSans-63"/>
      <path d="M 30.421875 75.984375 
L 30.421875 -13.1875 
L 9.71875 -13.1875 
L 9.71875 -6.203125 
L 21.390625 -6.203125 
L 21.390625 69 
L 9.71875 69 
L 9.71875 75.984375 
z
" id="DejaVuSans-5d"/>
     </defs>
     <g transform="translate(18.792813 244.661875)rotate(-90)scale(0.1 -0.1)">
      <use xlink:href="#DejaVuSans-4c"/>
      <use x="55.712891" xlink:href="#DejaVuSans-61"/>
      <use x="116.992188" xlink:href="#DejaVuSans-70"/>
      <use x="180.46875" xlink:href="#DejaVuSans-20"/>
      <use x="212.255859" xlink:href="#DejaVuSans-54"/>
      <use x="273.292969" xlink:href="#DejaVuSans-69"/>
      <use x="301.076172" xlink:href="#DejaVuSans-6d"/>
      <use x="398.488281" xlink:href="#DejaVuSans-65"/>
      <use x="460.011719" xlink:href="#DejaVuSans-20"/>
      <use x="491.798828" xlink:href="#DejaVuSans-5b"/>
      <use x="530.8125" xlink:href="#DejaVuSans-73"/>
      <use x="582.912109" xlink:href="#DejaVuSans-65"/>
      <use x="644.435547" xlink:href="#DejaVuSans-63"/>
      <use x="699.416016" xlink:href="#DejaVuSans-5d"/>
     </g>
    </g>
   </g>
   <g id="patch_131">
    <path d="M 50.96 390.04 
L 50.96 25.44 
" style="fill:none;stroke:#000000;stroke-linecap:square;stroke-linejoin:miter;stroke-width:0.8;"/>
   </g>
   <g id="patch_132">
    <path d="M 706.68 390.04 
L 706.68 25.44 
" style="fill:none;stroke:#000000;stroke-linecap:square;stroke-linejoin:miter;stroke-width:0.8;"/>
   </g>
   <g id="patch_133">
    <path d="M 50.96 390.04 
L 706.68 390.04 
" style="fill:none;stroke:#000000;stroke-linecap:square;stroke-linejoin:miter;stroke-width:0.8;"/>
   </g>
   <g id="patch_134">
    <path d="M 50.96 25.44 
L 706.68 25.44 
" style="fill:none;stroke:#000000;stroke-linecap:square;stroke-linejoin:miter;stroke-width:0.8;"/>
   </g>
   <g id="text_16">
    <!-- Best and Overall Average Lap Times by Place -->
    <defs>
     <path d="M 19.671875 34.8125 
L 19.671875 8.109375 
L 35.5 8.109375 
Q 43.453125 8.109375 47.28125 11.40625 
Q 51.125 14.703125 51.125 21.484375 
Q 51.125 28.328125 47.28125 31.5625 
Q 43.453125 34.8125 35.5 34.8125 
z
M 19.671875 64.796875 
L 19.671875 42.828125 
L 34.28125 42.828125 
Q 41.5 42.828125 45.03125 45.53125 
Q 48.578125 48.25 48.578125 53.8125 
Q 48.578125 59.328125 45.03125 62.0625 
Q 41.5 64.796875 34.28125 64.796875 
z
M 9.8125 72.90625 
L 35.015625 72.90625 
Q 46.296875 72.90625 52.390625 68.21875 
Q 58.5 63.53125 58.5 54.890625 
Q 58.5 48.1875 55.375 44.234375 
Q 52.25 40.28125 46.1875 39.3125 
Q 53.46875 37.75 57.5 32.78125 
Q 61.53125 27.828125 61.53125 20.40625 
Q 61.53125 10.640625 54.890625 5.3125 
Q 48.25 0 35.984375 0 
L 9.8125 0 
z
" id="DejaVuSans-42"/>
     <path d="M 45.40625 46.390625 
L 45.40625 75.984375 
L 54.390625 75.984375 
L 54.390625 0 
L 45.40625 0 
L 45.40625 8.203125 
Q 42.578125 3.328125 38.25 0.953125 
Q 33.9375 -1.421875 27.875 -1.421875 
Q 17.96875 -1.421875 11.734375 6.484375 
Q 5.515625 14.40625 5.515625 27.296875 
Q 5.515625 40.1875 11.734375 48.09375 
Q 17.96875 56 27.875 56 
Q 33.9375 56 38.25 53.625 
Q 42.578125 51.265625 45.40625 46.390625 
z
M 14.796875 27.296875 
Q 14.796875 17.390625 18.875 11.75 
Q 22.953125 6.109375 30.078125 6.109375 
Q 37.203125 6.109375 41.296875 11.75 
Q 45.40625 17.390625 45.40625 27.296875 
Q 45.40625 37.203125 41.296875 42.84375 
Q 37.203125 48.484375 30.078125 48.484375 
Q 22.953125 48.484375 18.875 42.84375 
Q 14.796875 37.203125 14.796875 27.296875 
z
" id="DejaVuSans-64"/>
     <path d="M 39.40625 66.21875 
Q 28.65625 66.21875 22.328125 58.203125 
Q 16.015625 50.203125 16.015625 36.375 
Q 16.015625 22.609375 22.328125 14.59375 
Q 28.65625 6.59375 39.40625 6.59375 
Q 50.140625 6.59375 56.421875 14.59375 
Q 62.703125 22.609375 62.703125 36.375 
Q 62.703125 50.203125 56.421875 58.203125 
Q 50.140625 66.21875 39.40625 66.21875 
z
M 39.40625 74.21875 
Q 54.734375 74.21875 63.90625 63.9375 
Q 73.09375 53.65625 73.09375 36.375 
Q 73.09375 19.140625 63.90625 8.859375 
Q 54.734375 -1.421875 39.40625 -1.421875 
Q 24.03125 -1.421875 14.8125 8.828125 
Q 5.609375 19.09375 5.609375 36.375 
Q 5.609375 53.65625 14.8125 63.9375 
Q 24.03125 74.21875 39.40625 74.21875 
z
" id="DejaVuSans-4f"/>
     <path d="M 2.984375 54.6875 
L 12.5 54.6875 
L 29.59375 8.796875 
L 46.6875 54.6875 
L 56.203125 54.6875 
L 35.6875 0 
L 23.484375 0 
z
" id="DejaVuSans-76"/>
     <path d="M 41.109375 46.296875 
Q 39.59375 47.171875 37.8125 47.578125 
Q 36.03125 48 33.890625 48 
Q 26.265625 48 22.1875 43.046875 
Q 18.109375 38.09375 18.109375 28.8125 
L 18.109375 0 
L 9.078125 0 
L 9.078125 54.6875 
L 18.109375 54.6875 
L 18.109375 46.1875 
Q 20.953125 51.171875 25.484375 53.578125 
Q 30.03125 56 36.53125 56 
Q 37.453125 56 38.578125 55.875 
Q 39.703125 55.765625 41.0625 55.515625 
z
" id="DejaVuSans-72"/>
     <path d="M 9.421875 75.984375 
L 18.40625 75.984375 
L 18.40625 0 
L 9.421875 0 
z
" id="DejaVuSans-6c"/>
     <path d="M 34.1875 63.1875 
L 20.796875 26.90625 
L 47.609375 26.90625 
z
M 28.609375 72.90625 
L 39.796875 72.90625 
L 67.578125 0 
L 57.328125 0 
L 50.6875 18.703125 
L 17.828125 18.703125 
L 11.1875 0 
L 0.78125 0 
z
" id="DejaVuSans-41"/>
     <path d="M 48.6875 27.296875 
Q 48.6875 37.203125 44.609375 42.84375 
Q 40.53125 48.484375 33.40625 48.484375 
Q 26.265625 48.484375 22.1875 42.84375 
Q 18.109375 37.203125 18.109375 27.296875 
Q 18.109375 17.390625 22.1875 11.75 
Q 26.265625 6.109375 33.40625 6.109375 
Q 40.53125 6.109375 44.609375 11.75 
Q 48.6875 17.390625 48.6875 27.296875 
z
M 18.109375 46.390625 
Q 20.953125 51.265625 25.265625 53.625 
Q 29.59375 56 35.59375 56 
Q 45.5625 56 51.78125 48.09375 
Q 58.015625 40.1875 58.015625 27.296875 
Q 58.015625 14.40625 51.78125 6.484375 
Q 45.5625 -1.421875 35.59375 -1.421875 
Q 29.59375 -1.421875 25.265625 0.953125 
Q 20.953125 3.328125 18.109375 8.203125 
L 18.109375 0 
L 9.078125 0 
L 9.078125 75.984375 
L 18.109375 75.984375 
z
" id="DejaVuSans-62"/>
     <path d="M 32.171875 -5.078125 
Q 28.375 -14.84375 24.75 -17.8125 
Q 21.140625 -20.796875 15.09375 -20.796875 
L 7.90625 -20.796875 
L 7.90625 -13.28125 
L 13.1875 -13.28125 
Q 16.890625 -13.28125 18.9375 -11.515625 
Q 21 -9.765625 23.484375 -3.21875 
L 25.09375 0.875 
L 2.984375 54.6875 
L 12.5 54.6875 
L 29.59375 11.921875 
L 46.6875 54.6875 
L 56.203125 54.6875 
z
" id="DejaVuSans-79"/>
    </defs>
    <g transform="translate(242.334063 19.44)scale(0.12 -0.12)">
     <use xlink:href="#DejaVuSans-42"/>
     <use x="68.603516" xlink:href="#DejaVuSans-65"/>
     <use x="130.126953" xlink:href="#DejaVuSans-73"/>
     <use x="182.226562" xlink:href="#DejaVuSans-74"/>
     <use x="221.435547" xlink:href="#DejaVuSans-20"/>
     <use x="253.222656" xlink:href="#DejaVuSans-61"/>
     <use x="314.501953" xlink:href="#DejaVuSans-6e"/>
     <use x="377.880859" xlink:href="#DejaVuSans-64"/>
     <use x="441.357422" xlink:href="#DejaVuSans-20"/>
     <use x="473.144531" xlink:href="#DejaVuSans-4f"/>
     <use x="551.855469" xlink:href="#DejaVuSans-76"/>
     <use x="611.035156" xlink:href="#DejaVuSans-65"/>
     <use x="672.558594" xlink:href="#DejaVuSans-72"/>
     <use x="713.671875" xlink:href="#DejaVuSans-61"/>
     <use x="774.951172" xlink:href="#DejaVuSans-6c"/>
     <use x="802.734375" xlink:href="#DejaVuSans-6c"/>
     <use x="830.517578" xlink:href="#DejaVuSans-20"/>
     <use x="862.304688" xlink:href="#DejaVuSans-41"/>
     <use x="930.634766" xlink:href="#DejaVuSans-76"/>
     <use x="989.814453" xlink:href="#DejaVuSans-65"/>
     <use x="1051.337891" xlink:href="#DejaVuSans-72"/>
     <use x="1092.451172" xlink:href="#DejaVuSans-61"/>
     <use x="1153.730469" xlink:href="#DejaVuSans-67"/>
     <use x="1217.207031" xlink:href="#DejaVuSans-65"/>
     <use x="1278.730469" xlink:href="#DejaVuSans-20"/>
     <use x="1310.517578" xlink:href="#DejaVuSans-4c"/>
     <use x="1366.230469" xlink:href="#DejaVuSans-61"/>
     <use x="1427.509766" xlink:href="#DejaVuSans-70"/>
     <use x="1490.986328" xlink:href="#DejaVuSans-20"/>
     <use x="1522.773438" xlink:href="#DejaVuSans-54"/>
     <use x="1583.810547" xlink:href="#DejaVuSans-69"/>
     <use x="1611.59375" xlink:href="#DejaVuSans-6d"/>
     <use x="1709.005859" xlink:href="#DejaVuSans-65"/>
     <use x="1770.529297" xlink:href="#DejaVuSans-73"/>
     <use x="1822.628906" xlink:href="#DejaVuSans-20"/>
     <use x="1854.416016" xlink:href="#DejaVuSans-62"/>
     <use x="1917.892578" xlink:href="#DejaVuSans-79"/>
     <use x="1977.072266" xlink:href="#DejaVuSans-20"/>
     <use x="2008.859375" xlink:href="#DejaVuSans-50"/>
     <use x="2069.162109" xlink:href="#DejaVuSans-6c"/>
     <use x="2096.945312" xlink:href="#DejaVuSans-61"/>
     <use x="2158.224609" xlink:href="#DejaVuSans-63"/>
     <use x="2213.205078" xlink:href="#DejaVuSans-65"/>
    </g>
   </g>
   <g id="legend_1">
    <g id="patch_135">
     <path d="M 56.56 55.325 
L 185.95375 55.325 
Q 187.55375 55.325 187.55375 53.725 
L 187.55375 31.04 
Q 187.55375 29.44 185.95375 29.44 
L 56.56 29.44 
Q 54.96 29.44 54.96 31.04 
L 54.96 53.725 
Q 54.96 55.325 56.56 55.325 
z
" style="fill:#ffffff;opacity:0.8;stroke:#cccccc;stroke-linejoin:miter;"/>
    </g>
    <g id="patch_136">
     <path d="M 58.16 38.71875 
L 74.16 38.71875 
L 74.16 33.11875 
L 58.16 33.11875 
z
" style="fill:#289bea;stroke:#289bea;stroke-linejoin:miter;"/>
    </g>
    <g id="text_17">
     <!-- Overall Average Lap Time -->
     <g transform="translate(80.56 38.71875)scale(0.08 -0.08)">
      <use xlink:href="#DejaVuSans-4f"/>
      <use x="78.710938" xlink:href="#DejaVuSans-76"/>
      <use x="137.890625" xlink:href="#DejaVuSans-65"/>
      <use x="199.414062" xlink:href="#DejaVuSans-72"/>
      <use x="240.527344" xlink:href="#DejaVuSans-61"/>
      <use x="301.806641" xlink:href="#DejaVuSans-6c"/>
      <use x="329.589844" xlink:href="#DejaVuSans-6c"/>
      <use x="357.373047" xlink:href="#DejaVuSans-20"/>
      <use x="389.160156" xlink:href="#DejaVuSans-41"/>
      <use x="457.490234" xlink:href="#DejaVuSans-76"/>
      <use x="516.669922" xlink:href="#DejaVuSans-65"/>
      <use x="578.193359" xlink:href="#DejaVuSans-72"/>
      <use x="619.306641" xlink:href="#DejaVuSans-61"/>
      <use x="680.585938" xlink:href="#DejaVuSans-67"/>
      <use x="744.0625" xlink:href="#DejaVuSans-65"/>
      <use x="805.585938" xlink:href="#DejaVuSans-20"/>
      <use x="837.373047" xlink:href="#DejaVuSans-4c"/>
      <use x="893.085938" xlink:href="#DejaVuSans-61"/>
      <use x="954.365234" xlink:href="#DejaVuSans-70"/>
      <use x="1017.841797" xlink:href="#DejaVuSans-20"/>
      <use x="1049.628906" xlink:href="#DejaVuSans-54"/>
      <use x="1110.666016" xlink:href="#DejaVuSans-69"/>
      <use x="1138.449219" xlink:href="#DejaVuSans-6d"/>
      <use x="1235.861328" xlink:href="#DejaVuSans-65"/>
     </g>
    </g>
    <g id="patch_137">
     <path d="M 58.16 50.46125 
L 74.16 50.46125 
L 74.16 44.86125 
L 58.16 44.86125 
z
" style="fill:#1f77b4;stroke:#1f77b4;stroke-linejoin:miter;"/>
    </g>
    <g id="text_18">
     <!-- Best Lap Time -->
     <g transform="translate(80.56 50.46125)scale(0.08 -0.08)">
      <use xlink:href="#DejaVuSans-42"/>
      <use x="68.603516" xlink:href="#DejaVuSans-65"/>
      <use x="130.126953" xlink:href="#DejaVuSans-73"/>
      <use x="182.226562" xlink:href="#DejaVuSans-74"/>
      <use x="221.435547" xlink:href="#DejaVuSans-20"/>
      <use x="253.222656" xlink:href="#DejaVuSans-4c"/>
      <use x="308.935547" xlink:href="#DejaVuSans-61"/>
      <use x="370.214844" xlink:href="#DejaVuSans-70"/>
      <use x="433.691406" xlink:href="#DejaVuSans-20"/>
      <use x="465.478516" xlink:href="#DejaVuSans-54"/>
      <use x="526.515625" xlink:href="#DejaVuSans-69"/>
      <use x="554.298828" xlink:href="#DejaVuSans-6d"/>
      <use x="651.710938" xlink:href="#DejaVuSans-65"/>
     </g>
    </g>
   </g>
  </g>
 </g>
 <defs>
  <clipPath id="p6280a04d1f">
   <rect height="364.6" width="655.72" x="50.96" y="25.44"/>
  </clipPath>
 </defs>
</svg>
