<?xml version="1.0" encoding="utf-8" standalone="no"?>
<!DOCTYPE svg PUBLIC "-//W3C//DTD SVG 1.1//EN"
  "http://www.w3.org/Graphics/SVG/1.1/DTD/svg11.dtd">
<!-- Created with matplotlib (http://matplotlib.org/) -->
<svg height="432pt" version="1.1" viewBox="0 0 720 432" width="720pt" xmlns="http://www.w3.org/2000/svg" xmlns:xlink="http://www.w3.org/1999/xlink">
 <defs>
  <style type="text/css">
*{stroke-linecap:butt;stroke-linejoin:round;}
  </style>
 </defs>
 <g id="figure_1">
  <g id="patch_1">
   <path d="M 0 432 
L 720 432 
L 720 0 
L 0 0 
z
" style="fill:none;opacity:0;"/>
  </g>
  <g id="axes_1">
   <g id="patch_2">
    <path d="M 51.05 334.714127 
L 706.68 334.714127 
L 706.68 25.44 
L 51.05 25.44 
z
" style="fill:#ffffff;"/>
   </g>
   <g id="matplotlib.axis_1">
    <g id="xtick_1">
     <g id="line2d_1">
      <defs>
       <path d="M 0 0 
L 0 3.5 
" id="m84184b25e7" style="stroke:#000000;stroke-width:0.8;"/>
      </defs>
      <g>
       <use style="stroke:#000000;stroke-width:0.8;" x="116.613" xlink:href="#m84184b25e7" y="334.714127"/>
      </g>
     </g>
     <g id="text_1">
      <!-- #146 -->
      <defs>
       <path d="M 51.125 44 
L 36.921875 44 
L 32.8125 27.6875 
L 47.125 27.6875 
z
M 43.796875 71.78125 
L 38.71875 51.515625 
L 52.984375 51.515625 
L 58.109375 71.78125 
L 65.921875 71.78125 
L 60.890625 51.515625 
L 76.125 51.515625 
L 76.125 44 
L 58.984375 44 
L 54.984375 27.6875 
L 70.515625 27.6875 
L 70.515625 20.21875 
L 53.078125 20.21875 
L 48 0 
L 40.1875 0 
L 45.21875 20.21875 
L 30.90625 20.21875 
L 25.875 0 
L 18.015625 0 
L 23.09375 20.21875 
L 7.71875 20.21875 
L 7.71875 27.6875 
L 24.90625 27.6875 
L 29 44 
L 13.28125 44 
L 13.28125 51.515625 
L 30.90625 51.515625 
L 35.890625 71.78125 
z
" id="DejaVuSans-23"/>
       <path d="M 12.40625 8.296875 
L 28.515625 8.296875 
L 28.515625 63.921875 
L 10.984375 60.40625 
L 10.984375 69.390625 
L 28.421875 72.90625 
L 38.28125 72.90625 
L 38.28125 8.296875 
L 54.390625 8.296875 
L 54.390625 0 
L 12.40625 0 
z
" id="DejaVuSans-31"/>
       <path d="M 37.796875 64.3125 
L 12.890625 25.390625 
L 37.796875 25.390625 
z
M 35.203125 72.90625 
L 47.609375 72.90625 
L 47.609375 25.390625 
L 58.015625 25.390625 
L 58.015625 17.1875 
L 47.609375 17.1875 
L 47.609375 0 
L 37.796875 0 
L 37.796875 17.1875 
L 4.890625 17.1875 
L 4.890625 26.703125 
z
" id="DejaVuSans-34"/>
       <path d="M 33.015625 40.375 
Q 26.375 40.375 22.484375 35.828125 
Q 18.609375 31.296875 18.609375 23.390625 
Q 18.609375 15.53125 22.484375 10.953125 
Q 26.375 6.390625 33.015625 6.390625 
Q 39.65625 6.390625 43.53125 10.953125 
Q 47.40625 15.53125 47.40625 23.390625 
Q 47.40625 31.296875 43.53125 35.828125 
Q 39.65625 40.375 33.015625 40.375 
z
M 52.59375 71.296875 
L 52.59375 62.3125 
Q 48.875 64.0625 45.09375 64.984375 
Q 41.3125 65.921875 37.59375 65.921875 
Q 27.828125 65.921875 22.671875 59.328125 
Q 17.53125 52.734375 16.796875 39.40625 
Q 19.671875 43.65625 24.015625 45.921875 
Q 28.375 48.1875 33.59375 48.1875 
Q 44.578125 48.1875 50.953125 41.515625 
Q 57.328125 34.859375 57.328125 23.390625 
Q 57.328125 12.15625 50.6875 5.359375 
Q 44.046875 -1.421875 33.015625 -1.421875 
Q 20.359375 -1.421875 13.671875 8.265625 
Q 6.984375 17.96875 6.984375 36.375 
Q 6.984375 53.65625 15.1875 63.9375 
Q 23.390625 74.21875 37.203125 74.21875 
Q 40.921875 74.21875 44.703125 73.484375 
Q 48.484375 72.75 52.59375 71.296875 
z
" id="DejaVuSans-36"/>
      </defs>
      <g transform="translate(92.613566 362.368479)rotate(-45)scale(0.0833 -0.0833)">
       <use xlink:href="#DejaVuSans-23"/>
       <use x="83.789062" xlink:href="#DejaVuSans-31"/>
       <use x="147.412109" xlink:href="#DejaVuSans-34"/>
       <use x="211.035156" xlink:href="#DejaVuSans-36"/>
      </g>
      <!-- Huggins (Pinkies Out) -->
      <defs>
       <path d="M 9.8125 72.90625 
L 19.671875 72.90625 
L 19.671875 43.015625 
L 55.515625 43.015625 
L 55.515625 72.90625 
L 65.375 72.90625 
L 65.375 0 
L 55.515625 0 
L 55.515625 34.71875 
L 19.671875 34.71875 
L 19.671875 0 
L 9.8125 0 
z
" id="DejaVuSans-48"/>
       <path d="M 8.5 21.578125 
L 8.5 54.6875 
L 17.484375 54.6875 
L 17.484375 21.921875 
Q 17.484375 14.15625 20.5 10.265625 
Q 23.53125 6.390625 29.59375 6.390625 
Q 36.859375 6.390625 41.078125 11.03125 
Q 45.3125 15.671875 45.3125 23.6875 
L 45.3125 54.6875 
L 54.296875 54.6875 
L 54.296875 0 
L 45.3125 0 
L 45.3125 8.40625 
Q 42.046875 3.421875 37.71875 1 
Q 33.40625 -1.421875 27.6875 -1.421875 
Q 18.265625 -1.421875 13.375 4.4375 
Q 8.5 10.296875 8.5 21.578125 
z
M 31.109375 56 
z
" id="DejaVuSans-75"/>
       <path d="M 45.40625 27.984375 
Q 45.40625 37.75 41.375 43.109375 
Q 37.359375 48.484375 30.078125 48.484375 
Q 22.859375 48.484375 18.828125 43.109375 
Q 14.796875 37.75 14.796875 27.984375 
Q 14.796875 18.265625 18.828125 12.890625 
Q 22.859375 7.515625 30.078125 7.515625 
Q 37.359375 7.515625 41.375 12.890625 
Q 45.40625 18.265625 45.40625 27.984375 
z
M 54.390625 6.78125 
Q 54.390625 -7.171875 48.1875 -13.984375 
Q 42 -20.796875 29.203125 -20.796875 
Q 24.46875 -20.796875 20.265625 -20.09375 
Q 16.0625 -19.390625 12.109375 -17.921875 
L 12.109375 -9.1875 
Q 16.0625 -11.328125 19.921875 -12.34375 
Q 23.78125 -13.375 27.78125 -13.375 
Q 36.625 -13.375 41.015625 -8.765625 
Q 45.40625 -4.15625 45.40625 5.171875 
L 45.40625 9.625 
Q 42.625 4.78125 38.28125 2.390625 
Q 33.9375 0 27.875 0 
Q 17.828125 0 11.671875 7.65625 
Q 5.515625 15.328125 5.515625 27.984375 
Q 5.515625 40.671875 11.671875 48.328125 
Q 17.828125 56 27.875 56 
Q 33.9375 56 38.28125 53.609375 
Q 42.625 51.21875 45.40625 46.390625 
L 45.40625 54.6875 
L 54.390625 54.6875 
z
" id="DejaVuSans-67"/>
       <path d="M 9.421875 54.6875 
L 18.40625 54.6875 
L 18.40625 0 
L 9.421875 0 
z
M 9.421875 75.984375 
L 18.40625 75.984375 
L 18.40625 64.59375 
L 9.421875 64.59375 
z
" id="DejaVuSans-69"/>
       <path d="M 54.890625 33.015625 
L 54.890625 0 
L 45.90625 0 
L 45.90625 32.71875 
Q 45.90625 40.484375 42.875 44.328125 
Q 39.84375 48.1875 33.796875 48.1875 
Q 26.515625 48.1875 22.3125 43.546875 
Q 18.109375 38.921875 18.109375 30.90625 
L 18.109375 0 
L 9.078125 0 
L 9.078125 54.6875 
L 18.109375 54.6875 
L 18.109375 46.1875 
Q 21.34375 51.125 25.703125 53.5625 
Q 30.078125 56 35.796875 56 
Q 45.21875 56 50.046875 50.171875 
Q 54.890625 44.34375 54.890625 33.015625 
z
" id="DejaVuSans-6e"/>
       <path d="M 44.28125 53.078125 
L 44.28125 44.578125 
Q 40.484375 46.53125 36.375 47.5 
Q 32.28125 48.484375 27.875 48.484375 
Q 21.1875 48.484375 17.84375 46.4375 
Q 14.5 44.390625 14.5 40.28125 
Q 14.5 37.15625 16.890625 35.375 
Q 19.28125 33.59375 26.515625 31.984375 
L 29.59375 31.296875 
Q 39.15625 29.25 43.1875 25.515625 
Q 47.21875 21.78125 47.21875 15.09375 
Q 47.21875 7.46875 41.1875 3.015625 
Q 35.15625 -1.421875 24.609375 -1.421875 
Q 20.21875 -1.421875 15.453125 -0.5625 
Q 10.6875 0.296875 5.421875 2 
L 5.421875 11.28125 
Q 10.40625 8.6875 15.234375 7.390625 
Q 20.0625 6.109375 24.8125 6.109375 
Q 31.15625 6.109375 34.5625 8.28125 
Q 37.984375 10.453125 37.984375 14.40625 
Q 37.984375 18.0625 35.515625 20.015625 
Q 33.0625 21.96875 24.703125 23.78125 
L 21.578125 24.515625 
Q 13.234375 26.265625 9.515625 29.90625 
Q 5.8125 33.546875 5.8125 39.890625 
Q 5.8125 47.609375 11.28125 51.796875 
Q 16.75 56 26.8125 56 
Q 31.78125 56 36.171875 55.265625 
Q 40.578125 54.546875 44.28125 53.078125 
z
" id="DejaVuSans-73"/>
       <path id="DejaVuSans-20"/>
       <path d="M 31 75.875 
Q 24.46875 64.65625 21.28125 53.65625 
Q 18.109375 42.671875 18.109375 31.390625 
Q 18.109375 20.125 21.3125 9.0625 
Q 24.515625 -2 31 -13.1875 
L 23.1875 -13.1875 
Q 15.875 -1.703125 12.234375 9.375 
Q 8.59375 20.453125 8.59375 31.390625 
Q 8.59375 42.28125 12.203125 53.3125 
Q 15.828125 64.359375 23.1875 75.875 
z
" id="DejaVuSans-28"/>
       <path d="M 19.671875 64.796875 
L 19.671875 37.40625 
L 32.078125 37.40625 
Q 38.96875 37.40625 42.71875 40.96875 
Q 46.484375 44.53125 46.484375 51.125 
Q 46.484375 57.671875 42.71875 61.234375 
Q 38.96875 64.796875 32.078125 64.796875 
z
M 9.8125 72.90625 
L 32.078125 72.90625 
Q 44.34375 72.90625 50.609375 67.359375 
Q 56.890625 61.8125 56.890625 51.125 
Q 56.890625 40.328125 50.609375 34.8125 
Q 44.34375 29.296875 32.078125 29.296875 
L 19.671875 29.296875 
L 19.671875 0 
L 9.8125 0 
z
" id="DejaVuSans-50"/>
       <path d="M 9.078125 75.984375 
L 18.109375 75.984375 
L 18.109375 31.109375 
L 44.921875 54.6875 
L 56.390625 54.6875 
L 27.390625 29.109375 
L 57.625 0 
L 45.90625 0 
L 18.109375 26.703125 
L 18.109375 0 
L 9.078125 0 
z
" id="DejaVuSans-6b"/>
       <path d="M 56.203125 29.59375 
L 56.203125 25.203125 
L 14.890625 25.203125 
Q 15.484375 15.921875 20.484375 11.0625 
Q 25.484375 6.203125 34.421875 6.203125 
Q 39.59375 6.203125 44.453125 7.46875 
Q 49.3125 8.734375 54.109375 11.28125 
L 54.109375 2.78125 
Q 49.265625 0.734375 44.1875 -0.34375 
Q 39.109375 -1.421875 33.890625 -1.421875 
Q 20.796875 -1.421875 13.15625 6.1875 
Q 5.515625 13.8125 5.515625 26.8125 
Q 5.515625 40.234375 12.765625 48.109375 
Q 20.015625 56 32.328125 56 
Q 43.359375 56 49.78125 48.890625 
Q 56.203125 41.796875 56.203125 29.59375 
z
M 47.21875 32.234375 
Q 47.125 39.59375 43.09375 43.984375 
Q 39.0625 48.390625 32.421875 48.390625 
Q 24.90625 48.390625 20.390625 44.140625 
Q 15.875 39.890625 15.1875 32.171875 
z
" id="DejaVuSans-65"/>
       <path d="M 39.40625 66.21875 
Q 28.65625 66.21875 22.328125 58.203125 
Q 16.015625 50.203125 16.015625 36.375 
Q 16.015625 22.609375 22.328125 14.59375 
Q 28.65625 6.59375 39.40625 6.59375 
Q 50.140625 6.59375 56.421875 14.59375 
Q 62.703125 22.609375 62.703125 36.375 
Q 62.703125 50.203125 56.421875 58.203125 
Q 50.140625 66.21875 39.40625 66.21875 
z
M 39.40625 74.21875 
Q 54.734375 74.21875 63.90625 63.9375 
Q 73.09375 53.65625 73.09375 36.375 
Q 73.09375 19.140625 63.90625 8.859375 
Q 54.734375 -1.421875 39.40625 -1.421875 
Q 24.03125 -1.421875 14.8125 8.828125 
Q 5.609375 19.09375 5.609375 36.375 
Q 5.609375 53.65625 14.8125 63.9375 
Q 24.03125 74.21875 39.40625 74.21875 
z
" id="DejaVuSans-4f"/>
       <path d="M 18.3125 70.21875 
L 18.3125 54.6875 
L 36.8125 54.6875 
L 36.8125 47.703125 
L 18.3125 47.703125 
L 18.3125 18.015625 
Q 18.3125 11.328125 20.140625 9.421875 
Q 21.96875 7.515625 27.59375 7.515625 
L 36.8125 7.515625 
L 36.8125 0 
L 27.59375 0 
Q 17.1875 0 13.234375 3.875 
Q 9.28125 7.765625 9.28125 18.015625 
L 9.28125 47.703125 
L 2.6875 47.703125 
L 2.6875 54.6875 
L 9.28125 54.6875 
L 9.28125 70.21875 
z
" id="DejaVuSans-74"/>
       <path d="M 8.015625 75.875 
L 15.828125 75.875 
Q 23.140625 64.359375 26.78125 53.3125 
Q 30.421875 42.28125 30.421875 31.390625 
Q 30.421875 20.453125 26.78125 9.375 
Q 23.140625 -1.703125 15.828125 -13.1875 
L 8.015625 -13.1875 
Q 14.5 -2 17.703125 9.0625 
Q 20.90625 20.125 20.90625 31.390625 
Q 20.90625 42.671875 17.703125 53.65625 
Q 14.5 64.65625 8.015625 75.875 
z
" id="DejaVuSans-29"/>
      </defs>
      <g transform="translate(51.631215 416.542301)rotate(-45)scale(0.0833 -0.0833)">
       <use xlink:href="#DejaVuSans-48"/>
       <use x="75.195312" xlink:href="#DejaVuSans-75"/>
       <use x="138.574219" xlink:href="#DejaVuSans-67"/>
       <use x="202.050781" xlink:href="#DejaVuSans-67"/>
       <use x="265.527344" xlink:href="#DejaVuSans-69"/>
       <use x="293.310547" xlink:href="#DejaVuSans-6e"/>
       <use x="356.689453" xlink:href="#DejaVuSans-73"/>
       <use x="408.789062" xlink:href="#DejaVuSans-20"/>
       <use x="440.576172" xlink:href="#DejaVuSans-28"/>
       <use x="479.589844" xlink:href="#DejaVuSans-50"/>
       <use x="539.861328" xlink:href="#DejaVuSans-69"/>
       <use x="567.644531" xlink:href="#DejaVuSans-6e"/>
       <use x="631.023438" xlink:href="#DejaVuSans-6b"/>
       <use x="688.933594" xlink:href="#DejaVuSans-69"/>
       <use x="716.716797" xlink:href="#DejaVuSans-65"/>
       <use x="778.240234" xlink:href="#DejaVuSans-73"/>
       <use x="830.339844" xlink:href="#DejaVuSans-20"/>
       <use x="862.126953" xlink:href="#DejaVuSans-4f"/>
       <use x="940.837891" xlink:href="#DejaVuSans-75"/>
       <use x="1004.216797" xlink:href="#DejaVuSans-74"/>
       <use x="1043.425781" xlink:href="#DejaVuSans-29"/>
      </g>
     </g>
    </g>
    <g id="xtick_2">
     <g id="line2d_2">
      <g>
       <use style="stroke:#000000;stroke-width:0.8;" x="247.739" xlink:href="#m84184b25e7" y="334.714127"/>
      </g>
     </g>
     <g id="text_2">
      <!-- #213 -->
      <defs>
       <path d="M 19.1875 8.296875 
L 53.609375 8.296875 
L 53.609375 0 
L 7.328125 0 
L 7.328125 8.296875 
Q 12.9375 14.109375 22.625 23.890625 
Q 32.328125 33.6875 34.8125 36.53125 
Q 39.546875 41.84375 41.421875 45.53125 
Q 43.3125 49.21875 43.3125 52.78125 
Q 43.3125 58.59375 39.234375 62.25 
Q 35.15625 65.921875 28.609375 65.921875 
Q 23.96875 65.921875 18.8125 64.3125 
Q 13.671875 62.703125 7.8125 59.421875 
L 7.8125 69.390625 
Q 13.765625 71.78125 18.9375 73 
Q 24.125 74.21875 28.421875 74.21875 
Q 39.75 74.21875 46.484375 68.546875 
Q 53.21875 62.890625 53.21875 53.421875 
Q 53.21875 48.921875 51.53125 44.890625 
Q 49.859375 40.875 45.40625 35.40625 
Q 44.1875 33.984375 37.640625 27.21875 
Q 31.109375 20.453125 19.1875 8.296875 
z
" id="DejaVuSans-32"/>
       <path d="M 40.578125 39.3125 
Q 47.65625 37.796875 51.625 33 
Q 55.609375 28.21875 55.609375 21.1875 
Q 55.609375 10.40625 48.1875 4.484375 
Q 40.765625 -1.421875 27.09375 -1.421875 
Q 22.515625 -1.421875 17.65625 -0.515625 
Q 12.796875 0.390625 7.625 2.203125 
L 7.625 11.71875 
Q 11.71875 9.328125 16.59375 8.109375 
Q 21.484375 6.890625 26.8125 6.890625 
Q 36.078125 6.890625 40.9375 10.546875 
Q 45.796875 14.203125 45.796875 21.1875 
Q 45.796875 27.640625 41.28125 31.265625 
Q 36.765625 34.90625 28.71875 34.90625 
L 20.21875 34.90625 
L 20.21875 43.015625 
L 29.109375 43.015625 
Q 36.375 43.015625 40.234375 45.921875 
Q 44.09375 48.828125 44.09375 54.296875 
Q 44.09375 59.90625 40.109375 62.90625 
Q 36.140625 65.921875 28.71875 65.921875 
Q 24.65625 65.921875 20.015625 65.03125 
Q 15.375 64.15625 9.8125 62.3125 
L 9.8125 71.09375 
Q 15.4375 72.65625 20.34375 73.4375 
Q 25.25 74.21875 29.59375 74.21875 
Q 40.828125 74.21875 47.359375 69.109375 
Q 53.90625 64.015625 53.90625 55.328125 
Q 53.90625 49.265625 50.4375 45.09375 
Q 46.96875 40.921875 40.578125 39.3125 
z
" id="DejaVuSans-33"/>
      </defs>
      <g transform="translate(223.739566 362.368479)rotate(-45)scale(0.0833 -0.0833)">
       <use xlink:href="#DejaVuSans-23"/>
       <use x="83.789062" xlink:href="#DejaVuSans-32"/>
       <use x="147.412109" xlink:href="#DejaVuSans-31"/>
       <use x="211.035156" xlink:href="#DejaVuSans-33"/>
      </g>
      <!-- 23 Van Winden racing -->
      <defs>
       <path d="M 28.609375 0 
L 0.78125 72.90625 
L 11.078125 72.90625 
L 34.1875 11.53125 
L 57.328125 72.90625 
L 67.578125 72.90625 
L 39.796875 0 
z
" id="DejaVuSans-56"/>
       <path d="M 34.28125 27.484375 
Q 23.390625 27.484375 19.1875 25 
Q 14.984375 22.515625 14.984375 16.5 
Q 14.984375 11.71875 18.140625 8.90625 
Q 21.296875 6.109375 26.703125 6.109375 
Q 34.1875 6.109375 38.703125 11.40625 
Q 43.21875 16.703125 43.21875 25.484375 
L 43.21875 27.484375 
z
M 52.203125 31.203125 
L 52.203125 0 
L 43.21875 0 
L 43.21875 8.296875 
Q 40.140625 3.328125 35.546875 0.953125 
Q 30.953125 -1.421875 24.3125 -1.421875 
Q 15.921875 -1.421875 10.953125 3.296875 
Q 6 8.015625 6 15.921875 
Q 6 25.140625 12.171875 29.828125 
Q 18.359375 34.515625 30.609375 34.515625 
L 43.21875 34.515625 
L 43.21875 35.40625 
Q 43.21875 41.609375 39.140625 45 
Q 35.0625 48.390625 27.6875 48.390625 
Q 23 48.390625 18.546875 47.265625 
Q 14.109375 46.140625 10.015625 43.890625 
L 10.015625 52.203125 
Q 14.9375 54.109375 19.578125 55.046875 
Q 24.21875 56 28.609375 56 
Q 40.484375 56 46.34375 49.84375 
Q 52.203125 43.703125 52.203125 31.203125 
z
" id="DejaVuSans-61"/>
       <path d="M 3.328125 72.90625 
L 13.28125 72.90625 
L 28.609375 11.28125 
L 43.890625 72.90625 
L 54.984375 72.90625 
L 70.3125 11.28125 
L 85.59375 72.90625 
L 95.609375 72.90625 
L 77.296875 0 
L 64.890625 0 
L 49.515625 63.28125 
L 33.984375 0 
L 21.578125 0 
z
" id="DejaVuSans-57"/>
       <path d="M 45.40625 46.390625 
L 45.40625 75.984375 
L 54.390625 75.984375 
L 54.390625 0 
L 45.40625 0 
L 45.40625 8.203125 
Q 42.578125 3.328125 38.25 0.953125 
Q 33.9375 -1.421875 27.875 -1.421875 
Q 17.96875 -1.421875 11.734375 6.484375 
Q 5.515625 14.40625 5.515625 27.296875 
Q 5.515625 40.1875 11.734375 48.09375 
Q 17.96875 56 27.875 56 
Q 33.9375 56 38.25 53.625 
Q 42.578125 51.265625 45.40625 46.390625 
z
M 14.796875 27.296875 
Q 14.796875 17.390625 18.875 11.75 
Q 22.953125 6.109375 30.078125 6.109375 
Q 37.203125 6.109375 41.296875 11.75 
Q 45.40625 17.390625 45.40625 27.296875 
Q 45.40625 37.203125 41.296875 42.84375 
Q 37.203125 48.484375 30.078125 48.484375 
Q 22.953125 48.484375 18.875 42.84375 
Q 14.796875 37.203125 14.796875 27.296875 
z
" id="DejaVuSans-64"/>
       <path d="M 41.109375 46.296875 
Q 39.59375 47.171875 37.8125 47.578125 
Q 36.03125 48 33.890625 48 
Q 26.265625 48 22.1875 43.046875 
Q 18.109375 38.09375 18.109375 28.8125 
L 18.109375 0 
L 9.078125 0 
L 9.078125 54.6875 
L 18.109375 54.6875 
L 18.109375 46.1875 
Q 20.953125 51.171875 25.484375 53.578125 
Q 30.03125 56 36.53125 56 
Q 37.453125 56 38.578125 55.875 
Q 39.703125 55.765625 41.0625 55.515625 
z
" id="DejaVuSans-72"/>
       <path d="M 48.78125 52.59375 
L 48.78125 44.1875 
Q 44.96875 46.296875 41.140625 47.34375 
Q 37.3125 48.390625 33.40625 48.390625 
Q 24.65625 48.390625 19.8125 42.84375 
Q 14.984375 37.3125 14.984375 27.296875 
Q 14.984375 17.28125 19.8125 11.734375 
Q 24.65625 6.203125 33.40625 6.203125 
Q 37.3125 6.203125 41.140625 7.25 
Q 44.96875 8.296875 48.78125 10.40625 
L 48.78125 2.09375 
Q 45.015625 0.34375 40.984375 -0.53125 
Q 36.96875 -1.421875 32.421875 -1.421875 
Q 20.0625 -1.421875 12.78125 6.34375 
Q 5.515625 14.109375 5.515625 27.296875 
Q 5.515625 40.671875 12.859375 48.328125 
Q 20.21875 56 33.015625 56 
Q 37.15625 56 41.109375 55.140625 
Q 45.0625 54.296875 48.78125 52.59375 
z
" id="DejaVuSans-63"/>
      </defs>
      <g transform="translate(181.371177 417.928338)rotate(-45)scale(0.0833 -0.0833)">
       <use xlink:href="#DejaVuSans-32"/>
       <use x="63.623047" xlink:href="#DejaVuSans-33"/>
       <use x="127.246094" xlink:href="#DejaVuSans-20"/>
       <use x="159.033203" xlink:href="#DejaVuSans-56"/>
       <use x="227.332031" xlink:href="#DejaVuSans-61"/>
       <use x="288.611328" xlink:href="#DejaVuSans-6e"/>
       <use x="351.990234" xlink:href="#DejaVuSans-20"/>
       <use x="383.777344" xlink:href="#DejaVuSans-57"/>
       <use x="482.623047" xlink:href="#DejaVuSans-69"/>
       <use x="510.40625" xlink:href="#DejaVuSans-6e"/>
       <use x="573.785156" xlink:href="#DejaVuSans-64"/>
       <use x="637.261719" xlink:href="#DejaVuSans-65"/>
       <use x="698.785156" xlink:href="#DejaVuSans-6e"/>
       <use x="762.164062" xlink:href="#DejaVuSans-20"/>
       <use x="793.951172" xlink:href="#DejaVuSans-72"/>
       <use x="835.064453" xlink:href="#DejaVuSans-61"/>
       <use x="896.34375" xlink:href="#DejaVuSans-63"/>
       <use x="951.324219" xlink:href="#DejaVuSans-69"/>
       <use x="979.107422" xlink:href="#DejaVuSans-6e"/>
       <use x="1042.486328" xlink:href="#DejaVuSans-67"/>
      </g>
     </g>
    </g>
    <g id="xtick_3">
     <g id="line2d_3">
      <g>
       <use style="stroke:#000000;stroke-width:0.8;" x="378.865" xlink:href="#m84184b25e7" y="334.714127"/>
      </g>
     </g>
     <g id="text_3">
      <!-- #935 -->
      <defs>
       <path d="M 10.984375 1.515625 
L 10.984375 10.5 
Q 14.703125 8.734375 18.5 7.8125 
Q 22.3125 6.890625 25.984375 6.890625 
Q 35.75 6.890625 40.890625 13.453125 
Q 46.046875 20.015625 46.78125 33.40625 
Q 43.953125 29.203125 39.59375 26.953125 
Q 35.25 24.703125 29.984375 24.703125 
Q 19.046875 24.703125 12.671875 31.3125 
Q 6.296875 37.9375 6.296875 49.421875 
Q 6.296875 60.640625 12.9375 67.421875 
Q 19.578125 74.21875 30.609375 74.21875 
Q 43.265625 74.21875 49.921875 64.515625 
Q 56.59375 54.828125 56.59375 36.375 
Q 56.59375 19.140625 48.40625 8.859375 
Q 40.234375 -1.421875 26.421875 -1.421875 
Q 22.703125 -1.421875 18.890625 -0.6875 
Q 15.09375 0.046875 10.984375 1.515625 
z
M 30.609375 32.421875 
Q 37.25 32.421875 41.125 36.953125 
Q 45.015625 41.5 45.015625 49.421875 
Q 45.015625 57.28125 41.125 61.84375 
Q 37.25 66.40625 30.609375 66.40625 
Q 23.96875 66.40625 20.09375 61.84375 
Q 16.21875 57.28125 16.21875 49.421875 
Q 16.21875 41.5 20.09375 36.953125 
Q 23.96875 32.421875 30.609375 32.421875 
z
" id="DejaVuSans-39"/>
       <path d="M 10.796875 72.90625 
L 49.515625 72.90625 
L 49.515625 64.59375 
L 19.828125 64.59375 
L 19.828125 46.734375 
Q 21.96875 47.46875 24.109375 47.828125 
Q 26.265625 48.1875 28.421875 48.1875 
Q 40.625 48.1875 47.75 41.5 
Q 54.890625 34.8125 54.890625 23.390625 
Q 54.890625 11.625 47.5625 5.09375 
Q 40.234375 -1.421875 26.90625 -1.421875 
Q 22.3125 -1.421875 17.546875 -0.640625 
Q 12.796875 0.140625 7.71875 1.703125 
L 7.71875 11.625 
Q 12.109375 9.234375 16.796875 8.0625 
Q 21.484375 6.890625 26.703125 6.890625 
Q 35.15625 6.890625 40.078125 11.328125 
Q 45.015625 15.765625 45.015625 23.390625 
Q 45.015625 31 40.078125 35.4375 
Q 35.15625 39.890625 26.703125 39.890625 
Q 22.75 39.890625 18.8125 39.015625 
Q 14.890625 38.140625 10.796875 36.28125 
z
" id="DejaVuSans-35"/>
      </defs>
      <g transform="translate(354.865566 362.368479)rotate(-45)scale(0.0833 -0.0833)">
       <use xlink:href="#DejaVuSans-23"/>
       <use x="83.789062" xlink:href="#DejaVuSans-39"/>
       <use x="147.412109" xlink:href="#DejaVuSans-33"/>
       <use x="211.035156" xlink:href="#DejaVuSans-35"/>
      </g>
      <!-- Team Jacky Ickx 935 -->
      <defs>
       <path d="M -0.296875 72.90625 
L 61.375 72.90625 
L 61.375 64.59375 
L 35.5 64.59375 
L 35.5 0 
L 25.59375 0 
L 25.59375 64.59375 
L -0.296875 64.59375 
z
" id="DejaVuSans-54"/>
       <path d="M 52 44.1875 
Q 55.375 50.25 60.0625 53.125 
Q 64.75 56 71.09375 56 
Q 79.640625 56 84.28125 50.015625 
Q 88.921875 44.046875 88.921875 33.015625 
L 88.921875 0 
L 79.890625 0 
L 79.890625 32.71875 
Q 79.890625 40.578125 77.09375 44.375 
Q 74.3125 48.1875 68.609375 48.1875 
Q 61.625 48.1875 57.5625 43.546875 
Q 53.515625 38.921875 53.515625 30.90625 
L 53.515625 0 
L 44.484375 0 
L 44.484375 32.71875 
Q 44.484375 40.625 41.703125 44.40625 
Q 38.921875 48.1875 33.109375 48.1875 
Q 26.21875 48.1875 22.15625 43.53125 
Q 18.109375 38.875 18.109375 30.90625 
L 18.109375 0 
L 9.078125 0 
L 9.078125 54.6875 
L 18.109375 54.6875 
L 18.109375 46.1875 
Q 21.1875 51.21875 25.484375 53.609375 
Q 29.78125 56 35.6875 56 
Q 41.65625 56 45.828125 52.96875 
Q 50 49.953125 52 44.1875 
z
" id="DejaVuSans-6d"/>
       <path d="M 9.8125 72.90625 
L 19.671875 72.90625 
L 19.671875 5.078125 
Q 19.671875 -8.109375 14.671875 -14.0625 
Q 9.671875 -20.015625 -1.421875 -20.015625 
L -5.171875 -20.015625 
L -5.171875 -11.71875 
L -2.09375 -11.71875 
Q 4.4375 -11.71875 7.125 -8.046875 
Q 9.8125 -4.390625 9.8125 5.078125 
z
" id="DejaVuSans-4a"/>
       <path d="M 32.171875 -5.078125 
Q 28.375 -14.84375 24.75 -17.8125 
Q 21.140625 -20.796875 15.09375 -20.796875 
L 7.90625 -20.796875 
L 7.90625 -13.28125 
L 13.1875 -13.28125 
Q 16.890625 -13.28125 18.9375 -11.515625 
Q 21 -9.765625 23.484375 -3.21875 
L 25.09375 0.875 
L 2.984375 54.6875 
L 12.5 54.6875 
L 29.59375 11.921875 
L 46.6875 54.6875 
L 56.203125 54.6875 
z
" id="DejaVuSans-79"/>
       <path d="M 9.8125 72.90625 
L 19.671875 72.90625 
L 19.671875 0 
L 9.8125 0 
z
" id="DejaVuSans-49"/>
       <path d="M 54.890625 54.6875 
L 35.109375 28.078125 
L 55.90625 0 
L 45.3125 0 
L 29.390625 21.484375 
L 13.484375 0 
L 2.875 0 
L 24.125 28.609375 
L 4.6875 54.6875 
L 15.28125 54.6875 
L 29.78125 35.203125 
L 44.28125 54.6875 
z
" id="DejaVuSans-78"/>
      </defs>
      <g transform="translate(316.874332 413.551184)rotate(-45)scale(0.0833 -0.0833)">
       <use xlink:href="#DejaVuSans-54"/>
       <use x="60.818359" xlink:href="#DejaVuSans-65"/>
       <use x="122.341797" xlink:href="#DejaVuSans-61"/>
       <use x="183.621094" xlink:href="#DejaVuSans-6d"/>
       <use x="281.033203" xlink:href="#DejaVuSans-20"/>
       <use x="312.820312" xlink:href="#DejaVuSans-4a"/>
       <use x="342.3125" xlink:href="#DejaVuSans-61"/>
       <use x="403.591797" xlink:href="#DejaVuSans-63"/>
       <use x="458.572266" xlink:href="#DejaVuSans-6b"/>
       <use x="516.435547" xlink:href="#DejaVuSans-79"/>
       <use x="575.615234" xlink:href="#DejaVuSans-20"/>
       <use x="607.402344" xlink:href="#DejaVuSans-49"/>
       <use x="636.894531" xlink:href="#DejaVuSans-63"/>
       <use x="691.875" xlink:href="#DejaVuSans-6b"/>
       <use x="749.785156" xlink:href="#DejaVuSans-78"/>
       <use x="808.964844" xlink:href="#DejaVuSans-20"/>
       <use x="840.751953" xlink:href="#DejaVuSans-39"/>
       <use x="904.375" xlink:href="#DejaVuSans-33"/>
       <use x="967.998047" xlink:href="#DejaVuSans-35"/>
      </g>
     </g>
    </g>
    <g id="xtick_4">
     <g id="line2d_4">
      <g>
       <use style="stroke:#000000;stroke-width:0.8;" x="509.991" xlink:href="#m84184b25e7" y="334.714127"/>
      </g>
     </g>
     <g id="text_4">
      <!-- #187 -->
      <defs>
       <path d="M 31.78125 34.625 
Q 24.75 34.625 20.71875 30.859375 
Q 16.703125 27.09375 16.703125 20.515625 
Q 16.703125 13.921875 20.71875 10.15625 
Q 24.75 6.390625 31.78125 6.390625 
Q 38.8125 6.390625 42.859375 10.171875 
Q 46.921875 13.96875 46.921875 20.515625 
Q 46.921875 27.09375 42.890625 30.859375 
Q 38.875 34.625 31.78125 34.625 
z
M 21.921875 38.8125 
Q 15.578125 40.375 12.03125 44.71875 
Q 8.5 49.078125 8.5 55.328125 
Q 8.5 64.0625 14.71875 69.140625 
Q 20.953125 74.21875 31.78125 74.21875 
Q 42.671875 74.21875 48.875 69.140625 
Q 55.078125 64.0625 55.078125 55.328125 
Q 55.078125 49.078125 51.53125 44.71875 
Q 48 40.375 41.703125 38.8125 
Q 48.828125 37.15625 52.796875 32.3125 
Q 56.78125 27.484375 56.78125 20.515625 
Q 56.78125 9.90625 50.3125 4.234375 
Q 43.84375 -1.421875 31.78125 -1.421875 
Q 19.734375 -1.421875 13.25 4.234375 
Q 6.78125 9.90625 6.78125 20.515625 
Q 6.78125 27.484375 10.78125 32.3125 
Q 14.796875 37.15625 21.921875 38.8125 
z
M 18.3125 54.390625 
Q 18.3125 48.734375 21.84375 45.5625 
Q 25.390625 42.390625 31.78125 42.390625 
Q 38.140625 42.390625 41.71875 45.5625 
Q 45.3125 48.734375 45.3125 54.390625 
Q 45.3125 60.0625 41.71875 63.234375 
Q 38.140625 66.40625 31.78125 66.40625 
Q 25.390625 66.40625 21.84375 63.234375 
Q 18.3125 60.0625 18.3125 54.390625 
z
" id="DejaVuSans-38"/>
       <path d="M 8.203125 72.90625 
L 55.078125 72.90625 
L 55.078125 68.703125 
L 28.609375 0 
L 18.3125 0 
L 43.21875 64.59375 
L 8.203125 64.59375 
z
" id="DejaVuSans-37"/>
      </defs>
      <g transform="translate(485.991566 362.368479)rotate(-45)scale(0.0833 -0.0833)">
       <use xlink:href="#DejaVuSans-23"/>
       <use x="83.789062" xlink:href="#DejaVuSans-31"/>
       <use x="147.412109" xlink:href="#DejaVuSans-38"/>
       <use x="211.035156" xlink:href="#DejaVuSans-37"/>
      </g>
      <!-- Team Punisher -->
      <defs>
       <path d="M 54.890625 33.015625 
L 54.890625 0 
L 45.90625 0 
L 45.90625 32.71875 
Q 45.90625 40.484375 42.875 44.328125 
Q 39.84375 48.1875 33.796875 48.1875 
Q 26.515625 48.1875 22.3125 43.546875 
Q 18.109375 38.921875 18.109375 30.90625 
L 18.109375 0 
L 9.078125 0 
L 9.078125 75.984375 
L 18.109375 75.984375 
L 18.109375 46.1875 
Q 21.34375 51.125 25.703125 53.5625 
Q 30.078125 56 35.796875 56 
Q 45.21875 56 50.046875 50.171875 
Q 54.890625 44.34375 54.890625 33.015625 
z
" id="DejaVuSans-68"/>
      </defs>
      <g transform="translate(464.84078 396.710735)rotate(-45)scale(0.0833 -0.0833)">
       <use xlink:href="#DejaVuSans-54"/>
       <use x="60.818359" xlink:href="#DejaVuSans-65"/>
       <use x="122.341797" xlink:href="#DejaVuSans-61"/>
       <use x="183.621094" xlink:href="#DejaVuSans-6d"/>
       <use x="281.033203" xlink:href="#DejaVuSans-20"/>
       <use x="312.820312" xlink:href="#DejaVuSans-50"/>
       <use x="373.107422" xlink:href="#DejaVuSans-75"/>
       <use x="436.486328" xlink:href="#DejaVuSans-6e"/>
       <use x="499.865234" xlink:href="#DejaVuSans-69"/>
       <use x="527.648438" xlink:href="#DejaVuSans-73"/>
       <use x="579.748047" xlink:href="#DejaVuSans-68"/>
       <use x="643.126953" xlink:href="#DejaVuSans-65"/>
       <use x="704.650391" xlink:href="#DejaVuSans-72"/>
      </g>
     </g>
    </g>
    <g id="xtick_5">
     <g id="line2d_5">
      <g>
       <use style="stroke:#000000;stroke-width:0.8;" x="641.117" xlink:href="#m84184b25e7" y="334.714127"/>
      </g>
     </g>
     <g id="text_5">
      <!-- # 19 -->
      <g transform="translate(618.993227 360.492819)rotate(-45)scale(0.0833 -0.0833)">
       <use xlink:href="#DejaVuSans-23"/>
       <use x="83.789062" xlink:href="#DejaVuSans-20"/>
       <use x="115.576172" xlink:href="#DejaVuSans-31"/>
       <use x="179.199219" xlink:href="#DejaVuSans-39"/>
      </g>
      <!-- Team Infinite -->
      <defs>
       <path d="M 37.109375 75.984375 
L 37.109375 68.5 
L 28.515625 68.5 
Q 23.6875 68.5 21.796875 66.546875 
Q 19.921875 64.59375 19.921875 59.515625 
L 19.921875 54.6875 
L 34.71875 54.6875 
L 34.71875 47.703125 
L 19.921875 47.703125 
L 19.921875 0 
L 10.890625 0 
L 10.890625 47.703125 
L 2.296875 47.703125 
L 2.296875 54.6875 
L 10.890625 54.6875 
L 10.890625 58.5 
Q 10.890625 67.625 15.140625 71.796875 
Q 19.390625 75.984375 28.609375 75.984375 
z
" id="DejaVuSans-66"/>
      </defs>
      <g transform="translate(600.983574 391.693942)rotate(-45)scale(0.0833 -0.0833)">
       <use xlink:href="#DejaVuSans-54"/>
       <use x="60.818359" xlink:href="#DejaVuSans-65"/>
       <use x="122.341797" xlink:href="#DejaVuSans-61"/>
       <use x="183.621094" xlink:href="#DejaVuSans-6d"/>
       <use x="281.033203" xlink:href="#DejaVuSans-20"/>
       <use x="312.820312" xlink:href="#DejaVuSans-49"/>
       <use x="342.3125" xlink:href="#DejaVuSans-6e"/>
       <use x="405.691406" xlink:href="#DejaVuSans-66"/>
       <use x="440.896484" xlink:href="#DejaVuSans-69"/>
       <use x="468.679688" xlink:href="#DejaVuSans-6e"/>
       <use x="532.058594" xlink:href="#DejaVuSans-69"/>
       <use x="559.841797" xlink:href="#DejaVuSans-74"/>
       <use x="599.050781" xlink:href="#DejaVuSans-65"/>
      </g>
     </g>
    </g>
   </g>
   <g id="matplotlib.axis_2">
    <g id="ytick_1">
     <g id="line2d_6">
      <defs>
       <path d="M 0 0 
L -3.5 0 
" id="m4661b1b45f" style="stroke:#000000;stroke-width:0.8;"/>
      </defs>
      <g>
       <use style="stroke:#000000;stroke-width:0.8;" x="51.05" xlink:href="#m4661b1b45f" y="334.714127"/>
      </g>
     </g>
     <g id="text_6">
      <!-- 100 -->
      <defs>
       <path d="M 31.78125 66.40625 
Q 24.171875 66.40625 20.328125 58.90625 
Q 16.5 51.421875 16.5 36.375 
Q 16.5 21.390625 20.328125 13.890625 
Q 24.171875 6.390625 31.78125 6.390625 
Q 39.453125 6.390625 43.28125 13.890625 
Q 47.125 21.390625 47.125 36.375 
Q 47.125 51.421875 43.28125 58.90625 
Q 39.453125 66.40625 31.78125 66.40625 
z
M 31.78125 74.21875 
Q 44.046875 74.21875 50.515625 64.515625 
Q 56.984375 54.828125 56.984375 36.375 
Q 56.984375 17.96875 50.515625 8.265625 
Q 44.046875 -1.421875 31.78125 -1.421875 
Q 19.53125 -1.421875 13.0625 8.265625 
Q 6.59375 17.96875 6.59375 36.375 
Q 6.59375 54.828125 13.0625 64.515625 
Q 19.53125 74.21875 31.78125 74.21875 
z
" id="DejaVuSans-30"/>
      </defs>
      <g transform="translate(24.9625 338.513345)scale(0.1 -0.1)">
       <use xlink:href="#DejaVuSans-31"/>
       <use x="63.623047" xlink:href="#DejaVuSans-30"/>
       <use x="127.246094" xlink:href="#DejaVuSans-30"/>
      </g>
     </g>
    </g>
    <g id="ytick_2">
     <g id="line2d_7">
      <g>
       <use style="stroke:#000000;stroke-width:0.8;" x="51.05" xlink:href="#m4661b1b45f" y="272.859301"/>
      </g>
     </g>
     <g id="text_7">
      <!-- 105 -->
      <g transform="translate(24.9625 276.65852)scale(0.1 -0.1)">
       <use xlink:href="#DejaVuSans-31"/>
       <use x="63.623047" xlink:href="#DejaVuSans-30"/>
       <use x="127.246094" xlink:href="#DejaVuSans-35"/>
      </g>
     </g>
    </g>
    <g id="ytick_3">
     <g id="line2d_8">
      <g>
       <use style="stroke:#000000;stroke-width:0.8;" x="51.05" xlink:href="#m4661b1b45f" y="211.004476"/>
      </g>
     </g>
     <g id="text_8">
      <!-- 110 -->
      <g transform="translate(24.9625 214.803695)scale(0.1 -0.1)">
       <use xlink:href="#DejaVuSans-31"/>
       <use x="63.623047" xlink:href="#DejaVuSans-31"/>
       <use x="127.246094" xlink:href="#DejaVuSans-30"/>
      </g>
     </g>
    </g>
    <g id="ytick_4">
     <g id="line2d_9">
      <g>
       <use style="stroke:#000000;stroke-width:0.8;" x="51.05" xlink:href="#m4661b1b45f" y="149.149651"/>
      </g>
     </g>
     <g id="text_9">
      <!-- 115 -->
      <g transform="translate(24.9625 152.948869)scale(0.1 -0.1)">
       <use xlink:href="#DejaVuSans-31"/>
       <use x="63.623047" xlink:href="#DejaVuSans-31"/>
       <use x="127.246094" xlink:href="#DejaVuSans-35"/>
      </g>
     </g>
    </g>
    <g id="ytick_5">
     <g id="line2d_10">
      <g>
       <use style="stroke:#000000;stroke-width:0.8;" x="51.05" xlink:href="#m4661b1b45f" y="87.294825"/>
      </g>
     </g>
     <g id="text_10">
      <!-- 120 -->
      <g transform="translate(24.9625 91.094044)scale(0.1 -0.1)">
       <use xlink:href="#DejaVuSans-31"/>
       <use x="63.623047" xlink:href="#DejaVuSans-32"/>
       <use x="127.246094" xlink:href="#DejaVuSans-30"/>
      </g>
     </g>
    </g>
    <g id="ytick_6">
     <g id="line2d_11">
      <g>
       <use style="stroke:#000000;stroke-width:0.8;" x="51.05" xlink:href="#m4661b1b45f" y="25.44"/>
      </g>
     </g>
     <g id="text_11">
      <!-- 125 -->
      <g transform="translate(24.9625 29.239219)scale(0.1 -0.1)">
       <use xlink:href="#DejaVuSans-31"/>
       <use x="63.623047" xlink:href="#DejaVuSans-32"/>
       <use x="127.246094" xlink:href="#DejaVuSans-35"/>
      </g>
     </g>
    </g>
    <g id="text_12">
     <!-- Lap Time [sec] -->
     <defs>
      <path d="M 9.8125 72.90625 
L 19.671875 72.90625 
L 19.671875 8.296875 
L 55.171875 8.296875 
L 55.171875 0 
L 9.8125 0 
z
" id="DejaVuSans-4c"/>
      <path d="M 18.109375 8.203125 
L 18.109375 -20.796875 
L 9.078125 -20.796875 
L 9.078125 54.6875 
L 18.109375 54.6875 
L 18.109375 46.390625 
Q 20.953125 51.265625 25.265625 53.625 
Q 29.59375 56 35.59375 56 
Q 45.5625 56 51.78125 48.09375 
Q 58.015625 40.1875 58.015625 27.296875 
Q 58.015625 14.40625 51.78125 6.484375 
Q 45.5625 -1.421875 35.59375 -1.421875 
Q 29.59375 -1.421875 25.265625 0.953125 
Q 20.953125 3.328125 18.109375 8.203125 
z
M 48.6875 27.296875 
Q 48.6875 37.203125 44.609375 42.84375 
Q 40.53125 48.484375 33.40625 48.484375 
Q 26.265625 48.484375 22.1875 42.84375 
Q 18.109375 37.203125 18.109375 27.296875 
Q 18.109375 17.390625 22.1875 11.75 
Q 26.265625 6.109375 33.40625 6.109375 
Q 40.53125 6.109375 44.609375 11.75 
Q 48.6875 17.390625 48.6875 27.296875 
z
" id="DejaVuSans-70"/>
      <path d="M 8.59375 75.984375 
L 29.296875 75.984375 
L 29.296875 69 
L 17.578125 69 
L 17.578125 -6.203125 
L 29.296875 -6.203125 
L 29.296875 -13.1875 
L 8.59375 -13.1875 
z
" id="DejaVuSans-5b"/>
      <path d="M 30.421875 75.984375 
L 30.421875 -13.1875 
L 9.71875 -13.1875 
L 9.71875 -6.203125 
L 21.390625 -6.203125 
L 21.390625 69 
L 9.71875 69 
L 9.71875 75.984375 
z
" id="DejaVuSans-5d"/>
     </defs>
     <g transform="translate(18.882812 216.998938)rotate(-90)scale(0.1 -0.1)">
      <use xlink:href="#DejaVuSans-4c"/>
      <use x="55.712891" xlink:href="#DejaVuSans-61"/>
      <use x="116.992188" xlink:href="#DejaVuSans-70"/>
      <use x="180.46875" xlink:href="#DejaVuSans-20"/>
      <use x="212.255859" xlink:href="#DejaVuSans-54"/>
      <use x="273.292969" xlink:href="#DejaVuSans-69"/>
      <use x="301.076172" xlink:href="#DejaVuSans-6d"/>
      <use x="398.488281" xlink:href="#DejaVuSans-65"/>
      <use x="460.011719" xlink:href="#DejaVuSans-20"/>
      <use x="491.798828" xlink:href="#DejaVuSans-5b"/>
      <use x="530.8125" xlink:href="#DejaVuSans-73"/>
      <use x="582.912109" xlink:href="#DejaVuSans-65"/>
      <use x="644.435547" xlink:href="#DejaVuSans-63"/>
      <use x="699.416016" xlink:href="#DejaVuSans-5d"/>
     </g>
    </g>
   </g>
   <g id="line2d_12">
    <path clip-path="url(#pb6106bf657)" d="M 116.613 238.888631 
L 116.613 310.454664 
" style="fill:none;stroke:#000000;stroke-linecap:square;"/>
   </g>
   <g id="line2d_13">
    <path clip-path="url(#pb6106bf657)" d="M 116.613 180.16366 
L 116.613 103.958515 
" style="fill:none;stroke:#000000;stroke-linecap:square;"/>
   </g>
   <g id="line2d_14">
    <path clip-path="url(#pb6106bf657)" d="M 100.22225 310.454664 
L 133.00375 310.454664 
" style="fill:none;stroke:#000000;stroke-linecap:square;"/>
   </g>
   <g id="line2d_15">
    <path clip-path="url(#pb6106bf657)" d="M 100.22225 103.958515 
L 133.00375 103.958515 
" style="fill:none;stroke:#000000;stroke-linecap:square;"/>
   </g>
   <g id="line2d_16">
    <defs>
     <path d="M 0 3 
C 0.795609 3 1.55874 2.683901 2.12132 2.12132 
C 2.683901 1.55874 3 0.795609 3 0 
C 3 -0.795609 2.683901 -1.55874 2.12132 -2.12132 
C 1.55874 -2.683901 0.795609 -3 0 -3 
C -0.795609 -3 -1.55874 -2.683901 -2.12132 -2.12132 
C -2.683901 -1.55874 -3 -0.795609 -3 0 
C -3 0.795609 -2.683901 1.55874 -2.12132 2.12132 
C -1.55874 2.683901 -0.795609 3 0 3 
z
" id="m3b1114535a" style="stroke:#000000;"/>
    </defs>
    <g clip-path="url(#pb6106bf657)">
     <use style="fill:none;stroke:#000000;" x="116.613" xlink:href="#m3b1114535a" y="1571.810634"/>
     <use style="fill:none;stroke:#000000;" x="116.613" xlink:href="#m3b1114535a" y="-1"/>
     <use style="fill:none;stroke:#000000;" x="116.613" xlink:href="#m3b1114535a" y="-1"/>
     <use style="fill:none;stroke:#000000;" x="116.613" xlink:href="#m3b1114535a" y="76.012505"/>
     <use style="fill:none;stroke:#000000;" x="116.613" xlink:href="#m3b1114535a" y="-1"/>
     <use style="fill:none;stroke:#000000;" x="116.613" xlink:href="#m3b1114535a" y="-1"/>
     <use style="fill:none;stroke:#000000;" x="116.613" xlink:href="#m3b1114535a" y="47.74485"/>
     <use style="fill:none;stroke:#000000;" x="116.613" xlink:href="#m3b1114535a" y="-1"/>
     <use style="fill:none;stroke:#000000;" x="116.613" xlink:href="#m3b1114535a" y="-1"/>
     <use style="fill:none;stroke:#000000;" x="116.613" xlink:href="#m3b1114535a" y="90.783437"/>
     <use style="fill:none;stroke:#000000;" x="116.613" xlink:href="#m3b1114535a" y="-1"/>
     <use style="fill:none;stroke:#000000;" x="116.613" xlink:href="#m3b1114535a" y="-1"/>
     <use style="fill:none;stroke:#000000;" x="116.613" xlink:href="#m3b1114535a" y="67.006443"/>
     <use style="fill:none;stroke:#000000;" x="116.613" xlink:href="#m3b1114535a" y="-1"/>
     <use style="fill:none;stroke:#000000;" x="116.613" xlink:href="#m3b1114535a" y="-1"/>
     <use style="fill:none;stroke:#000000;" x="116.613" xlink:href="#m3b1114535a" y="0.252715"/>
     <use style="fill:none;stroke:#000000;" x="116.613" xlink:href="#m3b1114535a" y="-1"/>
     <use style="fill:none;stroke:#000000;" x="116.613" xlink:href="#m3b1114535a" y="-1"/>
     <use style="fill:none;stroke:#000000;" x="116.613" xlink:href="#m3b1114535a" y="85.587632"/>
     <use style="fill:none;stroke:#000000;" x="116.613" xlink:href="#m3b1114535a" y="82.98973"/>
     <use style="fill:none;stroke:#000000;" x="116.613" xlink:href="#m3b1114535a" y="30.945079"/>
     <use style="fill:none;stroke:#000000;" x="116.613" xlink:href="#m3b1114535a" y="-1"/>
     <use style="fill:none;stroke:#000000;" x="116.613" xlink:href="#m3b1114535a" y="-1"/>
     <use style="fill:none;stroke:#000000;" x="116.613" xlink:href="#m3b1114535a" y="57.084929"/>
     <use style="fill:none;stroke:#000000;" x="116.613" xlink:href="#m3b1114535a" y="14.145309"/>
     <use style="fill:none;stroke:#000000;" x="116.613" xlink:href="#m3b1114535a" y="-1"/>
    </g>
   </g>
   <g id="line2d_17">
    <path clip-path="url(#pb6106bf657)" d="M 247.739 231.846459 
L 247.739 269.76656 
" style="fill:none;stroke:#000000;stroke-linecap:square;"/>
   </g>
   <g id="line2d_18">
    <path clip-path="url(#pb6106bf657)" d="M 247.739 181.341995 
L 247.739 105.826531 
" style="fill:none;stroke:#000000;stroke-linecap:square;"/>
   </g>
   <g id="line2d_19">
    <path clip-path="url(#pb6106bf657)" d="M 231.34825 269.76656 
L 264.12975 269.76656 
" style="fill:none;stroke:#000000;stroke-linecap:square;"/>
   </g>
   <g id="line2d_20">
    <path clip-path="url(#pb6106bf657)" d="M 231.34825 105.826531 
L 264.12975 105.826531 
" style="fill:none;stroke:#000000;stroke-linecap:square;"/>
   </g>
   <g id="line2d_21">
    <g clip-path="url(#pb6106bf657)">
     <use style="fill:none;stroke:#000000;" x="247.739" xlink:href="#m3b1114535a" y="1571.810634"/>
     <use style="fill:none;stroke:#000000;" x="247.739" xlink:href="#m3b1114535a" y="-1"/>
     <use style="fill:none;stroke:#000000;" x="247.739" xlink:href="#m3b1114535a" y="-1"/>
     <use style="fill:none;stroke:#000000;" x="247.739" xlink:href="#m3b1114535a" y="50.924188"/>
     <use style="fill:none;stroke:#000000;" x="247.739" xlink:href="#m3b1114535a" y="105.43066"/>
     <use style="fill:none;stroke:#000000;" x="247.739" xlink:href="#m3b1114535a" y="104.762628"/>
     <use style="fill:none;stroke:#000000;" x="247.739" xlink:href="#m3b1114535a" y="36.870772"/>
     <use style="fill:none;stroke:#000000;" x="247.739" xlink:href="#m3b1114535a" y="100.222484"/>
     <use style="fill:none;stroke:#000000;" x="247.739" xlink:href="#m3b1114535a" y="36.84603"/>
     <use style="fill:none;stroke:#000000;" x="247.739" xlink:href="#m3b1114535a" y="-1"/>
     <use style="fill:none;stroke:#000000;" x="247.739" xlink:href="#m3b1114535a" y="-1"/>
     <use style="fill:none;stroke:#000000;" x="247.739" xlink:href="#m3b1114535a" y="97.587468"/>
     <use style="fill:none;stroke:#000000;" x="247.739" xlink:href="#m3b1114535a" y="-1"/>
     <use style="fill:none;stroke:#000000;" x="247.739" xlink:href="#m3b1114535a" y="-1"/>
     <use style="fill:none;stroke:#000000;" x="247.739" xlink:href="#m3b1114535a" y="15.765905"/>
     <use style="fill:none;stroke:#000000;" x="247.739" xlink:href="#m3b1114535a" y="-1"/>
     <use style="fill:none;stroke:#000000;" x="247.739" xlink:href="#m3b1114535a" y="-1"/>
     <use style="fill:none;stroke:#000000;" x="247.739" xlink:href="#m3b1114535a" y="50.243785"/>
     <use style="fill:none;stroke:#000000;" x="247.739" xlink:href="#m3b1114535a" y="-1"/>
     <use style="fill:none;stroke:#000000;" x="247.739" xlink:href="#m3b1114535a" y="-1"/>
     <use style="fill:none;stroke:#000000;" x="247.739" xlink:href="#m3b1114535a" y="30.722402"/>
     <use style="fill:none;stroke:#000000;" x="247.739" xlink:href="#m3b1114535a" y="-1"/>
     <use style="fill:none;stroke:#000000;" x="247.739" xlink:href="#m3b1114535a" y="-1"/>
     <use style="fill:none;stroke:#000000;" x="247.739" xlink:href="#m3b1114535a" y="31.835789"/>
     <use style="fill:none;stroke:#000000;" x="247.739" xlink:href="#m3b1114535a" y="-1"/>
     <use style="fill:none;stroke:#000000;" x="247.739" xlink:href="#m3b1114535a" y="-1"/>
     <use style="fill:none;stroke:#000000;" x="247.739" xlink:href="#m3b1114535a" y="91.83497"/>
     <use style="fill:none;stroke:#000000;" x="247.739" xlink:href="#m3b1114535a" y="34.606885"/>
     <use style="fill:none;stroke:#000000;" x="247.739" xlink:href="#m3b1114535a" y="-1"/>
     <use style="fill:none;stroke:#000000;" x="247.739" xlink:href="#m3b1114535a" y="-1"/>
     <use style="fill:none;stroke:#000000;" x="247.739" xlink:href="#m3b1114535a" y="94.012259"/>
     <use style="fill:none;stroke:#000000;" x="247.739" xlink:href="#m3b1114535a" y="16.668986"/>
     <use style="fill:none;stroke:#000000;" x="247.739" xlink:href="#m3b1114535a" y="-1"/>
     <use style="fill:none;stroke:#000000;" x="247.739" xlink:href="#m3b1114535a" y="-1"/>
     <use style="fill:none;stroke:#000000;" x="247.739" xlink:href="#m3b1114535a" y="103.265741"/>
     <use style="fill:none;stroke:#000000;" x="247.739" xlink:href="#m3b1114535a" y="55.031348"/>
    </g>
   </g>
   <g id="line2d_22">
    <path clip-path="url(#pb6106bf657)" d="M 378.865 226.25169 
L 378.865 273.366511 
" style="fill:none;stroke:#000000;stroke-linecap:square;"/>
   </g>
   <g id="line2d_23">
    <path clip-path="url(#pb6106bf657)" d="M 378.865 177.674003 
L 378.865 105.344063 
" style="fill:none;stroke:#000000;stroke-linecap:square;"/>
   </g>
   <g id="line2d_24">
    <path clip-path="url(#pb6106bf657)" d="M 362.47425 273.366511 
L 395.25575 273.366511 
" style="fill:none;stroke:#000000;stroke-linecap:square;"/>
   </g>
   <g id="line2d_25">
    <path clip-path="url(#pb6106bf657)" d="M 362.47425 105.344063 
L 395.25575 105.344063 
" style="fill:none;stroke:#000000;stroke-linecap:square;"/>
   </g>
   <g id="line2d_26">
    <g clip-path="url(#pb6106bf657)">
     <use style="fill:none;stroke:#000000;" x="378.865" xlink:href="#m3b1114535a" y="1571.810634"/>
     <use style="fill:none;stroke:#000000;" x="378.865" xlink:href="#m3b1114535a" y="71.224942"/>
     <use style="fill:none;stroke:#000000;" x="378.865" xlink:href="#m3b1114535a" y="49.563382"/>
     <use style="fill:none;stroke:#000000;" x="378.865" xlink:href="#m3b1114535a" y="99.999806"/>
     <use style="fill:none;stroke:#000000;" x="378.865" xlink:href="#m3b1114535a" y="-1"/>
     <use style="fill:none;stroke:#000000;" x="378.865" xlink:href="#m3b1114535a" y="-1"/>
     <use style="fill:none;stroke:#000000;" x="378.865" xlink:href="#m3b1114535a" y="44.899528"/>
     <use style="fill:none;stroke:#000000;" x="378.865" xlink:href="#m3b1114535a" y="62.577637"/>
     <use style="fill:none;stroke:#000000;" x="378.865" xlink:href="#m3b1114535a" y="-1"/>
     <use style="fill:none;stroke:#000000;" x="378.865" xlink:href="#m3b1114535a" y="-1"/>
     <use style="fill:none;stroke:#000000;" x="378.865" xlink:href="#m3b1114535a" y="82.470149"/>
     <use style="fill:none;stroke:#000000;" x="378.865" xlink:href="#m3b1114535a" y="-1"/>
     <use style="fill:none;stroke:#000000;" x="378.865" xlink:href="#m3b1114535a" y="-1"/>
     <use style="fill:none;stroke:#000000;" x="378.865" xlink:href="#m3b1114535a" y="10.594842"/>
     <use style="fill:none;stroke:#000000;" x="378.865" xlink:href="#m3b1114535a" y="-1"/>
     <use style="fill:none;stroke:#000000;" x="378.865" xlink:href="#m3b1114535a" y="-1"/>
     <use style="fill:none;stroke:#000000;" x="378.865" xlink:href="#m3b1114535a" y="78.152682"/>
     <use style="fill:none;stroke:#000000;" x="378.865" xlink:href="#m3b1114535a" y="94.14834"/>
     <use style="fill:none;stroke:#000000;" x="378.865" xlink:href="#m3b1114535a" y="91.377244"/>
     <use style="fill:none;stroke:#000000;" x="378.865" xlink:href="#m3b1114535a" y="92.564856"/>
     <use style="fill:none;stroke:#000000;" x="378.865" xlink:href="#m3b1114535a" y="59.02717"/>
     <use style="fill:none;stroke:#000000;" x="378.865" xlink:href="#m3b1114535a" y="97.847259"/>
     <use style="fill:none;stroke:#000000;" x="378.865" xlink:href="#m3b1114535a" y="87.901003"/>
     <use style="fill:none;stroke:#000000;" x="378.865" xlink:href="#m3b1114535a" y="16.384454"/>
     <use style="fill:none;stroke:#000000;" x="378.865" xlink:href="#m3b1114535a" y="-1"/>
     <use style="fill:none;stroke:#000000;" x="378.865" xlink:href="#m3b1114535a" y="-1"/>
     <use style="fill:none;stroke:#000000;" x="378.865" xlink:href="#m3b1114535a" y="96.535936"/>
     <use style="fill:none;stroke:#000000;" x="378.865" xlink:href="#m3b1114535a" y="18.932872"/>
     <use style="fill:none;stroke:#000000;" x="378.865" xlink:href="#m3b1114535a" y="-1"/>
     <use style="fill:none;stroke:#000000;" x="378.865" xlink:href="#m3b1114535a" y="-1"/>
     <use style="fill:none;stroke:#000000;" x="378.865" xlink:href="#m3b1114535a" y="26.182258"/>
     <use style="fill:none;stroke:#000000;" x="378.865" xlink:href="#m3b1114535a" y="22.409114"/>
     <use style="fill:none;stroke:#000000;" x="378.865" xlink:href="#m3b1114535a" y="101.830709"/>
    </g>
   </g>
   <g id="line2d_27">
    <path clip-path="url(#pb6106bf657)" d="M 509.991 233.513447 
L 509.991 308.141294 
" style="fill:none;stroke:#000000;stroke-linecap:square;"/>
   </g>
   <g id="line2d_28">
    <path clip-path="url(#pb6106bf657)" d="M 509.991 175.812173 
L 509.991 89.880357 
" style="fill:none;stroke:#000000;stroke-linecap:square;"/>
   </g>
   <g id="line2d_29">
    <path clip-path="url(#pb6106bf657)" d="M 493.60025 308.141294 
L 526.38175 308.141294 
" style="fill:none;stroke:#000000;stroke-linecap:square;"/>
   </g>
   <g id="line2d_30">
    <path clip-path="url(#pb6106bf657)" d="M 493.60025 89.880357 
L 526.38175 89.880357 
" style="fill:none;stroke:#000000;stroke-linecap:square;"/>
   </g>
   <g id="line2d_31">
    <g clip-path="url(#pb6106bf657)">
     <use style="fill:none;stroke:#000000;" x="509.991" xlink:href="#m3b1114535a" y="1571.810634"/>
     <use style="fill:none;stroke:#000000;" x="509.991" xlink:href="#m3b1114535a" y="-1"/>
     <use style="fill:none;stroke:#000000;" x="509.991" xlink:href="#m3b1114535a" y="-1"/>
     <use style="fill:none;stroke:#000000;" x="509.991" xlink:href="#m3b1114535a" y="50.614914"/>
     <use style="fill:none;stroke:#000000;" x="509.991" xlink:href="#m3b1114535a" y="-1"/>
     <use style="fill:none;stroke:#000000;" x="509.991" xlink:href="#m3b1114535a" y="-1"/>
     <use style="fill:none;stroke:#000000;" x="509.991" xlink:href="#m3b1114535a" y="10.9536"/>
     <use style="fill:none;stroke:#000000;" x="509.991" xlink:href="#m3b1114535a" y="-1"/>
     <use style="fill:none;stroke:#000000;" x="509.991" xlink:href="#m3b1114535a" y="-1"/>
     <use style="fill:none;stroke:#000000;" x="509.991" xlink:href="#m3b1114535a" y="17.052486"/>
     <use style="fill:none;stroke:#000000;" x="509.991" xlink:href="#m3b1114535a" y="-1"/>
     <use style="fill:none;stroke:#000000;" x="509.991" xlink:href="#m3b1114535a" y="-1"/>
     <use style="fill:none;stroke:#000000;" x="509.991" xlink:href="#m3b1114535a" y="5.324811"/>
     <use style="fill:none;stroke:#000000;" x="509.991" xlink:href="#m3b1114535a" y="-1"/>
     <use style="fill:none;stroke:#000000;" x="509.991" xlink:href="#m3b1114535a" y="-1"/>
     <use style="fill:none;stroke:#000000;" x="509.991" xlink:href="#m3b1114535a" y="81.628923"/>
     <use style="fill:none;stroke:#000000;" x="509.991" xlink:href="#m3b1114535a" y="75.455812"/>
     <use style="fill:none;stroke:#000000;" x="509.991" xlink:href="#m3b1114535a" y="83.63302"/>
     <use style="fill:none;stroke:#000000;" x="509.991" xlink:href="#m3b1114535a" y="16.21126"/>
     <use style="fill:none;stroke:#000000;" x="509.991" xlink:href="#m3b1114535a" y="-1"/>
     <use style="fill:none;stroke:#000000;" x="509.991" xlink:href="#m3b1114535a" y="-1"/>
     <use style="fill:none;stroke:#000000;" x="509.991" xlink:href="#m3b1114535a" y="75.072312"/>
     <use style="fill:none;stroke:#000000;" x="509.991" xlink:href="#m3b1114535a" y="76.210441"/>
     <use style="fill:none;stroke:#000000;" x="509.991" xlink:href="#m3b1114535a" y="-1"/>
    </g>
   </g>
   <g id="line2d_32">
    <path clip-path="url(#pb6106bf657)" d="M 641.117 209.526146 
L 641.117 263.346029 
" style="fill:none;stroke:#000000;stroke-linecap:square;"/>
   </g>
   <g id="line2d_33">
    <path clip-path="url(#pb6106bf657)" d="M 641.117 142.933241 
L 641.117 61.563218 
" style="fill:none;stroke:#000000;stroke-linecap:square;"/>
   </g>
   <g id="line2d_34">
    <path clip-path="url(#pb6106bf657)" d="M 624.72625 263.346029 
L 657.50775 263.346029 
" style="fill:none;stroke:#000000;stroke-linecap:square;"/>
   </g>
   <g id="line2d_35">
    <path clip-path="url(#pb6106bf657)" d="M 624.72625 61.563218 
L 657.50775 61.563218 
" style="fill:none;stroke:#000000;stroke-linecap:square;"/>
   </g>
   <g id="line2d_36">
    <g clip-path="url(#pb6106bf657)">
     <use style="fill:none;stroke:#000000;" x="641.117" xlink:href="#m3b1114535a" y="1571.810634"/>
     <use style="fill:none;stroke:#000000;" x="641.117" xlink:href="#m3b1114535a" y="-1"/>
     <use style="fill:none;stroke:#000000;" x="641.117" xlink:href="#m3b1114535a" y="-1"/>
     <use style="fill:none;stroke:#000000;" x="641.117" xlink:href="#m3b1114535a" y="1.019715"/>
     <use style="fill:none;stroke:#000000;" x="641.117" xlink:href="#m3b1114535a" y="13.984486"/>
     <use style="fill:none;stroke:#000000;" x="641.117" xlink:href="#m3b1114535a" y="-1"/>
     <use style="fill:none;stroke:#000000;" x="641.117" xlink:href="#m3b1114535a" y="-1"/>
     <use style="fill:none;stroke:#000000;" x="641.117" xlink:href="#m3b1114535a" y="30.103854"/>
     <use style="fill:none;stroke:#000000;" x="641.117" xlink:href="#m3b1114535a" y="-1"/>
     <use style="fill:none;stroke:#000000;" x="641.117" xlink:href="#m3b1114535a" y="-1"/>
     <use style="fill:none;stroke:#000000;" x="641.117" xlink:href="#m3b1114535a" y="28.755419"/>
     <use style="fill:none;stroke:#000000;" x="641.117" xlink:href="#m3b1114535a" y="15.753534"/>
     <use style="fill:none;stroke:#000000;" x="641.117" xlink:href="#m3b1114535a" y="-1"/>
    </g>
   </g>
   <g id="patch_3">
    <path clip-path="url(#pb6106bf657)" d="M 83.8315 238.888631 
L 149.3945 238.888631 
L 149.3945 180.16366 
L 83.8315 180.16366 
L 83.8315 238.888631 
z
" style="fill:#1f77b4;stroke:#000000;stroke-linejoin:miter;"/>
   </g>
   <g id="patch_4">
    <path clip-path="url(#pb6106bf657)" d="M 214.9575 231.846459 
L 280.5205 231.846459 
L 280.5205 181.341995 
L 214.9575 181.341995 
L 214.9575 231.846459 
z
" style="fill:#ff7f0e;stroke:#000000;stroke-linejoin:miter;"/>
   </g>
   <g id="patch_5">
    <path clip-path="url(#pb6106bf657)" d="M 346.0835 226.25169 
L 411.6465 226.25169 
L 411.6465 177.674003 
L 346.0835 177.674003 
L 346.0835 226.25169 
z
" style="fill:#2ca02c;stroke:#000000;stroke-linejoin:miter;"/>
   </g>
   <g id="patch_6">
    <path clip-path="url(#pb6106bf657)" d="M 477.2095 233.513447 
L 542.7725 233.513447 
L 542.7725 175.812173 
L 477.2095 175.812173 
L 477.2095 233.513447 
z
" style="fill:#d62728;stroke:#000000;stroke-linejoin:miter;"/>
   </g>
   <g id="patch_7">
    <path clip-path="url(#pb6106bf657)" d="M 608.3355 209.526146 
L 673.8985 209.526146 
L 673.8985 142.933241 
L 608.3355 142.933241 
L 608.3355 209.526146 
z
" style="fill:#9467bd;stroke:#000000;stroke-linejoin:miter;"/>
   </g>
   <g id="line2d_37">
    <path clip-path="url(#pb6106bf657)" d="M 83.8315 206.711751 
L 149.3945 206.711751 
" style="fill:none;stroke:#000000;stroke-linecap:square;"/>
   </g>
   <g id="line2d_38">
    <path clip-path="url(#pb6106bf657)" d="M 83.8315 121.419628 
L 149.3945 121.419628 
" style="fill:none;stroke:#2ca02c;stroke-dasharray:3.7,1.6;stroke-dashoffset:0;"/>
   </g>
   <g id="line2d_39">
    <path clip-path="url(#pb6106bf657)" d="M 214.9575 211.227153 
L 280.5205 211.227153 
" style="fill:none;stroke:#000000;stroke-linecap:square;"/>
   </g>
   <g id="line2d_40">
    <path clip-path="url(#pb6106bf657)" d="M 214.9575 109.231218 
L 280.5205 109.231218 
" style="fill:none;stroke:#2ca02c;stroke-dasharray:3.7,1.6;stroke-dashoffset:0;"/>
   </g>
   <g id="line2d_41">
    <path clip-path="url(#pb6106bf657)" d="M 346.0835 209.785936 
L 411.6465 209.785936 
" style="fill:none;stroke:#000000;stroke-linecap:square;"/>
   </g>
   <g id="line2d_42">
    <path clip-path="url(#pb6106bf657)" d="M 346.0835 111.091106 
L 411.6465 111.091106 
" style="fill:none;stroke:#2ca02c;stroke-dasharray:3.7,1.6;stroke-dashoffset:0;"/>
   </g>
   <g id="line2d_43">
    <path clip-path="url(#pb6106bf657)" d="M 477.2095 207.719985 
L 542.7725 207.719985 
" style="fill:none;stroke:#000000;stroke-linecap:square;"/>
   </g>
   <g id="line2d_44">
    <path clip-path="url(#pb6106bf657)" d="M 477.2095 90.76285 
L 542.7725 90.76285 
" style="fill:none;stroke:#2ca02c;stroke-dasharray:3.7,1.6;stroke-dashoffset:0;"/>
   </g>
   <g id="line2d_45">
    <path clip-path="url(#pb6106bf657)" d="M 608.3355 181.202821 
L 673.8985 181.202821 
" style="fill:none;stroke:#000000;stroke-linecap:square;"/>
   </g>
   <g id="line2d_46">
    <path clip-path="url(#pb6106bf657)" d="M 608.3355 86.775983 
L 673.8985 86.775983 
" style="fill:none;stroke:#2ca02c;stroke-dasharray:3.7,1.6;stroke-dashoffset:0;"/>
   </g>
   <g id="patch_8">
    <path d="M 51.05 334.714127 
L 51.05 25.44 
" style="fill:none;stroke:#000000;stroke-linecap:square;stroke-linejoin:miter;stroke-width:0.8;"/>
   </g>
   <g id="patch_9">
    <path d="M 706.68 334.714127 
L 706.68 25.44 
" style="fill:none;stroke:#000000;stroke-linecap:square;stroke-linejoin:miter;stroke-width:0.8;"/>
   </g>
   <g id="patch_10">
    <path d="M 51.05 334.714127 
L 706.68 334.714127 
" style="fill:none;stroke:#000000;stroke-linecap:square;stroke-linejoin:miter;stroke-width:0.8;"/>
   </g>
   <g id="patch_11">
    <path d="M 51.05 25.44 
L 706.68 25.44 
" style="fill:none;stroke:#000000;stroke-linecap:square;stroke-linejoin:miter;stroke-width:0.8;"/>
   </g>
   <g id="text_13">
    <!-- Box Plot - Lap Time -->
    <defs>
     <path d="M 19.671875 34.8125 
L 19.671875 8.109375 
L 35.5 8.109375 
Q 43.453125 8.109375 47.28125 11.40625 
Q 51.125 14.703125 51.125 21.484375 
Q 51.125 28.328125 47.28125 31.5625 
Q 43.453125 34.8125 35.5 34.8125 
z
M 19.671875 64.796875 
L 19.671875 42.828125 
L 34.28125 42.828125 
Q 41.5 42.828125 45.03125 45.53125 
Q 48.578125 48.25 48.578125 53.8125 
Q 48.578125 59.328125 45.03125 62.0625 
Q 41.5 64.796875 34.28125 64.796875 
z
M 9.8125 72.90625 
L 35.015625 72.90625 
Q 46.296875 72.90625 52.390625 68.21875 
Q 58.5 63.53125 58.5 54.890625 
Q 58.5 48.1875 55.375 44.234375 
Q 52.25 40.28125 46.1875 39.3125 
Q 53.46875 37.75 57.5 32.78125 
Q 61.53125 27.828125 61.53125 20.40625 
Q 61.53125 10.640625 54.890625 5.3125 
Q 48.25 0 35.984375 0 
L 9.8125 0 
z
" id="DejaVuSans-42"/>
     <path d="M 30.609375 48.390625 
Q 23.390625 48.390625 19.1875 42.75 
Q 14.984375 37.109375 14.984375 27.296875 
Q 14.984375 17.484375 19.15625 11.84375 
Q 23.34375 6.203125 30.609375 6.203125 
Q 37.796875 6.203125 41.984375 11.859375 
Q 46.1875 17.53125 46.1875 27.296875 
Q 46.1875 37.015625 41.984375 42.703125 
Q 37.796875 48.390625 30.609375 48.390625 
z
M 30.609375 56 
Q 42.328125 56 49.015625 48.375 
Q 55.71875 40.765625 55.71875 27.296875 
Q 55.71875 13.875 49.015625 6.21875 
Q 42.328125 -1.421875 30.609375 -1.421875 
Q 18.84375 -1.421875 12.171875 6.21875 
Q 5.515625 13.875 5.515625 27.296875 
Q 5.515625 40.765625 12.171875 48.375 
Q 18.84375 56 30.609375 56 
z
" id="DejaVuSans-6f"/>
     <path d="M 9.421875 75.984375 
L 18.40625 75.984375 
L 18.40625 0 
L 9.421875 0 
z
" id="DejaVuSans-6c"/>
     <path d="M 4.890625 31.390625 
L 31.203125 31.390625 
L 31.203125 23.390625 
L 4.890625 23.390625 
z
" id="DejaVuSans-2d"/>
    </defs>
    <g transform="translate(320.734375 19.44)scale(0.12 -0.12)">
     <use xlink:href="#DejaVuSans-42"/>
     <use x="68.603516" xlink:href="#DejaVuSans-6f"/>
     <use x="129.738281" xlink:href="#DejaVuSans-78"/>
     <use x="188.917969" xlink:href="#DejaVuSans-20"/>
     <use x="220.705078" xlink:href="#DejaVuSans-50"/>
     <use x="281.007812" xlink:href="#DejaVuSans-6c"/>
     <use x="308.791016" xlink:href="#DejaVuSans-6f"/>
     <use x="369.972656" xlink:href="#DejaVuSans-74"/>
     <use x="409.181641" xlink:href="#DejaVuSans-20"/>
     <use x="440.96875" xlink:href="#DejaVuSans-2d"/>
     <use x="477.052734" xlink:href="#DejaVuSans-20"/>
     <use x="508.839844" xlink:href="#DejaVuSans-4c"/>
     <use x="564.552734" xlink:href="#DejaVuSans-61"/>
     <use x="625.832031" xlink:href="#DejaVuSans-70"/>
     <use x="689.308594" xlink:href="#DejaVuSans-20"/>
     <use x="721.095703" xlink:href="#DejaVuSans-54"/>
     <use x="782.132812" xlink:href="#DejaVuSans-69"/>
     <use x="809.916016" xlink:href="#DejaVuSans-6d"/>
     <use x="907.328125" xlink:href="#DejaVuSans-65"/>
    </g>
   </g>
  </g>
 </g>
 <defs>
  <clipPath id="pb6106bf657">
   <rect height="309.274127" width="655.63" x="51.05" y="25.44"/>
  </clipPath>
 </defs>
</svg>
