<?xml version="1.0" encoding="utf-8" standalone="no"?>
<!DOCTYPE svg PUBLIC "-//W3C//DTD SVG 1.1//EN"
  "http://www.w3.org/Graphics/SVG/1.1/DTD/svg11.dtd">
<!-- Created with matplotlib (http://matplotlib.org/) -->
<svg height="432pt" version="1.1" viewBox="0 0 720 432" width="720pt" xmlns="http://www.w3.org/2000/svg" xmlns:xlink="http://www.w3.org/1999/xlink">
 <defs>
  <style type="text/css">
*{stroke-linecap:butt;stroke-linejoin:round;}
  </style>
 </defs>
 <g id="figure_1">
  <g id="patch_1">
   <path d="M 0 432 
L 720 432 
L 720 0 
L 0 0 
z
" style="fill:none;opacity:0;"/>
  </g>
  <g id="axes_1">
   <g id="patch_2">
    <path d="M 44.57 390.04 
L 706.68 390.04 
L 706.68 25.44 
L 44.57 25.44 
z
" style="fill:#ffffff;"/>
   </g>
   <g id="matplotlib.axis_1">
    <g id="xtick_1">
     <g id="line2d_1">
      <path clip-path="url(#pbdc157a7ae)" d="M 74.665909 390.04 
L 74.665909 25.44 
" style="fill:none;stroke:#b0b0b0;stroke-linecap:square;stroke-width:0.8;"/>
     </g>
     <g id="line2d_2">
      <defs>
       <path d="M 0 0 
L 0 3.5 
" id="mcba7f85ea8" style="stroke:#000000;stroke-width:0.8;"/>
      </defs>
      <g>
       <use style="stroke:#000000;stroke-width:0.8;" x="74.665909" xlink:href="#mcba7f85ea8" y="390.04"/>
      </g>
     </g>
     <g id="text_1">
      <!-- 0 -->
      <defs>
       <path d="M 31.78125 66.40625 
Q 24.171875 66.40625 20.328125 58.90625 
Q 16.5 51.421875 16.5 36.375 
Q 16.5 21.390625 20.328125 13.890625 
Q 24.171875 6.390625 31.78125 6.390625 
Q 39.453125 6.390625 43.28125 13.890625 
Q 47.125 21.390625 47.125 36.375 
Q 47.125 51.421875 43.28125 58.90625 
Q 39.453125 66.40625 31.78125 66.40625 
z
M 31.78125 74.21875 
Q 44.046875 74.21875 50.515625 64.515625 
Q 56.984375 54.828125 56.984375 36.375 
Q 56.984375 17.96875 50.515625 8.265625 
Q 44.046875 -1.421875 31.78125 -1.421875 
Q 19.53125 -1.421875 13.0625 8.265625 
Q 6.59375 17.96875 6.59375 36.375 
Q 6.59375 54.828125 13.0625 64.515625 
Q 19.53125 74.21875 31.78125 74.21875 
z
" id="DejaVuSans-30"/>
      </defs>
      <g transform="translate(71.484659 404.638438)scale(0.1 -0.1)">
       <use xlink:href="#DejaVuSans-30"/>
      </g>
     </g>
    </g>
    <g id="xtick_2">
     <g id="line2d_3">
      <path clip-path="url(#pbdc157a7ae)" d="M 160.714643 390.04 
L 160.714643 25.44 
" style="fill:none;stroke:#b0b0b0;stroke-linecap:square;stroke-width:0.8;"/>
     </g>
     <g id="line2d_4">
      <g>
       <use style="stroke:#000000;stroke-width:0.8;" x="160.714643" xlink:href="#mcba7f85ea8" y="390.04"/>
      </g>
     </g>
     <g id="text_2">
      <!-- 2 -->
      <defs>
       <path d="M 19.1875 8.296875 
L 53.609375 8.296875 
L 53.609375 0 
L 7.328125 0 
L 7.328125 8.296875 
Q 12.9375 14.109375 22.625 23.890625 
Q 32.328125 33.6875 34.8125 36.53125 
Q 39.546875 41.84375 41.421875 45.53125 
Q 43.3125 49.21875 43.3125 52.78125 
Q 43.3125 58.59375 39.234375 62.25 
Q 35.15625 65.921875 28.609375 65.921875 
Q 23.96875 65.921875 18.8125 64.3125 
Q 13.671875 62.703125 7.8125 59.421875 
L 7.8125 69.390625 
Q 13.765625 71.78125 18.9375 73 
Q 24.125 74.21875 28.421875 74.21875 
Q 39.75 74.21875 46.484375 68.546875 
Q 53.21875 62.890625 53.21875 53.421875 
Q 53.21875 48.921875 51.53125 44.890625 
Q 49.859375 40.875 45.40625 35.40625 
Q 44.1875 33.984375 37.640625 27.21875 
Q 31.109375 20.453125 19.1875 8.296875 
z
" id="DejaVuSans-32"/>
      </defs>
      <g transform="translate(157.533393 404.638438)scale(0.1 -0.1)">
       <use xlink:href="#DejaVuSans-32"/>
      </g>
     </g>
    </g>
    <g id="xtick_3">
     <g id="line2d_5">
      <path clip-path="url(#pbdc157a7ae)" d="M 246.763376 390.04 
L 246.763376 25.44 
" style="fill:none;stroke:#b0b0b0;stroke-linecap:square;stroke-width:0.8;"/>
     </g>
     <g id="line2d_6">
      <g>
       <use style="stroke:#000000;stroke-width:0.8;" x="246.763376" xlink:href="#mcba7f85ea8" y="390.04"/>
      </g>
     </g>
     <g id="text_3">
      <!-- 4 -->
      <defs>
       <path d="M 37.796875 64.3125 
L 12.890625 25.390625 
L 37.796875 25.390625 
z
M 35.203125 72.90625 
L 47.609375 72.90625 
L 47.609375 25.390625 
L 58.015625 25.390625 
L 58.015625 17.1875 
L 47.609375 17.1875 
L 47.609375 0 
L 37.796875 0 
L 37.796875 17.1875 
L 4.890625 17.1875 
L 4.890625 26.703125 
z
" id="DejaVuSans-34"/>
      </defs>
      <g transform="translate(243.582126 404.638438)scale(0.1 -0.1)">
       <use xlink:href="#DejaVuSans-34"/>
      </g>
     </g>
    </g>
    <g id="xtick_4">
     <g id="line2d_7">
      <path clip-path="url(#pbdc157a7ae)" d="M 332.81211 390.04 
L 332.81211 25.44 
" style="fill:none;stroke:#b0b0b0;stroke-linecap:square;stroke-width:0.8;"/>
     </g>
     <g id="line2d_8">
      <g>
       <use style="stroke:#000000;stroke-width:0.8;" x="332.81211" xlink:href="#mcba7f85ea8" y="390.04"/>
      </g>
     </g>
     <g id="text_4">
      <!-- 6 -->
      <defs>
       <path d="M 33.015625 40.375 
Q 26.375 40.375 22.484375 35.828125 
Q 18.609375 31.296875 18.609375 23.390625 
Q 18.609375 15.53125 22.484375 10.953125 
Q 26.375 6.390625 33.015625 6.390625 
Q 39.65625 6.390625 43.53125 10.953125 
Q 47.40625 15.53125 47.40625 23.390625 
Q 47.40625 31.296875 43.53125 35.828125 
Q 39.65625 40.375 33.015625 40.375 
z
M 52.59375 71.296875 
L 52.59375 62.3125 
Q 48.875 64.0625 45.09375 64.984375 
Q 41.3125 65.921875 37.59375 65.921875 
Q 27.828125 65.921875 22.671875 59.328125 
Q 17.53125 52.734375 16.796875 39.40625 
Q 19.671875 43.65625 24.015625 45.921875 
Q 28.375 48.1875 33.59375 48.1875 
Q 44.578125 48.1875 50.953125 41.515625 
Q 57.328125 34.859375 57.328125 23.390625 
Q 57.328125 12.15625 50.6875 5.359375 
Q 44.046875 -1.421875 33.015625 -1.421875 
Q 20.359375 -1.421875 13.671875 8.265625 
Q 6.984375 17.96875 6.984375 36.375 
Q 6.984375 53.65625 15.1875 63.9375 
Q 23.390625 74.21875 37.203125 74.21875 
Q 40.921875 74.21875 44.703125 73.484375 
Q 48.484375 72.75 52.59375 71.296875 
z
" id="DejaVuSans-36"/>
      </defs>
      <g transform="translate(329.63086 404.638438)scale(0.1 -0.1)">
       <use xlink:href="#DejaVuSans-36"/>
      </g>
     </g>
    </g>
    <g id="xtick_5">
     <g id="line2d_9">
      <path clip-path="url(#pbdc157a7ae)" d="M 418.860844 390.04 
L 418.860844 25.44 
" style="fill:none;stroke:#b0b0b0;stroke-linecap:square;stroke-width:0.8;"/>
     </g>
     <g id="line2d_10">
      <g>
       <use style="stroke:#000000;stroke-width:0.8;" x="418.860844" xlink:href="#mcba7f85ea8" y="390.04"/>
      </g>
     </g>
     <g id="text_5">
      <!-- 8 -->
      <defs>
       <path d="M 31.78125 34.625 
Q 24.75 34.625 20.71875 30.859375 
Q 16.703125 27.09375 16.703125 20.515625 
Q 16.703125 13.921875 20.71875 10.15625 
Q 24.75 6.390625 31.78125 6.390625 
Q 38.8125 6.390625 42.859375 10.171875 
Q 46.921875 13.96875 46.921875 20.515625 
Q 46.921875 27.09375 42.890625 30.859375 
Q 38.875 34.625 31.78125 34.625 
z
M 21.921875 38.8125 
Q 15.578125 40.375 12.03125 44.71875 
Q 8.5 49.078125 8.5 55.328125 
Q 8.5 64.0625 14.71875 69.140625 
Q 20.953125 74.21875 31.78125 74.21875 
Q 42.671875 74.21875 48.875 69.140625 
Q 55.078125 64.0625 55.078125 55.328125 
Q 55.078125 49.078125 51.53125 44.71875 
Q 48 40.375 41.703125 38.8125 
Q 48.828125 37.15625 52.796875 32.3125 
Q 56.78125 27.484375 56.78125 20.515625 
Q 56.78125 9.90625 50.3125 4.234375 
Q 43.84375 -1.421875 31.78125 -1.421875 
Q 19.734375 -1.421875 13.25 4.234375 
Q 6.78125 9.90625 6.78125 20.515625 
Q 6.78125 27.484375 10.78125 32.3125 
Q 14.796875 37.15625 21.921875 38.8125 
z
M 18.3125 54.390625 
Q 18.3125 48.734375 21.84375 45.5625 
Q 25.390625 42.390625 31.78125 42.390625 
Q 38.140625 42.390625 41.71875 45.5625 
Q 45.3125 48.734375 45.3125 54.390625 
Q 45.3125 60.0625 41.71875 63.234375 
Q 38.140625 66.40625 31.78125 66.40625 
Q 25.390625 66.40625 21.84375 63.234375 
Q 18.3125 60.0625 18.3125 54.390625 
z
" id="DejaVuSans-38"/>
      </defs>
      <g transform="translate(415.679594 404.638438)scale(0.1 -0.1)">
       <use xlink:href="#DejaVuSans-38"/>
      </g>
     </g>
    </g>
    <g id="xtick_6">
     <g id="line2d_11">
      <path clip-path="url(#pbdc157a7ae)" d="M 504.909577 390.04 
L 504.909577 25.44 
" style="fill:none;stroke:#b0b0b0;stroke-linecap:square;stroke-width:0.8;"/>
     </g>
     <g id="line2d_12">
      <g>
       <use style="stroke:#000000;stroke-width:0.8;" x="504.909577" xlink:href="#mcba7f85ea8" y="390.04"/>
      </g>
     </g>
     <g id="text_6">
      <!-- 10 -->
      <defs>
       <path d="M 12.40625 8.296875 
L 28.515625 8.296875 
L 28.515625 63.921875 
L 10.984375 60.40625 
L 10.984375 69.390625 
L 28.421875 72.90625 
L 38.28125 72.90625 
L 38.28125 8.296875 
L 54.390625 8.296875 
L 54.390625 0 
L 12.40625 0 
z
" id="DejaVuSans-31"/>
      </defs>
      <g transform="translate(498.547077 404.638438)scale(0.1 -0.1)">
       <use xlink:href="#DejaVuSans-31"/>
       <use x="63.623047" xlink:href="#DejaVuSans-30"/>
      </g>
     </g>
    </g>
    <g id="xtick_7">
     <g id="line2d_13">
      <path clip-path="url(#pbdc157a7ae)" d="M 590.958311 390.04 
L 590.958311 25.44 
" style="fill:none;stroke:#b0b0b0;stroke-linecap:square;stroke-width:0.8;"/>
     </g>
     <g id="line2d_14">
      <g>
       <use style="stroke:#000000;stroke-width:0.8;" x="590.958311" xlink:href="#mcba7f85ea8" y="390.04"/>
      </g>
     </g>
     <g id="text_7">
      <!-- 12 -->
      <g transform="translate(584.595811 404.638438)scale(0.1 -0.1)">
       <use xlink:href="#DejaVuSans-31"/>
       <use x="63.623047" xlink:href="#DejaVuSans-32"/>
      </g>
     </g>
    </g>
    <g id="xtick_8">
     <g id="line2d_15">
      <path clip-path="url(#pbdc157a7ae)" d="M 677.007044 390.04 
L 677.007044 25.44 
" style="fill:none;stroke:#b0b0b0;stroke-linecap:square;stroke-width:0.8;"/>
     </g>
     <g id="line2d_16">
      <g>
       <use style="stroke:#000000;stroke-width:0.8;" x="677.007044" xlink:href="#mcba7f85ea8" y="390.04"/>
      </g>
     </g>
     <g id="text_8">
      <!-- 14 -->
      <g transform="translate(670.644544 404.638438)scale(0.1 -0.1)">
       <use xlink:href="#DejaVuSans-31"/>
       <use x="63.623047" xlink:href="#DejaVuSans-34"/>
      </g>
     </g>
    </g>
    <g id="text_9">
     <!-- Race Time [hr] -->
     <defs>
      <path d="M 44.390625 34.1875 
Q 47.5625 33.109375 50.5625 29.59375 
Q 53.5625 26.078125 56.59375 19.921875 
L 66.609375 0 
L 56 0 
L 46.6875 18.703125 
Q 43.0625 26.03125 39.671875 28.421875 
Q 36.28125 30.8125 30.421875 30.8125 
L 19.671875 30.8125 
L 19.671875 0 
L 9.8125 0 
L 9.8125 72.90625 
L 32.078125 72.90625 
Q 44.578125 72.90625 50.734375 67.671875 
Q 56.890625 62.453125 56.890625 51.90625 
Q 56.890625 45.015625 53.6875 40.46875 
Q 50.484375 35.9375 44.390625 34.1875 
z
M 19.671875 64.796875 
L 19.671875 38.921875 
L 32.078125 38.921875 
Q 39.203125 38.921875 42.84375 42.21875 
Q 46.484375 45.515625 46.484375 51.90625 
Q 46.484375 58.296875 42.84375 61.546875 
Q 39.203125 64.796875 32.078125 64.796875 
z
" id="DejaVuSans-52"/>
      <path d="M 34.28125 27.484375 
Q 23.390625 27.484375 19.1875 25 
Q 14.984375 22.515625 14.984375 16.5 
Q 14.984375 11.71875 18.140625 8.90625 
Q 21.296875 6.109375 26.703125 6.109375 
Q 34.1875 6.109375 38.703125 11.40625 
Q 43.21875 16.703125 43.21875 25.484375 
L 43.21875 27.484375 
z
M 52.203125 31.203125 
L 52.203125 0 
L 43.21875 0 
L 43.21875 8.296875 
Q 40.140625 3.328125 35.546875 0.953125 
Q 30.953125 -1.421875 24.3125 -1.421875 
Q 15.921875 -1.421875 10.953125 3.296875 
Q 6 8.015625 6 15.921875 
Q 6 25.140625 12.171875 29.828125 
Q 18.359375 34.515625 30.609375 34.515625 
L 43.21875 34.515625 
L 43.21875 35.40625 
Q 43.21875 41.609375 39.140625 45 
Q 35.0625 48.390625 27.6875 48.390625 
Q 23 48.390625 18.546875 47.265625 
Q 14.109375 46.140625 10.015625 43.890625 
L 10.015625 52.203125 
Q 14.9375 54.109375 19.578125 55.046875 
Q 24.21875 56 28.609375 56 
Q 40.484375 56 46.34375 49.84375 
Q 52.203125 43.703125 52.203125 31.203125 
z
" id="DejaVuSans-61"/>
      <path d="M 48.78125 52.59375 
L 48.78125 44.1875 
Q 44.96875 46.296875 41.140625 47.34375 
Q 37.3125 48.390625 33.40625 48.390625 
Q 24.65625 48.390625 19.8125 42.84375 
Q 14.984375 37.3125 14.984375 27.296875 
Q 14.984375 17.28125 19.8125 11.734375 
Q 24.65625 6.203125 33.40625 6.203125 
Q 37.3125 6.203125 41.140625 7.25 
Q 44.96875 8.296875 48.78125 10.40625 
L 48.78125 2.09375 
Q 45.015625 0.34375 40.984375 -0.53125 
Q 36.96875 -1.421875 32.421875 -1.421875 
Q 20.0625 -1.421875 12.78125 6.34375 
Q 5.515625 14.109375 5.515625 27.296875 
Q 5.515625 40.671875 12.859375 48.328125 
Q 20.21875 56 33.015625 56 
Q 37.15625 56 41.109375 55.140625 
Q 45.0625 54.296875 48.78125 52.59375 
z
" id="DejaVuSans-63"/>
      <path d="M 56.203125 29.59375 
L 56.203125 25.203125 
L 14.890625 25.203125 
Q 15.484375 15.921875 20.484375 11.0625 
Q 25.484375 6.203125 34.421875 6.203125 
Q 39.59375 6.203125 44.453125 7.46875 
Q 49.3125 8.734375 54.109375 11.28125 
L 54.109375 2.78125 
Q 49.265625 0.734375 44.1875 -0.34375 
Q 39.109375 -1.421875 33.890625 -1.421875 
Q 20.796875 -1.421875 13.15625 6.1875 
Q 5.515625 13.8125 5.515625 26.8125 
Q 5.515625 40.234375 12.765625 48.109375 
Q 20.015625 56 32.328125 56 
Q 43.359375 56 49.78125 48.890625 
Q 56.203125 41.796875 56.203125 29.59375 
z
M 47.21875 32.234375 
Q 47.125 39.59375 43.09375 43.984375 
Q 39.0625 48.390625 32.421875 48.390625 
Q 24.90625 48.390625 20.390625 44.140625 
Q 15.875 39.890625 15.1875 32.171875 
z
" id="DejaVuSans-65"/>
      <path id="DejaVuSans-20"/>
      <path d="M -0.296875 72.90625 
L 61.375 72.90625 
L 61.375 64.59375 
L 35.5 64.59375 
L 35.5 0 
L 25.59375 0 
L 25.59375 64.59375 
L -0.296875 64.59375 
z
" id="DejaVuSans-54"/>
      <path d="M 9.421875 54.6875 
L 18.40625 54.6875 
L 18.40625 0 
L 9.421875 0 
z
M 9.421875 75.984375 
L 18.40625 75.984375 
L 18.40625 64.59375 
L 9.421875 64.59375 
z
" id="DejaVuSans-69"/>
      <path d="M 52 44.1875 
Q 55.375 50.25 60.0625 53.125 
Q 64.75 56 71.09375 56 
Q 79.640625 56 84.28125 50.015625 
Q 88.921875 44.046875 88.921875 33.015625 
L 88.921875 0 
L 79.890625 0 
L 79.890625 32.71875 
Q 79.890625 40.578125 77.09375 44.375 
Q 74.3125 48.1875 68.609375 48.1875 
Q 61.625 48.1875 57.5625 43.546875 
Q 53.515625 38.921875 53.515625 30.90625 
L 53.515625 0 
L 44.484375 0 
L 44.484375 32.71875 
Q 44.484375 40.625 41.703125 44.40625 
Q 38.921875 48.1875 33.109375 48.1875 
Q 26.21875 48.1875 22.15625 43.53125 
Q 18.109375 38.875 18.109375 30.90625 
L 18.109375 0 
L 9.078125 0 
L 9.078125 54.6875 
L 18.109375 54.6875 
L 18.109375 46.1875 
Q 21.1875 51.21875 25.484375 53.609375 
Q 29.78125 56 35.6875 56 
Q 41.65625 56 45.828125 52.96875 
Q 50 49.953125 52 44.1875 
z
" id="DejaVuSans-6d"/>
      <path d="M 8.59375 75.984375 
L 29.296875 75.984375 
L 29.296875 69 
L 17.578125 69 
L 17.578125 -6.203125 
L 29.296875 -6.203125 
L 29.296875 -13.1875 
L 8.59375 -13.1875 
z
" id="DejaVuSans-5b"/>
      <path d="M 54.890625 33.015625 
L 54.890625 0 
L 45.90625 0 
L 45.90625 32.71875 
Q 45.90625 40.484375 42.875 44.328125 
Q 39.84375 48.1875 33.796875 48.1875 
Q 26.515625 48.1875 22.3125 43.546875 
Q 18.109375 38.921875 18.109375 30.90625 
L 18.109375 0 
L 9.078125 0 
L 9.078125 75.984375 
L 18.109375 75.984375 
L 18.109375 46.1875 
Q 21.34375 51.125 25.703125 53.5625 
Q 30.078125 56 35.796875 56 
Q 45.21875 56 50.046875 50.171875 
Q 54.890625 44.34375 54.890625 33.015625 
z
" id="DejaVuSans-68"/>
      <path d="M 41.109375 46.296875 
Q 39.59375 47.171875 37.8125 47.578125 
Q 36.03125 48 33.890625 48 
Q 26.265625 48 22.1875 43.046875 
Q 18.109375 38.09375 18.109375 28.8125 
L 18.109375 0 
L 9.078125 0 
L 9.078125 54.6875 
L 18.109375 54.6875 
L 18.109375 46.1875 
Q 20.953125 51.171875 25.484375 53.578125 
Q 30.03125 56 36.53125 56 
Q 37.453125 56 38.578125 55.875 
Q 39.703125 55.765625 41.0625 55.515625 
z
" id="DejaVuSans-72"/>
      <path d="M 30.421875 75.984375 
L 30.421875 -13.1875 
L 9.71875 -13.1875 
L 9.71875 -6.203125 
L 21.390625 -6.203125 
L 21.390625 69 
L 9.71875 69 
L 9.71875 75.984375 
z
" id="DejaVuSans-5d"/>
     </defs>
     <g transform="translate(338.571094 418.316562)scale(0.1 -0.1)">
      <use xlink:href="#DejaVuSans-52"/>
      <use x="69.451172" xlink:href="#DejaVuSans-61"/>
      <use x="130.730469" xlink:href="#DejaVuSans-63"/>
      <use x="185.710938" xlink:href="#DejaVuSans-65"/>
      <use x="247.234375" xlink:href="#DejaVuSans-20"/>
      <use x="279.021484" xlink:href="#DejaVuSans-54"/>
      <use x="340.058594" xlink:href="#DejaVuSans-69"/>
      <use x="367.841797" xlink:href="#DejaVuSans-6d"/>
      <use x="465.253906" xlink:href="#DejaVuSans-65"/>
      <use x="526.777344" xlink:href="#DejaVuSans-20"/>
      <use x="558.564453" xlink:href="#DejaVuSans-5b"/>
      <use x="597.578125" xlink:href="#DejaVuSans-68"/>
      <use x="660.957031" xlink:href="#DejaVuSans-72"/>
      <use x="702.070312" xlink:href="#DejaVuSans-5d"/>
     </g>
    </g>
   </g>
   <g id="matplotlib.axis_2">
    <g id="ytick_1">
     <g id="line2d_17">
      <path clip-path="url(#pbdc157a7ae)" d="M 44.57 38.06684 
L 706.68 38.06684 
" style="fill:none;stroke:#b0b0b0;stroke-linecap:square;stroke-width:0.8;"/>
     </g>
     <g id="line2d_18">
      <defs>
       <path d="M 0 0 
L -3.5 0 
" id="mb93bd84d86" style="stroke:#000000;stroke-width:0.8;"/>
      </defs>
      <g>
       <use style="stroke:#000000;stroke-width:0.8;" x="44.57" xlink:href="#mb93bd84d86" y="38.06684"/>
      </g>
     </g>
     <g id="text_10">
      <!-- 0 -->
      <g transform="translate(31.2075 41.866059)scale(0.1 -0.1)">
       <use xlink:href="#DejaVuSans-30"/>
      </g>
     </g>
    </g>
    <g id="ytick_2">
     <g id="line2d_19">
      <path clip-path="url(#pbdc157a7ae)" d="M 44.57 116.984589 
L 706.68 116.984589 
" style="fill:none;stroke:#b0b0b0;stroke-linecap:square;stroke-width:0.8;"/>
     </g>
     <g id="line2d_20">
      <g>
       <use style="stroke:#000000;stroke-width:0.8;" x="44.57" xlink:href="#mb93bd84d86" y="116.984589"/>
      </g>
     </g>
     <g id="text_11">
      <!-- 20 -->
      <g transform="translate(24.845 120.783807)scale(0.1 -0.1)">
       <use xlink:href="#DejaVuSans-32"/>
       <use x="63.623047" xlink:href="#DejaVuSans-30"/>
      </g>
     </g>
    </g>
    <g id="ytick_3">
     <g id="line2d_21">
      <path clip-path="url(#pbdc157a7ae)" d="M 44.57 195.902338 
L 706.68 195.902338 
" style="fill:none;stroke:#b0b0b0;stroke-linecap:square;stroke-width:0.8;"/>
     </g>
     <g id="line2d_22">
      <g>
       <use style="stroke:#000000;stroke-width:0.8;" x="44.57" xlink:href="#mb93bd84d86" y="195.902338"/>
      </g>
     </g>
     <g id="text_12">
      <!-- 40 -->
      <g transform="translate(24.845 199.701556)scale(0.1 -0.1)">
       <use xlink:href="#DejaVuSans-34"/>
       <use x="63.623047" xlink:href="#DejaVuSans-30"/>
      </g>
     </g>
    </g>
    <g id="ytick_4">
     <g id="line2d_23">
      <path clip-path="url(#pbdc157a7ae)" d="M 44.57 274.820087 
L 706.68 274.820087 
" style="fill:none;stroke:#b0b0b0;stroke-linecap:square;stroke-width:0.8;"/>
     </g>
     <g id="line2d_24">
      <g>
       <use style="stroke:#000000;stroke-width:0.8;" x="44.57" xlink:href="#mb93bd84d86" y="274.820087"/>
      </g>
     </g>
     <g id="text_13">
      <!-- 60 -->
      <g transform="translate(24.845 278.619305)scale(0.1 -0.1)">
       <use xlink:href="#DejaVuSans-36"/>
       <use x="63.623047" xlink:href="#DejaVuSans-30"/>
      </g>
     </g>
    </g>
    <g id="ytick_5">
     <g id="line2d_25">
      <path clip-path="url(#pbdc157a7ae)" d="M 44.57 353.737835 
L 706.68 353.737835 
" style="fill:none;stroke:#b0b0b0;stroke-linecap:square;stroke-width:0.8;"/>
     </g>
     <g id="line2d_26">
      <g>
       <use style="stroke:#000000;stroke-width:0.8;" x="44.57" xlink:href="#mb93bd84d86" y="353.737835"/>
      </g>
     </g>
     <g id="text_14">
      <!-- 80 -->
      <g transform="translate(24.845 357.537054)scale(0.1 -0.1)">
       <use xlink:href="#DejaVuSans-38"/>
       <use x="63.623047" xlink:href="#DejaVuSans-30"/>
      </g>
     </g>
    </g>
    <g id="text_15">
     <!-- Race Position -->
     <defs>
      <path d="M 19.671875 64.796875 
L 19.671875 37.40625 
L 32.078125 37.40625 
Q 38.96875 37.40625 42.71875 40.96875 
Q 46.484375 44.53125 46.484375 51.125 
Q 46.484375 57.671875 42.71875 61.234375 
Q 38.96875 64.796875 32.078125 64.796875 
z
M 9.8125 72.90625 
L 32.078125 72.90625 
Q 44.34375 72.90625 50.609375 67.359375 
Q 56.890625 61.8125 56.890625 51.125 
Q 56.890625 40.328125 50.609375 34.8125 
Q 44.34375 29.296875 32.078125 29.296875 
L 19.671875 29.296875 
L 19.671875 0 
L 9.8125 0 
z
" id="DejaVuSans-50"/>
      <path d="M 30.609375 48.390625 
Q 23.390625 48.390625 19.1875 42.75 
Q 14.984375 37.109375 14.984375 27.296875 
Q 14.984375 17.484375 19.15625 11.84375 
Q 23.34375 6.203125 30.609375 6.203125 
Q 37.796875 6.203125 41.984375 11.859375 
Q 46.1875 17.53125 46.1875 27.296875 
Q 46.1875 37.015625 41.984375 42.703125 
Q 37.796875 48.390625 30.609375 48.390625 
z
M 30.609375 56 
Q 42.328125 56 49.015625 48.375 
Q 55.71875 40.765625 55.71875 27.296875 
Q 55.71875 13.875 49.015625 6.21875 
Q 42.328125 -1.421875 30.609375 -1.421875 
Q 18.84375 -1.421875 12.171875 6.21875 
Q 5.515625 13.875 5.515625 27.296875 
Q 5.515625 40.765625 12.171875 48.375 
Q 18.84375 56 30.609375 56 
z
" id="DejaVuSans-6f"/>
      <path d="M 44.28125 53.078125 
L 44.28125 44.578125 
Q 40.484375 46.53125 36.375 47.5 
Q 32.28125 48.484375 27.875 48.484375 
Q 21.1875 48.484375 17.84375 46.4375 
Q 14.5 44.390625 14.5 40.28125 
Q 14.5 37.15625 16.890625 35.375 
Q 19.28125 33.59375 26.515625 31.984375 
L 29.59375 31.296875 
Q 39.15625 29.25 43.1875 25.515625 
Q 47.21875 21.78125 47.21875 15.09375 
Q 47.21875 7.46875 41.1875 3.015625 
Q 35.15625 -1.421875 24.609375 -1.421875 
Q 20.21875 -1.421875 15.453125 -0.5625 
Q 10.6875 0.296875 5.421875 2 
L 5.421875 11.28125 
Q 10.40625 8.6875 15.234375 7.390625 
Q 20.0625 6.109375 24.8125 6.109375 
Q 31.15625 6.109375 34.5625 8.28125 
Q 37.984375 10.453125 37.984375 14.40625 
Q 37.984375 18.0625 35.515625 20.015625 
Q 33.0625 21.96875 24.703125 23.78125 
L 21.578125 24.515625 
Q 13.234375 26.265625 9.515625 29.90625 
Q 5.8125 33.546875 5.8125 39.890625 
Q 5.8125 47.609375 11.28125 51.796875 
Q 16.75 56 26.8125 56 
Q 31.78125 56 36.171875 55.265625 
Q 40.578125 54.546875 44.28125 53.078125 
z
" id="DejaVuSans-73"/>
      <path d="M 18.3125 70.21875 
L 18.3125 54.6875 
L 36.8125 54.6875 
L 36.8125 47.703125 
L 18.3125 47.703125 
L 18.3125 18.015625 
Q 18.3125 11.328125 20.140625 9.421875 
Q 21.96875 7.515625 27.59375 7.515625 
L 36.8125 7.515625 
L 36.8125 0 
L 27.59375 0 
Q 17.1875 0 13.234375 3.875 
Q 9.28125 7.765625 9.28125 18.015625 
L 9.28125 47.703125 
L 2.6875 47.703125 
L 2.6875 54.6875 
L 9.28125 54.6875 
L 9.28125 70.21875 
z
" id="DejaVuSans-74"/>
      <path d="M 54.890625 33.015625 
L 54.890625 0 
L 45.90625 0 
L 45.90625 32.71875 
Q 45.90625 40.484375 42.875 44.328125 
Q 39.84375 48.1875 33.796875 48.1875 
Q 26.515625 48.1875 22.3125 43.546875 
Q 18.109375 38.921875 18.109375 30.90625 
L 18.109375 0 
L 9.078125 0 
L 9.078125 54.6875 
L 18.109375 54.6875 
L 18.109375 46.1875 
Q 21.34375 51.125 25.703125 53.5625 
Q 30.078125 56 35.796875 56 
Q 45.21875 56 50.046875 50.171875 
Q 54.890625 44.34375 54.890625 33.015625 
z
" id="DejaVuSans-6e"/>
     </defs>
     <g transform="translate(18.765312 241.334531)rotate(-90)scale(0.1 -0.1)">
      <use xlink:href="#DejaVuSans-52"/>
      <use x="69.451172" xlink:href="#DejaVuSans-61"/>
      <use x="130.730469" xlink:href="#DejaVuSans-63"/>
      <use x="185.710938" xlink:href="#DejaVuSans-65"/>
      <use x="247.234375" xlink:href="#DejaVuSans-20"/>
      <use x="279.021484" xlink:href="#DejaVuSans-50"/>
      <use x="339.277344" xlink:href="#DejaVuSans-6f"/>
      <use x="400.458984" xlink:href="#DejaVuSans-73"/>
      <use x="452.558594" xlink:href="#DejaVuSans-69"/>
      <use x="480.341797" xlink:href="#DejaVuSans-74"/>
      <use x="519.550781" xlink:href="#DejaVuSans-69"/>
      <use x="547.333984" xlink:href="#DejaVuSans-6f"/>
      <use x="608.515625" xlink:href="#DejaVuSans-6e"/>
     </g>
    </g>
   </g>
   <g id="line2d_27">
    <path clip-path="url(#pbdc157a7ae)" d="M 74.665909 160.389351 
L 77.234153 148.551688 
L 78.606881 128.822251 
L 79.966965 113.038701 
L 81.302095 113.038701 
L 82.672074 101.201039 
L 84.11712 85.417489 
L 85.432518 81.471602 
L 86.738487 81.471602 
L 88.037201 85.417489 
L 89.368291 81.471602 
L 94.639947 81.471602 
L 97.338041 73.579827 
L 102.677975 73.579827 
L 104.060252 69.633939 
L 105.373882 69.633939 
L 106.687941 65.688052 
L 109.285645 65.688052 
L 110.536077 61.742165 
L 113.171737 61.742165 
L 115.717358 53.85039 
L 120.759455 53.85039 
L 122.04715 49.904502 
L 123.331977 49.904502 
L 124.687986 53.85039 
L 131.149278 53.85039 
L 132.469851 49.904502 
L 145.599382 49.904502 
L 146.951781 53.85039 
L 148.272665 53.85039 
L 149.597863 57.796277 
L 150.87105 57.796277 
L 152.21206 49.904502 
L 153.523454 49.904502 
L 155.188354 53.85039 
L 160.103589 73.579827 
L 161.455188 65.688052 
L 162.780422 65.688052 
L 164.085351 61.742165 
L 165.410824 61.742165 
L 166.714666 53.85039 
L 233.268628 53.85039 
L 234.529768 49.904502 
L 238.283811 49.904502 
L 239.893843 45.958615 
L 244.781722 53.85039 
L 249.04754 53.85039 
L 250.404756 57.796277 
L 251.759175 53.85039 
L 316.345525 53.85039 
L 318.99885 49.904502 
L 323.088711 49.904502 
L 324.427736 45.958615 
L 331.337091 45.958615 
L 336.213509 65.688052 
L 341.469616 65.688052 
L 344.085964 57.796277 
L 348.004265 57.796277 
L 349.36393 53.85039 
L 351.946205 53.85039 
L 353.249772 49.904502 
L 355.876457 49.904502 
L 357.168455 53.85039 
L 384.269551 53.85039 
L 385.588667 49.904502 
L 390.899678 49.904502 
L 392.184063 45.958615 
L 421.453157 45.958615 
L 426.451107 49.904502 
L 440.624038 49.904502 
L 441.949523 45.958615 
L 510.824125 45.958615 
L 515.756821 49.904502 
L 517.077525 53.85039 
L 540.628562 53.85039 
L 541.941893 49.904502 
L 568.574286 49.904502 
L 569.9016 45.958615 
L 572.531321 45.958615 
L 573.894441 42.012727 
L 675.77154 42.012727 
L 675.77154 42.012727 
" style="fill:none;stroke:#1f77b4;stroke-linecap:square;stroke-width:1.5;"/>
   </g>
   <g id="line2d_28">
    <path clip-path="url(#pbdc157a7ae)" d="M 74.665909 42.012727 
L 77.316688 61.742165 
L 78.78597 65.688052 
L 80.202595 73.579827 
L 81.619866 85.417489 
L 82.985423 81.471602 
L 84.468282 81.471602 
L 85.820359 85.417489 
L 87.230279 97.255152 
L 92.579248 97.255152 
L 93.912931 101.201039 
L 95.292292 101.201039 
L 96.642947 97.255152 
L 97.941159 97.255152 
L 99.25541 93.309264 
L 101.925873 93.309264 
L 103.34753 97.255152 
L 107.420156 97.255152 
L 108.765158 93.309264 
L 111.439732 93.309264 
L 112.732387 89.363377 
L 115.304145 89.363377 
L 116.6417 81.471602 
L 119.223975 81.471602 
L 120.519032 85.417489 
L 121.804051 85.417489 
L 123.09569 81.471602 
L 129.631785 81.471602 
L 130.944446 85.417489 
L 132.235057 85.417489 
L 134.8036 77.525714 
L 139.950127 77.525714 
L 141.261689 73.579827 
L 149.240618 73.579827 
L 150.620039 69.633939 
L 152.102921 69.633939 
L 156.93506 97.255152 
L 159.75704 97.255152 
L 162.425901 81.471602 
L 165.042547 73.579827 
L 166.345935 73.579827 
L 168.980257 65.688052 
L 192.785173 65.688052 
L 195.513946 73.579827 
L 196.80494 69.633939 
L 198.116621 69.633939 
L 199.403026 65.688052 
L 200.725655 65.688052 
L 202.051283 61.742165 
L 211.930634 61.742165 
L 214.199799 57.796277 
L 227.098408 57.796277 
L 232.027399 85.417489 
L 237.305545 85.417489 
L 238.629978 81.471602 
L 241.220487 81.471602 
L 245.134653 69.633939 
L 249.024534 69.633939 
L 251.636017 61.742165 
L 254.246903 61.742165 
L 255.540144 57.796277 
L 302.833843 57.796277 
L 304.355842 61.742165 
L 308.753434 77.525714 
L 310.496064 77.525714 
L 313.479768 73.579827 
L 316.583235 65.688052 
L 327.186303 65.688052 
L 328.469876 61.742165 
L 341.5835 61.742165 
L 344.150214 53.85039 
L 348.141979 53.85039 
L 349.415464 49.904502 
L 351.9719 49.904502 
L 353.287191 45.958615 
L 362.466165 45.958615 
L 363.736626 49.904502 
L 384.584621 49.904502 
L 386.07342 53.85039 
L 391.187905 57.796277 
L 395.174519 57.796277 
L 396.4835 53.85039 
L 399.108763 53.85039 
L 400.421209 49.904502 
L 425.345572 49.904502 
L 426.652126 45.958615 
L 440.991598 45.958615 
L 442.327492 49.904502 
L 462.378066 49.904502 
L 468.340252 53.85039 
L 516.141674 53.85039 
L 517.44083 49.904502 
L 540.95875 49.904502 
L 546.271028 53.85039 
L 573.113369 53.85039 
L 574.426544 49.904502 
L 578.435244 49.904502 
L 579.753654 45.958615 
L 676.584091 45.958615 
L 676.584091 45.958615 
" style="fill:none;stroke:#ff7f0e;stroke-linecap:square;stroke-width:1.5;"/>
   </g>
   <g id="line2d_29">
    <path clip-path="url(#pbdc157a7ae)" d="M 74.665909 357.683723 
L 80.324474 357.683723 
L 81.633765 345.846061 
L 82.985662 341.900173 
L 84.33756 330.062511 
L 87.05603 322.170736 
L 88.389917 326.116623 
L 89.78209 326.116623 
L 91.127976 322.170736 
L 92.447497 306.387186 
L 93.759681 310.333074 
L 95.112427 306.387186 
L 96.430586 306.387186 
L 97.852457 302.441299 
L 100.573856 302.441299 
L 101.916193 298.495411 
L 103.261744 298.495411 
L 107.260416 286.657749 
L 108.579591 251.144762 
L 109.867167 251.144762 
L 111.170423 235.361212 
L 115.122486 223.52355 
L 116.430331 223.52355 
L 117.744009 219.577662 
L 119.046488 219.577662 
L 121.690825 203.794113 
L 122.997499 199.848225 
L 125.62661 199.848225 
L 126.96125 191.95645 
L 129.54527 191.95645 
L 130.842454 180.118788 
L 132.1522 176.1729 
L 133.452504 168.281126 
L 134.763898 164.335238 
L 136.077098 152.497576 
L 137.394372 148.551688 
L 138.754659 148.551688 
L 144.021643 116.984589 
L 146.76257 116.984589 
L 148.082904 113.038701 
L 149.406393 105.146926 
L 151.09976 101.201039 
L 157.488735 180.118788 
L 158.846991 180.118788 
L 160.188765 172.227013 
L 161.545455 160.389351 
L 162.889632 160.389351 
L 164.186482 156.443463 
L 166.781927 156.443463 
L 169.370942 148.551688 
L 174.60041 148.551688 
L 175.927007 144.605801 
L 179.819935 144.605801 
L 182.367767 136.714026 
L 183.635073 136.714026 
L 184.960953 132.768139 
L 186.2516 132.768139 
L 187.556338 128.822251 
L 196.864875 128.822251 
L 198.126158 120.930476 
L 199.406217 120.930476 
L 200.713154 113.038701 
L 202.00159 113.038701 
L 203.277466 109.092814 
L 204.581869 109.092814 
L 206.91612 105.146926 
L 213.898688 105.146926 
L 216.474306 97.255152 
L 225.616541 97.255152 
L 226.921972 93.309264 
L 237.221504 93.309264 
L 238.511625 85.417489 
L 239.849827 81.471602 
L 241.307851 77.525714 
L 246.33661 97.255152 
L 259.638311 97.255152 
L 260.960139 93.309264 
L 275.192456 93.309264 
L 277.8116 85.417489 
L 280.382581 85.417489 
L 281.6831 81.471602 
L 307.005163 81.471602 
L 312.835753 73.579827 
L 317.756127 93.309264 
L 325.675945 93.309264 
L 328.300133 85.417489 
L 330.931575 85.417489 
L 332.269967 89.363377 
L 333.602049 89.363377 
L 334.938135 81.471602 
L 340.182865 81.471602 
L 342.815789 73.579827 
L 346.789018 73.579827 
L 348.091305 65.688052 
L 349.416181 61.742165 
L 359.916266 61.742165 
L 361.221195 57.796277 
L 384.895986 57.796277 
L 386.192717 53.85039 
L 390.100226 53.85039 
L 391.404641 49.904502 
L 394.149571 49.904502 
L 399.032467 77.525714 
L 400.350016 73.579827 
L 413.531654 73.579827 
L 414.846837 69.633939 
L 416.138823 61.742165 
L 423.939201 61.742165 
L 425.233852 57.796277 
L 459.760643 57.796277 
L 464.715114 61.742165 
L 483.847213 61.742165 
L 485.146322 57.796277 
L 572.320155 57.796277 
L 573.624594 53.85039 
L 577.75228 53.85039 
L 579.110631 49.904502 
L 672.996349 49.904502 
L 672.996349 49.904502 
" style="fill:none;stroke:#2ca02c;stroke-linecap:square;stroke-width:1.5;"/>
   </g>
   <g id="line2d_30">
    <path clip-path="url(#pbdc157a7ae)" d="M 74.665909 373.467273 
L 76.005377 124.876364 
L 77.361374 124.876364 
L 78.723597 120.930476 
L 80.011328 113.038701 
L 86.710628 113.038701 
L 88.001682 105.146926 
L 89.345273 105.146926 
L 91.961525 97.255152 
L 93.291564 97.255152 
L 94.584076 93.309264 
L 97.217681 93.309264 
L 98.506715 89.363377 
L 99.78014 89.363377 
L 102.293743 81.471602 
L 103.552863 81.471602 
L 104.843403 77.525714 
L 106.130836 77.525714 
L 107.423969 73.579827 
L 115.19693 73.579827 
L 116.470499 69.633939 
L 117.770062 73.579827 
L 121.685758 73.579827 
L 122.989946 69.633939 
L 125.591701 69.633939 
L 126.901805 65.688052 
L 129.481845 65.688052 
L 130.913492 69.633939 
L 136.087101 116.984589 
L 140.107429 93.309264 
L 141.532324 93.309264 
L 144.197684 77.525714 
L 146.809394 69.633939 
L 148.105731 69.633939 
L 149.420173 61.742165 
L 175.849922 61.742165 
L 177.142039 57.796277 
L 193.609902 57.796277 
L 201.06391 93.309264 
L 208.929385 93.309264 
L 210.23294 89.363377 
L 220.490105 89.363377 
L 221.766793 85.417489 
L 223.016268 85.417489 
L 226.946532 73.579827 
L 230.97237 73.579827 
L 233.536933 65.688052 
L 236.14452 65.688052 
L 237.43751 61.742165 
L 250.932115 61.742165 
L 252.254445 65.688052 
L 256.172375 65.688052 
L 257.4842 61.742165 
L 261.417332 61.742165 
L 262.991857 65.688052 
L 268.319277 93.309264 
L 289.285852 93.309264 
L 290.616357 89.363377 
L 295.36492 89.363377 
L 298.424777 85.417489 
L 301.114708 81.471602 
L 302.509021 77.525714 
L 310.37648 77.525714 
L 311.731939 73.579827 
L 317.016945 73.579827 
L 318.341474 77.525714 
L 319.644586 73.579827 
L 324.9414 73.579827 
L 327.585426 65.688052 
L 331.594054 65.688052 
L 334.202514 57.796277 
L 345.250693 57.796277 
L 350.364725 73.579827 
L 354.397877 73.579827 
L 355.737739 77.525714 
L 383.679269 77.525714 
L 384.993436 73.579827 
L 386.376837 77.525714 
L 399.546835 77.525714 
L 400.835952 73.579827 
L 402.147251 65.688052 
L 410.028885 65.688052 
L 411.400335 61.742165 
L 415.600768 61.742165 
L 420.008578 69.633939 
L 422.615974 69.633939 
L 423.943957 65.688052 
L 471.782811 65.688052 
L 473.022916 61.742165 
L 492.191766 61.742165 
L 498.814004 73.579827 
L 502.844886 73.579827 
L 504.204276 69.633939 
L 521.449351 69.633939 
L 522.74883 65.688052 
L 527.936075 65.688052 
L 529.267727 61.742165 
L 533.526948 61.742165 
L 537.947271 69.633939 
L 542.217798 69.633939 
L 543.592188 73.579827 
L 545.037771 69.633939 
L 546.389656 69.633939 
L 547.793218 65.688052 
L 564.144689 65.688052 
L 565.521911 61.742165 
L 569.494422 61.742165 
L 570.871549 57.796277 
L 575.026949 57.796277 
L 576.340818 53.85039 
L 588.538226 53.85039 
L 593.644083 65.688052 
L 608.466981 65.688052 
L 609.761178 61.742165 
L 611.191535 57.796277 
L 612.532389 57.796277 
L 613.850799 53.85039 
L 658.430354 53.85039 
L 658.430354 53.85039 
" style="fill:none;stroke:#d62728;stroke-linecap:square;stroke-width:1.5;"/>
   </g>
   <g id="line2d_31">
    <path clip-path="url(#pbdc157a7ae)" d="M 74.665909 207.74 
L 77.103383 199.848225 
L 79.832789 136.714026 
L 81.198454 136.714026 
L 82.598455 124.876364 
L 85.288554 109.092814 
L 87.935831 101.201039 
L 89.283031 93.309264 
L 90.603975 89.363377 
L 94.643605 89.363377 
L 95.986491 85.417489 
L 110.674579 85.417489 
L 111.969828 81.471602 
L 114.611906 81.471602 
L 115.890065 77.525714 
L 118.475602 77.525714 
L 119.773181 73.579827 
L 121.055737 73.579827 
L 122.328996 69.633939 
L 130.106284 69.633939 
L 131.411141 65.688052 
L 132.699924 65.688052 
L 133.978895 61.742165 
L 136.562687 61.742165 
L 137.87205 65.688052 
L 143.195419 65.688052 
L 144.522147 69.633939 
L 147.120245 69.633939 
L 149.725359 61.742165 
L 151.06362 61.742165 
L 152.610836 57.796277 
L 159.735444 128.822251 
L 161.131346 124.876364 
L 162.542413 113.038701 
L 163.92383 113.038701 
L 165.295925 109.092814 
L 166.657491 109.092814 
L 168.037713 105.146926 
L 172.1602 105.146926 
L 173.514643 109.092814 
L 193.932095 109.092814 
L 195.285044 105.146926 
L 199.318925 105.146926 
L 200.686813 101.201039 
L 204.669866 101.201039 
L 206.009573 97.255152 
L 210.740377 97.255152 
L 212.726537 93.309264 
L 216.321127 93.309264 
L 217.845086 85.417489 
L 229.94251 85.417489 
L 231.278847 81.471602 
L 236.690667 81.471602 
L 239.400079 89.363377 
L 242.123736 89.363377 
L 243.691293 85.417489 
L 249.807852 124.876364 
L 251.104284 124.876364 
L 252.40454 113.038701 
L 257.60229 113.038701 
L 258.972939 109.092814 
L 260.490432 105.146926 
L 267.066157 105.146926 
L 268.404274 101.201039 
L 290.681634 101.201039 
L 291.999494 97.255152 
L 313.607264 97.255152 
L 316.48251 93.309264 
L 319.04191 89.363377 
L 320.370264 85.417489 
L 328.312227 85.417489 
L 329.877047 81.471602 
L 334.759261 93.309264 
L 336.122656 97.255152 
L 340.175109 97.255152 
L 341.493567 89.363377 
L 342.79785 85.417489 
L 348.141656 85.417489 
L 349.451222 81.471602 
L 357.291421 81.471602 
L 358.592526 77.525714 
L 366.49309 77.525714 
L 367.784741 69.633939 
L 400.561385 69.633939 
L 401.830652 65.688052 
L 416.249133 65.688052 
L 417.738529 61.742165 
L 422.962225 81.471602 
L 424.380487 81.471602 
L 425.776353 77.525714 
L 431.330273 77.525714 
L 432.739799 73.579827 
L 434.163738 77.525714 
L 448.143789 77.525714 
L 449.59438 81.471602 
L 467.961028 81.471602 
L 470.192415 77.525714 
L 493.935316 77.525714 
L 495.334349 73.579827 
L 506.596383 73.579827 
L 511.518347 85.417489 
L 512.862942 81.471602 
L 535.364052 81.471602 
L 536.69335 77.525714 
L 548.966684 77.525714 
L 550.425688 73.579827 
L 559.835595 73.579827 
L 562.555584 65.688052 
L 563.931025 65.688052 
L 565.307458 61.742165 
L 581.550854 61.742165 
L 582.915407 57.796277 
L 586.929796 57.796277 
L 588.279578 53.85039 
L 592.476736 53.85039 
L 594.104647 57.796277 
L 598.516831 61.742165 
L 606.767327 61.742165 
L 608.116572 65.688052 
L 609.447973 65.688052 
L 610.810088 61.742165 
L 625.830409 61.742165 
L 628.564798 53.85039 
L 630.055497 53.85039 
L 631.479305 57.796277 
L 675.782917 57.796277 
L 675.782917 57.796277 
" style="fill:none;stroke:#9467bd;stroke-linecap:square;stroke-width:1.5;"/>
   </g>
   <g id="patch_3">
    <path d="M 44.57 390.04 
L 44.57 25.44 
" style="fill:none;stroke:#000000;stroke-linecap:square;stroke-linejoin:miter;stroke-width:0.8;"/>
   </g>
   <g id="patch_4">
    <path d="M 706.68 390.04 
L 706.68 25.44 
" style="fill:none;stroke:#000000;stroke-linecap:square;stroke-linejoin:miter;stroke-width:0.8;"/>
   </g>
   <g id="patch_5">
    <path d="M 44.57 390.04 
L 706.68 390.04 
" style="fill:none;stroke:#000000;stroke-linecap:square;stroke-linejoin:miter;stroke-width:0.8;"/>
   </g>
   <g id="patch_6">
    <path d="M 44.57 25.44 
L 706.68 25.44 
" style="fill:none;stroke:#000000;stroke-linecap:square;stroke-linejoin:miter;stroke-width:0.8;"/>
   </g>
   <g id="text_16">
    <!-- Race Position -->
    <g transform="translate(335.311562 19.44)scale(0.12 -0.12)">
     <use xlink:href="#DejaVuSans-52"/>
     <use x="69.451172" xlink:href="#DejaVuSans-61"/>
     <use x="130.730469" xlink:href="#DejaVuSans-63"/>
     <use x="185.710938" xlink:href="#DejaVuSans-65"/>
     <use x="247.234375" xlink:href="#DejaVuSans-20"/>
     <use x="279.021484" xlink:href="#DejaVuSans-50"/>
     <use x="339.277344" xlink:href="#DejaVuSans-6f"/>
     <use x="400.458984" xlink:href="#DejaVuSans-73"/>
     <use x="452.558594" xlink:href="#DejaVuSans-69"/>
     <use x="480.341797" xlink:href="#DejaVuSans-74"/>
     <use x="519.550781" xlink:href="#DejaVuSans-69"/>
     <use x="547.333984" xlink:href="#DejaVuSans-6f"/>
     <use x="608.515625" xlink:href="#DejaVuSans-6e"/>
    </g>
   </g>
   <g id="legend_1">
    <g id="patch_7">
     <path d="M 562.4875 386.04 
L 701.08 386.04 
Q 702.68 386.04 702.68 384.44 
L 702.68 326.5275 
Q 702.68 324.9275 701.08 324.9275 
L 562.4875 324.9275 
Q 560.8875 324.9275 560.8875 326.5275 
L 560.8875 384.44 
Q 560.8875 386.04 562.4875 386.04 
z
" style="fill:#ffffff;opacity:0.8;stroke:#cccccc;stroke-linejoin:miter;"/>
    </g>
    <g id="line2d_32">
     <path d="M 564.0875 331.40625 
L 580.0875 331.40625 
" style="fill:none;stroke:#1f77b4;stroke-linecap:square;stroke-width:1.5;"/>
    </g>
    <g id="line2d_33"/>
    <g id="text_17">
     <!-- #146 Huggins (Pinkies Out) -->
     <defs>
      <path d="M 51.125 44 
L 36.921875 44 
L 32.8125 27.6875 
L 47.125 27.6875 
z
M 43.796875 71.78125 
L 38.71875 51.515625 
L 52.984375 51.515625 
L 58.109375 71.78125 
L 65.921875 71.78125 
L 60.890625 51.515625 
L 76.125 51.515625 
L 76.125 44 
L 58.984375 44 
L 54.984375 27.6875 
L 70.515625 27.6875 
L 70.515625 20.21875 
L 53.078125 20.21875 
L 48 0 
L 40.1875 0 
L 45.21875 20.21875 
L 30.90625 20.21875 
L 25.875 0 
L 18.015625 0 
L 23.09375 20.21875 
L 7.71875 20.21875 
L 7.71875 27.6875 
L 24.90625 27.6875 
L 29 44 
L 13.28125 44 
L 13.28125 51.515625 
L 30.90625 51.515625 
L 35.890625 71.78125 
z
" id="DejaVuSans-23"/>
      <path d="M 9.8125 72.90625 
L 19.671875 72.90625 
L 19.671875 43.015625 
L 55.515625 43.015625 
L 55.515625 72.90625 
L 65.375 72.90625 
L 65.375 0 
L 55.515625 0 
L 55.515625 34.71875 
L 19.671875 34.71875 
L 19.671875 0 
L 9.8125 0 
z
" id="DejaVuSans-48"/>
      <path d="M 8.5 21.578125 
L 8.5 54.6875 
L 17.484375 54.6875 
L 17.484375 21.921875 
Q 17.484375 14.15625 20.5 10.265625 
Q 23.53125 6.390625 29.59375 6.390625 
Q 36.859375 6.390625 41.078125 11.03125 
Q 45.3125 15.671875 45.3125 23.6875 
L 45.3125 54.6875 
L 54.296875 54.6875 
L 54.296875 0 
L 45.3125 0 
L 45.3125 8.40625 
Q 42.046875 3.421875 37.71875 1 
Q 33.40625 -1.421875 27.6875 -1.421875 
Q 18.265625 -1.421875 13.375 4.4375 
Q 8.5 10.296875 8.5 21.578125 
z
M 31.109375 56 
z
" id="DejaVuSans-75"/>
      <path d="M 45.40625 27.984375 
Q 45.40625 37.75 41.375 43.109375 
Q 37.359375 48.484375 30.078125 48.484375 
Q 22.859375 48.484375 18.828125 43.109375 
Q 14.796875 37.75 14.796875 27.984375 
Q 14.796875 18.265625 18.828125 12.890625 
Q 22.859375 7.515625 30.078125 7.515625 
Q 37.359375 7.515625 41.375 12.890625 
Q 45.40625 18.265625 45.40625 27.984375 
z
M 54.390625 6.78125 
Q 54.390625 -7.171875 48.1875 -13.984375 
Q 42 -20.796875 29.203125 -20.796875 
Q 24.46875 -20.796875 20.265625 -20.09375 
Q 16.0625 -19.390625 12.109375 -17.921875 
L 12.109375 -9.1875 
Q 16.0625 -11.328125 19.921875 -12.34375 
Q 23.78125 -13.375 27.78125 -13.375 
Q 36.625 -13.375 41.015625 -8.765625 
Q 45.40625 -4.15625 45.40625 5.171875 
L 45.40625 9.625 
Q 42.625 4.78125 38.28125 2.390625 
Q 33.9375 0 27.875 0 
Q 17.828125 0 11.671875 7.65625 
Q 5.515625 15.328125 5.515625 27.984375 
Q 5.515625 40.671875 11.671875 48.328125 
Q 17.828125 56 27.875 56 
Q 33.9375 56 38.28125 53.609375 
Q 42.625 51.21875 45.40625 46.390625 
L 45.40625 54.6875 
L 54.390625 54.6875 
z
" id="DejaVuSans-67"/>
      <path d="M 31 75.875 
Q 24.46875 64.65625 21.28125 53.65625 
Q 18.109375 42.671875 18.109375 31.390625 
Q 18.109375 20.125 21.3125 9.0625 
Q 24.515625 -2 31 -13.1875 
L 23.1875 -13.1875 
Q 15.875 -1.703125 12.234375 9.375 
Q 8.59375 20.453125 8.59375 31.390625 
Q 8.59375 42.28125 12.203125 53.3125 
Q 15.828125 64.359375 23.1875 75.875 
z
" id="DejaVuSans-28"/>
      <path d="M 9.078125 75.984375 
L 18.109375 75.984375 
L 18.109375 31.109375 
L 44.921875 54.6875 
L 56.390625 54.6875 
L 27.390625 29.109375 
L 57.625 0 
L 45.90625 0 
L 18.109375 26.703125 
L 18.109375 0 
L 9.078125 0 
z
" id="DejaVuSans-6b"/>
      <path d="M 39.40625 66.21875 
Q 28.65625 66.21875 22.328125 58.203125 
Q 16.015625 50.203125 16.015625 36.375 
Q 16.015625 22.609375 22.328125 14.59375 
Q 28.65625 6.59375 39.40625 6.59375 
Q 50.140625 6.59375 56.421875 14.59375 
Q 62.703125 22.609375 62.703125 36.375 
Q 62.703125 50.203125 56.421875 58.203125 
Q 50.140625 66.21875 39.40625 66.21875 
z
M 39.40625 74.21875 
Q 54.734375 74.21875 63.90625 63.9375 
Q 73.09375 53.65625 73.09375 36.375 
Q 73.09375 19.140625 63.90625 8.859375 
Q 54.734375 -1.421875 39.40625 -1.421875 
Q 24.03125 -1.421875 14.8125 8.828125 
Q 5.609375 19.09375 5.609375 36.375 
Q 5.609375 53.65625 14.8125 63.9375 
Q 24.03125 74.21875 39.40625 74.21875 
z
" id="DejaVuSans-4f"/>
      <path d="M 8.015625 75.875 
L 15.828125 75.875 
Q 23.140625 64.359375 26.78125 53.3125 
Q 30.421875 42.28125 30.421875 31.390625 
Q 30.421875 20.453125 26.78125 9.375 
Q 23.140625 -1.703125 15.828125 -13.1875 
L 8.015625 -13.1875 
Q 14.5 -2 17.703125 9.0625 
Q 20.90625 20.125 20.90625 31.390625 
Q 20.90625 42.671875 17.703125 53.65625 
Q 14.5 64.65625 8.015625 75.875 
z
" id="DejaVuSans-29"/>
     </defs>
     <g transform="translate(586.4875 334.20625)scale(0.08 -0.08)">
      <use xlink:href="#DejaVuSans-23"/>
      <use x="83.789062" xlink:href="#DejaVuSans-31"/>
      <use x="147.412109" xlink:href="#DejaVuSans-34"/>
      <use x="211.035156" xlink:href="#DejaVuSans-36"/>
      <use x="274.658203" xlink:href="#DejaVuSans-20"/>
      <use x="306.445312" xlink:href="#DejaVuSans-48"/>
      <use x="381.640625" xlink:href="#DejaVuSans-75"/>
      <use x="445.019531" xlink:href="#DejaVuSans-67"/>
      <use x="508.496094" xlink:href="#DejaVuSans-67"/>
      <use x="571.972656" xlink:href="#DejaVuSans-69"/>
      <use x="599.755859" xlink:href="#DejaVuSans-6e"/>
      <use x="663.134766" xlink:href="#DejaVuSans-73"/>
      <use x="715.234375" xlink:href="#DejaVuSans-20"/>
      <use x="747.021484" xlink:href="#DejaVuSans-28"/>
      <use x="786.035156" xlink:href="#DejaVuSans-50"/>
      <use x="846.306641" xlink:href="#DejaVuSans-69"/>
      <use x="874.089844" xlink:href="#DejaVuSans-6e"/>
      <use x="937.46875" xlink:href="#DejaVuSans-6b"/>
      <use x="995.378906" xlink:href="#DejaVuSans-69"/>
      <use x="1023.162109" xlink:href="#DejaVuSans-65"/>
      <use x="1084.685547" xlink:href="#DejaVuSans-73"/>
      <use x="1136.785156" xlink:href="#DejaVuSans-20"/>
      <use x="1168.572266" xlink:href="#DejaVuSans-4f"/>
      <use x="1247.283203" xlink:href="#DejaVuSans-75"/>
      <use x="1310.662109" xlink:href="#DejaVuSans-74"/>
      <use x="1349.871094" xlink:href="#DejaVuSans-29"/>
     </g>
    </g>
    <g id="line2d_34">
     <path d="M 564.0875 343.14875 
L 580.0875 343.14875 
" style="fill:none;stroke:#ff7f0e;stroke-linecap:square;stroke-width:1.5;"/>
    </g>
    <g id="line2d_35"/>
    <g id="text_18">
     <!-- #213 23 Van Winden racing -->
     <defs>
      <path d="M 40.578125 39.3125 
Q 47.65625 37.796875 51.625 33 
Q 55.609375 28.21875 55.609375 21.1875 
Q 55.609375 10.40625 48.1875 4.484375 
Q 40.765625 -1.421875 27.09375 -1.421875 
Q 22.515625 -1.421875 17.65625 -0.515625 
Q 12.796875 0.390625 7.625 2.203125 
L 7.625 11.71875 
Q 11.71875 9.328125 16.59375 8.109375 
Q 21.484375 6.890625 26.8125 6.890625 
Q 36.078125 6.890625 40.9375 10.546875 
Q 45.796875 14.203125 45.796875 21.1875 
Q 45.796875 27.640625 41.28125 31.265625 
Q 36.765625 34.90625 28.71875 34.90625 
L 20.21875 34.90625 
L 20.21875 43.015625 
L 29.109375 43.015625 
Q 36.375 43.015625 40.234375 45.921875 
Q 44.09375 48.828125 44.09375 54.296875 
Q 44.09375 59.90625 40.109375 62.90625 
Q 36.140625 65.921875 28.71875 65.921875 
Q 24.65625 65.921875 20.015625 65.03125 
Q 15.375 64.15625 9.8125 62.3125 
L 9.8125 71.09375 
Q 15.4375 72.65625 20.34375 73.4375 
Q 25.25 74.21875 29.59375 74.21875 
Q 40.828125 74.21875 47.359375 69.109375 
Q 53.90625 64.015625 53.90625 55.328125 
Q 53.90625 49.265625 50.4375 45.09375 
Q 46.96875 40.921875 40.578125 39.3125 
z
" id="DejaVuSans-33"/>
      <path d="M 28.609375 0 
L 0.78125 72.90625 
L 11.078125 72.90625 
L 34.1875 11.53125 
L 57.328125 72.90625 
L 67.578125 72.90625 
L 39.796875 0 
z
" id="DejaVuSans-56"/>
      <path d="M 3.328125 72.90625 
L 13.28125 72.90625 
L 28.609375 11.28125 
L 43.890625 72.90625 
L 54.984375 72.90625 
L 70.3125 11.28125 
L 85.59375 72.90625 
L 95.609375 72.90625 
L 77.296875 0 
L 64.890625 0 
L 49.515625 63.28125 
L 33.984375 0 
L 21.578125 0 
z
" id="DejaVuSans-57"/>
      <path d="M 45.40625 46.390625 
L 45.40625 75.984375 
L 54.390625 75.984375 
L 54.390625 0 
L 45.40625 0 
L 45.40625 8.203125 
Q 42.578125 3.328125 38.25 0.953125 
Q 33.9375 -1.421875 27.875 -1.421875 
Q 17.96875 -1.421875 11.734375 6.484375 
Q 5.515625 14.40625 5.515625 27.296875 
Q 5.515625 40.1875 11.734375 48.09375 
Q 17.96875 56 27.875 56 
Q 33.9375 56 38.25 53.625 
Q 42.578125 51.265625 45.40625 46.390625 
z
M 14.796875 27.296875 
Q 14.796875 17.390625 18.875 11.75 
Q 22.953125 6.109375 30.078125 6.109375 
Q 37.203125 6.109375 41.296875 11.75 
Q 45.40625 17.390625 45.40625 27.296875 
Q 45.40625 37.203125 41.296875 42.84375 
Q 37.203125 48.484375 30.078125 48.484375 
Q 22.953125 48.484375 18.875 42.84375 
Q 14.796875 37.203125 14.796875 27.296875 
z
" id="DejaVuSans-64"/>
     </defs>
     <g transform="translate(586.4875 345.94875)scale(0.08 -0.08)">
      <use xlink:href="#DejaVuSans-23"/>
      <use x="83.789062" xlink:href="#DejaVuSans-32"/>
      <use x="147.412109" xlink:href="#DejaVuSans-31"/>
      <use x="211.035156" xlink:href="#DejaVuSans-33"/>
      <use x="274.658203" xlink:href="#DejaVuSans-20"/>
      <use x="306.445312" xlink:href="#DejaVuSans-32"/>
      <use x="370.068359" xlink:href="#DejaVuSans-33"/>
      <use x="433.691406" xlink:href="#DejaVuSans-20"/>
      <use x="465.478516" xlink:href="#DejaVuSans-56"/>
      <use x="533.777344" xlink:href="#DejaVuSans-61"/>
      <use x="595.056641" xlink:href="#DejaVuSans-6e"/>
      <use x="658.435547" xlink:href="#DejaVuSans-20"/>
      <use x="690.222656" xlink:href="#DejaVuSans-57"/>
      <use x="789.068359" xlink:href="#DejaVuSans-69"/>
      <use x="816.851562" xlink:href="#DejaVuSans-6e"/>
      <use x="880.230469" xlink:href="#DejaVuSans-64"/>
      <use x="943.707031" xlink:href="#DejaVuSans-65"/>
      <use x="1005.230469" xlink:href="#DejaVuSans-6e"/>
      <use x="1068.609375" xlink:href="#DejaVuSans-20"/>
      <use x="1100.396484" xlink:href="#DejaVuSans-72"/>
      <use x="1141.509766" xlink:href="#DejaVuSans-61"/>
      <use x="1202.789062" xlink:href="#DejaVuSans-63"/>
      <use x="1257.769531" xlink:href="#DejaVuSans-69"/>
      <use x="1285.552734" xlink:href="#DejaVuSans-6e"/>
      <use x="1348.931641" xlink:href="#DejaVuSans-67"/>
     </g>
    </g>
    <g id="line2d_36">
     <path d="M 564.0875 354.89125 
L 580.0875 354.89125 
" style="fill:none;stroke:#2ca02c;stroke-linecap:square;stroke-width:1.5;"/>
    </g>
    <g id="line2d_37"/>
    <g id="text_19">
     <!-- #935 Team Jacky Ickx 935 -->
     <defs>
      <path d="M 10.984375 1.515625 
L 10.984375 10.5 
Q 14.703125 8.734375 18.5 7.8125 
Q 22.3125 6.890625 25.984375 6.890625 
Q 35.75 6.890625 40.890625 13.453125 
Q 46.046875 20.015625 46.78125 33.40625 
Q 43.953125 29.203125 39.59375 26.953125 
Q 35.25 24.703125 29.984375 24.703125 
Q 19.046875 24.703125 12.671875 31.3125 
Q 6.296875 37.9375 6.296875 49.421875 
Q 6.296875 60.640625 12.9375 67.421875 
Q 19.578125 74.21875 30.609375 74.21875 
Q 43.265625 74.21875 49.921875 64.515625 
Q 56.59375 54.828125 56.59375 36.375 
Q 56.59375 19.140625 48.40625 8.859375 
Q 40.234375 -1.421875 26.421875 -1.421875 
Q 22.703125 -1.421875 18.890625 -0.6875 
Q 15.09375 0.046875 10.984375 1.515625 
z
M 30.609375 32.421875 
Q 37.25 32.421875 41.125 36.953125 
Q 45.015625 41.5 45.015625 49.421875 
Q 45.015625 57.28125 41.125 61.84375 
Q 37.25 66.40625 30.609375 66.40625 
Q 23.96875 66.40625 20.09375 61.84375 
Q 16.21875 57.28125 16.21875 49.421875 
Q 16.21875 41.5 20.09375 36.953125 
Q 23.96875 32.421875 30.609375 32.421875 
z
" id="DejaVuSans-39"/>
      <path d="M 10.796875 72.90625 
L 49.515625 72.90625 
L 49.515625 64.59375 
L 19.828125 64.59375 
L 19.828125 46.734375 
Q 21.96875 47.46875 24.109375 47.828125 
Q 26.265625 48.1875 28.421875 48.1875 
Q 40.625 48.1875 47.75 41.5 
Q 54.890625 34.8125 54.890625 23.390625 
Q 54.890625 11.625 47.5625 5.09375 
Q 40.234375 -1.421875 26.90625 -1.421875 
Q 22.3125 -1.421875 17.546875 -0.640625 
Q 12.796875 0.140625 7.71875 1.703125 
L 7.71875 11.625 
Q 12.109375 9.234375 16.796875 8.0625 
Q 21.484375 6.890625 26.703125 6.890625 
Q 35.15625 6.890625 40.078125 11.328125 
Q 45.015625 15.765625 45.015625 23.390625 
Q 45.015625 31 40.078125 35.4375 
Q 35.15625 39.890625 26.703125 39.890625 
Q 22.75 39.890625 18.8125 39.015625 
Q 14.890625 38.140625 10.796875 36.28125 
z
" id="DejaVuSans-35"/>
      <path d="M 9.8125 72.90625 
L 19.671875 72.90625 
L 19.671875 5.078125 
Q 19.671875 -8.109375 14.671875 -14.0625 
Q 9.671875 -20.015625 -1.421875 -20.015625 
L -5.171875 -20.015625 
L -5.171875 -11.71875 
L -2.09375 -11.71875 
Q 4.4375 -11.71875 7.125 -8.046875 
Q 9.8125 -4.390625 9.8125 5.078125 
z
" id="DejaVuSans-4a"/>
      <path d="M 32.171875 -5.078125 
Q 28.375 -14.84375 24.75 -17.8125 
Q 21.140625 -20.796875 15.09375 -20.796875 
L 7.90625 -20.796875 
L 7.90625 -13.28125 
L 13.1875 -13.28125 
Q 16.890625 -13.28125 18.9375 -11.515625 
Q 21 -9.765625 23.484375 -3.21875 
L 25.09375 0.875 
L 2.984375 54.6875 
L 12.5 54.6875 
L 29.59375 11.921875 
L 46.6875 54.6875 
L 56.203125 54.6875 
z
" id="DejaVuSans-79"/>
      <path d="M 9.8125 72.90625 
L 19.671875 72.90625 
L 19.671875 0 
L 9.8125 0 
z
" id="DejaVuSans-49"/>
      <path d="M 54.890625 54.6875 
L 35.109375 28.078125 
L 55.90625 0 
L 45.3125 0 
L 29.390625 21.484375 
L 13.484375 0 
L 2.875 0 
L 24.125 28.609375 
L 4.6875 54.6875 
L 15.28125 54.6875 
L 29.78125 35.203125 
L 44.28125 54.6875 
z
" id="DejaVuSans-78"/>
     </defs>
     <g transform="translate(586.4875 357.69125)scale(0.08 -0.08)">
      <use xlink:href="#DejaVuSans-23"/>
      <use x="83.789062" xlink:href="#DejaVuSans-39"/>
      <use x="147.412109" xlink:href="#DejaVuSans-33"/>
      <use x="211.035156" xlink:href="#DejaVuSans-35"/>
      <use x="274.658203" xlink:href="#DejaVuSans-20"/>
      <use x="306.445312" xlink:href="#DejaVuSans-54"/>
      <use x="367.263672" xlink:href="#DejaVuSans-65"/>
      <use x="428.787109" xlink:href="#DejaVuSans-61"/>
      <use x="490.066406" xlink:href="#DejaVuSans-6d"/>
      <use x="587.478516" xlink:href="#DejaVuSans-20"/>
      <use x="619.265625" xlink:href="#DejaVuSans-4a"/>
      <use x="648.757812" xlink:href="#DejaVuSans-61"/>
      <use x="710.037109" xlink:href="#DejaVuSans-63"/>
      <use x="765.017578" xlink:href="#DejaVuSans-6b"/>
      <use x="822.880859" xlink:href="#DejaVuSans-79"/>
      <use x="882.060547" xlink:href="#DejaVuSans-20"/>
      <use x="913.847656" xlink:href="#DejaVuSans-49"/>
      <use x="943.339844" xlink:href="#DejaVuSans-63"/>
      <use x="998.320312" xlink:href="#DejaVuSans-6b"/>
      <use x="1056.230469" xlink:href="#DejaVuSans-78"/>
      <use x="1115.410156" xlink:href="#DejaVuSans-20"/>
      <use x="1147.197266" xlink:href="#DejaVuSans-39"/>
      <use x="1210.820312" xlink:href="#DejaVuSans-33"/>
      <use x="1274.443359" xlink:href="#DejaVuSans-35"/>
     </g>
    </g>
    <g id="line2d_38">
     <path d="M 564.0875 366.63375 
L 580.0875 366.63375 
" style="fill:none;stroke:#d62728;stroke-linecap:square;stroke-width:1.5;"/>
    </g>
    <g id="line2d_39"/>
    <g id="text_20">
     <!-- #187 Team Punisher -->
     <defs>
      <path d="M 8.203125 72.90625 
L 55.078125 72.90625 
L 55.078125 68.703125 
L 28.609375 0 
L 18.3125 0 
L 43.21875 64.59375 
L 8.203125 64.59375 
z
" id="DejaVuSans-37"/>
     </defs>
     <g transform="translate(586.4875 369.43375)scale(0.08 -0.08)">
      <use xlink:href="#DejaVuSans-23"/>
      <use x="83.789062" xlink:href="#DejaVuSans-31"/>
      <use x="147.412109" xlink:href="#DejaVuSans-38"/>
      <use x="211.035156" xlink:href="#DejaVuSans-37"/>
      <use x="274.658203" xlink:href="#DejaVuSans-20"/>
      <use x="306.445312" xlink:href="#DejaVuSans-54"/>
      <use x="367.263672" xlink:href="#DejaVuSans-65"/>
      <use x="428.787109" xlink:href="#DejaVuSans-61"/>
      <use x="490.066406" xlink:href="#DejaVuSans-6d"/>
      <use x="587.478516" xlink:href="#DejaVuSans-20"/>
      <use x="619.265625" xlink:href="#DejaVuSans-50"/>
      <use x="679.552734" xlink:href="#DejaVuSans-75"/>
      <use x="742.931641" xlink:href="#DejaVuSans-6e"/>
      <use x="806.310547" xlink:href="#DejaVuSans-69"/>
      <use x="834.09375" xlink:href="#DejaVuSans-73"/>
      <use x="886.193359" xlink:href="#DejaVuSans-68"/>
      <use x="949.572266" xlink:href="#DejaVuSans-65"/>
      <use x="1011.095703" xlink:href="#DejaVuSans-72"/>
     </g>
    </g>
    <g id="line2d_40">
     <path d="M 564.0875 378.37625 
L 580.0875 378.37625 
" style="fill:none;stroke:#9467bd;stroke-linecap:square;stroke-width:1.5;"/>
    </g>
    <g id="line2d_41"/>
    <g id="text_21">
     <!-- # 19 Team Infinite -->
     <defs>
      <path d="M 37.109375 75.984375 
L 37.109375 68.5 
L 28.515625 68.5 
Q 23.6875 68.5 21.796875 66.546875 
Q 19.921875 64.59375 19.921875 59.515625 
L 19.921875 54.6875 
L 34.71875 54.6875 
L 34.71875 47.703125 
L 19.921875 47.703125 
L 19.921875 0 
L 10.890625 0 
L 10.890625 47.703125 
L 2.296875 47.703125 
L 2.296875 54.6875 
L 10.890625 54.6875 
L 10.890625 58.5 
Q 10.890625 67.625 15.140625 71.796875 
Q 19.390625 75.984375 28.609375 75.984375 
z
" id="DejaVuSans-66"/>
     </defs>
     <g transform="translate(586.4875 381.17625)scale(0.08 -0.08)">
      <use xlink:href="#DejaVuSans-23"/>
      <use x="83.789062" xlink:href="#DejaVuSans-20"/>
      <use x="115.576172" xlink:href="#DejaVuSans-31"/>
      <use x="179.199219" xlink:href="#DejaVuSans-39"/>
      <use x="242.822266" xlink:href="#DejaVuSans-20"/>
      <use x="274.609375" xlink:href="#DejaVuSans-54"/>
      <use x="335.427734" xlink:href="#DejaVuSans-65"/>
      <use x="396.951172" xlink:href="#DejaVuSans-61"/>
      <use x="458.230469" xlink:href="#DejaVuSans-6d"/>
      <use x="555.642578" xlink:href="#DejaVuSans-20"/>
      <use x="587.429688" xlink:href="#DejaVuSans-49"/>
      <use x="616.921875" xlink:href="#DejaVuSans-6e"/>
      <use x="680.300781" xlink:href="#DejaVuSans-66"/>
      <use x="715.505859" xlink:href="#DejaVuSans-69"/>
      <use x="743.289062" xlink:href="#DejaVuSans-6e"/>
      <use x="806.667969" xlink:href="#DejaVuSans-69"/>
      <use x="834.451172" xlink:href="#DejaVuSans-74"/>
      <use x="873.660156" xlink:href="#DejaVuSans-65"/>
     </g>
    </g>
   </g>
  </g>
 </g>
 <defs>
  <clipPath id="pbdc157a7ae">
   <rect height="364.6" width="662.11" x="44.57" y="25.44"/>
  </clipPath>
 </defs>
</svg>
