<?xml version="1.0" encoding="utf-8" standalone="no"?>
<!DOCTYPE svg PUBLIC "-//W3C//DTD SVG 1.1//EN"
  "http://www.w3.org/Graphics/SVG/1.1/DTD/svg11.dtd">
<!-- Created with matplotlib (http://matplotlib.org/) -->
<svg height="432pt" version="1.1" viewBox="0 0 720 432" width="720pt" xmlns="http://www.w3.org/2000/svg" xmlns:xlink="http://www.w3.org/1999/xlink">
 <defs>
  <style type="text/css">
*{stroke-linecap:butt;stroke-linejoin:round;}
  </style>
 </defs>
 <g id="figure_1">
  <g id="patch_1">
   <path d="M 0 432 
L 720 432 
L 720 0 
L 0 0 
z
" style="fill:none;opacity:0;"/>
  </g>
  <g id="axes_1">
   <g id="patch_2">
    <path d="M 51.05 390.04 
L 706.68 390.04 
L 706.68 25.44 
L 51.05 25.44 
z
" style="fill:#ffffff;"/>
   </g>
   <g id="matplotlib.axis_1">
    <g id="xtick_1">
     <g id="line2d_1">
      <path clip-path="url(#p6f639a94b4)" d="M 79.455515 390.04 
L 79.455515 25.44 
" style="fill:none;stroke:#b0b0b0;stroke-linecap:square;stroke-width:0.8;"/>
     </g>
     <g id="line2d_2">
      <defs>
       <path d="M 0 0 
L 0 3.5 
" id="m2b677b468a" style="stroke:#000000;stroke-width:0.8;"/>
      </defs>
      <g>
       <use style="stroke:#000000;stroke-width:0.8;" x="79.455515" xlink:href="#m2b677b468a" y="390.04"/>
      </g>
     </g>
     <g id="text_1">
      <!-- 0 -->
      <defs>
       <path d="M 31.78125 66.40625 
Q 24.171875 66.40625 20.328125 58.90625 
Q 16.5 51.421875 16.5 36.375 
Q 16.5 21.390625 20.328125 13.890625 
Q 24.171875 6.390625 31.78125 6.390625 
Q 39.453125 6.390625 43.28125 13.890625 
Q 47.125 21.390625 47.125 36.375 
Q 47.125 51.421875 43.28125 58.90625 
Q 39.453125 66.40625 31.78125 66.40625 
z
M 31.78125 74.21875 
Q 44.046875 74.21875 50.515625 64.515625 
Q 56.984375 54.828125 56.984375 36.375 
Q 56.984375 17.96875 50.515625 8.265625 
Q 44.046875 -1.421875 31.78125 -1.421875 
Q 19.53125 -1.421875 13.0625 8.265625 
Q 6.59375 17.96875 6.59375 36.375 
Q 6.59375 54.828125 13.0625 64.515625 
Q 19.53125 74.21875 31.78125 74.21875 
z
" id="DejaVuSans-30"/>
      </defs>
      <g transform="translate(76.274265 404.638438)scale(0.1 -0.1)">
       <use xlink:href="#DejaVuSans-30"/>
      </g>
     </g>
    </g>
    <g id="xtick_2">
     <g id="line2d_3">
      <path clip-path="url(#p6f639a94b4)" d="M 219.040357 390.04 
L 219.040357 25.44 
" style="fill:none;stroke:#b0b0b0;stroke-linecap:square;stroke-width:0.8;"/>
     </g>
     <g id="line2d_4">
      <g>
       <use style="stroke:#000000;stroke-width:0.8;" x="219.040357" xlink:href="#m2b677b468a" y="390.04"/>
      </g>
     </g>
     <g id="text_2">
      <!-- 100 -->
      <defs>
       <path d="M 12.40625 8.296875 
L 28.515625 8.296875 
L 28.515625 63.921875 
L 10.984375 60.40625 
L 10.984375 69.390625 
L 28.421875 72.90625 
L 38.28125 72.90625 
L 38.28125 8.296875 
L 54.390625 8.296875 
L 54.390625 0 
L 12.40625 0 
z
" id="DejaVuSans-31"/>
      </defs>
      <g transform="translate(209.496607 404.638438)scale(0.1 -0.1)">
       <use xlink:href="#DejaVuSans-31"/>
       <use x="63.623047" xlink:href="#DejaVuSans-30"/>
       <use x="127.246094" xlink:href="#DejaVuSans-30"/>
      </g>
     </g>
    </g>
    <g id="xtick_3">
     <g id="line2d_5">
      <path clip-path="url(#p6f639a94b4)" d="M 358.625198 390.04 
L 358.625198 25.44 
" style="fill:none;stroke:#b0b0b0;stroke-linecap:square;stroke-width:0.8;"/>
     </g>
     <g id="line2d_6">
      <g>
       <use style="stroke:#000000;stroke-width:0.8;" x="358.625198" xlink:href="#m2b677b468a" y="390.04"/>
      </g>
     </g>
     <g id="text_3">
      <!-- 200 -->
      <defs>
       <path d="M 19.1875 8.296875 
L 53.609375 8.296875 
L 53.609375 0 
L 7.328125 0 
L 7.328125 8.296875 
Q 12.9375 14.109375 22.625 23.890625 
Q 32.328125 33.6875 34.8125 36.53125 
Q 39.546875 41.84375 41.421875 45.53125 
Q 43.3125 49.21875 43.3125 52.78125 
Q 43.3125 58.59375 39.234375 62.25 
Q 35.15625 65.921875 28.609375 65.921875 
Q 23.96875 65.921875 18.8125 64.3125 
Q 13.671875 62.703125 7.8125 59.421875 
L 7.8125 69.390625 
Q 13.765625 71.78125 18.9375 73 
Q 24.125 74.21875 28.421875 74.21875 
Q 39.75 74.21875 46.484375 68.546875 
Q 53.21875 62.890625 53.21875 53.421875 
Q 53.21875 48.921875 51.53125 44.890625 
Q 49.859375 40.875 45.40625 35.40625 
Q 44.1875 33.984375 37.640625 27.21875 
Q 31.109375 20.453125 19.1875 8.296875 
z
" id="DejaVuSans-32"/>
      </defs>
      <g transform="translate(349.081448 404.638438)scale(0.1 -0.1)">
       <use xlink:href="#DejaVuSans-32"/>
       <use x="63.623047" xlink:href="#DejaVuSans-30"/>
       <use x="127.246094" xlink:href="#DejaVuSans-30"/>
      </g>
     </g>
    </g>
    <g id="xtick_4">
     <g id="line2d_7">
      <path clip-path="url(#p6f639a94b4)" d="M 498.210039 390.04 
L 498.210039 25.44 
" style="fill:none;stroke:#b0b0b0;stroke-linecap:square;stroke-width:0.8;"/>
     </g>
     <g id="line2d_8">
      <g>
       <use style="stroke:#000000;stroke-width:0.8;" x="498.210039" xlink:href="#m2b677b468a" y="390.04"/>
      </g>
     </g>
     <g id="text_4">
      <!-- 300 -->
      <defs>
       <path d="M 40.578125 39.3125 
Q 47.65625 37.796875 51.625 33 
Q 55.609375 28.21875 55.609375 21.1875 
Q 55.609375 10.40625 48.1875 4.484375 
Q 40.765625 -1.421875 27.09375 -1.421875 
Q 22.515625 -1.421875 17.65625 -0.515625 
Q 12.796875 0.390625 7.625 2.203125 
L 7.625 11.71875 
Q 11.71875 9.328125 16.59375 8.109375 
Q 21.484375 6.890625 26.8125 6.890625 
Q 36.078125 6.890625 40.9375 10.546875 
Q 45.796875 14.203125 45.796875 21.1875 
Q 45.796875 27.640625 41.28125 31.265625 
Q 36.765625 34.90625 28.71875 34.90625 
L 20.21875 34.90625 
L 20.21875 43.015625 
L 29.109375 43.015625 
Q 36.375 43.015625 40.234375 45.921875 
Q 44.09375 48.828125 44.09375 54.296875 
Q 44.09375 59.90625 40.109375 62.90625 
Q 36.140625 65.921875 28.71875 65.921875 
Q 24.65625 65.921875 20.015625 65.03125 
Q 15.375 64.15625 9.8125 62.3125 
L 9.8125 71.09375 
Q 15.4375 72.65625 20.34375 73.4375 
Q 25.25 74.21875 29.59375 74.21875 
Q 40.828125 74.21875 47.359375 69.109375 
Q 53.90625 64.015625 53.90625 55.328125 
Q 53.90625 49.265625 50.4375 45.09375 
Q 46.96875 40.921875 40.578125 39.3125 
z
" id="DejaVuSans-33"/>
      </defs>
      <g transform="translate(488.666289 404.638438)scale(0.1 -0.1)">
       <use xlink:href="#DejaVuSans-33"/>
       <use x="63.623047" xlink:href="#DejaVuSans-30"/>
       <use x="127.246094" xlink:href="#DejaVuSans-30"/>
      </g>
     </g>
    </g>
    <g id="xtick_5">
     <g id="line2d_9">
      <path clip-path="url(#p6f639a94b4)" d="M 637.794881 390.04 
L 637.794881 25.44 
" style="fill:none;stroke:#b0b0b0;stroke-linecap:square;stroke-width:0.8;"/>
     </g>
     <g id="line2d_10">
      <g>
       <use style="stroke:#000000;stroke-width:0.8;" x="637.794881" xlink:href="#m2b677b468a" y="390.04"/>
      </g>
     </g>
     <g id="text_5">
      <!-- 400 -->
      <defs>
       <path d="M 37.796875 64.3125 
L 12.890625 25.390625 
L 37.796875 25.390625 
z
M 35.203125 72.90625 
L 47.609375 72.90625 
L 47.609375 25.390625 
L 58.015625 25.390625 
L 58.015625 17.1875 
L 47.609375 17.1875 
L 47.609375 0 
L 37.796875 0 
L 37.796875 17.1875 
L 4.890625 17.1875 
L 4.890625 26.703125 
z
" id="DejaVuSans-34"/>
      </defs>
      <g transform="translate(628.251131 404.638438)scale(0.1 -0.1)">
       <use xlink:href="#DejaVuSans-34"/>
       <use x="63.623047" xlink:href="#DejaVuSans-30"/>
       <use x="127.246094" xlink:href="#DejaVuSans-30"/>
      </g>
     </g>
    </g>
    <g id="text_6">
     <!-- Lap # -->
     <defs>
      <path d="M 9.8125 72.90625 
L 19.671875 72.90625 
L 19.671875 8.296875 
L 55.171875 8.296875 
L 55.171875 0 
L 9.8125 0 
z
" id="DejaVuSans-4c"/>
      <path d="M 34.28125 27.484375 
Q 23.390625 27.484375 19.1875 25 
Q 14.984375 22.515625 14.984375 16.5 
Q 14.984375 11.71875 18.140625 8.90625 
Q 21.296875 6.109375 26.703125 6.109375 
Q 34.1875 6.109375 38.703125 11.40625 
Q 43.21875 16.703125 43.21875 25.484375 
L 43.21875 27.484375 
z
M 52.203125 31.203125 
L 52.203125 0 
L 43.21875 0 
L 43.21875 8.296875 
Q 40.140625 3.328125 35.546875 0.953125 
Q 30.953125 -1.421875 24.3125 -1.421875 
Q 15.921875 -1.421875 10.953125 3.296875 
Q 6 8.015625 6 15.921875 
Q 6 25.140625 12.171875 29.828125 
Q 18.359375 34.515625 30.609375 34.515625 
L 43.21875 34.515625 
L 43.21875 35.40625 
Q 43.21875 41.609375 39.140625 45 
Q 35.0625 48.390625 27.6875 48.390625 
Q 23 48.390625 18.546875 47.265625 
Q 14.109375 46.140625 10.015625 43.890625 
L 10.015625 52.203125 
Q 14.9375 54.109375 19.578125 55.046875 
Q 24.21875 56 28.609375 56 
Q 40.484375 56 46.34375 49.84375 
Q 52.203125 43.703125 52.203125 31.203125 
z
" id="DejaVuSans-61"/>
      <path d="M 18.109375 8.203125 
L 18.109375 -20.796875 
L 9.078125 -20.796875 
L 9.078125 54.6875 
L 18.109375 54.6875 
L 18.109375 46.390625 
Q 20.953125 51.265625 25.265625 53.625 
Q 29.59375 56 35.59375 56 
Q 45.5625 56 51.78125 48.09375 
Q 58.015625 40.1875 58.015625 27.296875 
Q 58.015625 14.40625 51.78125 6.484375 
Q 45.5625 -1.421875 35.59375 -1.421875 
Q 29.59375 -1.421875 25.265625 0.953125 
Q 20.953125 3.328125 18.109375 8.203125 
z
M 48.6875 27.296875 
Q 48.6875 37.203125 44.609375 42.84375 
Q 40.53125 48.484375 33.40625 48.484375 
Q 26.265625 48.484375 22.1875 42.84375 
Q 18.109375 37.203125 18.109375 27.296875 
Q 18.109375 17.390625 22.1875 11.75 
Q 26.265625 6.109375 33.40625 6.109375 
Q 40.53125 6.109375 44.609375 11.75 
Q 48.6875 17.390625 48.6875 27.296875 
z
" id="DejaVuSans-70"/>
      <path id="DejaVuSans-20"/>
      <path d="M 51.125 44 
L 36.921875 44 
L 32.8125 27.6875 
L 47.125 27.6875 
z
M 43.796875 71.78125 
L 38.71875 51.515625 
L 52.984375 51.515625 
L 58.109375 71.78125 
L 65.921875 71.78125 
L 60.890625 51.515625 
L 76.125 51.515625 
L 76.125 44 
L 58.984375 44 
L 54.984375 27.6875 
L 70.515625 27.6875 
L 70.515625 20.21875 
L 53.078125 20.21875 
L 48 0 
L 40.1875 0 
L 45.21875 20.21875 
L 30.90625 20.21875 
L 25.875 0 
L 18.015625 0 
L 23.09375 20.21875 
L 7.71875 20.21875 
L 7.71875 27.6875 
L 24.90625 27.6875 
L 29 44 
L 13.28125 44 
L 13.28125 51.515625 
L 30.90625 51.515625 
L 35.890625 71.78125 
z
" id="DejaVuSans-23"/>
     </defs>
     <g transform="translate(364.061875 418.316562)scale(0.1 -0.1)">
      <use xlink:href="#DejaVuSans-4c"/>
      <use x="55.712891" xlink:href="#DejaVuSans-61"/>
      <use x="116.992188" xlink:href="#DejaVuSans-70"/>
      <use x="180.46875" xlink:href="#DejaVuSans-20"/>
      <use x="212.255859" xlink:href="#DejaVuSans-23"/>
     </g>
    </g>
   </g>
   <g id="matplotlib.axis_2">
    <g id="ytick_1">
     <g id="line2d_11">
      <path clip-path="url(#p6f639a94b4)" d="M 51.05 374.072936 
L 706.68 374.072936 
" style="fill:none;stroke:#b0b0b0;stroke-linecap:square;stroke-width:0.8;"/>
     </g>
     <g id="line2d_12">
      <defs>
       <path d="M 0 0 
L -3.5 0 
" id="m0b8147df21" style="stroke:#000000;stroke-width:0.8;"/>
      </defs>
      <g>
       <use style="stroke:#000000;stroke-width:0.8;" x="51.05" xlink:href="#m0b8147df21" y="374.072936"/>
      </g>
     </g>
     <g id="text_7">
      <!-- 100 -->
      <g transform="translate(24.9625 377.872155)scale(0.1 -0.1)">
       <use xlink:href="#DejaVuSans-31"/>
       <use x="63.623047" xlink:href="#DejaVuSans-30"/>
       <use x="127.246094" xlink:href="#DejaVuSans-30"/>
      </g>
     </g>
    </g>
    <g id="ytick_2">
     <g id="line2d_13">
      <path clip-path="url(#p6f639a94b4)" d="M 51.05 318.315975 
L 706.68 318.315975 
" style="fill:none;stroke:#b0b0b0;stroke-linecap:square;stroke-width:0.8;"/>
     </g>
     <g id="line2d_14">
      <g>
       <use style="stroke:#000000;stroke-width:0.8;" x="51.05" xlink:href="#m0b8147df21" y="318.315975"/>
      </g>
     </g>
     <g id="text_8">
      <!-- 105 -->
      <defs>
       <path d="M 10.796875 72.90625 
L 49.515625 72.90625 
L 49.515625 64.59375 
L 19.828125 64.59375 
L 19.828125 46.734375 
Q 21.96875 47.46875 24.109375 47.828125 
Q 26.265625 48.1875 28.421875 48.1875 
Q 40.625 48.1875 47.75 41.5 
Q 54.890625 34.8125 54.890625 23.390625 
Q 54.890625 11.625 47.5625 5.09375 
Q 40.234375 -1.421875 26.90625 -1.421875 
Q 22.3125 -1.421875 17.546875 -0.640625 
Q 12.796875 0.140625 7.71875 1.703125 
L 7.71875 11.625 
Q 12.109375 9.234375 16.796875 8.0625 
Q 21.484375 6.890625 26.703125 6.890625 
Q 35.15625 6.890625 40.078125 11.328125 
Q 45.015625 15.765625 45.015625 23.390625 
Q 45.015625 31 40.078125 35.4375 
Q 35.15625 39.890625 26.703125 39.890625 
Q 22.75 39.890625 18.8125 39.015625 
Q 14.890625 38.140625 10.796875 36.28125 
z
" id="DejaVuSans-35"/>
      </defs>
      <g transform="translate(24.9625 322.115194)scale(0.1 -0.1)">
       <use xlink:href="#DejaVuSans-31"/>
       <use x="63.623047" xlink:href="#DejaVuSans-30"/>
       <use x="127.246094" xlink:href="#DejaVuSans-35"/>
      </g>
     </g>
    </g>
    <g id="ytick_3">
     <g id="line2d_15">
      <path clip-path="url(#p6f639a94b4)" d="M 51.05 262.559014 
L 706.68 262.559014 
" style="fill:none;stroke:#b0b0b0;stroke-linecap:square;stroke-width:0.8;"/>
     </g>
     <g id="line2d_16">
      <g>
       <use style="stroke:#000000;stroke-width:0.8;" x="51.05" xlink:href="#m0b8147df21" y="262.559014"/>
      </g>
     </g>
     <g id="text_9">
      <!-- 110 -->
      <g transform="translate(24.9625 266.358233)scale(0.1 -0.1)">
       <use xlink:href="#DejaVuSans-31"/>
       <use x="63.623047" xlink:href="#DejaVuSans-31"/>
       <use x="127.246094" xlink:href="#DejaVuSans-30"/>
      </g>
     </g>
    </g>
    <g id="ytick_4">
     <g id="line2d_17">
      <path clip-path="url(#p6f639a94b4)" d="M 51.05 206.802054 
L 706.68 206.802054 
" style="fill:none;stroke:#b0b0b0;stroke-linecap:square;stroke-width:0.8;"/>
     </g>
     <g id="line2d_18">
      <g>
       <use style="stroke:#000000;stroke-width:0.8;" x="51.05" xlink:href="#m0b8147df21" y="206.802054"/>
      </g>
     </g>
     <g id="text_10">
      <!-- 115 -->
      <g transform="translate(24.9625 210.601272)scale(0.1 -0.1)">
       <use xlink:href="#DejaVuSans-31"/>
       <use x="63.623047" xlink:href="#DejaVuSans-31"/>
       <use x="127.246094" xlink:href="#DejaVuSans-35"/>
      </g>
     </g>
    </g>
    <g id="ytick_5">
     <g id="line2d_19">
      <path clip-path="url(#p6f639a94b4)" d="M 51.05 151.045093 
L 706.68 151.045093 
" style="fill:none;stroke:#b0b0b0;stroke-linecap:square;stroke-width:0.8;"/>
     </g>
     <g id="line2d_20">
      <g>
       <use style="stroke:#000000;stroke-width:0.8;" x="51.05" xlink:href="#m0b8147df21" y="151.045093"/>
      </g>
     </g>
     <g id="text_11">
      <!-- 120 -->
      <g transform="translate(24.9625 154.844311)scale(0.1 -0.1)">
       <use xlink:href="#DejaVuSans-31"/>
       <use x="63.623047" xlink:href="#DejaVuSans-32"/>
       <use x="127.246094" xlink:href="#DejaVuSans-30"/>
      </g>
     </g>
    </g>
    <g id="ytick_6">
     <g id="line2d_21">
      <path clip-path="url(#p6f639a94b4)" d="M 51.05 95.288132 
L 706.68 95.288132 
" style="fill:none;stroke:#b0b0b0;stroke-linecap:square;stroke-width:0.8;"/>
     </g>
     <g id="line2d_22">
      <g>
       <use style="stroke:#000000;stroke-width:0.8;" x="51.05" xlink:href="#m0b8147df21" y="95.288132"/>
      </g>
     </g>
     <g id="text_12">
      <!-- 125 -->
      <g transform="translate(24.9625 99.087351)scale(0.1 -0.1)">
       <use xlink:href="#DejaVuSans-31"/>
       <use x="63.623047" xlink:href="#DejaVuSans-32"/>
       <use x="127.246094" xlink:href="#DejaVuSans-35"/>
      </g>
     </g>
    </g>
    <g id="ytick_7">
     <g id="line2d_23">
      <path clip-path="url(#p6f639a94b4)" d="M 51.05 39.531171 
L 706.68 39.531171 
" style="fill:none;stroke:#b0b0b0;stroke-linecap:square;stroke-width:0.8;"/>
     </g>
     <g id="line2d_24">
      <g>
       <use style="stroke:#000000;stroke-width:0.8;" x="51.05" xlink:href="#m0b8147df21" y="39.531171"/>
      </g>
     </g>
     <g id="text_13">
      <!-- 130 -->
      <g transform="translate(24.9625 43.33039)scale(0.1 -0.1)">
       <use xlink:href="#DejaVuSans-31"/>
       <use x="63.623047" xlink:href="#DejaVuSans-33"/>
       <use x="127.246094" xlink:href="#DejaVuSans-30"/>
      </g>
     </g>
    </g>
    <g id="text_14">
     <!-- Lap Time [sec] -->
     <defs>
      <path d="M -0.296875 72.90625 
L 61.375 72.90625 
L 61.375 64.59375 
L 35.5 64.59375 
L 35.5 0 
L 25.59375 0 
L 25.59375 64.59375 
L -0.296875 64.59375 
z
" id="DejaVuSans-54"/>
      <path d="M 9.421875 54.6875 
L 18.40625 54.6875 
L 18.40625 0 
L 9.421875 0 
z
M 9.421875 75.984375 
L 18.40625 75.984375 
L 18.40625 64.59375 
L 9.421875 64.59375 
z
" id="DejaVuSans-69"/>
      <path d="M 52 44.1875 
Q 55.375 50.25 60.0625 53.125 
Q 64.75 56 71.09375 56 
Q 79.640625 56 84.28125 50.015625 
Q 88.921875 44.046875 88.921875 33.015625 
L 88.921875 0 
L 79.890625 0 
L 79.890625 32.71875 
Q 79.890625 40.578125 77.09375 44.375 
Q 74.3125 48.1875 68.609375 48.1875 
Q 61.625 48.1875 57.5625 43.546875 
Q 53.515625 38.921875 53.515625 30.90625 
L 53.515625 0 
L 44.484375 0 
L 44.484375 32.71875 
Q 44.484375 40.625 41.703125 44.40625 
Q 38.921875 48.1875 33.109375 48.1875 
Q 26.21875 48.1875 22.15625 43.53125 
Q 18.109375 38.875 18.109375 30.90625 
L 18.109375 0 
L 9.078125 0 
L 9.078125 54.6875 
L 18.109375 54.6875 
L 18.109375 46.1875 
Q 21.1875 51.21875 25.484375 53.609375 
Q 29.78125 56 35.6875 56 
Q 41.65625 56 45.828125 52.96875 
Q 50 49.953125 52 44.1875 
z
" id="DejaVuSans-6d"/>
      <path d="M 56.203125 29.59375 
L 56.203125 25.203125 
L 14.890625 25.203125 
Q 15.484375 15.921875 20.484375 11.0625 
Q 25.484375 6.203125 34.421875 6.203125 
Q 39.59375 6.203125 44.453125 7.46875 
Q 49.3125 8.734375 54.109375 11.28125 
L 54.109375 2.78125 
Q 49.265625 0.734375 44.1875 -0.34375 
Q 39.109375 -1.421875 33.890625 -1.421875 
Q 20.796875 -1.421875 13.15625 6.1875 
Q 5.515625 13.8125 5.515625 26.8125 
Q 5.515625 40.234375 12.765625 48.109375 
Q 20.015625 56 32.328125 56 
Q 43.359375 56 49.78125 48.890625 
Q 56.203125 41.796875 56.203125 29.59375 
z
M 47.21875 32.234375 
Q 47.125 39.59375 43.09375 43.984375 
Q 39.0625 48.390625 32.421875 48.390625 
Q 24.90625 48.390625 20.390625 44.140625 
Q 15.875 39.890625 15.1875 32.171875 
z
" id="DejaVuSans-65"/>
      <path d="M 8.59375 75.984375 
L 29.296875 75.984375 
L 29.296875 69 
L 17.578125 69 
L 17.578125 -6.203125 
L 29.296875 -6.203125 
L 29.296875 -13.1875 
L 8.59375 -13.1875 
z
" id="DejaVuSans-5b"/>
      <path d="M 44.28125 53.078125 
L 44.28125 44.578125 
Q 40.484375 46.53125 36.375 47.5 
Q 32.28125 48.484375 27.875 48.484375 
Q 21.1875 48.484375 17.84375 46.4375 
Q 14.5 44.390625 14.5 40.28125 
Q 14.5 37.15625 16.890625 35.375 
Q 19.28125 33.59375 26.515625 31.984375 
L 29.59375 31.296875 
Q 39.15625 29.25 43.1875 25.515625 
Q 47.21875 21.78125 47.21875 15.09375 
Q 47.21875 7.46875 41.1875 3.015625 
Q 35.15625 -1.421875 24.609375 -1.421875 
Q 20.21875 -1.421875 15.453125 -0.5625 
Q 10.6875 0.296875 5.421875 2 
L 5.421875 11.28125 
Q 10.40625 8.6875 15.234375 7.390625 
Q 20.0625 6.109375 24.8125 6.109375 
Q 31.15625 6.109375 34.5625 8.28125 
Q 37.984375 10.453125 37.984375 14.40625 
Q 37.984375 18.0625 35.515625 20.015625 
Q 33.0625 21.96875 24.703125 23.78125 
L 21.578125 24.515625 
Q 13.234375 26.265625 9.515625 29.90625 
Q 5.8125 33.546875 5.8125 39.890625 
Q 5.8125 47.609375 11.28125 51.796875 
Q 16.75 56 26.8125 56 
Q 31.78125 56 36.171875 55.265625 
Q 40.578125 54.546875 44.28125 53.078125 
z
" id="DejaVuSans-73"/>
      <path d="M 48.78125 52.59375 
L 48.78125 44.1875 
Q 44.96875 46.296875 41.140625 47.34375 
Q 37.3125 48.390625 33.40625 48.390625 
Q 24.65625 48.390625 19.8125 42.84375 
Q 14.984375 37.3125 14.984375 27.296875 
Q 14.984375 17.28125 19.8125 11.734375 
Q 24.65625 6.203125 33.40625 6.203125 
Q 37.3125 6.203125 41.140625 7.25 
Q 44.96875 8.296875 48.78125 10.40625 
L 48.78125 2.09375 
Q 45.015625 0.34375 40.984375 -0.53125 
Q 36.96875 -1.421875 32.421875 -1.421875 
Q 20.0625 -1.421875 12.78125 6.34375 
Q 5.515625 14.109375 5.515625 27.296875 
Q 5.515625 40.671875 12.859375 48.328125 
Q 20.21875 56 33.015625 56 
Q 37.15625 56 41.109375 55.140625 
Q 45.0625 54.296875 48.78125 52.59375 
z
" id="DejaVuSans-63"/>
      <path d="M 30.421875 75.984375 
L 30.421875 -13.1875 
L 9.71875 -13.1875 
L 9.71875 -6.203125 
L 21.390625 -6.203125 
L 21.390625 69 
L 9.71875 69 
L 9.71875 75.984375 
z
" id="DejaVuSans-5d"/>
     </defs>
     <g transform="translate(18.882812 244.661875)rotate(-90)scale(0.1 -0.1)">
      <use xlink:href="#DejaVuSans-4c"/>
      <use x="55.712891" xlink:href="#DejaVuSans-61"/>
      <use x="116.992188" xlink:href="#DejaVuSans-70"/>
      <use x="180.46875" xlink:href="#DejaVuSans-20"/>
      <use x="212.255859" xlink:href="#DejaVuSans-54"/>
      <use x="273.292969" xlink:href="#DejaVuSans-69"/>
      <use x="301.076172" xlink:href="#DejaVuSans-6d"/>
      <use x="398.488281" xlink:href="#DejaVuSans-65"/>
      <use x="460.011719" xlink:href="#DejaVuSans-20"/>
      <use x="491.798828" xlink:href="#DejaVuSans-5b"/>
      <use x="530.8125" xlink:href="#DejaVuSans-73"/>
      <use x="582.912109" xlink:href="#DejaVuSans-65"/>
      <use x="644.435547" xlink:href="#DejaVuSans-63"/>
      <use x="699.416016" xlink:href="#DejaVuSans-5d"/>
     </g>
    </g>
   </g>
   <g id="line2d_25">
    <path clip-path="url(#p6f639a94b4)" d="M 80.851364 352.205056 
L 82.247212 342.759827 
L 83.64306 339.849314 
L 85.038909 335.968629 
L 86.434757 335.65639 
L 87.830606 335.500271 
L 89.226454 335.143426 
L 90.622303 335.121123 
L 92.018151 329.355854 
L 93.413999 328.486045 
L 94.809848 328.151503 
L 97.601545 327.88387 
L 98.997393 326.768731 
L 101.78909 326.378432 
L 103.184938 325.976982 
L 104.580787 323.467919 
L 107.372484 323.211437 
L 108.768332 322.508899 
L 111.560029 322.453142 
L 112.955877 322.230114 
L 114.351726 322.207811 
L 115.747574 319.721051 
L 117.143422 319.642991 
L 118.539271 317.579983 
L 119.935119 317.435015 
L 121.330968 317.435015 
L 122.726816 317.133928 
L 124.122664 316.643267 
L 125.518513 316.331028 
L 128.31021 314.948255 
L 129.706058 314.758681 
L 131.101907 314.714076 
L 133.893603 313.487423 
L 135.289452 313.141729 
L 136.6853 312.472646 
L 138.081149 311.62514 
L 139.476997 311.312901 
L 140.872845 311.268296 
L 142.268694 310.9003 
L 145.060391 310.465395 
L 147.852088 309.194137 
L 149.247936 309.093774 
L 150.643784 308.190511 
L 152.039633 308.090149 
L 154.83133 307.387611 
L 157.623026 307.108826 
L 159.018875 305.681448 
L 160.414723 305.402663 
L 161.810572 305.257695 
L 163.20642 304.711277 
L 164.602268 303.975285 
L 165.998117 303.729954 
L 167.393965 303.674197 
L 168.789814 303.350807 
L 171.581511 303.272747 
L 172.977359 302.681724 
L 174.373207 302.659421 
L 175.769056 302.001489 
L 177.164904 302.001489 
L 179.956601 301.254345 
L 181.352449 301.232043 
L 182.748298 300.707927 
L 184.144146 300.518353 
L 185.539995 300.049995 
L 186.935843 298.600314 
L 188.331692 298.187712 
L 189.72754 298.131956 
L 192.519237 297.139482 
L 196.706782 297.005665 
L 198.10263 296.481549 
L 199.498479 295.466773 
L 200.894327 294.596964 
L 202.290176 293.905578 
L 203.686024 293.727156 
L 205.081872 293.392614 
L 206.477721 292.846196 
L 210.665266 292.4782 
L 212.061115 292.020993 
L 214.852811 290.783188 
L 216.24866 290.649371 
L 217.644508 290.370587 
L 219.040357 289.91338 
L 220.436205 289.300053 
L 223.227902 289.132782 
L 224.62375 288.240671 
L 226.019599 288.084551 
L 227.415447 288.0734 
L 228.811296 287.694252 
L 230.207144 287.683101 
L 231.602992 287.538133 
L 232.998841 287.538133 
L 234.394689 287.281651 
L 235.790538 285.75391 
L 237.186386 285.542034 
L 238.582234 284.538408 
L 239.978083 284.014293 
L 241.373931 283.679751 
L 242.76978 283.635146 
L 245.561476 283.34521 
L 246.957325 283.322907 
L 248.353173 283.088727 
L 249.749022 282.63152 
L 252.540719 282.174313 
L 255.332415 282.029345 
L 256.728264 281.293353 
L 260.915809 281.192991 
L 262.311657 280.813843 
L 263.707506 280.758087 
L 265.103354 280.54621 
L 267.895051 279.955186 
L 269.2909 279.709856 
L 270.686748 279.687553 
L 274.874293 279.007318 
L 277.66599 277.412669 
L 286.04108 276.386741 
L 287.436929 276.319832 
L 290.228626 275.394267 
L 291.624474 275.238147 
L 293.020323 275.238147 
L 297.207868 274.747486 
L 299.999565 274.45755 
L 304.18711 274.044948 
L 306.978807 273.442773 
L 308.374655 273.342411 
L 309.770504 272.885204 
L 311.166352 272.628722 
L 312.5622 271.747762 
L 315.353897 271.613945 
L 316.749746 271.569339 
L 318.145594 271.112132 
L 319.541442 271.045224 
L 320.937291 270.744136 
L 322.333139 270.643774 
L 323.728988 270.05275 
L 325.124836 269.160639 
L 327.916533 268.658826 
L 329.312381 267.822472 
L 330.70823 267.789017 
L 332.104078 267.108782 
L 333.499927 266.863452 
L 334.895775 266.796544 
L 336.291623 266.517759 
L 339.08332 266.272428 
L 340.479169 265.937886 
L 344.666714 265.581042 
L 346.062562 264.900807 
L 347.458411 264.421297 
L 348.854259 264.209421 
L 357.22935 263.729911 
L 358.625198 263.495731 
L 360.021046 263.473429 
L 362.812743 262.748588 
L 364.208592 262.715134 
L 367.000288 261.967991 
L 368.396137 261.845325 
L 369.791985 261.354664 
L 371.187834 261.24315 
L 372.583682 260.674429 
L 373.979531 259.983043 
L 375.375379 259.748864 
L 378.167076 258.689481 
L 379.562924 258.644876 
L 380.958773 258.377242 
L 385.146318 258.221123 
L 386.542166 257.083681 
L 392.12556 256.894107 
L 393.521408 256.882956 
L 394.917257 256.726836 
L 396.313105 256.080056 
L 397.708954 255.71206 
L 399.104802 255.656303 
L 400.50065 255.444426 
L 401.896499 255.355215 
L 403.292347 254.808797 
L 404.688196 254.407347 
L 406.084044 254.396195 
L 407.479892 253.704809 
L 408.875741 253.225299 
L 410.271589 253.214148 
L 411.667438 252.701184 
L 414.459135 252.645427 
L 415.854983 252.444702 
L 417.250831 252.43355 
L 418.64668 252.043252 
L 422.834225 251.675256 
L 424.230073 251.329563 
L 428.417619 251.028475 
L 436.792709 250.67163 
L 439.584406 250.192121 
L 440.980254 249.757216 
L 442.376103 249.589945 
L 445.1678 249.500734 
L 446.563648 249.422675 
L 447.959496 248.865105 
L 449.355345 248.853954 
L 450.751193 247.995296 
L 452.147042 247.426575 
L 457.730435 246.523313 
L 460.522132 246.333739 
L 461.917981 245.742715 
L 463.313829 245.274357 
L 464.709677 245.040177 
L 466.105526 244.627576 
L 467.501374 244.438002 
L 473.084768 244.33764 
L 477.272313 243.200198 
L 478.668162 242.97717 
L 480.06401 242.118513 
L 481.459858 241.94009 
L 482.855707 241.895485 
L 485.647404 241.53864 
L 487.043252 241.527489 
L 488.4391 241.248704 
L 491.230797 240.880708 
L 492.626646 240.646529 
L 494.022494 239.799023 
L 501.001736 239.341816 
L 505.189281 239.107637 
L 509.376827 238.862306 
L 510.772675 238.126314 
L 517.751917 237.334565 
L 520.543614 237.156143 
L 521.939462 236.966569 
L 523.335311 235.673008 
L 524.731159 235.070833 
L 530.314553 234.323689 
L 531.710401 233.085885 
L 533.10625 232.918614 
L 534.502098 232.539467 
L 535.897947 230.56567 
L 537.293795 228.223878 
L 542.877189 228.067758 
L 544.273037 227.800125 
L 545.668885 227.320615 
L 548.460582 226.963771 
L 549.856431 225.826329 
L 551.252279 225.569847 
L 552.648128 225.43603 
L 554.043976 224.343193 
L 555.439824 223.952895 
L 556.835673 223.729867 
L 558.231521 222.826604 
L 559.62737 222.291337 
L 561.023218 221.209652 
L 562.419066 220.540569 
L 563.814915 220.194876 
L 565.210763 220.15027 
L 572.190005 219.057434 
L 573.585854 218.254533 
L 574.981702 217.696964 
L 576.377551 217.317816 
L 577.773399 216.804852 
L 579.169247 215.544745 
L 580.565096 214.585725 
L 581.960944 214.329243 
L 583.356793 213.872036 
L 586.148489 212.344296 
L 587.544338 212.255084 
L 588.940186 211.864786 
L 590.336035 211.106491 
L 593.127732 210.660435 
L 594.52358 210.13632 
L 597.315277 209.667961 
L 598.711125 209.288814 
L 600.106974 208.352097 
L 601.502822 208.106766 
L 602.89867 207.582651 
L 604.294519 206.333695 
L 605.690367 205.396978 
L 608.482064 205.207405 
L 609.877912 202.642584 
L 611.273761 199.442135 
L 612.669609 197.825183 
L 614.065458 197.735972 
L 615.461306 196.096717 
L 616.857155 195.226909 
L 618.253003 193.141598 
L 619.648851 191.892642 
L 621.0447 189.495093 
L 622.440548 184.66654 
L 623.836397 182.692744 
L 625.232245 182.436262 
L 626.628093 177.016685 
L 628.023942 168.80926 
L 629.41979 166.066018 
L 630.815639 154.189785 
L 632.211487 149.506201 
L 633.607336 147.164408 
L 635.003184 140.875023 
L 636.399032 132.75681 
L 639.190729 115.394092 
L 641.982426 85.106911 
L 643.378274 72.583897 
L 644.774123 42.129445 
L 646.169971 30.833085 
L 647.182069 -1 
L 647.182069 -1 
" style="fill:none;stroke:#1f77b4;stroke-linecap:square;stroke-width:1.5;"/>
   </g>
   <g id="line2d_26">
    <path clip-path="url(#p6f639a94b4)" d="M 80.851364 315.528127 
L 82.247212 312.361132 
L 83.64306 306.450894 
L 86.434757 306.428591 
L 89.226454 304.320978 
L 90.622303 304.265221 
L 93.413999 303.77456 
L 94.809848 303.239293 
L 98.997393 302.927054 
L 100.393241 302.581361 
L 101.78909 302.01264 
L 103.184938 300.953258 
L 104.580787 300.707927 
L 105.976635 300.295326 
L 108.768332 299.804664 
L 110.16418 298.845645 
L 111.560029 298.600314 
L 112.955877 296.213916 
L 114.351726 296.147008 
L 118.539271 294.061697 
L 121.330968 293.849821 
L 122.726816 293.615642 
L 128.31021 293.292251 
L 132.497755 292.645471 
L 133.893603 292.578562 
L 135.289452 292.32208 
L 136.6853 292.24402 
L 140.872845 291.619543 
L 142.268694 291.541483 
L 143.664542 291.296152 
L 147.852088 291.084276 
L 149.247936 290.96161 
L 152.039633 290.203316 
L 153.435481 290.192164 
L 156.227178 289.980288 
L 157.623026 289.891077 
L 159.018875 289.35581 
L 160.414723 289.311204 
L 161.810572 289.121631 
L 164.602268 289.099328 
L 167.393965 288.898603 
L 168.789814 288.764786 
L 170.185662 288.753635 
L 171.581511 288.341033 
L 172.977359 287.526982 
L 174.373207 287.460073 
L 177.164904 286.411842 
L 178.560753 286.211117 
L 181.352449 286.054998 
L 184.144146 285.91003 
L 185.539995 285.530882 
L 188.331692 284.973313 
L 199.498479 284.504954 
L 200.894327 284.14811 
L 205.081872 283.791265 
L 206.477721 283.066425 
L 209.269418 282.720732 
L 213.456963 282.564612 
L 214.852811 282.520006 
L 217.644508 282.274676 
L 221.832053 282.174313 
L 223.227902 282.163162 
L 224.62375 281.98474 
L 228.811296 281.070326 
L 230.207144 280.8696 
L 234.394689 280.824995 
L 235.790538 280.490453 
L 237.186386 280.390091 
L 238.582234 279.631796 
L 242.76978 279.475676 
L 245.561476 279.286103 
L 246.957325 278.349386 
L 252.540719 278.05945 
L 256.728264 277.546486 
L 258.124112 277.111581 
L 259.519961 277.000067 
L 262.311657 276.475952 
L 265.103354 276.275227 
L 267.895051 275.996442 
L 269.2909 275.728809 
L 270.686748 275.639598 
L 273.478445 274.903606 
L 279.061838 274.591367 
L 284.645232 273.97804 
L 286.04108 273.821921 
L 287.436929 273.09708 
L 290.228626 273.052475 
L 291.624474 272.829447 
L 298.603716 272.483754 
L 299.999565 271.981941 
L 302.791261 271.770064 
L 304.18711 271.33516 
L 305.582958 271.290555 
L 306.978807 271.056375 
L 308.374655 271.022921 
L 309.770504 270.599168 
L 313.958049 269.941236 
L 316.749746 269.751662 
L 319.541442 269.550937 
L 320.937291 269.472878 
L 322.333139 269.272153 
L 323.728988 269.216396 
L 325.124836 269.049125 
L 326.520684 268.69228 
L 327.916533 267.878229 
L 330.70823 267.833623 
L 332.104078 267.56599 
L 333.499927 267.443324 
L 334.895775 266.952663 
L 351.645956 265.859827 
L 353.041804 265.424922 
L 355.833501 265.157289 
L 357.22935 264.599719 
L 361.416895 264.398994 
L 362.812743 264.04215 
L 367.000288 263.785668 
L 368.396137 263.529186 
L 369.791985 263.506883 
L 371.187834 263.172341 
L 375.375379 262.915859 
L 376.771227 262.60362 
L 378.167076 262.581317 
L 380.958773 262.068353 
L 382.354621 261.945688 
L 383.750469 261.945688 
L 385.146318 260.607521 
L 387.938015 260.507158 
L 389.333863 260.005346 
L 390.729712 259.949589 
L 392.12556 259.726561 
L 393.521408 259.681955 
L 394.917257 259.425473 
L 401.896499 259.035175 
L 403.292347 258.83445 
L 404.688196 258.83445 
L 406.084044 258.656027 
L 407.479892 258.065003 
L 408.875741 257.005621 
L 410.271589 256.894107 
L 411.667438 256.503809 
L 413.063286 256.314235 
L 414.459135 255.410972 
L 418.64668 254.898008 
L 420.042528 254.150865 
L 421.438377 254.083956 
L 422.834225 253.71596 
L 425.625922 253.54869 
L 428.417619 253.269905 
L 429.813467 252.701184 
L 434.001012 252.567367 
L 438.188558 252.467005 
L 439.584406 252.467005 
L 449.355345 251.374168 
L 452.147042 251.2292 
L 453.54289 250.771993 
L 457.730435 249.723762 
L 459.126284 249.6234 
L 460.522132 248.853954 
L 461.917981 248.798197 
L 463.313829 248.630926 
L 464.709677 248.608623 
L 466.105526 248.02875 
L 467.501374 247.638452 
L 468.897223 247.560392 
L 470.293071 246.389496 
L 471.68892 246.09956 
L 474.480616 245.709261 
L 475.876465 245.296659 
L 477.272313 245.263205 
L 481.459858 244.616424 
L 482.855707 244.58297 
L 484.251555 243.902735 
L 485.647404 243.746616 
L 487.043252 243.735464 
L 488.4391 243.367469 
L 489.834949 242.876807 
L 494.022494 242.519963 
L 496.814191 242.263481 
L 498.210039 242.01815 
L 499.605888 241.594397 
L 502.397585 241.382521 
L 505.189281 241.014525 
L 506.58513 240.523864 
L 507.980978 240.289684 
L 509.376827 239.609449 
L 510.772675 239.063031 
L 512.168524 238.962669 
L 513.564372 238.49431 
L 516.356069 238.260131 
L 517.751917 237.490685 
L 519.147766 237.446079 
L 520.543614 237.111538 
L 521.939462 236.910812 
L 523.335311 236.866207 
L 524.731159 235.472283 
L 527.522856 235.37192 
L 528.918704 234.334841 
L 531.710401 234.223327 
L 533.10625 233.955694 
L 534.502098 233.20855 
L 535.897947 232.762495 
L 537.293795 232.56177 
L 538.689643 231.368571 
L 540.085492 230.833304 
L 541.48134 228.948718 
L 542.877189 228.48036 
L 544.273037 227.621703 
L 545.668885 227.5994 
L 547.064734 225.937843 
L 549.856431 225.893237 
L 551.252279 225.168397 
L 552.648128 223.75217 
L 554.043976 223.651807 
L 555.439824 222.982724 
L 556.835673 222.882361 
L 558.231521 221.533043 
L 559.62737 219.681912 
L 561.023218 219.548095 
L 562.419066 216.54837 
L 563.814915 215.90159 
L 565.210763 215.767773 
L 566.606612 215.042932 
L 568.00246 213.414829 
L 570.794157 212.846108 
L 573.585854 212.533869 
L 576.377551 211.229156 
L 577.773399 209.355722 
L 579.169247 209.344571 
L 580.565096 208.441308 
L 581.960944 207.315018 
L 583.356793 206.846659 
L 586.148489 203.155548 
L 588.940186 203.01058 
L 590.336035 202.163074 
L 591.731883 202.107317 
L 593.127732 197.869788 
L 594.52358 197.780577 
L 595.919428 196.141323 
L 597.315277 195.951749 
L 598.711125 194.780853 
L 600.106974 190.398356 
L 601.502822 189.350125 
L 602.89867 188.101169 
L 604.294519 186.116221 
L 607.086216 184.978779 
L 608.482064 184.66654 
L 609.877912 180.953127 
L 611.273761 180.730099 
L 612.669609 179.046238 
L 614.065458 175.879243 
L 615.461306 173.648965 
L 616.857155 172.600734 
L 618.253003 167.749878 
L 619.648851 167.393034 
L 621.0447 166.790858 
L 622.440548 165.44154 
L 623.836397 162.698298 
L 625.232245 160.323051 
L 626.628093 157.100299 
L 628.023942 155.137654 
L 629.41979 121.962262 
L 630.815639 118.26 
L 632.211487 117.646673 
L 633.607336 105.592018 
L 635.003184 105.569715 
L 636.399032 103.551313 
L 637.794881 101.053402 
L 639.190729 100.049776 
L 640.586578 87.381795 
L 641.982426 86.567743 
L 643.378274 69.071209 
L 644.774123 63.205577 
L 646.169971 43.378401 
L 646.513783 -1 
L 646.513783 -1 
" style="fill:none;stroke:#ff7f0e;stroke-linecap:square;stroke-width:1.5;"/>
   </g>
   <g id="line2d_27">
    <path clip-path="url(#p6f639a94b4)" d="M 80.851364 318.773182 
L 82.247212 316.609812 
L 83.64306 312.338829 
L 85.038909 312.015439 
L 86.434757 308.112452 
L 87.830606 306.718528 
L 90.622303 301.198588 
L 92.018151 300.752533 
L 93.413999 300.596413 
L 94.809848 300.261871 
L 96.205696 299.380911 
L 97.601545 298.722979 
L 98.997393 298.276924 
L 100.393241 296.682275 
L 101.78909 295.700952 
L 103.184938 295.44447 
L 104.580787 294.819992 
L 105.976635 294.708478 
L 107.372484 294.251271 
L 108.768332 294.017092 
L 112.955877 293.771761 
L 114.351726 293.459522 
L 115.747574 293.392614 
L 122.726816 292.533957 
L 124.122664 292.377837 
L 125.518513 291.987538 
L 126.914361 291.887176 
L 128.31021 291.396515 
L 129.706058 291.318455 
L 131.101907 290.950459 
L 132.497755 290.036045 
L 135.289452 289.801866 
L 136.6853 289.690352 
L 139.476997 289.255447 
L 142.268694 288.218368 
L 145.060391 288.140308 
L 152.039633 287.805766 
L 156.227178 287.047472 
L 163.20642 286.746384 
L 165.998117 285.575488 
L 168.789814 285.43052 
L 170.185662 285.397066 
L 174.373207 285.062524 
L 177.164904 284.939859 
L 178.560753 284.605317 
L 179.956601 283.690903 
L 181.352449 283.690903 
L 186.935843 283.289453 
L 188.331692 283.289453 
L 193.915085 282.486552 
L 195.310934 281.98474 
L 196.706782 281.862074 
L 198.10263 281.862074 
L 202.290176 280.891903 
L 203.686024 280.791541 
L 205.081872 280.557361 
L 206.477721 279.464525 
L 209.269418 279.2638 
L 212.061115 279.152286 
L 214.852811 278.840047 
L 216.24866 278.170964 
L 217.644508 277.836422 
L 219.040357 277.044673 
L 220.436205 277.02237 
L 221.832053 276.710131 
L 230.207144 276.197167 
L 231.602992 275.951836 
L 234.394689 275.851474 
L 238.582234 275.483478 
L 239.978083 275.271602 
L 244.165628 275.082028 
L 245.561476 274.78094 
L 262.311657 273.89998 
L 265.103354 273.89998 
L 274.874293 272.940961 
L 276.270142 272.651024 
L 277.66599 272.53951 
L 279.061838 272.227272 
L 281.853535 272.104606 
L 286.04108 272.060001 
L 287.436929 271.870427 
L 298.603716 271.468977 
L 299.999565 271.201343 
L 301.395413 271.145586 
L 302.791261 270.721834 
L 304.18711 270.53226 
L 305.582958 270.498806 
L 306.978807 269.985842 
L 313.958049 269.740511 
L 315.353897 269.539786 
L 323.728988 269.238698 
L 325.124836 268.893005 
L 327.916533 268.569615 
L 330.70823 268.413495 
L 332.104078 267.73326 
L 333.499927 267.699806 
L 339.08332 267.119934 
L 340.479169 266.740787 
L 341.875017 266.12746 
L 343.270865 266.060552 
L 346.062562 265.581042 
L 347.458411 265.201894 
L 350.250108 265.123835 
L 351.645956 264.889655 
L 354.437653 264.755839 
L 358.625198 264.265177 
L 361.416895 263.618397 
L 362.812743 263.451126 
L 365.60444 263.384218 
L 367.000288 262.447501 
L 368.396137 262.04605 
L 372.583682 261.80072 
L 373.979531 261.477329 
L 375.375379 261.443875 
L 376.771227 260.529461 
L 378.167076 260.094557 
L 379.562924 259.838075 
L 380.958773 259.269354 
L 383.750469 259.113234 
L 385.146318 259.046326 
L 386.542166 258.700633 
L 390.729712 258.544513 
L 393.521408 258.332637 
L 397.708954 258.209972 
L 400.50065 257.886581 
L 401.896499 257.79737 
L 403.292347 257.2398 
L 406.084044 257.039075 
L 407.479892 256.693382 
L 411.667438 256.336538 
L 415.854983 254.942614 
L 417.250831 254.59692 
L 420.042528 254.295833 
L 421.438377 254.206622 
L 424.230073 253.860929 
L 427.02177 253.79402 
L 428.417619 253.002271 
L 429.813467 252.734638 
L 431.209316 252.065554 
L 432.605164 251.942889 
L 434.001012 251.396471 
L 435.396861 251.017324 
L 438.188558 250.90581 
L 443.771951 250.560117 
L 445.1678 250.370543 
L 447.959496 249.746065 
L 450.751193 249.366918 
L 452.147042 248.686683 
L 453.54289 248.619774 
L 454.938739 248.329838 
L 456.334587 247.86148 
L 457.730435 247.828025 
L 459.126284 247.649603 
L 460.522132 247.326213 
L 461.917981 246.735189 
L 463.313829 246.735189 
L 467.501374 246.277982 
L 468.897223 246.255679 
L 470.293071 246.054954 
L 471.68892 244.605273 
L 473.084768 244.594122 
L 474.480616 244.136915 
L 475.876465 243.891584 
L 477.272313 243.37862 
L 480.06401 243.099835 
L 481.459858 242.542266 
L 484.251555 241.995847 
L 485.647404 241.259855 
L 487.043252 241.192947 
L 494.022494 240.133565 
L 496.814191 239.787872 
L 498.210039 239.787872 
L 499.605888 239.118788 
L 501.001736 238.806549 
L 502.397585 237.234203 
L 503.793433 237.111538 
L 505.189281 236.710087 
L 507.980978 235.427677 
L 510.772675 235.026227 
L 512.168524 234.992773 
L 513.564372 234.624777 
L 514.96022 234.602474 
L 516.356069 234.078359 
L 521.939462 232.706738 
L 523.335311 231.937292 
L 527.522856 230.877909 
L 528.918704 229.450531 
L 533.10625 228.48036 
L 534.502098 227.788974 
L 535.897947 227.788974 
L 537.293795 227.231404 
L 541.48134 226.997225 
L 542.877189 226.406201 
L 544.273037 226.004751 
L 545.668885 225.971297 
L 547.064734 224.856158 
L 548.460582 224.354345 
L 549.856431 223.339568 
L 551.252279 223.317265 
L 552.648128 223.049632 
L 555.439824 222.737393 
L 556.835673 222.101764 
L 558.231521 221.867584 
L 561.023218 221.767222 
L 562.419066 220.495963 
L 563.814915 220.049908 
L 566.606612 219.960696 
L 570.794157 218.745195 
L 572.190005 218.511015 
L 573.585854 216.369948 
L 574.981702 215.879287 
L 576.377551 215.74547 
L 577.773399 214.775299 
L 579.169247 214.228881 
L 580.565096 214.117367 
L 581.960944 213.124893 
L 584.752641 210.638133 
L 586.148489 206.813205 
L 587.544338 206.077213 
L 588.940186 202.910218 
L 590.336035 201.516294 
L 591.731883 195.9629 
L 593.127732 191.535798 
L 594.52358 190.498718 
L 595.919428 190.208782 
L 597.315277 188.458013 
L 598.711125 188.234986 
L 600.106974 183.194556 
L 601.502822 182.971529 
L 602.89867 182.268991 
L 604.294519 179.358477 
L 605.690367 177.37353 
L 608.482064 168.195934 
L 609.877912 167.314974 
L 611.273761 164.147979 
L 612.669609 162.497572 
L 614.065458 160.55723 
L 615.461306 159.375183 
L 616.857155 157.222964 
L 618.253003 155.795586 
L 619.648851 154.725052 
L 621.0447 151.591511 
L 622.440548 146.69605 
L 623.836397 142.804214 
L 625.232245 136.559434 
L 626.628093 128.764611 
L 628.023942 125.564162 
L 629.41979 117.033347 
L 630.815639 112.829272 
L 632.211487 95.957215 
L 635.003184 89.4225 
L 636.399032 87.125313 
L 637.794881 81.906461 
L 639.190729 68.257157 
L 640.586578 48.998703 
L 641.545142 -1 
L 641.545142 -1 
" style="fill:none;stroke:#2ca02c;stroke-linecap:square;stroke-width:1.5;"/>
   </g>
   <g id="line2d_28">
    <path clip-path="url(#p6f639a94b4)" d="M 80.851364 350.119746 
L 82.247212 332.099096 
L 83.64306 330.359479 
L 85.038909 329.355854 
L 86.434757 325.898922 
L 87.830606 325.207536 
L 89.226454 325.174082 
L 90.622303 324.638815 
L 92.018151 323.356405 
L 93.413999 322.720775 
L 94.809848 322.464293 
L 96.205696 318.483246 
L 97.601545 317.702649 
L 98.997393 315.963032 
L 100.393241 315.394311 
L 101.78909 314.357231 
L 104.580787 314.089598 
L 107.372484 312.874096 
L 108.768332 311.981985 
L 110.16418 310.576909 
L 111.560029 310.454244 
L 112.955877 309.171834 
L 115.747574 308.993412 
L 117.143422 308.012089 
L 118.539271 307.800213 
L 121.330968 306.841193 
L 122.726816 305.358058 
L 124.122664 305.168484 
L 125.518513 304.477098 
L 126.914361 304.053345 
L 128.31021 303.930679 
L 131.101907 302.904751 
L 132.497755 301.68925 
L 133.893603 301.009015 
L 136.6853 300.641019 
L 138.081149 300.150358 
L 139.476997 299.971935 
L 140.872845 299.481274 
L 142.268694 298.466497 
L 143.664542 297.986987 
L 145.060391 297.964685 
L 146.456239 297.585537 
L 147.852088 296.459247 
L 149.247936 295.979737 
L 157.623026 294.987263 
L 163.20642 293.68255 
L 164.602268 293.158435 
L 167.393965 292.612016 
L 168.789814 292.087901 
L 170.185662 291.909479 
L 172.977359 291.106578 
L 174.373207 290.582463 
L 175.769056 290.214467 
L 177.164904 289.445021 
L 178.560753 289.266599 
L 181.352449 289.221993 
L 189.72754 288.095703 
L 191.123388 287.939583 
L 193.915085 287.482376 
L 195.310934 287.460073 
L 196.706782 286.445297 
L 200.894327 286.110755 
L 202.290176 285.999241 
L 206.477721 284.560711 
L 209.269418 284.315381 
L 216.24866 283.936233 
L 219.040357 283.200241 
L 220.436205 283.133333 
L 221.832053 282.754186 
L 223.227902 282.620369 
L 224.62375 281.717106 
L 227.415447 281.438321 
L 228.811296 281.048023 
L 230.207144 281.014569 
L 231.602992 280.691178 
L 235.790538 280.512756 
L 237.186386 280.300879 
L 238.582234 280.233971 
L 241.373931 278.985015 
L 244.165628 278.761987 
L 245.561476 278.427446 
L 246.957325 278.427446 
L 248.353173 278.293629 
L 249.749022 277.802968 
L 251.14487 277.646848 
L 252.540719 277.301155 
L 253.936567 276.69898 
L 256.728264 276.62092 
L 258.124112 276.197167 
L 259.519961 275.985291 
L 260.915809 274.725183 
L 266.499203 273.89998 
L 267.895051 273.643498 
L 269.2909 273.565439 
L 270.686748 273.308957 
L 272.082596 273.275502 
L 273.478445 272.896355 
L 274.874293 272.740236 
L 276.270142 272.305331 
L 277.66599 272.305331 
L 280.457687 271.825821 
L 284.645232 271.558188 
L 287.436929 271.145586 
L 290.228626 270.565714 
L 291.624474 270.543411 
L 293.020323 270.097356 
L 295.812019 269.673603 
L 297.207868 269.227547 
L 298.603716 269.104882 
L 299.999565 268.792643 
L 302.791261 267.655201 
L 305.582958 267.421021 
L 306.978807 266.785392 
L 309.770504 266.361639 
L 313.958049 266.015946 
L 316.749746 265.369165 
L 319.541442 265.179592 
L 322.333139 264.889655 
L 323.728988 264.644325 
L 326.520684 264.555114 
L 327.916533 263.874879 
L 333.499927 263.495731 
L 336.291623 263.317309 
L 337.687472 263.272704 
L 339.08332 263.016222 
L 341.875017 262.882405 
L 351.645956 261.923385 
L 353.041804 261.533086 
L 354.437653 261.287756 
L 355.833501 260.607521 
L 357.22935 260.596369 
L 362.812743 259.983043 
L 364.208592 259.213597 
L 367.000288 259.180143 
L 369.791985 258.923661 
L 371.187834 258.321485 
L 372.583682 257.942338 
L 373.979531 257.206346 
L 375.375379 257.117135 
L 376.771227 256.425749 
L 378.167076 256.35884 
L 379.562924 255.823574 
L 382.354621 255.377518 
L 383.750469 254.864554 
L 385.146318 254.641526 
L 386.542166 254.184319 
L 389.333863 253.905534 
L 394.917257 253.693658 
L 396.313105 253.336813 
L 397.708954 253.325662 
L 399.104802 252.823849 
L 400.50065 252.545064 
L 401.896499 252.388945 
L 403.292347 251.641802 
L 404.688196 251.251503 
L 407.479892 251.206897 
L 408.875741 250.114061 
L 410.271589 250.102909 
L 411.667438 249.199647 
L 413.063286 249.132738 
L 415.854983 248.820499 
L 417.250831 248.18487 
L 421.438377 246.891308 
L 425.625922 246.679432 
L 428.417619 246.233376 
L 429.813467 246.121862 
L 432.605164 245.664655 
L 440.980254 245.196297 
L 442.376103 245.185145 
L 443.771951 244.382245 
L 445.1678 244.092309 
L 446.563648 243.623951 
L 447.959496 243.021775 
L 450.751193 242.765293 
L 452.147042 242.386146 
L 457.730435 241.449429 
L 459.126284 240.981071 
L 460.522132 239.899386 
L 461.917981 239.765569 
L 463.313829 239.386422 
L 466.105526 239.252605 
L 471.68892 238.761944 
L 473.084768 238.672732 
L 474.480616 238.304737 
L 475.876465 238.271282 
L 480.06401 237.635653 
L 481.459858 237.13384 
L 484.251555 237.078083 
L 485.647404 235.873733 
L 487.043252 235.539191 
L 488.4391 234.513263 
L 489.834949 234.513263 
L 491.230797 234.223327 
L 492.626646 234.067207 
L 494.022494 233.632303 
L 495.418343 233.44273 
L 498.210039 233.375821 
L 499.605888 232.56177 
L 501.001736 231.558144 
L 502.397585 231.491236 
L 503.793433 231.112089 
L 505.189281 230.96712 
L 506.58513 230.443005 
L 507.980978 229.483985 
L 510.772675 229.093687 
L 512.168524 228.48036 
L 513.564372 228.067758 
L 516.356069 227.800125 
L 517.751917 226.417352 
L 519.147766 226.23893 
L 520.543614 224.465859 
L 523.335311 223.964046 
L 524.731159 223.59605 
L 526.127008 222.46976 
L 527.522856 222.447457 
L 530.314553 222.057158 
L 531.710401 221.700314 
L 533.10625 220.897413 
L 535.897947 220.797051 
L 538.689643 218.689438 
L 541.48134 218.154171 
L 542.877189 218.131868 
L 545.668885 215.622805 
L 547.064734 215.02063 
L 548.460582 214.920267 
L 549.856431 211.89824 
L 551.252279 211.563698 
L 552.648128 210.783101 
L 554.043976 210.258985 
L 555.439824 209.545296 
L 556.835673 206.802054 
L 561.023218 206.032608 
L 562.419066 205.664612 
L 563.814915 205.631157 
L 565.210763 205.006679 
L 566.606612 204.248385 
L 568.00246 204.159174 
L 569.398308 202.76525 
L 570.794157 200.311943 
L 572.190005 198.393904 
L 573.585854 191.881491 
L 574.981702 188.547225 
L 576.377551 188.212683 
L 577.773399 188.090018 
L 579.169247 186.406157 
L 580.565096 182.737349 
L 581.960944 181.677967 
L 583.356793 179.737625 
L 586.148489 179.336175 
L 587.544338 177.596557 
L 588.940186 176.827111 
L 590.336035 173.091395 
L 591.731883 169.745977 
L 593.127732 168.96538 
L 594.52358 168.853866 
L 595.919428 161.538553 
L 597.315277 160.144629 
L 598.711125 159.67627 
L 600.106974 154.580084 
L 601.502822 153.375734 
L 602.89867 147.744281 
L 604.294519 145.937755 
L 605.690367 141.053445 
L 607.086216 140.37321 
L 608.482064 140.027517 
L 609.877912 117.981215 
L 611.273761 87.727488 
L 612.669609 86.969193 
L 615.461306 77.155968 
L 616.857155 68.524791 
L 618.253003 37.847311 
L 619.648851 20.06084 
L 620.269727 -1 
L 620.269727 -1 
" style="fill:none;stroke:#d62728;stroke-linecap:square;stroke-width:1.5;"/>
   </g>
   <g id="line2d_29">
    <path clip-path="url(#p6f639a94b4)" d="M 80.851364 309.740555 
L 82.247212 307.131129 
L 83.64306 304.889699 
L 85.038909 304.588612 
L 86.434757 301.165134 
L 87.830606 299.670848 
L 89.226454 297.708203 
L 90.622303 297.496326 
L 92.018151 296.593063 
L 93.413999 296.124705 
L 94.809848 295.834769 
L 97.601545 295.567135 
L 98.997393 294.496602 
L 100.393241 294.228968 
L 101.78909 293.214192 
L 103.184938 292.489351 
L 105.976635 291.797965 
L 107.372484 291.307304 
L 108.768332 291.017367 
L 110.16418 289.813017 
L 111.560029 289.065874 
L 115.747574 288.274125 
L 117.143422 287.303954 
L 118.539271 287.281651 
L 119.935119 286.679476 
L 121.330968 286.322631 
L 122.726816 286.133058 
L 124.122664 285.664699 
L 125.518513 284.14811 
L 126.914361 284.003142 
L 128.31021 283.545935 
L 129.706058 283.278301 
L 131.101907 282.798791 
L 135.289452 281.873226 
L 136.6853 281.237596 
L 138.081149 280.914206 
L 139.476997 280.914206 
L 146.456239 279.542585 
L 147.852088 278.873501 
L 153.435481 278.472051 
L 154.83133 275.974139 
L 156.227178 275.918382 
L 157.623026 275.751111 
L 160.414723 275.18239 
L 163.20642 275.059725 
L 164.602268 274.491004 
L 165.998117 274.435247 
L 167.393965 273.922283 
L 168.789814 273.766164 
L 171.581511 273.732709 
L 172.977359 272.818295 
L 174.373207 272.584116 
L 175.769056 272.21612 
L 178.560753 271.848124 
L 181.352449 271.680853 
L 182.748298 271.190192 
L 184.144146 271.08983 
L 186.935843 270.253475 
L 188.331692 270.164264 
L 189.72754 269.517483 
L 191.123388 268.458101 
L 192.519237 268.101256 
L 198.10263 267.81132 
L 199.498479 267.499081 
L 200.894327 267.476778 
L 202.290176 267.320659 
L 203.686024 267.287205 
L 207.873569 266.807695 
L 209.269418 266.216671 
L 210.665266 264.577416 
L 212.061115 264.298632 
L 214.852811 264.153664 
L 217.644508 264.030998 
L 219.040357 263.306158 
L 220.436205 262.871253 
L 221.832053 262.257927 
L 223.227902 262.057202 
L 224.62375 261.332361 
L 226.019599 261.120485 
L 231.602992 260.897457 
L 232.998841 260.562915 
L 234.394689 260.061103 
L 237.186386 259.815772 
L 239.978083 259.313959 
L 244.165628 258.990569 
L 246.957325 258.499908 
L 248.353173 258.076155 
L 249.749022 257.986944 
L 251.14487 257.351314 
L 255.332415 256.972167 
L 256.728264 256.693382 
L 258.124112 256.671079 
L 259.519961 256.459203 
L 263.707506 256.247327 
L 265.103354 255.366367 
L 266.499203 255.132187 
L 267.895051 255.087582 
L 270.686748 254.842251 
L 272.082596 254.842251 
L 273.478445 254.284681 
L 274.874293 253.336813 
L 276.270142 252.979969 
L 280.457687 252.701184 
L 281.853535 252.299734 
L 286.04108 252.154766 
L 287.436929 251.853678 
L 288.832777 251.753315 
L 290.228626 251.351865 
L 291.624474 251.273806 
L 293.020323 251.028475 
L 294.416171 250.403997 
L 295.812019 250.036001 
L 297.207868 250.002547 
L 301.395413 249.333463 
L 302.791261 249.311161 
L 305.582958 248.541715 
L 306.978807 248.274081 
L 308.374655 247.582695 
L 309.770504 247.448878 
L 312.5622 246.913611 
L 313.958049 246.857854 
L 315.353897 246.590221 
L 318.145594 246.42295 
L 319.541442 245.820775 
L 320.937291 244.493759 
L 322.333139 244.281883 
L 323.728988 243.490134 
L 325.124836 243.490134 
L 326.520684 243.233652 
L 327.916533 243.2225 
L 329.312381 242.966018 
L 330.70823 242.921413 
L 332.104078 242.519963 
L 334.895775 242.308086 
L 336.291623 242.17427 
L 337.687472 241.159493 
L 339.08332 241.047979 
L 340.479169 240.746891 
L 343.270865 240.512712 
L 346.062562 239.977445 
L 347.458411 239.966294 
L 348.854259 239.698661 
L 350.250108 239.241453 
L 351.645956 239.163394 
L 353.041804 238.851155 
L 357.22935 238.583521 
L 358.625198 238.025952 
L 360.021046 237.635653 
L 365.60444 236.899661 
L 368.396137 236.620876 
L 371.187834 235.695311 
L 372.583682 234.702837 
L 373.979531 234.602474 
L 375.375379 233.888785 
L 380.958773 232.282985 
L 383.750469 232.171471 
L 385.146318 231.859232 
L 386.542166 231.402025 
L 390.729712 231.167846 
L 392.12556 230.811001 
L 393.521408 230.264583 
L 394.917257 230.153069 
L 396.313105 229.807376 
L 399.104802 229.707013 
L 400.50065 229.372471 
L 406.084044 228.55842 
L 407.479892 227.833579 
L 408.875741 227.342918 
L 410.271589 227.220253 
L 411.667438 226.807651 
L 414.459135 226.618078 
L 415.854983 226.049356 
L 420.042528 225.146094 
L 421.438377 225.101488 
L 424.230073 224.287437 
L 425.625922 224.164771 
L 427.02177 223.250357 
L 428.417619 222.090612 
L 429.813467 221.845282 
L 431.209316 221.454983 
L 434.001012 221.443832 
L 435.396861 220.094513 
L 436.792709 219.838031 
L 438.188558 219.34737 
L 440.980254 218.834406 
L 445.1678 218.533318 
L 447.959496 218.042657 
L 449.355345 217.998051 
L 452.147042 217.42933 
L 453.54289 217.083637 
L 454.938739 217.061334 
L 456.334587 216.693338 
L 457.730435 216.124617 
L 459.126284 215.979649 
L 460.522132 215.288263 
L 463.313829 214.507666 
L 464.709677 213.972399 
L 466.105526 213.793976 
L 468.897223 212.935319 
L 471.68892 212.868411 
L 473.084768 212.790351 
L 474.480616 212.210479 
L 475.876465 211.206854 
L 478.668162 210.783101 
L 480.06401 210.292439 
L 481.459858 209.444934 
L 482.855707 209.355722 
L 484.251555 209.021181 
L 488.4391 208.85391 
L 489.834949 208.45246 
L 492.626646 207.192352 
L 494.022494 207.158898 
L 495.418343 206.868962 
L 496.814191 206.21103 
L 498.210039 205.820731 
L 499.605888 205.028982 
L 501.001736 204.895166 
L 502.397585 204.37105 
L 503.793433 204.226082 
L 505.189281 203.400879 
L 506.58513 203.110943 
L 507.980978 202.274588 
L 512.168524 201.817381 
L 513.564372 201.393628 
L 514.96022 201.360174 
L 519.147766 200.947573 
L 520.543614 200.456911 
L 523.335311 200.245035 
L 524.731159 199.5648 
L 526.127008 199.397529 
L 527.522856 199.364075 
L 528.918704 197.613306 
L 531.710401 197.211856 
L 533.10625 197.133797 
L 534.502098 196.776952 
L 535.897947 194.713944 
L 537.293795 194.490917 
L 538.689643 193.899893 
L 540.085492 193.543048 
L 541.48134 193.063538 
L 542.877189 192.985479 
L 544.273037 192.784754 
L 545.668885 192.260638 
L 547.064734 190.866714 
L 548.460582 190.521021 
L 549.856431 189.684667 
L 552.648128 189.383579 
L 555.439824 187.900444 
L 556.835673 186.963727 
L 561.023218 186.729548 
L 563.814915 185.112596 
L 565.210763 184.867265 
L 566.606612 183.807883 
L 569.398308 183.361827 
L 570.794157 183.205708 
L 572.190005 182.90462 
L 573.585854 182.302445 
L 574.981702 182.10172 
L 576.377551 181.756027 
L 577.773399 181.131549 
L 580.565096 181.008883 
L 581.960944 179.916047 
L 584.752641 179.503446 
L 586.148489 177.21741 
L 587.544338 177.016685 
L 588.940186 175.433187 
L 591.731883 174.797558 
L 593.127732 174.016961 
L 594.52358 172.578431 
L 595.919428 171.664017 
L 597.315277 171.061842 
L 598.711125 166.958129 
L 600.106974 165.865293 
L 601.502822 162.687146 
L 602.89867 161.404736 
L 604.294519 160.691047 
L 605.690367 160.568382 
L 608.482064 153.598762 
L 609.877912 151.468846 
L 611.273761 148.212639 
L 612.669609 148.023065 
L 614.065458 145.89315 
L 615.461306 144.432317 
L 616.857155 135.700777 
L 618.253003 127.850197 
L 619.648851 99.492207 
L 621.0447 98.276705 
L 622.440548 86.556592 
L 623.836397 84.961943 
L 625.232245 73.275284 
L 626.628093 67.24238 
L 628.023942 45.541771 
L 629.41979 29.115771 
L 630.815639 26.562102 
L 632.211487 19.848964 
L 632.798204 -1 
L 632.798204 -1 
" style="fill:none;stroke:#9467bd;stroke-linecap:square;stroke-width:1.5;"/>
   </g>
   <g id="patch_3">
    <path d="M 51.05 390.04 
L 51.05 25.44 
" style="fill:none;stroke:#000000;stroke-linecap:square;stroke-linejoin:miter;stroke-width:0.8;"/>
   </g>
   <g id="patch_4">
    <path d="M 706.68 390.04 
L 706.68 25.44 
" style="fill:none;stroke:#000000;stroke-linecap:square;stroke-linejoin:miter;stroke-width:0.8;"/>
   </g>
   <g id="patch_5">
    <path d="M 51.05 390.04 
L 706.68 390.04 
" style="fill:none;stroke:#000000;stroke-linecap:square;stroke-linejoin:miter;stroke-width:0.8;"/>
   </g>
   <g id="patch_6">
    <path d="M 51.05 25.44 
L 706.68 25.44 
" style="fill:none;stroke:#000000;stroke-linecap:square;stroke-linejoin:miter;stroke-width:0.8;"/>
   </g>
   <g id="text_15">
    <!-- Rising Lap Time -->
    <defs>
     <path d="M 44.390625 34.1875 
Q 47.5625 33.109375 50.5625 29.59375 
Q 53.5625 26.078125 56.59375 19.921875 
L 66.609375 0 
L 56 0 
L 46.6875 18.703125 
Q 43.0625 26.03125 39.671875 28.421875 
Q 36.28125 30.8125 30.421875 30.8125 
L 19.671875 30.8125 
L 19.671875 0 
L 9.8125 0 
L 9.8125 72.90625 
L 32.078125 72.90625 
Q 44.578125 72.90625 50.734375 67.671875 
Q 56.890625 62.453125 56.890625 51.90625 
Q 56.890625 45.015625 53.6875 40.46875 
Q 50.484375 35.9375 44.390625 34.1875 
z
M 19.671875 64.796875 
L 19.671875 38.921875 
L 32.078125 38.921875 
Q 39.203125 38.921875 42.84375 42.21875 
Q 46.484375 45.515625 46.484375 51.90625 
Q 46.484375 58.296875 42.84375 61.546875 
Q 39.203125 64.796875 32.078125 64.796875 
z
" id="DejaVuSans-52"/>
     <path d="M 54.890625 33.015625 
L 54.890625 0 
L 45.90625 0 
L 45.90625 32.71875 
Q 45.90625 40.484375 42.875 44.328125 
Q 39.84375 48.1875 33.796875 48.1875 
Q 26.515625 48.1875 22.3125 43.546875 
Q 18.109375 38.921875 18.109375 30.90625 
L 18.109375 0 
L 9.078125 0 
L 9.078125 54.6875 
L 18.109375 54.6875 
L 18.109375 46.1875 
Q 21.34375 51.125 25.703125 53.5625 
Q 30.078125 56 35.796875 56 
Q 45.21875 56 50.046875 50.171875 
Q 54.890625 44.34375 54.890625 33.015625 
z
" id="DejaVuSans-6e"/>
     <path d="M 45.40625 27.984375 
Q 45.40625 37.75 41.375 43.109375 
Q 37.359375 48.484375 30.078125 48.484375 
Q 22.859375 48.484375 18.828125 43.109375 
Q 14.796875 37.75 14.796875 27.984375 
Q 14.796875 18.265625 18.828125 12.890625 
Q 22.859375 7.515625 30.078125 7.515625 
Q 37.359375 7.515625 41.375 12.890625 
Q 45.40625 18.265625 45.40625 27.984375 
z
M 54.390625 6.78125 
Q 54.390625 -7.171875 48.1875 -13.984375 
Q 42 -20.796875 29.203125 -20.796875 
Q 24.46875 -20.796875 20.265625 -20.09375 
Q 16.0625 -19.390625 12.109375 -17.921875 
L 12.109375 -9.1875 
Q 16.0625 -11.328125 19.921875 -12.34375 
Q 23.78125 -13.375 27.78125 -13.375 
Q 36.625 -13.375 41.015625 -8.765625 
Q 45.40625 -4.15625 45.40625 5.171875 
L 45.40625 9.625 
Q 42.625 4.78125 38.28125 2.390625 
Q 33.9375 0 27.875 0 
Q 17.828125 0 11.671875 7.65625 
Q 5.515625 15.328125 5.515625 27.984375 
Q 5.515625 40.671875 11.671875 48.328125 
Q 17.828125 56 27.875 56 
Q 33.9375 56 38.28125 53.609375 
Q 42.625 51.21875 45.40625 46.390625 
L 45.40625 54.6875 
L 54.390625 54.6875 
z
" id="DejaVuSans-67"/>
    </defs>
    <g transform="translate(331.117188 19.44)scale(0.12 -0.12)">
     <use xlink:href="#DejaVuSans-52"/>
     <use x="69.482422" xlink:href="#DejaVuSans-69"/>
     <use x="97.265625" xlink:href="#DejaVuSans-73"/>
     <use x="149.365234" xlink:href="#DejaVuSans-69"/>
     <use x="177.148438" xlink:href="#DejaVuSans-6e"/>
     <use x="240.527344" xlink:href="#DejaVuSans-67"/>
     <use x="304.003906" xlink:href="#DejaVuSans-20"/>
     <use x="335.791016" xlink:href="#DejaVuSans-4c"/>
     <use x="391.503906" xlink:href="#DejaVuSans-61"/>
     <use x="452.783203" xlink:href="#DejaVuSans-70"/>
     <use x="516.259766" xlink:href="#DejaVuSans-20"/>
     <use x="548.046875" xlink:href="#DejaVuSans-54"/>
     <use x="609.083984" xlink:href="#DejaVuSans-69"/>
     <use x="636.867188" xlink:href="#DejaVuSans-6d"/>
     <use x="734.279297" xlink:href="#DejaVuSans-65"/>
    </g>
   </g>
   <g id="legend_1">
    <g id="patch_7">
     <path d="M 562.4875 386.04 
L 701.08 386.04 
Q 702.68 386.04 702.68 384.44 
L 702.68 326.5275 
Q 702.68 324.9275 701.08 324.9275 
L 562.4875 324.9275 
Q 560.8875 324.9275 560.8875 326.5275 
L 560.8875 384.44 
Q 560.8875 386.04 562.4875 386.04 
z
" style="fill:#ffffff;opacity:0.8;stroke:#cccccc;stroke-linejoin:miter;"/>
    </g>
    <g id="line2d_30">
     <path d="M 564.0875 331.40625 
L 580.0875 331.40625 
" style="fill:none;stroke:#1f77b4;stroke-linecap:square;stroke-width:1.5;"/>
    </g>
    <g id="line2d_31"/>
    <g id="text_16">
     <!-- #146 Huggins (Pinkies Out) -->
     <defs>
      <path d="M 33.015625 40.375 
Q 26.375 40.375 22.484375 35.828125 
Q 18.609375 31.296875 18.609375 23.390625 
Q 18.609375 15.53125 22.484375 10.953125 
Q 26.375 6.390625 33.015625 6.390625 
Q 39.65625 6.390625 43.53125 10.953125 
Q 47.40625 15.53125 47.40625 23.390625 
Q 47.40625 31.296875 43.53125 35.828125 
Q 39.65625 40.375 33.015625 40.375 
z
M 52.59375 71.296875 
L 52.59375 62.3125 
Q 48.875 64.0625 45.09375 64.984375 
Q 41.3125 65.921875 37.59375 65.921875 
Q 27.828125 65.921875 22.671875 59.328125 
Q 17.53125 52.734375 16.796875 39.40625 
Q 19.671875 43.65625 24.015625 45.921875 
Q 28.375 48.1875 33.59375 48.1875 
Q 44.578125 48.1875 50.953125 41.515625 
Q 57.328125 34.859375 57.328125 23.390625 
Q 57.328125 12.15625 50.6875 5.359375 
Q 44.046875 -1.421875 33.015625 -1.421875 
Q 20.359375 -1.421875 13.671875 8.265625 
Q 6.984375 17.96875 6.984375 36.375 
Q 6.984375 53.65625 15.1875 63.9375 
Q 23.390625 74.21875 37.203125 74.21875 
Q 40.921875 74.21875 44.703125 73.484375 
Q 48.484375 72.75 52.59375 71.296875 
z
" id="DejaVuSans-36"/>
      <path d="M 9.8125 72.90625 
L 19.671875 72.90625 
L 19.671875 43.015625 
L 55.515625 43.015625 
L 55.515625 72.90625 
L 65.375 72.90625 
L 65.375 0 
L 55.515625 0 
L 55.515625 34.71875 
L 19.671875 34.71875 
L 19.671875 0 
L 9.8125 0 
z
" id="DejaVuSans-48"/>
      <path d="M 8.5 21.578125 
L 8.5 54.6875 
L 17.484375 54.6875 
L 17.484375 21.921875 
Q 17.484375 14.15625 20.5 10.265625 
Q 23.53125 6.390625 29.59375 6.390625 
Q 36.859375 6.390625 41.078125 11.03125 
Q 45.3125 15.671875 45.3125 23.6875 
L 45.3125 54.6875 
L 54.296875 54.6875 
L 54.296875 0 
L 45.3125 0 
L 45.3125 8.40625 
Q 42.046875 3.421875 37.71875 1 
Q 33.40625 -1.421875 27.6875 -1.421875 
Q 18.265625 -1.421875 13.375 4.4375 
Q 8.5 10.296875 8.5 21.578125 
z
M 31.109375 56 
z
" id="DejaVuSans-75"/>
      <path d="M 31 75.875 
Q 24.46875 64.65625 21.28125 53.65625 
Q 18.109375 42.671875 18.109375 31.390625 
Q 18.109375 20.125 21.3125 9.0625 
Q 24.515625 -2 31 -13.1875 
L 23.1875 -13.1875 
Q 15.875 -1.703125 12.234375 9.375 
Q 8.59375 20.453125 8.59375 31.390625 
Q 8.59375 42.28125 12.203125 53.3125 
Q 15.828125 64.359375 23.1875 75.875 
z
" id="DejaVuSans-28"/>
      <path d="M 19.671875 64.796875 
L 19.671875 37.40625 
L 32.078125 37.40625 
Q 38.96875 37.40625 42.71875 40.96875 
Q 46.484375 44.53125 46.484375 51.125 
Q 46.484375 57.671875 42.71875 61.234375 
Q 38.96875 64.796875 32.078125 64.796875 
z
M 9.8125 72.90625 
L 32.078125 72.90625 
Q 44.34375 72.90625 50.609375 67.359375 
Q 56.890625 61.8125 56.890625 51.125 
Q 56.890625 40.328125 50.609375 34.8125 
Q 44.34375 29.296875 32.078125 29.296875 
L 19.671875 29.296875 
L 19.671875 0 
L 9.8125 0 
z
" id="DejaVuSans-50"/>
      <path d="M 9.078125 75.984375 
L 18.109375 75.984375 
L 18.109375 31.109375 
L 44.921875 54.6875 
L 56.390625 54.6875 
L 27.390625 29.109375 
L 57.625 0 
L 45.90625 0 
L 18.109375 26.703125 
L 18.109375 0 
L 9.078125 0 
z
" id="DejaVuSans-6b"/>
      <path d="M 39.40625 66.21875 
Q 28.65625 66.21875 22.328125 58.203125 
Q 16.015625 50.203125 16.015625 36.375 
Q 16.015625 22.609375 22.328125 14.59375 
Q 28.65625 6.59375 39.40625 6.59375 
Q 50.140625 6.59375 56.421875 14.59375 
Q 62.703125 22.609375 62.703125 36.375 
Q 62.703125 50.203125 56.421875 58.203125 
Q 50.140625 66.21875 39.40625 66.21875 
z
M 39.40625 74.21875 
Q 54.734375 74.21875 63.90625 63.9375 
Q 73.09375 53.65625 73.09375 36.375 
Q 73.09375 19.140625 63.90625 8.859375 
Q 54.734375 -1.421875 39.40625 -1.421875 
Q 24.03125 -1.421875 14.8125 8.828125 
Q 5.609375 19.09375 5.609375 36.375 
Q 5.609375 53.65625 14.8125 63.9375 
Q 24.03125 74.21875 39.40625 74.21875 
z
" id="DejaVuSans-4f"/>
      <path d="M 18.3125 70.21875 
L 18.3125 54.6875 
L 36.8125 54.6875 
L 36.8125 47.703125 
L 18.3125 47.703125 
L 18.3125 18.015625 
Q 18.3125 11.328125 20.140625 9.421875 
Q 21.96875 7.515625 27.59375 7.515625 
L 36.8125 7.515625 
L 36.8125 0 
L 27.59375 0 
Q 17.1875 0 13.234375 3.875 
Q 9.28125 7.765625 9.28125 18.015625 
L 9.28125 47.703125 
L 2.6875 47.703125 
L 2.6875 54.6875 
L 9.28125 54.6875 
L 9.28125 70.21875 
z
" id="DejaVuSans-74"/>
      <path d="M 8.015625 75.875 
L 15.828125 75.875 
Q 23.140625 64.359375 26.78125 53.3125 
Q 30.421875 42.28125 30.421875 31.390625 
Q 30.421875 20.453125 26.78125 9.375 
Q 23.140625 -1.703125 15.828125 -13.1875 
L 8.015625 -13.1875 
Q 14.5 -2 17.703125 9.0625 
Q 20.90625 20.125 20.90625 31.390625 
Q 20.90625 42.671875 17.703125 53.65625 
Q 14.5 64.65625 8.015625 75.875 
z
" id="DejaVuSans-29"/>
     </defs>
     <g transform="translate(586.4875 334.20625)scale(0.08 -0.08)">
      <use xlink:href="#DejaVuSans-23"/>
      <use x="83.789062" xlink:href="#DejaVuSans-31"/>
      <use x="147.412109" xlink:href="#DejaVuSans-34"/>
      <use x="211.035156" xlink:href="#DejaVuSans-36"/>
      <use x="274.658203" xlink:href="#DejaVuSans-20"/>
      <use x="306.445312" xlink:href="#DejaVuSans-48"/>
      <use x="381.640625" xlink:href="#DejaVuSans-75"/>
      <use x="445.019531" xlink:href="#DejaVuSans-67"/>
      <use x="508.496094" xlink:href="#DejaVuSans-67"/>
      <use x="571.972656" xlink:href="#DejaVuSans-69"/>
      <use x="599.755859" xlink:href="#DejaVuSans-6e"/>
      <use x="663.134766" xlink:href="#DejaVuSans-73"/>
      <use x="715.234375" xlink:href="#DejaVuSans-20"/>
      <use x="747.021484" xlink:href="#DejaVuSans-28"/>
      <use x="786.035156" xlink:href="#DejaVuSans-50"/>
      <use x="846.306641" xlink:href="#DejaVuSans-69"/>
      <use x="874.089844" xlink:href="#DejaVuSans-6e"/>
      <use x="937.46875" xlink:href="#DejaVuSans-6b"/>
      <use x="995.378906" xlink:href="#DejaVuSans-69"/>
      <use x="1023.162109" xlink:href="#DejaVuSans-65"/>
      <use x="1084.685547" xlink:href="#DejaVuSans-73"/>
      <use x="1136.785156" xlink:href="#DejaVuSans-20"/>
      <use x="1168.572266" xlink:href="#DejaVuSans-4f"/>
      <use x="1247.283203" xlink:href="#DejaVuSans-75"/>
      <use x="1310.662109" xlink:href="#DejaVuSans-74"/>
      <use x="1349.871094" xlink:href="#DejaVuSans-29"/>
     </g>
    </g>
    <g id="line2d_32">
     <path d="M 564.0875 343.14875 
L 580.0875 343.14875 
" style="fill:none;stroke:#ff7f0e;stroke-linecap:square;stroke-width:1.5;"/>
    </g>
    <g id="line2d_33"/>
    <g id="text_17">
     <!-- #213 23 Van Winden racing -->
     <defs>
      <path d="M 28.609375 0 
L 0.78125 72.90625 
L 11.078125 72.90625 
L 34.1875 11.53125 
L 57.328125 72.90625 
L 67.578125 72.90625 
L 39.796875 0 
z
" id="DejaVuSans-56"/>
      <path d="M 3.328125 72.90625 
L 13.28125 72.90625 
L 28.609375 11.28125 
L 43.890625 72.90625 
L 54.984375 72.90625 
L 70.3125 11.28125 
L 85.59375 72.90625 
L 95.609375 72.90625 
L 77.296875 0 
L 64.890625 0 
L 49.515625 63.28125 
L 33.984375 0 
L 21.578125 0 
z
" id="DejaVuSans-57"/>
      <path d="M 45.40625 46.390625 
L 45.40625 75.984375 
L 54.390625 75.984375 
L 54.390625 0 
L 45.40625 0 
L 45.40625 8.203125 
Q 42.578125 3.328125 38.25 0.953125 
Q 33.9375 -1.421875 27.875 -1.421875 
Q 17.96875 -1.421875 11.734375 6.484375 
Q 5.515625 14.40625 5.515625 27.296875 
Q 5.515625 40.1875 11.734375 48.09375 
Q 17.96875 56 27.875 56 
Q 33.9375 56 38.25 53.625 
Q 42.578125 51.265625 45.40625 46.390625 
z
M 14.796875 27.296875 
Q 14.796875 17.390625 18.875 11.75 
Q 22.953125 6.109375 30.078125 6.109375 
Q 37.203125 6.109375 41.296875 11.75 
Q 45.40625 17.390625 45.40625 27.296875 
Q 45.40625 37.203125 41.296875 42.84375 
Q 37.203125 48.484375 30.078125 48.484375 
Q 22.953125 48.484375 18.875 42.84375 
Q 14.796875 37.203125 14.796875 27.296875 
z
" id="DejaVuSans-64"/>
      <path d="M 41.109375 46.296875 
Q 39.59375 47.171875 37.8125 47.578125 
Q 36.03125 48 33.890625 48 
Q 26.265625 48 22.1875 43.046875 
Q 18.109375 38.09375 18.109375 28.8125 
L 18.109375 0 
L 9.078125 0 
L 9.078125 54.6875 
L 18.109375 54.6875 
L 18.109375 46.1875 
Q 20.953125 51.171875 25.484375 53.578125 
Q 30.03125 56 36.53125 56 
Q 37.453125 56 38.578125 55.875 
Q 39.703125 55.765625 41.0625 55.515625 
z
" id="DejaVuSans-72"/>
     </defs>
     <g transform="translate(586.4875 345.94875)scale(0.08 -0.08)">
      <use xlink:href="#DejaVuSans-23"/>
      <use x="83.789062" xlink:href="#DejaVuSans-32"/>
      <use x="147.412109" xlink:href="#DejaVuSans-31"/>
      <use x="211.035156" xlink:href="#DejaVuSans-33"/>
      <use x="274.658203" xlink:href="#DejaVuSans-20"/>
      <use x="306.445312" xlink:href="#DejaVuSans-32"/>
      <use x="370.068359" xlink:href="#DejaVuSans-33"/>
      <use x="433.691406" xlink:href="#DejaVuSans-20"/>
      <use x="465.478516" xlink:href="#DejaVuSans-56"/>
      <use x="533.777344" xlink:href="#DejaVuSans-61"/>
      <use x="595.056641" xlink:href="#DejaVuSans-6e"/>
      <use x="658.435547" xlink:href="#DejaVuSans-20"/>
      <use x="690.222656" xlink:href="#DejaVuSans-57"/>
      <use x="789.068359" xlink:href="#DejaVuSans-69"/>
      <use x="816.851562" xlink:href="#DejaVuSans-6e"/>
      <use x="880.230469" xlink:href="#DejaVuSans-64"/>
      <use x="943.707031" xlink:href="#DejaVuSans-65"/>
      <use x="1005.230469" xlink:href="#DejaVuSans-6e"/>
      <use x="1068.609375" xlink:href="#DejaVuSans-20"/>
      <use x="1100.396484" xlink:href="#DejaVuSans-72"/>
      <use x="1141.509766" xlink:href="#DejaVuSans-61"/>
      <use x="1202.789062" xlink:href="#DejaVuSans-63"/>
      <use x="1257.769531" xlink:href="#DejaVuSans-69"/>
      <use x="1285.552734" xlink:href="#DejaVuSans-6e"/>
      <use x="1348.931641" xlink:href="#DejaVuSans-67"/>
     </g>
    </g>
    <g id="line2d_34">
     <path d="M 564.0875 354.89125 
L 580.0875 354.89125 
" style="fill:none;stroke:#2ca02c;stroke-linecap:square;stroke-width:1.5;"/>
    </g>
    <g id="line2d_35"/>
    <g id="text_18">
     <!-- #935 Team Jacky Ickx 935 -->
     <defs>
      <path d="M 10.984375 1.515625 
L 10.984375 10.5 
Q 14.703125 8.734375 18.5 7.8125 
Q 22.3125 6.890625 25.984375 6.890625 
Q 35.75 6.890625 40.890625 13.453125 
Q 46.046875 20.015625 46.78125 33.40625 
Q 43.953125 29.203125 39.59375 26.953125 
Q 35.25 24.703125 29.984375 24.703125 
Q 19.046875 24.703125 12.671875 31.3125 
Q 6.296875 37.9375 6.296875 49.421875 
Q 6.296875 60.640625 12.9375 67.421875 
Q 19.578125 74.21875 30.609375 74.21875 
Q 43.265625 74.21875 49.921875 64.515625 
Q 56.59375 54.828125 56.59375 36.375 
Q 56.59375 19.140625 48.40625 8.859375 
Q 40.234375 -1.421875 26.421875 -1.421875 
Q 22.703125 -1.421875 18.890625 -0.6875 
Q 15.09375 0.046875 10.984375 1.515625 
z
M 30.609375 32.421875 
Q 37.25 32.421875 41.125 36.953125 
Q 45.015625 41.5 45.015625 49.421875 
Q 45.015625 57.28125 41.125 61.84375 
Q 37.25 66.40625 30.609375 66.40625 
Q 23.96875 66.40625 20.09375 61.84375 
Q 16.21875 57.28125 16.21875 49.421875 
Q 16.21875 41.5 20.09375 36.953125 
Q 23.96875 32.421875 30.609375 32.421875 
z
" id="DejaVuSans-39"/>
      <path d="M 9.8125 72.90625 
L 19.671875 72.90625 
L 19.671875 5.078125 
Q 19.671875 -8.109375 14.671875 -14.0625 
Q 9.671875 -20.015625 -1.421875 -20.015625 
L -5.171875 -20.015625 
L -5.171875 -11.71875 
L -2.09375 -11.71875 
Q 4.4375 -11.71875 7.125 -8.046875 
Q 9.8125 -4.390625 9.8125 5.078125 
z
" id="DejaVuSans-4a"/>
      <path d="M 32.171875 -5.078125 
Q 28.375 -14.84375 24.75 -17.8125 
Q 21.140625 -20.796875 15.09375 -20.796875 
L 7.90625 -20.796875 
L 7.90625 -13.28125 
L 13.1875 -13.28125 
Q 16.890625 -13.28125 18.9375 -11.515625 
Q 21 -9.765625 23.484375 -3.21875 
L 25.09375 0.875 
L 2.984375 54.6875 
L 12.5 54.6875 
L 29.59375 11.921875 
L 46.6875 54.6875 
L 56.203125 54.6875 
z
" id="DejaVuSans-79"/>
      <path d="M 9.8125 72.90625 
L 19.671875 72.90625 
L 19.671875 0 
L 9.8125 0 
z
" id="DejaVuSans-49"/>
      <path d="M 54.890625 54.6875 
L 35.109375 28.078125 
L 55.90625 0 
L 45.3125 0 
L 29.390625 21.484375 
L 13.484375 0 
L 2.875 0 
L 24.125 28.609375 
L 4.6875 54.6875 
L 15.28125 54.6875 
L 29.78125 35.203125 
L 44.28125 54.6875 
z
" id="DejaVuSans-78"/>
     </defs>
     <g transform="translate(586.4875 357.69125)scale(0.08 -0.08)">
      <use xlink:href="#DejaVuSans-23"/>
      <use x="83.789062" xlink:href="#DejaVuSans-39"/>
      <use x="147.412109" xlink:href="#DejaVuSans-33"/>
      <use x="211.035156" xlink:href="#DejaVuSans-35"/>
      <use x="274.658203" xlink:href="#DejaVuSans-20"/>
      <use x="306.445312" xlink:href="#DejaVuSans-54"/>
      <use x="367.263672" xlink:href="#DejaVuSans-65"/>
      <use x="428.787109" xlink:href="#DejaVuSans-61"/>
      <use x="490.066406" xlink:href="#DejaVuSans-6d"/>
      <use x="587.478516" xlink:href="#DejaVuSans-20"/>
      <use x="619.265625" xlink:href="#DejaVuSans-4a"/>
      <use x="648.757812" xlink:href="#DejaVuSans-61"/>
      <use x="710.037109" xlink:href="#DejaVuSans-63"/>
      <use x="765.017578" xlink:href="#DejaVuSans-6b"/>
      <use x="822.880859" xlink:href="#DejaVuSans-79"/>
      <use x="882.060547" xlink:href="#DejaVuSans-20"/>
      <use x="913.847656" xlink:href="#DejaVuSans-49"/>
      <use x="943.339844" xlink:href="#DejaVuSans-63"/>
      <use x="998.320312" xlink:href="#DejaVuSans-6b"/>
      <use x="1056.230469" xlink:href="#DejaVuSans-78"/>
      <use x="1115.410156" xlink:href="#DejaVuSans-20"/>
      <use x="1147.197266" xlink:href="#DejaVuSans-39"/>
      <use x="1210.820312" xlink:href="#DejaVuSans-33"/>
      <use x="1274.443359" xlink:href="#DejaVuSans-35"/>
     </g>
    </g>
    <g id="line2d_36">
     <path d="M 564.0875 366.63375 
L 580.0875 366.63375 
" style="fill:none;stroke:#d62728;stroke-linecap:square;stroke-width:1.5;"/>
    </g>
    <g id="line2d_37"/>
    <g id="text_19">
     <!-- #187 Team Punisher -->
     <defs>
      <path d="M 31.78125 34.625 
Q 24.75 34.625 20.71875 30.859375 
Q 16.703125 27.09375 16.703125 20.515625 
Q 16.703125 13.921875 20.71875 10.15625 
Q 24.75 6.390625 31.78125 6.390625 
Q 38.8125 6.390625 42.859375 10.171875 
Q 46.921875 13.96875 46.921875 20.515625 
Q 46.921875 27.09375 42.890625 30.859375 
Q 38.875 34.625 31.78125 34.625 
z
M 21.921875 38.8125 
Q 15.578125 40.375 12.03125 44.71875 
Q 8.5 49.078125 8.5 55.328125 
Q 8.5 64.0625 14.71875 69.140625 
Q 20.953125 74.21875 31.78125 74.21875 
Q 42.671875 74.21875 48.875 69.140625 
Q 55.078125 64.0625 55.078125 55.328125 
Q 55.078125 49.078125 51.53125 44.71875 
Q 48 40.375 41.703125 38.8125 
Q 48.828125 37.15625 52.796875 32.3125 
Q 56.78125 27.484375 56.78125 20.515625 
Q 56.78125 9.90625 50.3125 4.234375 
Q 43.84375 -1.421875 31.78125 -1.421875 
Q 19.734375 -1.421875 13.25 4.234375 
Q 6.78125 9.90625 6.78125 20.515625 
Q 6.78125 27.484375 10.78125 32.3125 
Q 14.796875 37.15625 21.921875 38.8125 
z
M 18.3125 54.390625 
Q 18.3125 48.734375 21.84375 45.5625 
Q 25.390625 42.390625 31.78125 42.390625 
Q 38.140625 42.390625 41.71875 45.5625 
Q 45.3125 48.734375 45.3125 54.390625 
Q 45.3125 60.0625 41.71875 63.234375 
Q 38.140625 66.40625 31.78125 66.40625 
Q 25.390625 66.40625 21.84375 63.234375 
Q 18.3125 60.0625 18.3125 54.390625 
z
" id="DejaVuSans-38"/>
      <path d="M 8.203125 72.90625 
L 55.078125 72.90625 
L 55.078125 68.703125 
L 28.609375 0 
L 18.3125 0 
L 43.21875 64.59375 
L 8.203125 64.59375 
z
" id="DejaVuSans-37"/>
      <path d="M 54.890625 33.015625 
L 54.890625 0 
L 45.90625 0 
L 45.90625 32.71875 
Q 45.90625 40.484375 42.875 44.328125 
Q 39.84375 48.1875 33.796875 48.1875 
Q 26.515625 48.1875 22.3125 43.546875 
Q 18.109375 38.921875 18.109375 30.90625 
L 18.109375 0 
L 9.078125 0 
L 9.078125 75.984375 
L 18.109375 75.984375 
L 18.109375 46.1875 
Q 21.34375 51.125 25.703125 53.5625 
Q 30.078125 56 35.796875 56 
Q 45.21875 56 50.046875 50.171875 
Q 54.890625 44.34375 54.890625 33.015625 
z
" id="DejaVuSans-68"/>
     </defs>
     <g transform="translate(586.4875 369.43375)scale(0.08 -0.08)">
      <use xlink:href="#DejaVuSans-23"/>
      <use x="83.789062" xlink:href="#DejaVuSans-31"/>
      <use x="147.412109" xlink:href="#DejaVuSans-38"/>
      <use x="211.035156" xlink:href="#DejaVuSans-37"/>
      <use x="274.658203" xlink:href="#DejaVuSans-20"/>
      <use x="306.445312" xlink:href="#DejaVuSans-54"/>
      <use x="367.263672" xlink:href="#DejaVuSans-65"/>
      <use x="428.787109" xlink:href="#DejaVuSans-61"/>
      <use x="490.066406" xlink:href="#DejaVuSans-6d"/>
      <use x="587.478516" xlink:href="#DejaVuSans-20"/>
      <use x="619.265625" xlink:href="#DejaVuSans-50"/>
      <use x="679.552734" xlink:href="#DejaVuSans-75"/>
      <use x="742.931641" xlink:href="#DejaVuSans-6e"/>
      <use x="806.310547" xlink:href="#DejaVuSans-69"/>
      <use x="834.09375" xlink:href="#DejaVuSans-73"/>
      <use x="886.193359" xlink:href="#DejaVuSans-68"/>
      <use x="949.572266" xlink:href="#DejaVuSans-65"/>
      <use x="1011.095703" xlink:href="#DejaVuSans-72"/>
     </g>
    </g>
    <g id="line2d_38">
     <path d="M 564.0875 378.37625 
L 580.0875 378.37625 
" style="fill:none;stroke:#9467bd;stroke-linecap:square;stroke-width:1.5;"/>
    </g>
    <g id="line2d_39"/>
    <g id="text_20">
     <!-- # 19 Team Infinite -->
     <defs>
      <path d="M 37.109375 75.984375 
L 37.109375 68.5 
L 28.515625 68.5 
Q 23.6875 68.5 21.796875 66.546875 
Q 19.921875 64.59375 19.921875 59.515625 
L 19.921875 54.6875 
L 34.71875 54.6875 
L 34.71875 47.703125 
L 19.921875 47.703125 
L 19.921875 0 
L 10.890625 0 
L 10.890625 47.703125 
L 2.296875 47.703125 
L 2.296875 54.6875 
L 10.890625 54.6875 
L 10.890625 58.5 
Q 10.890625 67.625 15.140625 71.796875 
Q 19.390625 75.984375 28.609375 75.984375 
z
" id="DejaVuSans-66"/>
     </defs>
     <g transform="translate(586.4875 381.17625)scale(0.08 -0.08)">
      <use xlink:href="#DejaVuSans-23"/>
      <use x="83.789062" xlink:href="#DejaVuSans-20"/>
      <use x="115.576172" xlink:href="#DejaVuSans-31"/>
      <use x="179.199219" xlink:href="#DejaVuSans-39"/>
      <use x="242.822266" xlink:href="#DejaVuSans-20"/>
      <use x="274.609375" xlink:href="#DejaVuSans-54"/>
      <use x="335.427734" xlink:href="#DejaVuSans-65"/>
      <use x="396.951172" xlink:href="#DejaVuSans-61"/>
      <use x="458.230469" xlink:href="#DejaVuSans-6d"/>
      <use x="555.642578" xlink:href="#DejaVuSans-20"/>
      <use x="587.429688" xlink:href="#DejaVuSans-49"/>
      <use x="616.921875" xlink:href="#DejaVuSans-6e"/>
      <use x="680.300781" xlink:href="#DejaVuSans-66"/>
      <use x="715.505859" xlink:href="#DejaVuSans-69"/>
      <use x="743.289062" xlink:href="#DejaVuSans-6e"/>
      <use x="806.667969" xlink:href="#DejaVuSans-69"/>
      <use x="834.451172" xlink:href="#DejaVuSans-74"/>
      <use x="873.660156" xlink:href="#DejaVuSans-65"/>
     </g>
    </g>
   </g>
  </g>
 </g>
 <defs>
  <clipPath id="p6f639a94b4">
   <rect height="364.6" width="655.63" x="51.05" y="25.44"/>
  </clipPath>
 </defs>
</svg>
